<svg width="202" height="148" viewBox="0 0 202 148" fill="none" xmlns="http://www.w3.org/2000/svg">
<g clip-path="url(#clip0_270_149)">
<path d="M85.4714 49.1727C85.4714 49.1727 84.1581 60.1819 83.6552 61.09C83.1475 62.0029 83.1475 62.0029 83.1475 62.0029L80.6234 63.7215C80.6234 63.7215 85.4714 70.5906 91.4324 71.6988C97.3935 72.812 96.8858 69.2724 96.8858 69.2724L95.9777 67.3538L97.1885 56.8474C97.1885 56.8523 86.3794 51.9018 85.4714 49.1727Z" fill="#FF9D8C"/>
<path d="M77.4891 64.6295L81.4289 62.911C81.4289 62.911 83.953 67.0511 89.8116 69.4775C95.6701 71.9039 95.7726 70.4881 96.0753 69.4775C96.378 68.4669 95.9728 67.3586 95.9728 67.3586L96.4073 63.824L98.7507 64.6051L106.884 130.392L85.9742 131.402L77.4891 64.6295Z" fill="white"/>
<path d="M96.7833 63.8875C96.7833 63.8875 98.1991 67.1536 99.5124 74.8283C100.826 82.503 102.036 95.4357 102.339 104.321C102.642 113.207 102.842 133.511 102.842 133.511C102.842 133.511 128.903 133.511 129.205 133.511C129.508 133.511 131.329 123.518 131.329 123.518C131.329 123.518 119.812 113.651 119.207 112.035C118.802 110.956 119.007 90.993 117.288 81.8C115.57 72.6069 113.348 70.7566 108.701 68.4669C103.901 66.0991 96.7833 63.8875 96.7833 63.8875Z" fill="#704ABA"/>
<path d="M110.522 121.946C110.385 121.946 110.277 121.838 110.277 121.702C110.277 120.979 110.15 110.717 110.024 100.796C109.901 90.871 109.77 80.6088 109.77 79.8862C109.77 79.7495 109.877 79.6421 110.014 79.6421C110.15 79.6421 110.258 79.7495 110.258 79.8862C110.258 80.6088 110.385 90.871 110.512 100.791C110.634 110.717 110.766 120.979 110.766 121.702C110.766 121.833 110.658 121.946 110.522 121.946Z" fill="#8593B6"/>
<path d="M57.9948 119.475L57.7946 133.516H88.5032C88.5032 133.516 89.8165 121.599 89.3136 120.486C88.8059 119.378 57.9948 119.475 57.9948 119.475Z" fill="#452E7F"/>
<path d="M92.1696 60.7922C93.4195 61.8028 95.1331 62.6084 96.4659 63.1015L97.1885 56.8524C97.1885 56.8524 89.0695 53.1322 86.316 50.3689C86.8921 53.5081 88.3079 57.6726 92.1696 60.7922Z" fill="#8E9BBB"/>
<path d="M106.684 28.6679C106.684 28.6679 108.803 32.3051 109.208 36.7478C109.613 41.1905 109.208 52.6049 105.571 57.4529C101.934 62.3008 94.3568 60.885 90.9247 57.9557C87.7708 55.2657 84.6609 52.2974 83.8553 46.4388C83.0449 40.5803 85.5739 29.4686 92.7457 27.1447C99.9175 24.8305 106.684 28.6679 106.684 28.6679Z" fill="#FF9D8C"/>
<path d="M115.794 127.17C115.794 127.17 115.438 127.17 114.896 127.155C114.769 127.15 114.627 127.155 114.481 127.15C113.959 127.135 113.324 127.121 112.684 127.101C112.543 127.096 112.396 127.091 112.255 127.087C111.62 127.072 111.078 127.15 110.57 127.121H110.556C110.448 127.116 110.292 127.131 110.165 127.135C110.102 127.14 110.043 127.145 110.004 127.14C109.711 127.087 109.652 127.018 109.335 126.877C108.925 126.691 103.374 125.451 98.8581 125.48C94.347 125.5 90.2998 125.807 89.6407 125.256C88.9767 124.694 88.5764 119.026 92.4284 118.655L97.164 120.452C97.164 120.452 107.978 119.168 111.942 122.092C115.916 125.017 115.794 127.17 115.794 127.17Z" fill="#FF9D8C"/>
<path d="M110.556 127.121C110.448 127.116 110.292 127.13 110.165 127.135C110.067 126.979 109.862 126.696 109.75 126.579C108.53 125.334 105.581 124.528 104.512 124.27C104.414 124.245 104.351 124.148 104.375 124.05C104.394 123.952 104.497 123.894 104.6 123.913C106.157 124.289 109.462 125.251 110.399 126.828C110.429 126.872 110.507 127.023 110.556 127.121Z" fill="#223A7A"/>
<path d="M112.684 127.096C112.543 127.092 112.396 127.092 112.255 127.082C110.922 124.65 108.74 123.952 106.049 123.088L105.888 123.034C105.796 123.005 105.742 122.898 105.771 122.8C105.8 122.707 105.903 122.654 106.006 122.683L106.162 122.737C109.008 123.654 111.303 124.387 112.684 127.096Z" fill="#223A7A"/>
<path d="M114.896 127.155C114.769 127.15 114.627 127.155 114.481 127.15C113.671 125.451 110.995 122.605 107.46 121.946C107.358 121.926 107.294 121.833 107.309 121.731C107.329 121.633 107.426 121.57 107.524 121.584C111.166 122.268 114.11 125.241 114.896 127.155Z" fill="#223A7A"/>
<path d="M86.2769 41.4492C86.2769 41.4492 88.4983 40.3898 90.0654 37.4068C91.6326 34.4287 91.4276 31.7485 91.4276 31.7485C91.4276 31.7485 94.2543 31.2944 98.4969 32.5589C102.739 33.8234 107.788 35.537 112.03 33.1155C116.273 30.689 116.273 26.8029 114.203 25.1869C111.884 23.3756 107.285 24.479 107.285 24.479C107.285 24.479 109.052 22.7605 108.095 21.7499C107.133 20.7393 103.652 22.0526 103.652 22.0526C103.652 22.0526 99.4098 18.6693 91.3787 19.0745C83.3476 19.4797 79.5103 25.0844 79.0563 31.3481C78.6022 37.6119 80.8724 43.8757 80.8724 43.8757L86.2769 41.4492Z" fill="#223A7A"/>
<path d="M102.569 42.9675C102.114 44.0904 102.124 45.3939 102.012 46.5803C101.924 47.5079 101.753 48.5868 102.603 49.2118C103.008 49.5096 104.927 50.3151 103.94 50.9693C103.564 51.2183 102.935 51.15 102.505 51.1304C102.212 51.1158 101.914 51.106 101.617 51.0816C101.299 51.0572 100.992 50.9644 100.674 50.9596C100.489 50.9596 100.43 51.2037 100.582 51.3013C101.089 51.6186 101.841 51.7212 102.432 51.7407C103.027 51.7651 103.428 51.7358 103.965 51.4722C104.292 51.3111 104.614 51.0767 104.663 50.6862C104.722 50.2468 104.39 49.8513 104.058 49.6023C103.677 49.3192 103.208 49.1873 102.822 48.9091C102.285 48.5283 102.329 47.8789 102.368 47.2833C102.461 45.848 102.788 44.437 102.915 43.0066C102.944 42.7966 102.642 42.7966 102.569 42.9675Z" fill="#8E9BBB"/>
<path d="M106.699 46.3264C106.547 47.1759 105.927 47.7813 105.317 47.6739C104.702 47.5665 104.331 46.7854 104.477 45.9359C104.629 45.0864 105.249 44.481 105.859 44.5884C106.474 44.6958 106.85 45.4721 106.699 46.3264Z" fill="#223A7A"/>
<path d="M98.9704 45.6478C98.8337 46.5657 98.1844 47.2296 97.5253 47.132C96.8613 47.0343 96.4366 46.2093 96.5733 45.2914C96.71 44.3736 97.3593 43.7096 98.0184 43.8073C98.6824 43.9049 99.1071 44.73 98.9704 45.6478Z" fill="#223A7A"/>
<path d="M104.902 42.8162C105.376 42.8943 105.849 42.8162 106.328 42.8504C106.44 42.8602 106.557 42.8748 106.67 42.8846C106.753 42.8943 106.518 42.8602 106.631 42.8797C106.655 42.8846 106.679 42.8895 106.704 42.8895C106.762 42.8992 106.821 42.9139 106.879 42.9285C106.982 42.9529 107.08 42.992 107.182 43.0115C107.275 43.031 107.377 43.0555 107.47 43.0506C107.524 43.0457 107.573 43.0359 107.626 43.031C107.592 43.0359 107.563 43.0408 107.529 43.0506C107.529 43.0603 107.705 43.031 107.724 43.031C107.993 42.9676 108.163 42.6551 108.085 42.3915C108.066 42.3134 108.032 42.2499 107.983 42.1864C107.963 42.162 107.944 42.1327 107.919 42.1083C107.939 42.1279 107.958 42.1523 107.978 42.1718C107.958 42.1425 107.939 42.1181 107.915 42.0888C107.89 42.0449 107.851 42.0058 107.807 41.9814C107.768 41.9521 107.734 41.9228 107.695 41.8935C107.568 41.8056 107.407 41.7568 107.255 41.7178C106.972 41.6445 106.679 41.6104 106.386 41.6055C106.098 41.6055 105.81 41.6348 105.527 41.6738C105.273 41.708 104.995 41.7959 104.79 41.9472C104.634 42.0644 104.536 42.2157 104.56 42.4208C104.58 42.5868 104.717 42.7821 104.902 42.8162Z" fill="#223A7A"/>
<path d="M99.5124 41.4639C99.4489 41.4249 99.3805 41.3907 99.3171 41.3614C99.2585 41.337 99.1023 41.254 99.2194 41.3175C99.1755 41.2931 99.1316 41.2686 99.0876 41.2491C98.8923 41.1515 98.6873 41.0831 98.4774 41.0294C98.0184 40.9122 97.5302 40.883 97.0567 40.9318C96.5538 40.9855 96.09 41.1075 95.6555 41.3712C95.592 41.4102 95.5286 41.4444 95.4797 41.4981C95.4456 41.542 95.4114 41.586 95.3772 41.6299C95.387 41.6153 95.3967 41.6006 95.4065 41.586C95.2698 41.6787 95.1917 41.835 95.1966 41.9961C95.1966 42.1523 95.2796 42.2841 95.4163 42.3574C95.5823 42.4501 95.7385 42.4062 95.9094 42.3622C95.8264 42.3622 95.7385 42.3622 95.6555 42.3622C95.7971 42.3818 95.8947 42.3915 96.0363 42.3574C96.0412 42.3574 96.173 42.3232 96.0851 42.3427C96.0021 42.3622 96.2218 42.3281 96.2462 42.3232C96.2755 42.3183 96.4269 42.3037 96.2657 42.3183C96.295 42.3134 96.3243 42.3134 96.3536 42.3085C96.4317 42.2988 96.505 42.289 96.5831 42.2841C96.9151 42.2597 97.2471 42.2451 97.5839 42.2304C97.8915 42.2207 98.2088 42.2158 98.5213 42.2304C98.6531 42.2353 98.7849 42.2402 98.9167 42.2451C98.99 42.2451 98.9607 42.2597 98.907 42.2451C98.9363 42.2548 98.9607 42.2597 98.99 42.2646C99.0437 42.2792 99.0974 42.2988 99.1511 42.3183C99.3659 42.4013 99.6247 42.2451 99.7028 42.0449C99.7906 41.835 99.7174 41.586 99.5124 41.4639Z" fill="#223A7A"/>
<path d="M101.909 55.5049C102.373 54.5724 103.218 53.8889 104.189 53.4495C103.345 53.3616 99.3464 52.9955 98.3407 53.5667C97.2129 54.2062 98.5506 56.784 100.884 56.9109C101.128 56.9256 101.353 56.906 101.568 56.8719C101.587 56.4032 101.695 55.9394 101.909 55.5049Z" fill="#223A7A"/>
<path d="M83.4501 50.0858C83.4501 50.0858 83.8554 51.6529 86.1792 53.4691C88.5031 55.2852 91.8718 56.618 91.8718 56.618L92.1403 55.4414C92.1403 55.4414 88.6545 53.928 87.0385 52.2583C85.4225 50.5935 85.2223 49.6805 85.2223 49.6805L83.4501 50.0858Z" fill="#DEE1EB"/>
<path d="M92.5407 54.5675C94.4105 54.4796 95.4553 55.9589 95.5823 56.9158C95.7141 57.8727 94.8158 58.9467 92.7116 58.0045C90.1045 56.8279 90.6708 54.6505 92.5407 54.5675Z" fill="#223A7A"/>
<path d="M84.9148 38.52C84.9148 38.52 85.7204 32.7151 89.6114 28.7704C97.0371 21.247 103.35 21.7011 103.35 21.7011C103.35 21.7011 103.301 20.6416 100.923 19.8312C98.6922 19.0745 97.6913 19.4797 97.6913 19.4797C97.6913 19.4797 91.5789 19.9826 86.4283 25.6898C81.2776 31.397 80.7211 38.6713 80.7211 38.6713L84.9148 38.52Z" fill="#DEE1EB"/>
<path d="M84.3582 37.812C79.4956 36.987 76.7812 40.7901 76.581 44.6324C76.3808 48.4697 79.1685 51.3892 82.8936 51.0963C91.2811 50.4372 90.3193 38.8226 84.3582 37.812Z" fill="white"/>
<path d="M81.9367 47.3614C80.6527 47.3614 79.5688 46.717 78.9488 45.5794C78.2848 44.3638 78.3385 42.865 79.0904 41.7616C79.149 41.6786 79.2613 41.6591 79.3443 41.7128C79.4273 41.7714 79.4517 41.8837 79.3931 41.9667C78.7193 42.9577 78.6705 44.3052 79.271 45.4037C79.8374 46.4436 80.8431 47.0343 82.0343 46.9953C83.1474 46.966 84.0897 46.4582 84.6853 45.5648C85.3688 44.5444 85.525 43.1384 85.0856 41.9764C84.6462 40.8243 83.4501 40.0431 82.3614 40.1847C82.2638 40.1993 82.171 40.1261 82.1564 40.0285C82.1417 39.9259 82.215 39.8381 82.3126 39.8234C83.5868 39.6525 84.9245 40.5264 85.4274 41.8495C85.9107 43.1189 85.735 44.6567 84.988 45.7698C84.3191 46.7658 83.2744 47.3321 82.0441 47.3614C82.005 47.3614 81.9708 47.3614 81.9367 47.3614Z" fill="#818FB3"/>
<path d="M78.402 63.2137C78.402 63.2137 63.6531 66.8509 58.5025 72.7095C53.3519 78.568 50.9255 107.456 50.8229 112.811C50.7204 118.167 54.4601 120.388 56.6815 121.902C58.9028 123.415 68.7013 126.144 76.581 126.55C84.4608 126.955 91.9353 126.55 91.9353 126.55C91.9353 126.55 91.9109 124.831 93.1216 122.307C94.2445 119.964 95.6701 119.48 95.6701 119.48L88.9035 117.054C88.9035 117.054 87.7171 95.8214 85.8717 85.5397C83.7528 73.7201 78.402 63.2137 78.402 63.2137Z" fill="#704ABA"/>
<path d="M102.847 113.661C102.813 113.661 102.778 113.656 102.749 113.641C102.627 113.588 102.569 113.441 102.627 113.319C104.009 110.199 105.439 104.082 106.245 99.7858L106.313 99.4392C106.557 98.1747 106.86 96.6075 106.255 95.5188C105.947 94.9671 105.249 93.7661 104.575 92.6139C103.877 91.4178 103.223 90.2852 103.037 89.9483C102.681 89.2892 103.804 87.5268 105.425 85.1101C105.864 84.4559 106.24 83.8945 106.46 83.5137C107.036 82.5128 106.655 81.5999 106.206 80.5356L106.054 80.1694C105.649 79.1783 105.19 78.1873 104.746 77.2255C104.565 76.8349 104.385 76.4395 104.204 76.044C103.965 75.5216 103.73 74.9895 103.486 74.4524C102.061 71.2693 100.582 67.9788 98.6921 64.8005C98.6238 64.6833 98.6629 64.5369 98.7751 64.4636C98.8923 64.3953 99.0388 64.4343 99.112 64.5466C101.016 67.7493 102.5 71.0545 103.931 74.2474C104.17 74.7844 104.409 75.3166 104.643 75.8341C104.824 76.2295 105.005 76.6201 105.185 77.0107C105.63 77.9773 106.093 78.9733 106.499 79.9741L106.65 80.3354C107.104 81.4144 107.573 82.5372 106.875 83.7431C106.645 84.1386 106.264 84.7098 105.82 85.3689C104.975 86.6285 103.218 89.2502 103.457 89.7042C103.638 90.0362 104.292 91.164 104.985 92.3552C105.659 93.5123 106.357 94.7133 106.67 95.2698C107.363 96.5099 107.041 98.1796 106.782 99.5173L106.713 99.8639C106.421 101.426 104.863 109.433 103.062 113.505C103.027 113.607 102.94 113.661 102.847 113.661Z" fill="#8593B6"/>
<path d="M88.4494 114.52C88.386 114.52 88.3225 114.496 88.2786 114.447C87.1313 113.29 81.5949 103.706 81.1848 101.905C80.9603 100.918 81.5266 98.4138 82.0734 95.9923C82.4981 94.1175 82.9375 92.1793 82.8106 91.652C82.6251 90.866 81.2093 89.709 79.8374 88.591C78.1823 87.2386 76.4736 85.8423 76.1416 84.5827C75.7657 83.1523 76.0879 74.1985 76.2978 68.2764C76.3759 66.1478 76.4345 64.4635 76.4345 63.863C76.4345 63.7263 76.5419 63.6189 76.6786 63.6189C76.8153 63.6189 76.9227 63.7263 76.9227 63.863C76.9227 64.4733 76.8642 66.1576 76.786 68.2911C76.5859 73.8274 76.2539 83.0937 76.6103 84.4558C76.9032 85.5592 78.6217 86.9652 80.1401 88.2053C81.6389 89.4307 83.0498 90.5829 83.2744 91.53C83.4257 92.1647 83.0156 93.9857 82.5372 96.0899C82.0246 98.3454 81.4485 100.904 81.6486 101.782C82.0539 103.55 87.4877 112.953 88.6154 114.09C88.7082 114.188 88.7082 114.339 88.6154 114.437C88.5764 114.496 88.5129 114.52 88.4494 114.52Z" fill="#8593B6"/>
<path d="M68.6036 110.326C68.5938 110.326 68.5792 110.326 68.5694 110.326C68.4376 110.307 68.3448 110.185 68.3595 110.048C68.5401 108.779 71.3425 83.4892 71.4694 81.551C71.4792 81.4143 71.5963 81.3118 71.7282 81.3216C71.8649 81.3313 71.9625 81.4485 71.9576 81.5803C71.8307 83.5185 69.0235 108.842 68.8428 110.111C68.8282 110.238 68.7208 110.326 68.6036 110.326Z" fill="#8593B6"/>
<path d="M88.7033 117.195C88.674 117.195 88.6398 117.19 88.6106 117.176C87.9905 116.922 85.2468 115.999 81.7756 114.828C74.7649 112.465 65.1666 109.228 63.3407 108.276C63.2186 108.212 63.1747 108.066 63.2382 107.949C63.3016 107.827 63.4481 107.783 63.5653 107.846C65.357 108.779 75.3312 112.142 81.9318 114.369C85.4128 115.545 88.1614 116.468 88.7961 116.727C88.923 116.775 88.9816 116.922 88.9328 117.044C88.8888 117.137 88.801 117.195 88.7033 117.195Z" fill="#8593B6"/>
<path d="M85.3347 127.267C79.1637 127.267 67.2073 126.154 58.1217 122.942C57.9948 122.898 57.9264 122.756 57.9752 122.629C58.0192 122.502 58.1608 122.434 58.2877 122.483C69.7656 126.545 85.8229 127.238 88.8107 126.564C88.9426 126.535 89.0744 126.618 89.1037 126.75C89.133 126.882 89.05 127.013 88.9181 127.043C88.2639 127.184 87.0092 127.267 85.3347 127.267Z" fill="#8593B6"/>
<path d="M194.006 91.701L174.697 129.948L118.401 130.353L135.772 91.1591L194.006 91.701Z" fill="#624CC1"/>
<path d="M81.0384 130.114L81.0481 127.052H117.493L134.258 90.2852H192.541L194.006 91.701H137.071L119.646 130.084C119.646 130.084 81.0384 130.016 81.0384 130.114Z" fill="#4424A8"/>
<path d="M164.772 112.806C164.137 114.715 160.685 116.19 157.063 116.097C153.44 116.004 151.019 114.388 151.658 112.479C152.293 110.57 155.745 109.096 159.367 109.189C162.99 109.277 165.406 110.897 164.772 112.806Z" fill="#D9DEE8"/>
<path d="M119.646 130.328C119.612 130.328 119.578 130.323 119.544 130.309C119.422 130.255 119.368 130.109 119.422 129.987L136.909 91.4618H193.757C193.894 91.4618 194.001 91.5692 194.001 91.7059C194.001 91.8426 193.894 91.95 193.757 91.95H137.222L119.861 130.192C119.827 130.275 119.739 130.328 119.646 130.328Z" fill="#624CC1"/>
<path d="M78.4997 133.014H11.5316V147.86H78.4997V133.014Z" fill="#4424A8"/>
<path d="M198.61 133.014H78.1189V147.86H198.61V133.014Z" fill="#734CD3"/>
<path d="M78.4997 133.014H78.1189H11.5316V135.738H78.1189H78.4997H198.61V133.014H78.4997Z" fill="#BDC4D7"/>
<path d="M81.4289 130.084H8.29962V133.721H81.4289V130.084Z" fill="#6F7FA9"/>
<path d="M201.539 130.084H81.0482V133.721H201.539V130.084Z" fill="#9CA6C3"/>
</g>
<g clip-path="url(#clip1_270_149)">
<path d="M180.106 83.0644H158.322C156.975 83.0644 155.881 81.9708 155.881 80.6234V69.746C155.881 68.3985 156.975 67.3049 158.322 67.3049H180.106C181.454 67.3049 182.548 68.3985 182.548 69.746V80.6234C182.548 81.9708 181.454 83.0644 180.106 83.0644Z" fill="#704ABA"/>
<path d="M169.131 72.48H175.366V73.3929L178.422 71.6305L175.366 69.868V70.7761H169.131V72.48Z" fill="#492F89"/>
<path d="M178.422 76.0635H172.188V75.1505L169.131 76.913L172.188 78.6754V77.7673H178.422V76.0635Z" fill="#492F89"/>
<path d="M165.304 77.6697L165.006 77.7771C165.006 77.7771 164.078 76.7225 163.6 75.5703C163.122 74.4182 163.102 73.017 163.102 73.017L163.317 72.9242L161.999 69.7704C161.764 69.9559 161.54 70.1902 161.359 70.4978C160.612 71.7574 160.685 73.6956 161.437 75.585C162.189 77.4744 162.99 79.1636 164.454 80.223C165.318 80.8479 166.061 80.9602 166.632 80.8675L165.304 77.6697Z" fill="#492F89"/>
<path d="M166.251 77.2986L165.841 77.4499L167.188 80.6819C167.34 80.633 167.476 80.5696 167.598 80.5061C167.945 80.3157 168.101 79.8958 167.955 79.5248L167.252 77.7477C167.091 77.3523 166.646 77.1521 166.251 77.2986Z" fill="#492F89"/>
<path d="M163.034 69.2138C162.868 69.2724 162.687 69.3554 162.506 69.4628L163.854 72.685L164.308 72.4946C164.703 72.3286 164.889 71.8843 164.737 71.484L164.03 69.6678C163.873 69.2773 163.429 69.0722 163.034 69.2138Z" fill="#492F89"/>
<path d="M8.49485 67.8518C10.4086 69.5361 12.8351 70.6151 14.5145 72.563C15.1736 73.3295 15.7692 74.1448 16.3844 74.9504C16.8335 75.5363 18.0248 76.5078 18.2152 77.2401C18.2982 77.5623 18.2835 77.1229 18.1956 76.8007C18.1907 76.7861 18.1859 76.7763 18.181 76.7617C18.015 75.2726 17.8929 73.7787 17.8392 72.2799C17.7855 70.7859 17.8783 69.2871 17.7855 67.7981C17.6537 65.6939 16.9946 63.658 15.2761 62.3399C14.4364 61.6954 13.3574 61.3049 12.5812 60.5872C11.8489 59.9086 12.1418 59.1323 12.5714 58.3756C12.9766 57.6677 13.4649 56.9695 13.6211 56.1542C13.8017 55.2266 13.4502 54.2697 12.9815 53.4837C11.9807 51.8042 9.7642 49.9295 7.66001 50.1834C5.90732 50.3933 5.70716 52.4145 5.73645 53.8206C5.76086 55.1876 5.89756 56.5546 5.90733 57.9215C5.92197 59.3276 5.68275 60.7092 5.66322 62.1104C5.64369 64.4929 6.74705 66.309 8.49485 67.8518Z" fill="#704ABA"/>
<path d="M26.2902 89.714C26.8224 88.4397 27.4375 87.2534 28.1894 86.0963C29.2195 84.5096 30.3668 82.962 31.0601 81.1849C31.768 79.3687 31.6654 77.4306 31.7338 75.5216C31.7826 74.1156 32.2025 72.7193 32.0902 71.3084C32.0365 70.6346 31.6459 69.541 30.772 69.6533C30.0934 69.7412 29.6882 70.5809 29.4294 71.1228C28.9754 72.0602 28.658 73.061 28.3212 74.0472C28.1894 74.4329 28.0624 74.8235 27.8964 75.1945C27.7988 75.4094 27.4912 75.9366 27.1983 75.8683C26.7003 75.7462 27.1544 73.7201 27.2276 73.3589C27.5986 71.5574 28.1552 69.8828 28.2333 68.0276C28.3456 65.3375 28.1357 62.1397 25.5042 60.6653C24.8158 60.2797 23.9468 60.0502 23.2926 60.6263C22.6482 61.1926 22.4675 62.1739 22.3699 62.9843C22.0769 65.4693 22.6628 67.8176 23.4586 70.1562C24.1177 72.0846 24.8988 74.0765 24.9574 76.1417C25.0111 78.1287 23.981 79.8863 23.4928 81.7659C22.7214 84.7537 22.8776 86.3404 22.8776 87.3071C22.8727 88.5179 22.9167 89.7189 23.0045 90.9296C23.0875 92.0427 23.1803 93.151 23.317 94.2592C23.3463 94.4838 23.3707 94.7182 23.4 94.9525C22.9704 93.9224 22.8239 92.7458 22.4675 91.7108C21.8377 89.8751 21.1103 88.0736 20.5049 86.2281C20.0069 84.7049 19.5334 83.167 18.8792 81.6975C18.264 80.3208 17.517 78.8659 16.3649 77.8553C15.6667 77.245 14.827 76.8886 13.8945 76.8935C13.2989 76.8984 12.7619 77.1034 12.1955 77.2548C11.4974 77.4403 10.9457 77.3768 10.3696 76.9326C8.48511 75.4826 7.90902 72.8853 6.51762 71.0496C5.47773 69.6826 3.00737 67.349 1.19122 68.8429C0.229443 69.6338 -0.0390734 71.1619 0.01463 72.3385C0.0780976 73.808 0.722538 75.1555 1.48415 76.3858C2.29946 77.6942 3.34912 78.8659 4.09609 80.2085C4.54036 81.0043 4.60871 81.7659 4.53548 82.6593C4.46713 83.5039 4.3939 84.3192 4.68194 85.1345C5.54608 87.5805 8.24589 87.2387 10.3452 87.3022C11.8147 87.3461 13.3868 87.5658 14.7831 88.0345C16.3942 88.5764 17.4438 89.6261 18.0199 91.2177C18.4349 92.3698 18.6595 93.6783 19.4455 94.6596C19.8165 95.1185 20.3047 95.4602 20.8418 95.6995C21.662 96.0607 24.1567 96.217 24.1714 95.9924C24.2348 95.2308 24.5961 94.4252 24.8207 93.7027C25.2406 92.3503 25.7434 91.0273 26.2902 89.714Z" fill="#704ABA"/>
<path d="M37.8755 89.2551C37.6607 87.8588 37.6998 86.316 37.0358 85.032C36.987 84.9393 36.8649 84.9149 36.777 84.9637C36.3035 85.2273 36.2839 85.9938 36.2449 86.4625C36.1814 87.2436 36.2302 88.0248 36.1326 88.801C35.9666 90.168 35.6493 91.5741 35.1562 92.8581C34.5996 94.3129 33.589 95.138 32.1195 95.5921C31.1772 95.885 30.2496 96.1389 29.4587 96.7638C28.7508 97.3252 28.2626 98.0966 27.9013 98.9119C26.92 101.114 26.4514 103.569 25.9973 105.923C25.6897 107.504 25.4408 109.096 25.0551 110.663C24.6694 112.23 24.2593 113.788 24.0396 115.389C24.0005 115.472 23.9615 115.55 23.9273 115.633C23.8248 115.872 24.2007 115.999 24.3276 115.804C25.846 113.47 27.6914 111.371 30.2155 110.087C31.353 109.506 32.8665 109.384 33.8185 108.471C34.541 107.778 34.6387 106.718 34.5313 105.771C34.3897 104.531 33.7941 103.511 33.174 102.451C32.8323 101.87 32.432 101.25 32.5687 100.543C32.7005 99.8786 33.2522 99.3855 33.7989 99.0437C34.8486 98.3944 36.074 98.1015 36.9284 97.1641C37.7242 96.2951 38.1684 95.2064 38.2563 94.0347C38.3881 92.4724 38.1147 90.7978 37.8755 89.2551Z" fill="#704ABA"/>
<path d="M17.1948 97.3154C15.8571 95.5921 14.2411 94.103 12.425 92.8971C11.4534 92.2527 9.16858 90.9833 8.70478 92.8825C8.43627 93.9956 9.52498 95.0892 10.2427 95.7873C11.3216 96.837 12.5665 97.7402 13.4746 98.9509C12.3468 99.3122 11.1703 99.3806 10.1938 100.157C9.03677 101.08 8.51438 102.857 9.66656 103.989C10.228 104.541 10.9701 104.878 11.6634 105.215C12.5714 105.654 13.4941 106.05 14.4218 106.44C16.4283 107.28 18.4593 108.129 20.168 109.501C21.9109 110.898 23.5513 113.265 23.688 115.545C23.7027 115.765 23.6197 115.565 23.7466 115.467C23.8198 115.531 24.0542 115.418 24.0542 115.291C24.02 111.908 23.4097 108.681 22.0281 105.581C20.7441 102.7 19.1281 99.8053 17.1948 97.3154Z" fill="#704ABA"/>
<path d="M12.5714 65.7964C13.3086 67.3294 14.08 68.8282 14.9002 70.3221C15.6911 71.7623 16.4771 73.1879 17.0679 74.7258C17.7953 76.6151 18.5569 78.4752 19.3234 80.35C20.1241 82.2979 20.8369 84.2801 21.4081 86.3062C22.5261 90.2607 23.3561 94.3275 23.7662 98.4187C23.9761 100.498 24.0688 102.588 24.0103 104.678C23.9663 106.308 23.7808 107.924 23.6295 109.55C23.4683 111.239 23.3561 112.953 23.4976 114.647C23.6148 116.063 23.8394 117.752 24.9427 118.763C25.1576 118.963 25.4651 118.714 25.3382 118.46C24.0298 115.78 24.103 112.855 24.352 109.95C24.4887 108.344 24.6791 106.748 24.7377 105.137C24.806 103.086 24.7279 101.031 24.5326 98.9899C24.1518 94.9768 23.3512 91.0125 22.3162 87.1215C21.784 85.1247 21.1249 83.167 20.3682 81.2483C19.6066 79.3247 18.7278 77.45 17.9906 75.5167C16.6578 72.0162 14.6268 68.916 12.8253 65.6548C12.7326 65.479 12.4884 65.6304 12.5714 65.7964Z" fill="#43588E"/>
<path d="M23.8296 94.4105C24.0396 91.862 24.269 89.4063 25.1234 86.9799C25.5237 85.8472 26.007 84.7439 26.3976 83.6064C26.715 82.6641 27.1934 81.3752 26.9493 80.3744C26.92 80.2621 26.7589 80.267 26.7296 80.3744C26.5636 80.9456 26.5831 81.5705 26.466 82.1564C26.3488 82.7276 26.1975 83.2841 26.0217 83.8407C25.6458 85.0173 25.1527 86.1451 24.7279 87.307C23.9029 89.5479 23.4781 92.028 23.6587 94.4105C23.6636 94.5228 23.8199 94.5228 23.8296 94.4105Z" fill="#43588E"/>
<path d="M9.06607 79.7691C10.0767 82.2102 13.1182 82.3517 15.3347 82.8985C16.9165 83.2891 18.0833 84.3437 18.9231 85.7155C19.8409 87.2143 20.4609 88.9719 20.9736 90.6465C20.9784 90.666 21.0077 90.6562 21.0029 90.6367C20.3828 87.7074 19.4943 84.1825 16.4771 82.8204C14.0556 81.7268 10.8676 82.2785 9.32482 79.6617C9.24182 79.5299 9.0026 79.6178 9.06607 79.7691Z" fill="#43588E"/>
<path d="M22.2331 94.0249C22.3552 94.186 22.4626 94.3568 22.5895 94.518C22.653 94.5961 22.7116 94.6693 22.7897 94.7328C22.8678 94.7962 22.9606 94.8792 23.0729 94.8743C23.1168 94.8743 23.151 94.8206 23.1266 94.7816C23.0778 94.6986 22.985 94.6498 22.9166 94.5912C22.8434 94.5277 22.7702 94.4643 22.7018 94.3959C22.5603 94.2641 22.4333 94.1176 22.2917 93.9809C22.2576 93.9565 22.2087 93.9907 22.2331 94.0249Z" fill="#43588E"/>
<path d="M15.9059 101.773C17.6489 103.203 19.26 104.897 20.5391 106.757C21.1493 107.646 21.7157 108.583 22.2283 109.53C22.7849 110.565 23.1559 111.659 23.5904 112.748C23.6246 112.831 23.7759 112.831 23.7613 112.723C23.5172 110.424 22.0623 108.456 20.9004 106.543C20.295 105.551 19.5431 104.751 18.7327 103.921C17.8979 103.066 17.0435 102.256 16.0671 101.568C15.945 101.485 15.7937 101.68 15.9059 101.773Z" fill="#43588E"/>
<path d="M29.8005 99.0681C28.9608 99.5466 28.9315 100.87 28.9168 101.719C28.8875 103.35 29.2879 104.878 28.5751 106.43C27.9306 107.832 26.9005 109.003 26.0901 110.302C25.3333 111.522 24.5815 113.08 24.601 114.544C24.601 114.627 24.7328 114.676 24.7719 114.588C25.0795 113.924 25.1869 113.168 25.4066 112.47C25.6507 111.684 25.9973 110.971 26.4416 110.282C27.2227 109.072 28.1796 107.973 28.8143 106.674C29.4831 105.303 29.3855 103.945 29.3416 102.461C29.3123 101.514 29.2195 99.9908 29.9811 99.2878C30.0885 99.1804 29.9372 98.99 29.8005 99.0681Z" fill="#43588E"/>
<path d="M24.1812 114.696C20.7979 114.647 14.3486 114.613 14.3486 114.613L15.945 126.457C16.3063 129.122 18.5765 131.109 21.2665 131.109H24.0445H24.313H27.0909C29.781 131.109 32.056 129.122 32.4124 126.457L34.0089 114.613C34.0138 114.613 27.5645 114.652 24.1812 114.696Z" fill="#492F89"/>
<path d="M55.3682 53.4055H31.7289C30.2643 53.4055 29.0779 52.2192 29.0779 50.7546V38.9545C29.0779 37.4898 30.2643 36.3035 31.7289 36.3035H55.3682C56.8328 36.3035 58.0192 37.4898 58.0192 38.9545V50.7546C58.0192 52.2241 56.8328 53.4055 55.3682 53.4055Z" fill="#704ABA"/>
<path d="M37.939 46.4925C38.8422 46.4925 39.5745 45.7602 39.5745 44.8569C39.5745 43.9537 38.8422 43.2214 37.939 43.2214C37.0357 43.2214 36.3035 43.9537 36.3035 44.8569C36.3035 45.7602 37.0357 46.4925 37.939 46.4925Z" fill="#223A7A"/>
<path d="M43.5485 46.4925C44.4518 46.4925 45.184 45.7602 45.184 44.8569C45.184 43.9537 44.4518 43.2214 43.5485 43.2214C42.6453 43.2214 41.913 43.9537 41.913 44.8569C41.913 45.7602 42.6453 46.4925 43.5485 46.4925Z" fill="#223A7A"/>
<path d="M49.1581 46.4925C50.0614 46.4925 50.7936 45.7602 50.7936 44.8569C50.7936 43.9537 50.0614 43.2214 49.1581 43.2214C48.2548 43.2214 47.5226 43.9537 47.5226 44.8569C47.5226 45.7602 48.2548 46.4925 49.1581 46.4925Z" fill="#223A7A"/>
<path d="M175.727 0H121.15C117.644 0 114.803 2.8414 114.803 6.34676V32.2367C114.803 35.742 117.644 38.5834 121.15 38.5834H126.042C126.178 40.9317 125.842 44.4224 123.884 48.8847C130.192 45.975 133.819 41.6103 135.718 38.5834H175.732C179.237 38.5834 182.079 35.742 182.079 32.2367V6.34676C182.074 2.8414 179.232 0 175.727 0Z" fill="#704ABA"/>
<path d="M152.444 12.342H125.373C124.631 12.342 124.025 11.7366 124.025 10.9946C124.025 10.2525 124.631 9.64709 125.373 9.64709H152.444C153.186 9.64709 153.792 10.2525 153.792 10.9946C153.792 11.7366 153.191 12.342 152.444 12.342Z" fill="white"/>
<path d="M171.856 20.1876H124.851C124.396 20.1876 124.025 19.8166 124.025 19.3626C124.025 18.9085 124.396 18.5375 124.851 18.5375H171.856C172.31 18.5375 172.681 18.9085 172.681 19.3626C172.681 19.8166 172.31 20.1876 171.856 20.1876Z" fill="#D2E6FF"/>
<path d="M171.856 24.7621H124.851C124.396 24.7621 124.025 24.3911 124.025 23.937C124.025 23.483 124.396 23.1119 124.851 23.1119H171.856C172.31 23.1119 172.681 23.483 172.681 23.937C172.681 24.3959 172.31 24.7621 171.856 24.7621Z" fill="#D2E6FF"/>
<path d="M161.603 29.6443H124.855C124.401 29.6443 124.03 29.2733 124.03 28.8192C124.03 28.3652 124.401 27.9941 124.855 27.9941H161.603C162.057 27.9941 162.428 28.3652 162.428 28.8192C162.428 29.2781 162.057 29.6443 161.603 29.6443Z" fill="#D2E6FF"/>
<path d="M171.485 12.342H158.571C157.829 12.342 157.224 11.7366 157.224 10.9946C157.224 10.2525 157.829 9.64709 158.571 9.64709H171.485C172.227 9.64709 172.832 10.2525 172.832 10.9946C172.832 11.7366 172.232 12.342 171.485 12.342Z" fill="white"/>
</g>
<defs>
<clipPath id="clip0_270_149">
<rect width="193.239" height="128.82" fill="white" transform="translate(8.29962 19.0403)"/>
</clipPath>
<clipPath id="clip1_270_149">
<rect width="182.547" height="131.109" fill="white"/>
</clipPath>
</defs>
</svg>
