<svg width="279" height="314" viewBox="0 0 279 314" fill="none" xmlns="http://www.w3.org/2000/svg">
<g clip-path="url(#clip0_131_2875)">
<g opacity="0.3">
<path d="M278.919 127.968C280.159 94.3824 268.103 60.3917 241.528 44.2154C228.411 36.2285 213.074 31.5499 197.729 32.2392C181.274 32.977 165.767 39.6827 150.243 45.1965C134.72 50.7102 117.908 55.1456 101.907 51.2211C90.329 48.3831 80.1448 41.3693 68.6562 38.1665C23.5443 25.6146 -15.7584 76.8681 6.32763 117.589C11.7479 127.578 20.1091 135.59 27.1254 144.541C34.1336 153.485 40.04 164.285 39.1002 175.613C38.3224 184.994 32.9751 193.346 30.7632 202.492C26.534 220.007 34.9195 239.289 49.4302 249.959C63.9409 260.63 83.5153 263.152 100.983 258.765C118.451 254.378 133.869 243.619 146.006 230.296C152.504 223.169 158.831 214.825 168.165 212.409C177.109 210.09 186.346 213.861 195.428 215.596C212.159 218.799 230.153 214.696 243.854 204.568C265.81 188.343 277.793 158.318 278.919 127.968Z" fill="#634D95"/>
</g>
<path d="M134.55 314C195.051 314 244.097 304.184 244.097 292.075C244.097 279.966 195.051 270.149 134.55 270.149C74.0485 270.149 25.0027 279.966 25.0027 292.075C25.0027 304.184 74.0485 314 134.55 314Z" fill="#C6FF00"/>
<path d="M134.55 314C195.051 314 244.097 304.184 244.097 292.075C244.097 279.966 195.051 270.149 134.55 270.149C74.0485 270.149 25.0027 279.966 25.0027 292.075C25.0027 304.184 74.0485 314 134.55 314Z" fill="#634D95"/>
<path d="M250.837 97.3258H171.859C169.161 97.3258 166.974 95.1365 166.974 92.4364V5.2948C166.974 2.59468 169.161 0.405396 171.859 0.405396H250.837C253.535 0.405396 255.723 2.59468 255.723 5.2948V92.4283C255.731 95.1365 253.535 97.3258 250.837 97.3258Z" fill="white" stroke="#263238" stroke-miterlimit="10" stroke-linecap="round" stroke-linejoin="round"/>
<path d="M255.731 10.3707H166.974V5.2948C166.974 2.59468 169.161 0.405396 171.859 0.405396H250.837C253.535 0.405396 255.723 2.59468 255.723 5.2948V10.3707H255.731Z" fill="#263238" stroke="#263238" stroke-miterlimit="10" stroke-linecap="round" stroke-linejoin="round"/>
<path d="M171.811 52.1536H207.524" stroke="#263238" stroke-miterlimit="10" stroke-linecap="round" stroke-linejoin="round"/>
<path d="M171.811 56.7673H207.524" stroke="#263238" stroke-miterlimit="10" stroke-linecap="round" stroke-linejoin="round"/>
<path d="M171.811 61.381H207.524" stroke="#263238" stroke-miterlimit="10" stroke-linecap="round" stroke-linejoin="round"/>
<path d="M171.811 65.9947H207.524" stroke="#263238" stroke-miterlimit="10" stroke-linecap="round" stroke-linejoin="round"/>
<path d="M171.811 70.6165H207.524" stroke="#263238" stroke-miterlimit="10" stroke-linecap="round" stroke-linejoin="round"/>
<path d="M171.811 75.2302H207.524" stroke="#263238" stroke-miterlimit="10" stroke-linecap="round" stroke-linejoin="round"/>
<path d="M171.811 79.8439H207.524" stroke="#263238" stroke-miterlimit="10" stroke-linecap="round" stroke-linejoin="round"/>
<path d="M171.811 84.4576H207.524" stroke="#263238" stroke-miterlimit="10" stroke-linecap="round" stroke-linejoin="round"/>
<path d="M171.811 89.0795H207.524" stroke="#263238" stroke-miterlimit="10" stroke-linecap="round" stroke-linejoin="round"/>
<path d="M213.803 52.1536H249.517" stroke="#263238" stroke-miterlimit="10" stroke-linecap="round" stroke-linejoin="round"/>
<path d="M213.803 56.7673H249.517" stroke="#263238" stroke-miterlimit="10" stroke-linecap="round" stroke-linejoin="round"/>
<path d="M213.803 61.381H249.517" stroke="#263238" stroke-miterlimit="10" stroke-linecap="round" stroke-linejoin="round"/>
<path d="M213.803 65.9947H249.517" stroke="#263238" stroke-miterlimit="10" stroke-linecap="round" stroke-linejoin="round"/>
<path d="M213.803 70.6165H249.517" stroke="#263238" stroke-miterlimit="10" stroke-linecap="round" stroke-linejoin="round"/>
<path d="M213.803 75.2302H249.517" stroke="#263238" stroke-miterlimit="10" stroke-linecap="round" stroke-linejoin="round"/>
<path d="M213.803 79.8439H249.517" stroke="#263238" stroke-miterlimit="10" stroke-linecap="round" stroke-linejoin="round"/>
<path d="M213.803 84.4576H249.517" stroke="#263238" stroke-miterlimit="10" stroke-linecap="round" stroke-linejoin="round"/>
<path d="M213.803 89.0795H249.517" stroke="#263238" stroke-miterlimit="10" stroke-linecap="round" stroke-linejoin="round"/>
<path d="M249.776 13.9303H213.025V47.175H249.776V13.9303Z" fill="#634D95"/>
<path d="M249.776 27.8282C248.78 27.8768 247.572 28.0309 246.106 28.3471C240.524 29.5634 239.065 37.5827 232.754 37.5827C227.163 37.5827 226.685 30.0499 218.673 29.0769C216.25 28.785 214.411 29.2715 213.017 30.0823V47.175H249.768V27.8282H249.776Z" fill="#263238" stroke="#263238" stroke-miterlimit="10" stroke-linecap="round" stroke-linejoin="round"/>
<path d="M225.227 21.5441C225.227 23.8226 223.38 25.6713 221.103 25.6713C218.826 25.6713 216.979 23.8226 216.979 21.5441C216.979 19.2657 218.826 17.4169 221.103 17.4169C223.38 17.4169 225.227 19.2576 225.227 21.5441Z" fill="white" stroke="#263238" stroke-miterlimit="10" stroke-linecap="round" stroke-linejoin="round"/>
<path d="M251.445 3.32446H169.639V6.47865H251.445V3.32446Z" fill="white" stroke="#263238" stroke-miterlimit="10" stroke-linecap="round" stroke-linejoin="round"/>
<path d="M246.349 116.664H210.935C208.035 116.664 205.685 119.016 205.685 121.919V140.876C205.685 143.779 208.035 146.131 210.935 146.131H212.037C210.935 148.579 208.821 152.293 205.418 154.507C205.418 154.507 212.604 154.004 220.09 146.131H246.349C249.249 146.131 251.599 143.779 251.599 140.876V121.919C251.591 119.016 249.241 116.664 246.349 116.664Z" fill="#263238" stroke="#263238" stroke-miterlimit="10" stroke-linecap="round" stroke-linejoin="round"/>
<path d="M222.545 130.724C222.545 129.233 221.338 128.024 219.847 128.024C218.357 128.024 217.149 129.233 217.149 130.724C217.149 132.216 218.357 133.425 219.847 133.425C221.338 133.425 222.545 132.216 222.545 130.724Z" fill="#634D95"/>
<path d="M231.733 130.724C231.733 129.233 230.526 128.024 229.035 128.024C227.544 128.024 226.337 129.233 226.337 130.724C226.337 132.216 227.544 133.425 229.035 133.425C230.518 133.425 231.733 132.216 231.733 130.724Z" fill="#634D95"/>
<path d="M240.913 130.724C240.913 129.233 239.705 128.024 238.215 128.024C236.724 128.024 235.517 129.233 235.517 130.724C235.517 132.216 236.724 133.425 238.215 133.425C239.705 133.425 240.913 132.216 240.913 130.724Z" fill="#634D95"/>
<path d="M115.137 57.5862H46.392V17.1413C46.392 14.2465 48.7334 11.9032 51.6259 11.9032H109.895C112.788 11.9032 115.129 14.2465 115.129 17.1413V57.5862H115.137Z" fill="#634D95"/>
<path d="M115.137 51.0833H46.392V57.5862H115.137V51.0833Z" fill="#263238" stroke="#263238" stroke-miterlimit="10" stroke-linecap="round" stroke-linejoin="round"/>
<path d="M111.986 53.305H49.5355V55.3645H111.986V53.305Z" fill="white" stroke="#263238" stroke-miterlimit="10" stroke-linecap="round" stroke-linejoin="round"/>
<path d="M80.7606 42.1559C86.0048 42.1559 90.2561 37.9012 90.2561 32.6528C90.2561 27.4043 86.0048 23.1497 80.7606 23.1497C75.5164 23.1497 71.2651 27.4043 71.2651 32.6528C71.2651 37.9012 75.5164 42.1559 80.7606 42.1559Z" fill="#263238" stroke="#263238" stroke-miterlimit="10" stroke-linecap="round" stroke-linejoin="round"/>
<path d="M76.4827 26.7336L86.7236 32.6528L76.4827 38.5719V26.7336Z" fill="white" stroke="#263238" stroke-miterlimit="10" stroke-linecap="round" stroke-linejoin="round"/>
<path d="M85.403 103.691H20.1496C18.8938 103.691 17.8649 102.669 17.8649 101.404V76.5114C17.8649 75.2546 18.8857 74.2248 20.1496 74.2248H85.403C86.6588 74.2248 87.6878 75.2465 87.6878 76.5114V101.404C87.6797 102.669 86.6588 103.691 85.403 103.691Z" fill="#263238" stroke="#263238" stroke-miterlimit="10" stroke-linecap="round" stroke-linejoin="round"/>
<path d="M26.1775 78.2466L26.5178 78.8142C24.9784 79.6818 23.5444 81.1818 23.5444 82.9576C23.5444 84.4982 24.6382 85.4064 25.7238 85.4064C25.9507 85.4064 26.0965 85.2928 26.0965 85.0658C26.0965 84.8793 25.9831 84.7658 25.7562 84.7252C25.2296 84.6117 24.7759 84.1252 24.7759 83.2982C24.7759 82.2035 25.6752 81.49 26.769 81.49C27.9357 81.49 28.8026 82.4305 28.8026 83.5982C28.8026 85.0658 27.5954 86.1199 26.1289 86.1199C24.2493 86.1199 22.8557 84.9117 22.8557 82.9576C22.8719 80.8818 24.4518 79.2277 26.1775 78.2466ZM33.1371 78.2466L33.4774 78.8142C31.938 79.6818 30.504 81.1818 30.504 82.9576C30.504 84.4982 31.5978 85.4064 32.6834 85.4064C32.9103 85.4064 33.0561 85.2928 33.0561 85.0658C33.0561 84.8793 32.9427 84.7658 32.7158 84.7252C32.1892 84.6117 31.7355 84.1252 31.7355 83.2982C31.7355 82.2035 32.6348 81.49 33.7286 81.49C34.8953 81.49 35.7622 82.4305 35.7622 83.5982C35.7622 85.0658 34.555 86.1199 33.0885 86.1199C31.2089 86.1199 29.8153 84.9117 29.8153 82.9576C29.8315 80.8818 31.4114 79.2277 33.1371 78.2466Z" fill="#634D95"/>
<path d="M39.8051 84.2468H79.5291" stroke="white" stroke-miterlimit="10" stroke-linecap="round" stroke-linejoin="round"/>
<path d="M39.8051 87.6605H79.5291" stroke="white" stroke-miterlimit="10" stroke-linecap="round" stroke-linejoin="round"/>
<path d="M39.8051 91.0823H79.5291" stroke="white" stroke-miterlimit="10" stroke-linecap="round" stroke-linejoin="round"/>
<path d="M39.8051 94.4959H79.5291" stroke="white" stroke-miterlimit="10" stroke-linecap="round" stroke-linejoin="round"/>
<path d="M72.5011 149.359C80.7016 148.02 86.2642 140.28 84.9256 132.073C83.5869 123.866 75.854 118.299 67.6535 119.639C59.453 120.979 53.8904 128.718 55.229 136.925C56.5676 145.132 64.3006 150.699 72.5011 149.359Z" fill="#263238" stroke="#263238" stroke-miterlimit="10" stroke-linecap="round" stroke-linejoin="round"/>
<path d="M79.6142 142.887C84.2405 137.614 83.7199 129.586 78.4513 124.956C73.1827 120.326 65.1613 120.847 60.535 126.12C55.9086 131.393 56.4293 139.42 61.6979 144.05C66.9665 148.68 74.9879 148.159 79.6142 142.887Z" fill="white" stroke="#263238" stroke-miterlimit="10" stroke-linecap="round" stroke-linejoin="round"/>
<path d="M70.0822 125.316V134.503H76.2964" stroke="#263238" stroke-width="2" stroke-miterlimit="10" stroke-linecap="round" stroke-linejoin="round"/>
<path d="M164.187 134.535C164.187 134.535 172.815 152.966 172.815 153.939C172.815 154.912 165.159 159.08 163.701 159.956C162.25 160.831 160.209 161.699 160.209 161.699L161.084 170.237C161.084 170.237 174.266 167.229 179.791 164.221C185.317 161.212 185.122 157.815 183.858 152.771C182.594 147.728 174.071 128.227 174.071 128.227L164.187 134.535Z" fill="white"/>
<mask id="mask0_131_2875" style="mask-type:luminance" maskUnits="userSpaceOnUse" x="160" y="128" width="25" height="43">
<path d="M164.187 134.535C164.187 134.535 172.815 152.966 172.815 153.939C172.815 154.912 165.159 159.08 163.701 159.956C162.25 160.831 160.209 161.699 160.209 161.699L161.084 170.237C161.084 170.237 174.266 167.229 179.791 164.221C185.317 161.212 185.122 157.815 183.858 152.771C182.594 147.728 174.071 128.227 174.071 128.227L164.187 134.535Z" fill="white"/>
</mask>
<g mask="url(#mask0_131_2875)">
<path d="M179.791 164.221C185.317 161.212 185.122 157.815 183.858 152.771C182.594 147.728 174.071 128.227 174.071 128.227L172.694 129.103L172.256 129.938C172.256 129.938 180.204 149.455 180.682 155.958C181.006 160.328 172.216 165.777 166.399 168.891C170.709 167.74 176.559 165.98 179.791 164.221Z" fill="#9A87D8"/>
</g>
<path d="M164.187 134.535C164.187 134.535 172.815 152.966 172.815 153.939C172.815 154.912 165.159 159.08 163.701 159.956C162.25 160.831 160.209 161.699 160.209 161.699L161.084 170.237C161.084 170.237 174.266 167.229 179.791 164.221C185.317 161.212 185.122 157.815 183.858 152.771C182.594 147.728 174.071 128.227 174.071 128.227L164.187 134.535Z" stroke="#263238" stroke-miterlimit="10" stroke-linecap="round" stroke-linejoin="round"/>
<path d="M101.964 130.465C101.964 130.465 95.6602 153.55 95.4657 157.628C95.2713 161.699 107.967 169.751 108.453 170.237C108.939 170.724 107.732 156.209 107.732 156.209L112.034 135.119L101.964 130.465Z" fill="white"/>
<mask id="mask1_131_2875" style="mask-type:luminance" maskUnits="userSpaceOnUse" x="95" y="130" width="18" height="41">
<path d="M101.964 130.465C101.964 130.465 95.6602 153.55 95.4657 157.628C95.2713 161.699 107.967 169.751 108.453 170.237C108.939 170.724 107.732 156.209 107.732 156.209L112.034 135.119L101.964 130.465Z" fill="white"/>
</mask>
<g mask="url(#mask1_131_2875)">
<path d="M104.848 132.354L104.71 131.73L101.964 130.465C101.964 130.465 95.6602 153.55 95.4657 157.628C95.2713 161.699 107.967 169.751 108.453 170.237C108.648 170.432 108.575 168.259 108.413 165.575C104.637 162.372 99.2169 157.864 98.585 155.966" fill="#9A87D8"/>
</g>
<path d="M101.964 130.465C101.964 130.465 95.6602 153.55 95.4657 157.628C95.2713 161.699 107.967 169.751 108.453 170.237C108.939 170.724 107.732 156.209 107.732 156.209L112.034 135.119L101.964 130.465Z" stroke="#263238" stroke-miterlimit="10" stroke-linecap="round" stroke-linejoin="round"/>
<path d="M131.52 107.275C131.52 107.275 129.097 109.018 124.349 109.213C119.602 109.407 119.383 105.986 113.493 106.01C106.363 106.042 97.4021 128.616 97.4021 128.616C97.4021 128.616 101.858 132.979 106.225 134.827C110.584 136.668 113.784 137.057 113.784 137.057L114.465 151.896H162.542L163.125 137.057L178.146 127.262C178.146 127.262 170.782 114.07 167.193 109.124C163.603 104.177 157.6 106.018 155.753 107.283C153.905 108.548 148.485 108.832 146.443 108.548C144.402 108.264 138.69 106.415 138.69 106.415C138.69 106.415 135.595 103.788 131.52 107.275Z" fill="#634D95"/>
<path d="M114.27 112.513L114.076 137.154" stroke="#263238" stroke-width="0.5" stroke-miterlimit="10" stroke-linecap="round" stroke-linejoin="round"/>
<path d="M116.012 114.751C116.012 114.751 116.693 126.784 119.213 133.473" stroke="#263238" stroke-width="0.5" stroke-miterlimit="10" stroke-linecap="round" stroke-linejoin="round"/>
<path d="M119.699 134.438C119.699 134.438 120.963 138.03 121.732 139.19" stroke="#263238" stroke-width="0.5" stroke-miterlimit="10" stroke-linecap="round" stroke-linejoin="round"/>
<path d="M117.568 113.389C117.568 113.389 119.018 120.565 121.449 126.192" stroke="#263238" stroke-width="0.5" stroke-miterlimit="10" stroke-linecap="round" stroke-linejoin="round"/>
<path d="M159.342 115.521C159.342 115.521 157.017 125.024 154.983 129.297" stroke="#263238" stroke-width="0.5" stroke-miterlimit="10" stroke-linecap="round" stroke-linejoin="round"/>
<path d="M163.125 137.057L163.028 117.848" stroke="#263238" stroke-width="0.5" stroke-miterlimit="10" stroke-linecap="round" stroke-linejoin="round"/>
<path d="M162.056 118.237C162.056 118.237 160.314 130.36 156.044 136.765" stroke="#263238" stroke-width="0.5" stroke-miterlimit="10" stroke-linecap="round" stroke-linejoin="round"/>
<path d="M159.925 134.341C159.925 134.341 157.989 138.03 156.628 139.968" stroke="#263238" stroke-width="0.5" stroke-miterlimit="10" stroke-linecap="round" stroke-linejoin="round"/>
<path d="M128.805 108.734C128.805 108.734 130.158 117.078 132.103 121.343C134.039 125.608 137.434 126.484 140.343 125.227C143.251 123.962 145.382 117.759 145.188 109.805" stroke="#263238" stroke-width="0.5" stroke-miterlimit="10" stroke-linecap="round" stroke-linejoin="round"/>
<path d="M121.927 91.2688C121.927 91.2688 120.088 88.0659 118.629 89.72C117.179 91.3661 119.796 95.1527 121.246 96.4095C122.696 97.6744 123.766 96.896 123.669 95.5338C123.572 94.1797 121.927 91.2688 121.927 91.2688Z" fill="#C6FF00" stroke="#263238" stroke-miterlimit="10" stroke-linecap="round" stroke-linejoin="round"/>
<path d="M121.927 91.2688C121.927 91.2688 120.088 88.0659 118.629 89.72C117.179 91.3661 119.796 95.1527 121.246 96.4095C122.696 97.6744 123.766 96.896 123.669 95.5338C123.572 94.1797 121.927 91.2688 121.927 91.2688Z" fill="#9A87D8"/>
<path d="M121.927 91.2688C121.927 91.2688 120.088 88.0659 118.629 89.72C117.179 91.3661 119.796 95.1527 121.246 96.4095C122.696 97.6744 123.766 96.896 123.669 95.5338C123.572 94.1797 121.927 91.2688 121.927 91.2688Z" stroke="#263238" stroke-miterlimit="10" stroke-linecap="round" stroke-linejoin="round"/>
<path d="M151.264 91.2688C151.264 91.2688 153.103 88.0659 154.562 89.72C156.012 91.3661 153.395 95.1527 151.945 96.4095C150.494 97.6744 149.425 96.896 149.522 95.5338C149.619 94.1797 151.264 91.2688 151.264 91.2688Z" fill="#C6FF00" stroke="#263238" stroke-miterlimit="10" stroke-linecap="round" stroke-linejoin="round"/>
<path d="M151.264 91.2688C151.264 91.2688 153.103 88.0659 154.562 89.72C156.012 91.3661 153.395 95.1527 151.945 96.4095C150.494 97.6744 149.425 96.896 149.522 95.5338C149.619 94.1797 151.264 91.2688 151.264 91.2688Z" fill="#9A87D8"/>
<path d="M151.264 91.2688C151.264 91.2688 153.103 88.0659 154.562 89.72C156.012 91.3661 153.395 95.1527 151.945 96.4095C150.494 97.6744 149.425 96.896 149.522 95.5338C149.619 94.1797 151.264 91.2688 151.264 91.2688Z" stroke="#263238" stroke-miterlimit="10" stroke-linecap="round" stroke-linejoin="round"/>
<path d="M130.653 106.602C130.653 106.602 132.395 114.459 134.145 118.821C135.887 123.184 139.184 123.184 140.545 120.37C141.898 117.556 142.773 107.08 142.773 107.08C142.773 107.08 133.658 108.345 130.653 106.602Z" fill="white" stroke="#263238" stroke-miterlimit="10" stroke-linecap="round" stroke-linejoin="round"/>
<path d="M122.121 92.3391C122.121 92.3391 124.641 101.266 129.389 106.505C134.136 111.743 135.887 113.008 138.406 112.618C140.926 112.229 143.64 108.929 147.424 102.045C151.207 95.1608 151.491 89.9227 151.783 89.4362C152.074 88.9497 151.005 79.252 145.576 75.0762C140.148 70.9084 134.136 69.0597 128.903 73.6247C123.669 78.1736 120.379 85.6496 122.121 92.3391Z" fill="white"/>
<mask id="mask2_131_2875" style="mask-type:luminance" maskUnits="userSpaceOnUse" x="121" y="70" width="31" height="43">
<path d="M122.121 92.3391C122.121 92.3391 124.641 101.266 129.389 106.505C134.136 111.743 135.887 113.008 138.406 112.618C140.926 112.229 143.64 108.929 147.424 102.045C151.207 95.1608 151.491 89.9227 151.783 89.4362C152.074 88.9497 151.005 79.252 145.576 75.0762C140.148 70.9084 134.136 69.0597 128.903 73.6247C123.669 78.1736 120.379 85.6496 122.121 92.3391Z" fill="white"/>
</mask>
<g mask="url(#mask2_131_2875)">
<path d="M145.577 75.0682C140.148 70.9004 134.137 69.0517 128.903 73.6168C123.669 78.1737 120.371 85.6416 122.121 92.3392C122.121 92.3392 122.607 94.0582 123.547 96.4258C123.547 96.1096 123.588 95.8177 123.669 95.542C124.827 91.8689 128.246 84.7578 139.751 88.0174C148.882 90.604 147.764 98.6394 146.913 102.937C147.075 102.645 147.246 102.353 147.408 102.045C151.191 95.1609 151.475 89.9229 151.766 89.4364C152.074 88.9417 151.005 79.244 145.577 75.0682Z" fill="#9A87D8"/>
</g>
<path d="M122.121 92.3391C122.121 92.3391 124.641 101.266 129.389 106.505C134.136 111.743 135.887 113.008 138.406 112.618C140.926 112.229 143.64 108.929 147.424 102.045C151.207 95.1608 151.491 89.9227 151.783 89.4362C152.074 88.9497 151.005 79.252 145.576 75.0762C140.148 70.9084 134.136 69.0597 128.903 73.6247C123.669 78.1736 120.379 85.6496 122.121 92.3391Z" stroke="#263238" stroke-miterlimit="10" stroke-linecap="round" stroke-linejoin="round"/>
<path d="M138.406 96.9933C138.406 96.9933 137.823 100.78 137.92 102.718C138.017 104.656 138.601 105.24 137.726 105.434C136.851 105.629 135.887 104.267 135.887 104.267" stroke="#263238" stroke-miterlimit="10" stroke-linecap="round" stroke-linejoin="round"/>
<path d="M128.708 98.5502C128.708 98.5502 130.645 100.002 132.589 98.6475" stroke="#263238" stroke-miterlimit="10" stroke-linecap="round" stroke-linejoin="round"/>
<path d="M141.023 98.5502C141.023 98.5502 142.96 100.002 144.904 98.6475" stroke="#263238" stroke-miterlimit="10" stroke-linecap="round" stroke-linejoin="round"/>
<path d="M134.898 95.2824C134.898 95.2824 133.059 90.7255 126.95 92.858" stroke="#263238" stroke-miterlimit="10" stroke-linecap="round" stroke-linejoin="round"/>
<path d="M139.978 94.723C139.978 94.723 141.526 90.2633 147.051 92.8824" stroke="#263238" stroke-miterlimit="10" stroke-linecap="round" stroke-linejoin="round"/>
<path d="M136.081 98.8907C136.081 101.38 133.213 103.399 129.68 103.399C126.148 103.399 123.28 101.38 123.28 98.8907C123.28 96.4014 125.954 95.3473 129.486 95.3473C133.018 95.3473 136.081 96.3933 136.081 98.8907Z" stroke="#263238" stroke-miterlimit="10" stroke-linecap="round" stroke-linejoin="round"/>
<path d="M150.81 98.8907C150.81 101.38 147.942 103.399 144.41 103.399C140.877 103.399 138.009 101.38 138.009 98.8907C138.009 96.4014 140.683 95.3473 144.215 95.3473C147.756 95.3473 150.81 96.3933 150.81 98.8907Z" stroke="#263238" stroke-miterlimit="10" stroke-linecap="round" stroke-linejoin="round"/>
<path d="M69.1261 176.667L68.7291 274.958C68.7291 275.606 69.2476 276.125 69.8958 276.125C70.5197 276.125 71.0382 275.631 71.0625 274.998L73.8577 176.797L69.1261 176.667Z" fill="white" stroke="#263238" stroke-miterlimit="10" stroke-linecap="round" stroke-linejoin="round"/>
<path d="M62.5068 199.646L62.1098 301.27C62.1098 301.918 62.6283 302.437 63.2765 302.437C63.9003 302.437 64.4189 301.943 64.4432 301.31L67.2384 199.776L62.5068 199.646Z" fill="white" stroke="#263238" stroke-miterlimit="10" stroke-linecap="round" stroke-linejoin="round"/>
<path d="M204.907 176.667L205.304 274.958C205.304 275.606 204.786 276.125 204.138 276.125C203.514 276.125 202.995 275.631 202.971 274.998L200.176 176.797L204.907 176.667Z" fill="white" stroke="#263238" stroke-miterlimit="10" stroke-linecap="round" stroke-linejoin="round"/>
<path d="M211.527 199.646L211.924 301.27C211.924 301.918 211.405 302.437 210.757 302.437C210.133 302.437 209.615 301.943 209.59 301.31L206.795 199.776L211.527 199.646Z" fill="white" stroke="#263238" stroke-miterlimit="10" stroke-linecap="round" stroke-linejoin="round"/>
<path d="M108.55 203.871L108.299 294.069C108.299 294.597 108.631 295.034 109.037 295.034C109.434 295.034 109.766 294.629 109.774 294.11L111.556 203.985L108.55 203.871Z" fill="white" stroke="#263238" stroke-miterlimit="10" stroke-linecap="round" stroke-linejoin="round"/>
<path d="M165.597 200.968L165.807 279.685C165.807 280.131 165.532 280.496 165.183 280.496C164.843 280.496 164.568 280.147 164.559 279.717L163.061 201.057L165.597 200.968Z" fill="white" stroke="#263238" stroke-miterlimit="10" stroke-linecap="round" stroke-linejoin="round"/>
<path d="M107.667 200.968L107.878 279.685C107.878 280.131 107.603 280.496 107.254 280.496C106.914 280.496 106.638 280.147 106.63 279.717L105.131 201.057L107.667 200.968Z" fill="white" stroke="#263238" stroke-miterlimit="10" stroke-linecap="round" stroke-linejoin="round"/>
<path d="M163.96 203.871L164.211 294.069C164.211 294.597 163.879 295.034 163.474 295.034C163.077 295.034 162.745 294.629 162.737 294.11L160.954 203.985L163.96 203.871Z" fill="white" stroke="#263238" stroke-miterlimit="10" stroke-linecap="round" stroke-linejoin="round"/>
<path d="M135.854 210.187C155.766 210.187 171.908 206.495 171.908 201.941C171.908 197.387 155.766 193.695 135.854 193.695C115.942 193.695 99.8003 197.387 99.8003 201.941C99.8003 206.495 115.942 210.187 135.854 210.187Z" fill="white" stroke="#263238" stroke-miterlimit="10" stroke-linecap="round" stroke-linejoin="round"/>
<path d="M118.305 271.941C118.305 271.941 116.417 274.642 117.762 275.996C119.115 277.35 120.46 276.807 120.331 278.161C120.193 279.515 118.038 284.104 116.142 288.969C114.246 293.834 118.167 298.699 121.813 297.345C125.459 295.991 125.054 282.482 125.597 280.05C126.14 277.617 126.545 277.212 126.407 274.917C126.269 272.623 126.14 270.19 124.382 269.914C122.624 269.647 119.115 271.001 118.305 271.941Z" fill="white" stroke="#263238" stroke-miterlimit="10" stroke-linecap="round" stroke-linejoin="round"/>
<path d="M124.098 293.623C121.668 292.699 117.941 292.894 115.834 293.105C116.539 296.161 119.237 298.31 121.813 297.353C122.883 296.956 123.596 295.513 124.098 293.623Z" fill="#634D95" stroke="#263238" stroke-miterlimit="10"/>
<path d="M114.117 265.998C114.117 265.998 118.03 272.623 119.115 274.374C120.193 276.134 123.839 275.59 124.244 273.158C124.649 270.725 122.761 263.971 122.761 263.971L114.659 265.998H114.117Z" fill="white" stroke="#263238" stroke-miterlimit="10" stroke-linecap="round" stroke-linejoin="round"/>
<path d="M104.799 255.457C104.799 255.457 103.722 257.216 104.256 258.433C104.799 259.649 106.282 263.16 107.23 264.919C108.178 266.679 112.496 267.757 117.495 266.947C122.494 266.136 125.33 263.841 125.459 261.814C125.589 259.787 124.649 257.087 123.977 253.843C123.304 250.6 121.546 250.738 119.115 250.738C116.685 250.738 106.825 253.568 104.799 255.457Z" fill="#06090A" stroke="#263238" stroke-miterlimit="10" stroke-linecap="round" stroke-linejoin="round"/>
<path d="M119.383 215.726C119.456 212.401 121.376 210.763 121.522 208.485C121.805 203.976 121.133 200.774 120.784 199.476L117.09 194.417C106.46 194.554 98.8442 194.733 98.7227 194.773C98.3176 194.911 98.0502 197.206 97.7748 199.095C97.7748 199.095 93.262 199.671 94.0722 212.239C94.1856 213.998 98.7389 234.261 99.063 236.556C101.088 250.681 105.601 257.752 105.601 257.752C105.601 257.752 106.006 259.511 111.273 259.106C116.539 258.7 121.805 255.189 121.805 255.189C121.805 255.189 119.115 227.75 119.383 215.726Z" fill="#263238" stroke="#263238" stroke-miterlimit="10" stroke-linecap="round" stroke-linejoin="round"/>
<path d="M97.0456 197.044C97.0456 197.044 91.4714 197.879 88.0524 201.763C84.6334 205.639 87.5339 208.241 94.1775 207.552C100.821 206.863 108.486 200.044 108.81 199.687C109.134 199.322 101.874 194.733 97.0456 197.044Z" fill="white" stroke="#263238" stroke-miterlimit="10" stroke-linecap="round" stroke-linejoin="round"/>
<path d="M106.962 199.509C106.962 199.509 112.901 199.776 117.495 201.13C122.089 202.484 130.191 205.185 132.079 205.185C133.966 205.185 133.432 198.155 133.432 196.809C133.432 195.454 109.126 194.644 106.152 194.644C103.179 194.644 106.962 199.509 106.962 199.509Z" fill="white" stroke="#263238" stroke-miterlimit="10" stroke-linecap="round" stroke-linejoin="round"/>
<path d="M133.423 196.808C133.423 196.808 131.26 197.887 130.45 201.941C129.64 205.995 128.562 208.16 130.183 209.239C131.803 210.317 138.828 211.128 139.905 210.05C140.983 208.971 143.956 203.563 144.499 200.052C145.042 196.533 133.423 196.808 133.423 196.808Z" fill="#06090A" stroke="#263238" stroke-miterlimit="10" stroke-linecap="round" stroke-linejoin="round"/>
<path d="M142.611 198.154C142.611 198.154 140.448 200.587 139.638 203.02C138.828 205.452 138.285 208.695 138.285 208.695C138.285 208.695 141.526 209.506 145.844 211.396C150.162 213.285 157.454 214.639 164.478 216.261C171.503 217.882 173.391 219.504 175.821 219.504C178.252 219.504 181.225 217.615 185.001 213.017C188.784 208.42 185.544 198.69 181.76 195.722C177.976 192.746 157.721 190.314 155.023 191.124C152.325 191.935 142.611 198.154 142.611 198.154Z" fill="#263238" stroke="#263238" stroke-miterlimit="10" stroke-linecap="round" stroke-linejoin="round"/>
<path d="M91.9413 207.658C91.3985 204.787 89.7943 202.33 88.7816 201.009C88.5304 201.244 88.2873 201.495 88.0524 201.755C85.0385 205.168 86.9262 207.593 91.9413 207.658Z" fill="#634D95" stroke="#263238" stroke-miterlimit="10"/>
<path d="M118.97 209.798C118.97 209.798 116.182 239.637 110.495 244.292" stroke="white" stroke-width="0.5" stroke-miterlimit="10" stroke-linecap="round" stroke-linejoin="round"/>
<path d="M117.001 238.129C117.001 238.129 114.797 247.892 108.988 251.727" stroke="white" stroke-width="0.5" stroke-miterlimit="10" stroke-linecap="round" stroke-linejoin="round"/>
<path d="M152.868 204.374C152.868 204.374 144.223 204.917 149.895 208.695C155.566 212.482 165.831 214.915 165.831 214.915" stroke="white" stroke-width="0.5" stroke-miterlimit="10" stroke-linecap="round" stroke-linejoin="round"/>
<path d="M215.634 194.149L212.718 191.522L205.977 176.951C205.361 175.613 203.967 174.753 202.436 174.753H71.5081C69.9769 174.753 68.5833 175.613 67.9676 176.951L59.5658 195.122L58.1804 194.611V198.771L58.2452 198.714C58.3748 199.784 59.3146 200.692 60.5704 200.692H213.366C214.686 200.692 215.651 199.687 215.699 198.544L215.634 194.149Z" fill="#263238" stroke="#263238" stroke-miterlimit="10" stroke-linecap="round" stroke-linejoin="round"/>
<path d="M213.366 196.873H60.5785C58.8852 196.873 57.7509 195.219 58.4315 193.743L67.9675 173.124C68.5833 171.786 69.9768 170.926 71.5081 170.926H202.436C203.967 170.926 205.361 171.786 205.977 173.124L215.513 193.752C216.193 195.219 215.059 196.873 213.366 196.873Z" fill="white" stroke="#263238" stroke-miterlimit="10" stroke-linecap="round" stroke-linejoin="round"/>
<path opacity="0.45" d="M68.3159 183.024C68.3159 183.024 64.8564 185.408 67.0196 186.267C69.1828 187.135 94.0478 186.486 97.078 185.619C100.108 184.751 103.568 176.748 103.568 175.451C103.568 174.153 99.2088 173.221 97.6046 173.148C96.0004 173.067 74.8056 174.372 74.8056 174.372L68.3159 183.024Z" fill="#634D95"/>
<path opacity="0.45" d="M192.001 187.135C196.896 187.135 200.864 185.487 200.864 183.454C200.864 181.421 196.896 179.773 192.001 179.773C187.106 179.773 183.137 181.421 183.137 183.454C183.137 185.487 187.106 187.135 192.001 187.135Z" fill="#634D95"/>
<path opacity="0.45" d="M135.562 191.684C153.116 191.684 167.347 189.019 167.347 185.732C167.347 182.445 153.116 179.781 135.562 179.781C118.009 179.781 103.778 182.445 103.778 185.732C103.778 189.019 118.009 191.684 135.562 191.684Z" fill="#634D95"/>
<path d="M185.511 168.972C185.511 168.972 184.928 166.645 182.991 167.423C181.055 168.202 181.25 173.343 181.638 176.253C182.027 179.164 184.644 177.802 184.644 177.802V176.059C184.644 176.059 183.672 176.837 183.194 175.767C182.708 174.697 182.805 169.361 183.291 169.459C183.777 169.556 184.742 171.202 184.742 171.202C184.742 171.202 185.025 171.015 185.511 168.972Z" fill="#422F7C"/>
<path d="M184.118 169.361V182.108C184.118 183.608 187.561 184.816 191.815 184.816C196.068 184.816 199.511 183.6 199.511 182.108V169.361H184.118Z" fill="#634D95"/>
<path d="M199.503 169.361C199.503 170.659 196.06 171.705 191.806 171.705C187.553 171.705 184.11 170.659 184.11 169.361C184.11 168.064 187.553 167.018 191.806 167.018C196.06 167.018 199.503 168.072 199.503 169.361Z" fill="white" stroke="#263238" stroke-miterlimit="10" stroke-linecap="round" stroke-linejoin="round"/>
<path d="M198.499 169.361C198.499 170.488 195.501 171.396 191.806 171.396C188.112 171.396 185.122 170.488 185.122 169.361C185.122 168.234 188.12 167.326 191.806 167.326C195.493 167.326 198.499 168.234 198.499 169.361Z" fill="white" stroke="#263238" stroke-miterlimit="10" stroke-linecap="round" stroke-linejoin="round"/>
<path d="M186.654 170.659C187.877 171.113 189.732 171.397 191.815 171.397C193.897 171.397 195.744 171.105 196.976 170.659C195.752 170.205 193.897 169.921 191.815 169.921C189.732 169.921 187.885 170.205 186.654 170.659Z" fill="#263238" stroke="#263238" stroke-miterlimit="10" stroke-linecap="round" stroke-linejoin="round"/>
<path d="M67.3519 175.183L67.4491 179.545L96.8188 179.837V174.794L67.3519 175.183Z" fill="white" stroke="#263238" stroke-miterlimit="10" stroke-linecap="round" stroke-linejoin="round"/>
<path d="M96.8188 179.837L101.089 170.626V167.91L96.6243 175.67L96.8188 179.837Z" fill="white" stroke="#263238" stroke-miterlimit="10" stroke-linecap="round" stroke-linejoin="round"/>
<path d="M67.3519 179.164L67.4491 183.527L96.8188 183.819V178.775L67.3519 179.164Z" fill="white" stroke="#263238" stroke-miterlimit="10" stroke-linecap="round" stroke-linejoin="round"/>
<path d="M96.8188 183.819L101.089 174.599V171.883L96.6243 179.643L96.8188 183.819Z" fill="white" stroke="#263238" stroke-miterlimit="10" stroke-linecap="round" stroke-linejoin="round"/>
<path d="M78.6946 164.123C78.6946 164.123 79.3752 162.761 78.403 162.185C77.4307 161.602 76.3694 162.964 75.786 163.45C75.2027 163.937 62.993 171.988 62.6041 173.245C62.2152 174.51 62.6041 177.316 65.221 177.608C67.838 177.899 70.1632 176.156 71.3299 175.864C72.4966 175.572 72.9746 175.475 72.9746 175.475L81.0199 164.61L78.6946 164.123Z" fill="white" stroke="#263238" stroke-miterlimit="10" stroke-linecap="round" stroke-linejoin="round"/>
<path d="M65.221 177.608C67.838 177.899 70.1632 176.156 71.3299 175.864C72.4966 175.572 72.9746 175.475 72.9746 175.475L73.2663 175.078L65.7071 173.529C65.7071 173.529 64.3541 172.175 62.6041 173.237C62.2152 174.502 62.6041 177.316 65.221 177.608Z" fill="white" stroke="#263238" stroke-miterlimit="10" stroke-linecap="round" stroke-linejoin="round"/>
<path d="M65.7072 173.537C65.7072 173.537 81.3116 173.537 88.3927 173.537C95.4739 173.537 97.6047 173.148 97.6047 173.148L101.964 164.123C101.964 164.123 88.1983 164.999 83.9366 164.707C79.675 164.415 78.7027 164.123 78.7027 164.123L65.7072 173.537Z" fill="white" stroke="#263238" stroke-miterlimit="10" stroke-linecap="round" stroke-linejoin="round"/>
<path d="M65.7072 173.537L66.0961 175.28C66.0961 175.28 84.5119 175.378 89.3569 175.378C94.2018 175.378 97.8882 175.572 97.8882 175.572L97.5966 173.148L65.7072 173.537Z" fill="white" stroke="#263238" stroke-miterlimit="10" stroke-linecap="round" stroke-linejoin="round"/>
<path d="M97.8882 175.572L101.964 166.256V164.123L97.5966 173.148L97.8882 175.572Z" fill="white" stroke="#263238" stroke-miterlimit="10" stroke-linecap="round" stroke-linejoin="round"/>
<path d="M163.32 186.47H107.781C107.262 186.47 106.849 186.049 106.849 185.538C106.849 185.019 107.27 184.605 107.781 184.605H163.32C163.838 184.605 164.252 185.027 164.252 185.538C164.252 186.057 163.838 186.47 163.32 186.47Z" fill="white" stroke="#263238" stroke-miterlimit="10" stroke-linecap="round" stroke-linejoin="round"/>
<path d="M163.79 184.597H107.303C106.865 184.597 106.501 184.265 106.468 183.827L103.398 146.893C103.357 146.406 103.746 145.985 104.232 145.985H166.869C167.355 145.985 167.744 146.406 167.703 146.893L164.632 183.827C164.592 184.257 164.227 184.597 163.79 184.597Z" fill="white" stroke="#263238" stroke-miterlimit="10" stroke-linecap="round" stroke-linejoin="round"/>
<path d="M140.877 165.923C140.877 168.129 138.487 169.913 135.546 169.913C132.597 169.913 130.215 168.129 130.215 165.923C130.215 163.718 132.605 161.934 135.546 161.934C138.495 161.942 140.877 163.726 140.877 165.923Z" fill="white" stroke="#263238" stroke-miterlimit="10" stroke-linecap="round" stroke-linejoin="round"/>
<path d="M196.076 137.057C196.935 136.327 197.567 135.468 197.802 134.349C197.988 133.465 197.948 132.671 197.745 131.949" stroke="#263238" stroke-miterlimit="10" stroke-linecap="round" stroke-linejoin="round"/>
<path d="M189.611 165.988C189.611 165.988 194.999 162.769 193.24 159.039C191.474 155.301 185.544 152.885 185.544 147.104C185.544 142.125 190.834 140.284 194.278 138.29" stroke="#263238" stroke-miterlimit="10" stroke-linecap="round" stroke-linejoin="round"/>
<path d="M194.593 165.883C194.593 165.883 197.599 163.88 197.599 160.693C197.599 158.561 195.323 157.166 192.309 153.744" stroke="#263238" stroke-miterlimit="10" stroke-linecap="round" stroke-linejoin="round"/>
<path d="M190.648 151.677C190.648 151.677 188.679 150.12 190.129 147.217" stroke="#263238" stroke-miterlimit="10" stroke-linecap="round" stroke-linejoin="round"/>
<path d="M145.034 66.7326C145.998 66.5299 148.064 65.7352 149.465 62.4999C149.555 62.2972 149.457 62.054 149.255 61.9648C149.044 61.8756 148.809 61.9729 148.72 62.1756C147.44 65.1352 145.601 65.792 144.847 65.9379C146.184 64.2757 146.978 62.2567 146.978 60.0755C146.978 54.4482 141.769 49.8913 135.344 49.8913C128.919 49.8913 123.709 54.4482 123.709 60.0755C123.709 62.1594 124.43 64.1054 125.662 65.719C124.438 65.6541 122.372 66.1731 119.755 69.23C119.61 69.4002 119.626 69.6516 119.796 69.7976C119.869 69.8624 119.966 69.8949 120.063 69.8949C120.177 69.8949 120.29 69.8462 120.371 69.757C123.717 65.8568 125.929 66.4974 126.375 66.692C125.54 67.1623 124.819 67.665 124.252 68.1759C120.517 71.5409 118.24 77.8736 118.532 83.209C118.824 88.5443 122.218 92.9067 122.218 92.9067C122.218 92.9067 126.002 90.4822 128.813 85.5361C130.264 82.9738 131.358 80.6061 132.07 78.9034C132.07 81.2791 132.378 84.1495 133.626 86.1847C136.421 90.7498 140.383 91.5039 142.716 91.5039C143.859 91.5039 144.604 91.3255 144.62 91.3174C144.734 91.285 144.823 91.212 144.872 91.1147C147.999 91.7796 151.11 91.7228 151.588 91.0579C152.366 89.9876 153.46 86.6794 153.816 82.617C154.424 75.8465 150.089 69.8705 145.034 66.7326ZM134.315 85.7793C132.743 83.2089 132.792 79.0169 132.978 76.6087C133.043 76.4384 133.075 76.333 133.075 76.333C133.075 76.333 132.889 83.963 139.67 89.0389C140.626 89.7525 141.898 90.3038 143.259 90.7174C141.274 90.8552 137.183 90.4741 134.315 85.7793Z" fill="#263238"/>
<path d="M134.444 73.041C134.444 73.041 133.78 77.9547 140.019 82.7792C146.257 87.6118 152.163 85.6901 152.163 85.6901" stroke="white" stroke-width="0.5" stroke-miterlimit="10" stroke-linecap="round" stroke-linejoin="round"/>
<path d="M135.36 71.3787C135.36 71.3787 141.931 80.9548 151.005 78.4574" stroke="white" stroke-width="0.5" stroke-miterlimit="10" stroke-linecap="round" stroke-linejoin="round"/>
<path d="M132.119 68.2083C132.119 68.2083 129.04 66.3758 125.548 68.711C122.056 71.0462 120.306 76.5357 120.306 76.5357" stroke="white" stroke-width="0.5" stroke-miterlimit="10" stroke-linecap="round" stroke-linejoin="round"/>
<path d="M132.281 70.876C132.281 70.876 129.454 70.13 127.704 71.8733C125.953 73.6248 125.54 74.541 125.54 74.541" stroke="white" stroke-width="0.5" stroke-miterlimit="10" stroke-linecap="round" stroke-linejoin="round"/>
</g>
<defs>
<clipPath id="clip0_131_2875">
<rect width="279" height="314" fill="white"/>
</clipPath>
</defs>
</svg>
