<svg width="308" height="307" viewBox="0 0 308 307" fill="none" xmlns="http://www.w3.org/2000/svg">
<g opacity="0.29">
<path d="M258.946 282.436C269.509 274.929 278.428 265.206 285.159 252.574C324.342 179.094 315.486 70.729 240.026 24.2693C205.155 2.79951 154.943 -10.8001 117.254 11.2598C86.6809 29.1548 67.9395 62.8313 52.4404 93.475C42.6927 112.749 34.6655 133.492 22.6556 151.524C7.08117 174.915 -10.0699 206.142 7.24569 233.314C30.8336 270.325 75.3839 287.225 115.78 298.354C159.611 310.424 208.891 312.139 249.383 288.597C252.667 286.683 255.854 284.631 258.946 282.436Z" fill="#634D95"/>
</g>
<path d="M252.365 17.3049H69.2145V204.502H252.365V17.3049Z" fill="#263238" stroke="#263238" stroke-miterlimit="10" stroke-linecap="round" stroke-linejoin="round"/>
<path d="M74.8904 30.8496H70.3044" stroke="#ABABAB" stroke-miterlimit="10" stroke-linecap="round" stroke-linejoin="round"/>
<path d="M74.8904 39.3099H70.3044" stroke="#ABABAB" stroke-miterlimit="10" stroke-linecap="round" stroke-linejoin="round"/>
<path d="M74.8904 47.7702H70.3044" stroke="#ABABAB" stroke-miterlimit="10" stroke-linecap="round" stroke-linejoin="round"/>
<path d="M74.8904 56.2374H70.3044" stroke="#ABABAB" stroke-miterlimit="10" stroke-linecap="round" stroke-linejoin="round"/>
<path d="M74.8904 64.6977H70.3044" stroke="#ABABAB" stroke-miterlimit="10" stroke-linecap="round" stroke-linejoin="round"/>
<path d="M74.8904 73.1648H70.3044" stroke="#ABABAB" stroke-miterlimit="10" stroke-linecap="round" stroke-linejoin="round"/>
<path d="M74.8904 81.6251H70.3044" stroke="#ABABAB" stroke-miterlimit="10" stroke-linecap="round" stroke-linejoin="round"/>
<path d="M74.8904 90.0854H70.3044" stroke="#ABABAB" stroke-miterlimit="10" stroke-linecap="round" stroke-linejoin="round"/>
<path d="M74.8904 98.5526H70.3044" stroke="#ABABAB" stroke-miterlimit="10" stroke-linecap="round" stroke-linejoin="round"/>
<path d="M74.8904 107.013H70.3044" stroke="#ABABAB" stroke-miterlimit="10" stroke-linecap="round" stroke-linejoin="round"/>
<path d="M74.8904 115.48H70.3044" stroke="#ABABAB" stroke-miterlimit="10" stroke-linecap="round" stroke-linejoin="round"/>
<path d="M74.8904 123.94H70.3044" stroke="#ABABAB" stroke-miterlimit="10" stroke-linecap="round" stroke-linejoin="round"/>
<path d="M74.8904 132.408H70.3044" stroke="#ABABAB" stroke-miterlimit="10" stroke-linecap="round" stroke-linejoin="round"/>
<path d="M74.8904 140.868H70.3044" stroke="#ABABAB" stroke-miterlimit="10" stroke-linecap="round" stroke-linejoin="round"/>
<path d="M74.8904 149.328H70.3044" stroke="#ABABAB" stroke-miterlimit="10" stroke-linecap="round" stroke-linejoin="round"/>
<path d="M74.8904 157.795H70.3044" stroke="#ABABAB" stroke-miterlimit="10" stroke-linecap="round" stroke-linejoin="round"/>
<path d="M74.8904 166.256H70.3044" stroke="#ABABAB" stroke-miterlimit="10" stroke-linecap="round" stroke-linejoin="round"/>
<path d="M74.8904 174.723H70.3044" stroke="#ABABAB" stroke-miterlimit="10" stroke-linecap="round" stroke-linejoin="round"/>
<path d="M74.8904 183.183H70.3044" stroke="#ABABAB" stroke-miterlimit="10" stroke-linecap="round" stroke-linejoin="round"/>
<path d="M74.8904 191.643H70.3044" stroke="#ABABAB" stroke-miterlimit="10" stroke-linecap="round" stroke-linejoin="round"/>
<path d="M75.1714 29.7174V26.4719" stroke="#ABABAB" stroke-miterlimit="10" stroke-linecap="round" stroke-linejoin="round"/>
<path d="M84.0829 29.7174V26.4719" stroke="#ABABAB" stroke-miterlimit="10" stroke-linecap="round" stroke-linejoin="round"/>
<path d="M92.9943 29.7174V26.4719" stroke="#ABABAB" stroke-miterlimit="10" stroke-linecap="round" stroke-linejoin="round"/>
<path d="M101.913 29.7174V26.4719" stroke="#ABABAB" stroke-miterlimit="10" stroke-linecap="round" stroke-linejoin="round"/>
<path d="M110.824 29.7174V26.4719" stroke="#ABABAB" stroke-miterlimit="10" stroke-linecap="round" stroke-linejoin="round"/>
<path d="M119.735 29.7174V26.4719" stroke="#ABABAB" stroke-miterlimit="10" stroke-linecap="round" stroke-linejoin="round"/>
<path d="M128.654 29.7174V26.4719" stroke="#ABABAB" stroke-miterlimit="10" stroke-linecap="round" stroke-linejoin="round"/>
<path d="M137.565 29.7174V26.4719" stroke="#ABABAB" stroke-miterlimit="10" stroke-linecap="round" stroke-linejoin="round"/>
<path d="M146.477 29.7174V26.4719" stroke="#ABABAB" stroke-miterlimit="10" stroke-linecap="round" stroke-linejoin="round"/>
<path d="M155.395 29.7174V26.4719" stroke="#ABABAB" stroke-miterlimit="10" stroke-linecap="round" stroke-linejoin="round"/>
<path d="M164.306 29.7174V26.4719" stroke="#ABABAB" stroke-miterlimit="10" stroke-linecap="round" stroke-linejoin="round"/>
<path d="M173.218 29.7174V26.4719" stroke="#ABABAB" stroke-miterlimit="10" stroke-linecap="round" stroke-linejoin="round"/>
<path d="M182.136 29.7174V26.4719" stroke="#ABABAB" stroke-miterlimit="10" stroke-linecap="round" stroke-linejoin="round"/>
<path d="M191.048 29.7174V26.4719" stroke="#ABABAB" stroke-miterlimit="10" stroke-linecap="round" stroke-linejoin="round"/>
<path d="M199.959 29.7174V26.4719" stroke="#ABABAB" stroke-miterlimit="10" stroke-linecap="round" stroke-linejoin="round"/>
<path d="M208.87 29.7174V26.4719" stroke="#ABABAB" stroke-miterlimit="10" stroke-linecap="round" stroke-linejoin="round"/>
<path d="M217.789 29.7174V26.4719" stroke="#ABABAB" stroke-miterlimit="10" stroke-linecap="round" stroke-linejoin="round"/>
<path d="M226.7 29.7174V26.4719" stroke="#ABABAB" stroke-miterlimit="10" stroke-linecap="round" stroke-linejoin="round"/>
<path d="M235.612 29.7174V26.4719" stroke="#ABABAB" stroke-miterlimit="10" stroke-linecap="round" stroke-linejoin="round"/>
<path d="M252.365 17.3049H246.388V204.502H252.365V17.3049Z" fill="#696969" stroke="#263238" stroke-miterlimit="10" stroke-linecap="round" stroke-linejoin="round"/>
<path d="M252.365 108.207H246.388V124.283H252.365V108.207Z" fill="#263238" stroke="#263238" stroke-miterlimit="10" stroke-linecap="round" stroke-linejoin="round"/>
<path d="M252.365 198.766H69.2145V204.502H252.365V198.766Z" fill="#696969" stroke="#263238" stroke-miterlimit="10" stroke-linecap="round" stroke-linejoin="round"/>
<path d="M246.682 30.8496H74.8904V198.697H246.682V30.8496Z" fill="white" stroke="#263238" stroke-miterlimit="10" stroke-linecap="round" stroke-linejoin="round"/>
<path d="M74.7327 145.891H246.854" stroke="#263238" stroke-miterlimit="10" stroke-linecap="round" stroke-linejoin="round"/>
<path d="M252.365 17.3049H69.2145V25.525H252.365V17.3049Z" fill="#696969" stroke="#263238" stroke-miterlimit="10" stroke-linecap="round" stroke-linejoin="round"/>
<path d="M119.955 17.3049H69.2145V25.525H119.955V17.3049Z" fill="#8A8A8A" stroke="#263238" stroke-miterlimit="10" stroke-linecap="round" stroke-linejoin="round"/>
<path d="M157.122 155.051C157.026 154.584 156.341 154.172 155.217 153.987L154.442 130.377C154.422 129.848 153.99 129.437 153.462 129.457C152.934 129.471 152.523 129.917 152.543 130.438L153.311 153.898C151.803 153.994 150.521 154.488 150.651 155.044C150.912 156.169 157.506 156.89 157.122 155.051Z" fill="white" stroke="#263238" stroke-miterlimit="10" stroke-linecap="round" stroke-linejoin="round"/>
<path d="M187.915 109.703C187.915 109.703 191.281 111.109 190.163 113.916C189.046 116.722 181.464 126.555 174.164 128.805C166.863 131.056 160.975 130.212 155.361 130.493C149.746 130.775 134.028 131.056 129.819 130.493C125.61 129.931 123.362 128.805 123.362 128.805C123.362 128.805 128.976 131.33 139.08 120.661C149.184 109.984 150.871 100.433 166.301 100.714C181.739 100.995 187.915 109.703 187.915 109.703Z" fill="white" stroke="#263238" stroke-miterlimit="10" stroke-linecap="round" stroke-linejoin="round"/>
<path d="M135.152 111.384C135.152 111.384 131.787 106.327 126.734 104.357C121.682 102.388 100.912 97.6126 98.1081 101.832C95.3044 106.045 103.16 116.722 110.735 122.623C118.31 128.524 126.172 131.33 133.747 129.649C141.322 127.961 158.726 109.984 161.811 108.296C164.896 106.608 185.385 108.577 187.915 109.703C187.915 109.703 198.581 74.0225 198.581 71.4975C198.581 68.9724 195.215 69.5282 192.686 72.6228C190.163 75.7105 176.124 82.7367 161.53 77.9611C146.936 73.1854 143.289 64.1968 137.113 69.2537C130.937 74.3107 129.257 87.7937 132.342 99.0329C135.433 110.265 135.152 111.384 135.152 111.384Z" fill="#634D95"/>
<path d="M119.893 122.705C119.372 122.506 118.844 122.294 118.31 122.067" stroke="#263238" stroke-miterlimit="10" stroke-linecap="round" stroke-linejoin="round"/>
<path d="M185.392 107.452C185.392 107.452 165.746 104.646 162.099 105.764C158.452 106.889 151.714 116.722 143.015 121.216C135.749 124.97 129.853 125.786 122.717 123.659" stroke="#263238" stroke-miterlimit="10" stroke-linecap="round" stroke-linejoin="round"/>
<path d="M144.215 118.794C144.557 118.959 144.9 119.11 145.256 119.254" stroke="#263238" stroke-miterlimit="10" stroke-linecap="round" stroke-linejoin="round"/>
<path d="M135.152 111.384C135.152 111.384 138.395 115.446 142.816 118.039" stroke="#263238" stroke-miterlimit="10" stroke-linecap="round" stroke-linejoin="round"/>
<path d="M122.052 128.263C121.552 128.105 121.017 128.394 120.867 128.894L109.302 166.674C107.116 166.715 105.374 167.367 105.374 168.17C105.374 169 107.232 169.673 109.528 169.673C111.825 169.673 113.683 169 113.683 168.17C113.683 167.566 112.689 167.045 111.256 166.805L122.69 129.45C122.834 128.949 122.553 128.421 122.052 128.263Z" fill="white" stroke="#263238" stroke-miterlimit="10" stroke-linecap="round" stroke-linejoin="round"/>
<path d="M157.849 179.327L156.78 129.155C156.766 128.627 156.348 128.195 155.806 128.222C155.278 128.236 154.867 128.668 154.874 129.196L155.937 179.306C154.038 179.444 152.605 180.047 152.605 180.775C152.605 181.605 154.463 182.277 156.759 182.277C159.056 182.277 160.913 181.605 160.913 180.775C160.913 180.082 159.611 179.498 157.849 179.327Z" fill="white" stroke="#263238" stroke-miterlimit="10" stroke-linecap="round" stroke-linejoin="round"/>
<path d="M198.225 166.07L188.21 117.573C188.1 117.058 187.6 116.722 187.085 116.832C186.571 116.935 186.242 117.443 186.345 117.957L196.292 166.125C195.03 166.304 194.139 166.743 194.139 167.257C194.139 167.93 195.647 168.479 197.512 168.479C199.376 168.479 200.884 167.93 200.884 167.257C200.891 166.681 199.747 166.194 198.225 166.07Z" fill="white" stroke="#263238" stroke-miterlimit="10" stroke-linecap="round" stroke-linejoin="round"/>
<path d="M202.064 96.3363L186.544 89.2483L193.728 104.735L195.682 99.4172L200.919 104.625C201.22 104.927 201.707 104.92 202.002 104.618C202.303 104.316 202.297 103.829 201.995 103.534L196.676 98.2438L202.064 96.3363Z" fill="white" stroke="#263238" stroke-miterlimit="10" stroke-linecap="round" stroke-linejoin="round"/>
<path d="M203.291 109.71V110.053H202.948" stroke="#263238" stroke-width="0.5" stroke-linecap="round" stroke-linejoin="round"/>
<path d="M202.331 110.053H197.717" stroke="#263238" stroke-width="0.5" stroke-linecap="round" stroke-linejoin="round" stroke-dasharray="0.9 0.9"/>
<path d="M197.409 110.053H197.066V109.71" stroke="#263238" stroke-width="0.5" stroke-linecap="round" stroke-linejoin="round"/>
<path d="M197.066 109.016V105.167" stroke="#263238" stroke-width="0.5" stroke-linecap="round" stroke-linejoin="round" stroke-dasharray="1.02 1.02"/>
<path d="M197.066 104.824V104.481H197.409" stroke="#263238" stroke-width="0.5" stroke-linecap="round" stroke-linejoin="round"/>
<path d="M198.019 104.481H202.639" stroke="#263238" stroke-width="0.5" stroke-linecap="round" stroke-linejoin="round" stroke-dasharray="0.9 0.9"/>
<path d="M202.948 104.481H203.291V104.824" stroke="#263238" stroke-width="0.5" stroke-linecap="round" stroke-linejoin="round"/>
<path d="M203.291 105.517V109.366" stroke="#263238" stroke-width="0.5" stroke-linecap="round" stroke-linejoin="round" stroke-dasharray="1.02 1.02"/>
<path d="M206.896 106.121H199.685V113.339H206.896V106.121Z" fill="white" stroke="#263238" stroke-miterlimit="10" stroke-linecap="round" stroke-linejoin="round"/>
<path d="M203.208 107.411V111.706" stroke="#263238" stroke-miterlimit="10" stroke-linecap="round" stroke-linejoin="round"/>
<path d="M200.912 109.71H205.505" stroke="#263238" stroke-miterlimit="10" stroke-linecap="round" stroke-linejoin="round"/>
<path d="M99.061 67.7854C107.678 67.7854 114.663 60.7934 114.663 52.1685C114.663 43.5435 107.678 36.5515 99.061 36.5515C90.4443 36.5515 83.4591 43.5435 83.4591 52.1685C83.4591 60.7934 90.4443 67.7854 99.061 67.7854Z" fill="white" stroke="#263238" stroke-miterlimit="10" stroke-linecap="round" stroke-linejoin="round"/>
<path d="M99.061 64.5742C105.906 64.5742 111.455 59.0199 111.455 52.1685C111.455 45.317 105.906 39.7628 99.061 39.7628C92.2161 39.7628 86.6672 45.317 86.6672 52.1685C86.6672 59.0199 92.2161 64.5742 99.061 64.5742Z" fill="white" stroke="#263238" stroke-miterlimit="10" stroke-linecap="round" stroke-linejoin="round"/>
<path d="M99.061 53.3349C99.7046 53.3349 100.226 52.8127 100.226 52.1684C100.226 51.5242 99.7046 51.002 99.061 51.002C98.4174 51.002 97.8956 51.5242 97.8956 52.1684C97.8956 52.8127 98.4174 53.3349 99.061 53.3349Z" fill="white" stroke="#263238" stroke-miterlimit="10" stroke-linecap="round" stroke-linejoin="round"/>
<path d="M100.226 52.1685L104.764 53.9319" stroke="#263238" stroke-miterlimit="10" stroke-linecap="round" stroke-linejoin="round"/>
<path d="M99.061 50.9951V42.1917" stroke="#263238" stroke-miterlimit="10" stroke-linecap="round" stroke-linejoin="round"/>
<path d="M284.433 37.3955H210.132V86.6203H284.433V37.3955Z" fill="#263238"/>
<path opacity="0.1" d="M284.433 39.454H235.303V48.9161H284.433V39.454Z" fill="white"/>
<path opacity="0.2" d="M235.303 48.9161V39.454H210.132V86.6204H284.433V48.9161H235.303Z" fill="white"/>
<path d="M269.482 51.5921H273.06" stroke="white" stroke-width="0.5" stroke-miterlimit="10" stroke-linecap="round" stroke-linejoin="round"/>
<path d="M269.482 52.9575H273.06" stroke="white" stroke-width="0.5" stroke-miterlimit="10" stroke-linecap="round" stroke-linejoin="round"/>
<path d="M269.482 54.3161H273.06" stroke="white" stroke-width="0.5" stroke-miterlimit="10" stroke-linecap="round" stroke-linejoin="round"/>
<path d="M269.482 55.6815H273.06" stroke="white" stroke-width="0.5" stroke-miterlimit="10" stroke-linecap="round" stroke-linejoin="round"/>
<path d="M269.482 57.047H273.06" stroke="white" stroke-width="0.5" stroke-miterlimit="10" stroke-linecap="round" stroke-linejoin="round"/>
<path opacity="0.8" d="M281.608 51.0294H275.137V57.5067H281.608V51.0294Z" fill="#263238"/>
<path d="M277.29 51.7705H276.001V53.0605H277.29V51.7705Z" fill="white"/>
<path d="M278.983 51.7705H277.694V53.0605H278.983V51.7705Z" fill="white"/>
<path d="M280.683 51.7705H279.394V53.0605H280.683V51.7705Z" fill="white"/>
<path d="M277.29 53.4653H276.001V54.7552H277.29V53.4653Z" fill="white"/>
<path d="M278.983 53.4653H277.694V54.7552H278.983V53.4653Z" fill="white"/>
<path d="M280.683 53.4653H279.394V54.7552H280.683V53.4653Z" fill="white"/>
<path d="M277.29 55.1601H276.001V56.45H277.29V55.1601Z" fill="white"/>
<path d="M278.983 55.1601H277.694V56.45H278.983V55.1601Z" fill="white"/>
<path d="M280.683 55.1601H279.394V56.45H280.683V55.1601Z" fill="white"/>
<path d="M260.598 65.3083H251.926V73.0962H260.598V65.3083Z" fill="#263238"/>
<path d="M232.472 65.3083H223.801V73.0962H232.472V65.3083Z" fill="#263238"/>
<path opacity="0.75" d="M232.472 65.3083H223.801V73.0962H232.472V65.3083Z" fill="white"/>
<path opacity="0.75" d="M223.088 65.3083H214.423V73.0962H223.088V65.3083Z" fill="white"/>
<path d="M251.22 65.3083H242.549V73.0962H251.22V65.3083Z" fill="#263238"/>
<path opacity="0.15" d="M251.22 65.3083H242.549V73.0962H251.22V65.3083Z" fill="white"/>
<path d="M241.836 65.3083H233.171V73.0962H241.836V65.3083Z" fill="#263238"/>
<path opacity="0.25" d="M241.836 65.3083H233.171V73.0962H241.836V65.3083Z" fill="white"/>
<path d="M270.051 73.6314H261.441V81.879H270.051V73.6314Z" fill="#92E3A9"/>
<mask id="mask0_129_1885" style="mask-type:luminance" maskUnits="userSpaceOnUse" x="261" y="73" width="10" height="9">
<path d="M270.051 73.6314H261.441V81.879H270.051V73.6314Z" fill="white"/>
</mask>
<g mask="url(#mask0_129_1885)">
<path d="M270.051 73.6314H261.441V81.879H270.051V73.6314Z" fill="#22134F"/>
</g>
<path d="M260.639 73.6314H252.029V81.879H260.639V73.6314Z" fill="#92E3A9"/>
<path d="M260.639 73.6314H252.029V81.879H260.639V73.6314Z" fill="#2F2168"/>
<path d="M251.241 73.6314H242.631V81.879H251.241V73.6314Z" fill="#44388C"/>
<path d="M241.843 73.6314H233.233V81.879H241.843V73.6314Z" fill="#92E3A9"/>
<path d="M241.843 73.6314H233.233V81.879H241.843V73.6314Z" fill="#4A4293"/>
<path d="M232.445 73.6314H223.835V81.879H232.445V73.6314Z" fill="#92E3A9"/>
<path d="M232.445 73.6314H223.835V81.879H232.445V73.6314Z" fill="#6560B2"/>
<path d="M223.047 73.6314H214.437V81.879H223.047V73.6314Z" fill="#9797DB"/>
<path d="M279.401 73.6314H270.791V81.879H279.401V73.6314Z" fill="#92E3A9"/>
<path opacity="0.8" d="M279.401 73.6314H270.791V81.879H279.401V73.6314Z" fill="black"/>
<path d="M222.978 53.5476H217.158V59.1192H222.978V53.5476Z" stroke="#263238" stroke-width="2" stroke-miterlimit="10" stroke-linecap="round" stroke-linejoin="round"/>
<path d="M220.27 50.405H214.45V55.9766H220.27V50.405Z" fill="#92E3A9"/>
<path opacity="0.3" d="M220.27 50.405H214.45V55.9766H220.27V50.405Z" fill="#92E3A9"/>
<path d="M215.362 44.3875H230.368" stroke="white" stroke-width="2" stroke-miterlimit="10" stroke-linecap="round" stroke-linejoin="round"/>
<path d="M270.963 41.7114V42.2123L271.991 43.0837L270.963 43.9483V44.4492L272.58 43.0837L270.963 41.7114Z" fill="white"/>
<path d="M272.738 41.7114V42.2123L273.766 43.0837L272.738 43.9483V44.4492L274.363 43.0837L272.738 41.7114Z" fill="white"/>
<path d="M276.412 40.8949V45.6225" stroke="white" stroke-width="0.5" stroke-miterlimit="10" stroke-linecap="round" stroke-linejoin="round"/>
<path d="M278.469 42.329H282.171" stroke="white" stroke-width="0.5" stroke-miterlimit="10" stroke-linecap="round" stroke-linejoin="round"/>
<path d="M278.469 43.1524H282.171" stroke="white" stroke-width="0.5" stroke-miterlimit="10" stroke-linecap="round" stroke-linejoin="round"/>
<path d="M278.469 43.9757H282.171" stroke="white" stroke-width="0.5" stroke-miterlimit="10" stroke-linecap="round" stroke-linejoin="round"/>
<path d="M278.469 44.7991H282.171" stroke="white" stroke-width="0.5" stroke-miterlimit="10" stroke-linecap="round" stroke-linejoin="round"/>
<path d="M96.9428 134.006H22.6419V183.231H96.9428V134.006Z" fill="#263238"/>
<path opacity="0.1" d="M96.9496 136.065H47.8202V145.527H96.9496V136.065Z" fill="white"/>
<path opacity="0.2" d="M47.8202 145.527V136.065H22.6419V183.231H96.9496V145.527H47.8202Z" fill="white"/>
<path d="M35.495 150.158H29.6751V155.73H35.495V150.158Z" stroke="#263238" stroke-width="2" stroke-miterlimit="10" stroke-linecap="round" stroke-linejoin="round"/>
<path d="M32.7804 147.016H26.9605V152.587H32.7804V147.016Z" fill="#92E3A9"/>
<path opacity="0.3" d="M32.7804 147.016H26.9605V152.587H32.7804V147.016Z" fill="#92E3A9"/>
<path d="M27.8791 140.998H42.8846" stroke="white" stroke-width="2" stroke-miterlimit="10" stroke-linecap="round" stroke-linejoin="round"/>
<path d="M83.4728 138.322V138.823L84.5079 139.695L83.4728 140.559V141.06L85.0974 139.695L83.4728 138.322Z" fill="white"/>
<path d="M85.2551 138.322V138.823L86.2833 139.695L85.2551 140.559V141.06L86.8729 139.695L85.2551 138.322Z" fill="white"/>
<path d="M88.9293 137.499V142.233" stroke="white" stroke-width="0.5" stroke-miterlimit="10" stroke-linecap="round" stroke-linejoin="round"/>
<path d="M90.9858 138.94H94.6875" stroke="white" stroke-width="0.5" stroke-miterlimit="10" stroke-linecap="round" stroke-linejoin="round"/>
<path d="M90.9858 139.763H94.6875" stroke="white" stroke-width="0.5" stroke-miterlimit="10" stroke-linecap="round" stroke-linejoin="round"/>
<path d="M90.9858 140.587H94.6875" stroke="white" stroke-width="0.5" stroke-miterlimit="10" stroke-linecap="round" stroke-linejoin="round"/>
<path d="M90.9858 141.41H94.6875" stroke="white" stroke-width="0.5" stroke-miterlimit="10" stroke-linecap="round" stroke-linejoin="round"/>
<path d="M44.9342 152.608H75.4731" stroke="#9E9E9E" stroke-width="3" stroke-miterlimit="10"/>
<path d="M45.7705 153.349L44.4818 154.879V156.032H47.1484V154.879L45.7705 153.349Z" fill="#8F8F8F"/>
<path d="M44.9342 161.178H75.4731" stroke="#92E3A9" stroke-width="3" stroke-miterlimit="10"/>
<path d="M73.8347 161.919L72.5391 163.449V164.595H75.2057V163.449L73.8347 161.919Z" fill="#8F8F8F"/>
<path d="M44.9342 169.748H75.4731" stroke="white" stroke-width="3" stroke-miterlimit="10"/>
<path d="M45.1399 170.482L43.8443 172.019V173.165H46.5177V172.019L45.1399 170.482Z" fill="#8F8F8F"/>
<path d="M86.4273 175.704H75.1714V180.466H86.4273V175.704Z" fill="#263238"/>
<path d="M86.1119 166.976H76.9194V171.738H86.1119V166.976Z" fill="#263238"/>
<path d="M86.1119 158.879H76.9194V163.641H86.1119V158.879Z" fill="#263238"/>
<path d="M86.1119 150.79H76.9194V155.552H86.1119V150.79Z" fill="#263238"/>
<path d="M216.274 219.975C216.274 219.975 200.439 223.577 195.579 225.018C190.719 226.459 186.222 227.543 187.12 229.704C188.018 231.866 182.26 249.877 182.26 249.877L174.164 269.515L185.68 278.524L194.859 260.691L203.14 301.223H258.747C258.747 301.223 257.129 233.67 254.429 230.247C251.728 226.823 230.313 219.44 225.096 218.898C219.873 218.355 216.274 219.975 216.274 219.975Z" fill="#634D95"/>
<path d="M242.46 258.818C242.46 258.818 238.806 251.195 236.373 242.968" stroke="#263238" stroke-miterlimit="10" stroke-linecap="round" stroke-linejoin="round"/>
<path d="M237.298 257.343C238.758 259.113 241.075 260.973 244.592 261.556" stroke="#263238" stroke-miterlimit="10" stroke-linecap="round" stroke-linejoin="round"/>
<path d="M235.152 253.631C235.152 253.631 235.447 254.564 236.201 255.806" stroke="#263238" stroke-miterlimit="10" stroke-linecap="round" stroke-linejoin="round"/>
<path d="M191.774 243.915L194.859 260.691L189.238 243.908" stroke="#263238" stroke-miterlimit="10" stroke-linecap="round" stroke-linejoin="round"/>
<path d="M190.698 238.055L191.349 241.575" stroke="#263238" stroke-miterlimit="10" stroke-linecap="round" stroke-linejoin="round"/>
<path d="M208.96 218.904C208.96 218.904 204.881 223.838 204.538 228.6C204.195 233.362 205.011 248.498 205.011 248.498C205.011 248.498 213.381 243.915 216.774 243.915C220.174 243.915 227.989 250.55 227.989 250.55C227.989 250.55 233.26 233.54 230.539 223.502C227.824 213.456 216.096 210.904 208.96 218.904Z" fill="white" stroke="#263238" stroke-miterlimit="10" stroke-linecap="round" stroke-linejoin="round"/>
<path d="M209.296 220.606C209.296 220.606 210.653 226.898 211.674 230.981C212.696 235.063 215.41 244.587 216.774 243.908C218.132 243.229 224.082 229.108 224.253 225.533C224.328 223.996 227.386 216.825 224.685 214.986C221.113 212.564 211.331 216.05 209.296 220.606Z" fill="white" stroke="#263238" stroke-miterlimit="10" stroke-linecap="round" stroke-linejoin="round"/>
<path d="M211.681 230.981C211.942 232.017 212.305 233.403 212.737 234.878C213.6 234.13 214.615 233.224 215.815 232.133C222.423 226.088 223.862 221.203 223.862 221.203L209.748 222.644C210.228 224.833 211.023 228.36 211.681 230.981Z" fill="#263238" stroke="#263238" stroke-miterlimit="10" stroke-linecap="round"/>
<path d="M188.025 274.016C188.025 274.016 186.942 269.694 180.827 267.354C174.705 265.014 173.986 266.091 173.088 267.896C172.19 269.701 169.489 272.397 170.03 274.202C170.572 276.006 172.731 280.329 180.649 281.948C188.566 283.568 186.948 279.609 187.846 278.524C188.744 277.44 189.642 277.982 188.025 274.016Z" fill="white" stroke="#263238" stroke-miterlimit="10" stroke-linecap="round" stroke-linejoin="round"/>
<path d="M129.175 290.759C129.175 290.759 121.079 293.462 121.436 295.26C121.792 297.064 129.353 293.098 129.353 293.098C129.353 293.098 130.614 295.438 132.952 294.539C135.289 293.641 133.315 290.038 132.054 290.217C130.793 290.395 129.175 290.759 129.175 290.759Z" fill="white" stroke="#263238" stroke-miterlimit="10" stroke-linecap="round" stroke-linejoin="round"/>
<path d="M172.546 289.318C172.546 289.318 183.521 283.376 183.521 280.494C183.521 277.612 175.24 273.831 173.081 274.01C170.921 274.188 170.023 274.908 168.399 277.612C166.781 280.315 153.64 292.563 153.64 292.563C153.64 292.563 145.003 286.436 142.48 286.436C139.958 286.436 134.199 293.098 133.843 295.802C133.487 298.505 145.723 299.768 150.583 299.768C156.574 299.761 172.546 289.318 172.546 289.318Z" fill="white" stroke="#263238" stroke-miterlimit="10" stroke-linecap="round" stroke-linejoin="round"/>
<path d="M146.12 295.5C146.12 295.5 139.334 287.849 130.614 291.349C121.895 294.848 122.669 300.749 122.669 300.749H148.06C148.053 300.742 148.444 298.121 146.12 295.5Z" fill="white" stroke="#263238" stroke-miterlimit="10" stroke-linecap="round" stroke-linejoin="round"/>
<path d="M133.027 286.381C133.027 286.381 129.908 286.875 129.36 287.657C128.818 288.439 125.459 292.941 126.59 293.901C127.722 294.862 131.19 289.448 131.93 289.043C132.685 288.632 133.932 287.582 133.027 286.381Z" fill="white" stroke="#263238" stroke-miterlimit="10" stroke-linecap="round" stroke-linejoin="round"/>
<path d="M135.954 287.081C135.954 287.081 134.645 285.125 133.027 286.374C131.409 287.623 128.887 293.002 129.127 294.327C129.367 295.651 131.149 294.924 132.061 293.936C132.979 292.954 135.954 287.081 135.954 287.081Z" fill="white" stroke="#263238" stroke-miterlimit="10" stroke-linecap="round" stroke-linejoin="round"/>
<path d="M143.57 287.513C143.57 287.513 140.15 284.631 138.168 284.453C136.187 284.274 135.468 285.715 135.289 287.335C135.111 288.954 132.589 296.344 133.308 296.701C134.028 297.064 135.468 296.879 136.366 295.26C137.264 293.641 139.066 288.412 139.066 288.412L140.506 289.496" fill="white"/>
<path d="M143.57 287.513C143.57 287.513 140.15 284.631 138.168 284.453C136.187 284.274 135.468 285.715 135.289 287.335C135.111 288.954 132.589 296.344 133.308 296.701C134.028 297.064 135.468 296.879 136.366 295.26C137.264 293.641 139.066 288.412 139.066 288.412L140.506 289.496" stroke="#263238" stroke-miterlimit="10" stroke-linecap="round" stroke-linejoin="round"/>
<path d="M146.504 291.822C146.504 291.822 145.921 293.373 145.339 294.732C144.756 296.09 135.07 297.833 134.679 299.583C134.289 301.325 140.3 300.166 142.432 300.166C144.564 300.166 148.437 300.749 150.768 298.807C153.092 296.865 153.866 296.481 153.866 296.481" fill="white"/>
<path d="M146.504 291.822C146.504 291.822 145.921 293.373 145.339 294.732C144.756 296.09 135.07 297.833 134.679 299.583C134.289 301.325 140.3 300.166 142.432 300.166C144.564 300.166 148.437 300.749 150.768 298.807C153.092 296.865 153.866 296.481 153.866 296.481" stroke="#263238" stroke-miterlimit="10" stroke-linecap="round" stroke-linejoin="round"/>
<path d="M244.715 237.993C244.715 237.993 242.556 241.774 241.836 243.935C241.116 246.097 243.097 272.761 243.097 272.761C243.097 272.761 246.696 271.498 250.473 272.397C254.25 273.296 261.811 277.44 261.811 277.44C261.811 277.44 262.531 269.694 261.27 263.93C260.008 258.166 257.671 234.926 256.053 232.586C254.435 230.247 254.97 228.984 251.556 230.247" fill="#634D95"/>
<path d="M264.327 272.939C264.327 272.939 259.467 268.795 255.69 267.896C251.913 266.997 244.715 267.896 243.632 268.26C242.549 268.623 241.829 269.879 241.651 271.684C241.473 273.488 240.211 274.744 241.109 275.828C242.007 276.912 247.046 280.329 251.186 281.413C255.327 282.497 261.626 282.134 262.524 279.43C263.429 276.72 265.225 274.922 264.327 272.939Z" fill="white" stroke="#263238" stroke-miterlimit="10" stroke-linecap="round" stroke-linejoin="round"/>
<path d="M167.946 287.506C167.946 287.506 162.154 289.99 160.289 290.615C158.425 291.239 157.801 292.947 159.46 293.517C161.119 294.08 168.68 291.239 169.393 291.445C170.106 291.651 177.879 294.135 180.361 294.347C182.842 294.553 184.912 292.899 184.912 292.899C184.912 292.899 173.122 285.434 167.946 287.506Z" fill="white" stroke="#263238" stroke-miterlimit="10" stroke-linecap="round" stroke-linejoin="round"/>
<path d="M256.595 284.487C260.838 283.163 261.441 277.289 257.575 275.094C256.423 274.442 255.073 273.859 253.531 273.481C247.594 272.04 242.371 273.481 240.575 274.202C238.772 274.922 198.369 287.3 195.476 287.712C192.576 288.124 173.54 281.708 170.64 281.496C166.802 281.221 162.366 291.369 161.126 294.073C160.92 294.519 160.721 294.985 160.742 295.473C160.762 295.96 161.071 296.474 161.551 296.557C162.099 296.653 162.579 296.2 162.922 295.761C165.479 292.563 166.884 288.398 170.113 285.88C168.618 288.762 167.124 291.651 165.636 294.532C165.396 294.999 165.143 295.486 165.115 296.015C165.088 296.543 165.342 297.126 165.835 297.305C166.541 297.565 167.24 296.934 167.672 296.317C168.68 294.869 169.297 293.194 170.113 291.63C170.928 290.066 172.018 288.549 173.602 287.781C171.84 290.807 170.407 294.025 169.338 297.353C169.167 297.874 169.379 298.492 169.88 298.718C170.579 299.027 171.107 298.348 171.436 297.764C173.04 294.965 174.644 292.158 176.248 289.359C174.98 292.254 173.828 295.205 172.807 298.203C172.738 298.409 172.669 298.629 172.724 298.835C172.779 299.047 172.964 299.205 173.163 299.288C173.698 299.521 174.335 299.308 174.767 298.917C175.192 298.526 175.453 297.984 175.693 297.456C176.556 295.562 177.173 293.538 178.064 291.671C180.546 292.2 182.616 294.519 185.331 294.937C188.025 295.349 192.988 294.107 192.988 294.107C192.988 294.107 242.371 287.321 248.849 286.058C251.769 285.523 254.394 285.173 256.595 284.487Z" fill="white" stroke="#263238" stroke-miterlimit="10" stroke-linecap="round" stroke-linejoin="round"/>
<path d="M228.825 198.484C230.087 197.764 231.691 197.908 232.733 198.924C233.816 199.973 233.541 203.665 233.178 206.066C232.465 210.767 229.065 212.132 229.065 212.132C229.065 212.132 224.061 223.378 219.852 227.214C215.643 231.049 210.714 232.36 204.579 223.172C201.878 219.131 197.807 199.864 197.807 199.864C197.807 199.864 196.278 195.383 198.581 191.637C200.884 187.89 208.308 184.487 213.189 184.205C218.077 183.924 222.272 186.943 224.705 189.571C227.146 192.199 228.393 196.357 228.393 196.357L228.709 198.56L228.825 198.484Z" fill="white" stroke="#263238" stroke-miterlimit="10"/>
<path d="M212.517 204.763C212.62 205.545 213.018 206.128 213.408 206.08C213.799 206.025 214.025 205.353 213.923 204.577C213.82 203.795 213.422 203.212 213.031 203.26C212.641 203.308 212.415 203.98 212.517 204.763Z" fill="#263238"/>
<path d="M203.462 206.183C203.565 206.965 203.962 207.555 204.353 207.5C204.744 207.446 204.977 206.773 204.867 205.998C204.764 205.216 204.367 204.632 203.976 204.68C203.592 204.735 203.359 205.408 203.462 206.183Z" fill="#263238"/>
<path d="M216.089 199.761C216.089 199.761 214.019 197.839 210.913 198.779" stroke="#263238" stroke-width="2" stroke-miterlimit="10" stroke-linecap="round"/>
<path d="M205.059 201.195C205.059 201.195 202.434 200.927 201.138 203.658" stroke="#263238" stroke-width="2" stroke-miterlimit="10" stroke-linecap="round"/>
<path d="M207.685 203.02C207.685 203.02 208.562 210.053 208.843 211.672C209.117 213.285 207.452 214.664 208.192 215.714C208.932 216.764 210.488 216.29 210.488 216.29" stroke="#263238" stroke-miterlimit="10" stroke-linecap="round"/>
<path d="M211.482 219.549C211.482 219.549 215.506 219.35 217.343 216.407" stroke="#263238" stroke-miterlimit="10" stroke-linecap="round"/>
<path d="M215.458 178.497C215.458 178.497 207.397 175.608 201.618 177.838C195.846 180.068 196.216 183.169 192.748 184.823C189.279 186.477 185.002 188.871 186.105 194.031C186.873 197.613 191.87 200.893 197.793 199.87C203.716 198.848 210.776 194.223 212.874 193.098C214.965 191.973 219.194 190.655 219.194 190.655C219.194 190.655 219.557 196.522 221.847 197.537C224.136 198.553 224.836 199.548 225.254 200.646C225.679 201.744 227.18 204.008 227.18 204.008L229.045 203.919L228.702 200.57C228.702 200.57 230.895 195.609 229.812 190.34C228.729 185.07 222.697 181.708 222.697 181.708L215.458 178.497Z" fill="#263238"/>
<path d="M196.319 197.86C196.319 197.86 206.403 196.007 212.593 190.113C218.783 184.219 210.077 180.569 210.077 180.569" stroke="white" stroke-width="0.4317" stroke-miterlimit="10" stroke-linecap="round"/>
<path d="M211.407 179.471C212.168 179.176 220.38 181.557 220.483 185.605C220.586 189.654 218.145 190.889 218.145 190.889" stroke="white" stroke-width="0.4317" stroke-miterlimit="10" stroke-linecap="round"/>
<path d="M30.3949 251.613C31.4642 252.08 34.0691 252.018 34.0691 252.018C34.0965 252.018 33.507 250.31 33.459 250.207C32.8901 249.006 31.0735 247.03 29.6066 247.229C28.544 247.373 27.9545 248.437 28.1944 249.438C28.4412 250.454 29.49 251.215 30.3949 251.613Z" fill="#263238"/>
<path d="M64.5668 242.721C63.0862 242.563 61.3313 244.587 60.7966 245.802C60.7486 245.905 60.2071 247.634 60.2345 247.634C60.2345 247.634 60.2619 247.634 60.2688 247.634C59.9877 247.949 59.693 248.292 59.3776 248.677C58.8018 249.39 58.1506 250.193 57.5062 251.126C56.8619 252.053 56.1832 253.075 55.5663 254.214C54.9493 255.36 54.3598 256.595 53.9142 257.947C53.9074 257.96 53.9074 257.981 53.9005 257.995C53.9074 257.556 53.8868 256.341 53.8799 256.245C53.7086 254.928 52.6049 252.485 51.1448 252.21C50.0892 252.018 49.198 252.842 49.1158 253.864C49.0335 254.914 49.7875 255.957 50.5279 256.622C51.3642 257.37 53.6743 258.091 53.8594 258.146C53.4481 259.436 53.1259 260.794 52.8791 262.187C52.7352 262.983 52.6186 263.786 52.509 264.596C52.5021 264.218 52.4952 263.882 52.4884 263.834C52.317 262.516 51.2134 260.074 49.7533 259.799C48.6976 259.607 47.8065 260.431 47.7242 261.453C47.6351 262.503 48.396 263.546 49.1363 264.211C49.8835 264.884 51.844 265.536 52.365 265.7C52.3239 266.009 52.2827 266.325 52.2485 266.633C52.0702 268.129 51.8989 269.618 51.6864 271.073C51.611 271.587 51.5218 272.088 51.4259 272.589C51.419 272.253 51.4122 271.972 51.4053 271.931C51.2339 270.613 50.1303 268.17 48.6702 267.896C47.6145 267.704 46.7234 268.527 46.6411 269.55C46.552 270.593 47.3129 271.642 48.0532 272.301C48.7661 272.939 50.5759 273.564 51.1928 273.763C51.0831 274.277 50.9734 274.792 50.8501 275.279C50.7541 275.615 50.6855 275.938 50.5759 276.274C50.473 276.603 50.3634 276.926 50.2605 277.255C50.0343 277.873 49.8081 278.504 49.575 279.101C49.4174 279.513 49.2597 279.904 49.0952 280.302C49.1775 279.794 49.3145 278.792 49.3145 278.703C49.3351 277.818 49.0198 276.384 48.396 275.375C48.4028 275.245 48.3891 275.114 48.3686 274.984C48.204 273.968 47.2512 273.214 46.2161 273.488C44.7834 273.872 43.8717 276.397 43.8032 277.722C43.7963 277.797 43.8511 278.655 43.8923 279.19C43.8169 278.874 43.7552 278.573 43.6729 278.25C43.5221 277.612 43.3507 276.988 43.1725 276.308C43.0765 275.986 42.9737 275.656 42.8777 275.327C42.7886 274.998 42.6447 274.661 42.5281 274.318C42.2471 273.543 41.9181 272.768 41.5753 271.992C42.1306 271.862 44.0979 271.354 44.8862 270.75C45.6746 270.147 46.504 269.158 46.4972 268.109C46.4903 267.079 45.6609 266.187 44.5983 266.304C43.1177 266.462 41.8358 268.822 41.5684 270.119C41.5547 270.201 41.4656 271.155 41.4245 271.684C41.212 271.224 41.0063 270.757 40.7733 270.297C40.1152 268.966 39.4023 267.642 38.7031 266.311C38.4906 265.906 38.2781 265.494 38.0656 265.09C38.2644 265.042 40.6156 264.499 41.4999 263.82C42.2882 263.216 43.1177 262.228 43.1108 261.178C43.104 260.149 42.2745 259.257 41.212 259.374C39.7313 259.532 38.4494 261.892 38.1821 263.189C38.1615 263.285 38.0381 264.664 38.0244 265.014C37.5583 264.115 37.1059 263.216 36.6877 262.317C36.1188 261.069 35.6252 259.82 35.2345 258.571C35.3304 258.55 37.7845 257.988 38.6894 257.295C39.4777 256.691 40.3071 255.703 40.3003 254.653C40.2934 253.624 39.464 252.732 38.4015 252.849C36.9208 253.006 35.6389 255.367 35.3716 256.664C35.351 256.766 35.2208 258.242 35.2139 258.516C35.1933 258.441 35.1591 258.365 35.1385 258.29C34.7409 256.952 34.5284 255.6 34.3845 254.331C34.3022 253.59 34.2611 252.883 34.2405 252.19C34.7066 252.135 36.8454 251.847 37.7297 251.312C38.5797 250.797 39.512 249.905 39.6216 248.862C39.7245 247.84 39.0047 246.865 37.9285 246.858C36.4409 246.858 34.9123 249.054 34.501 250.317C34.4804 250.385 34.3296 251.106 34.2268 251.641C34.2199 251.325 34.2131 251.003 34.2131 250.708C34.2131 249.582 34.2885 248.553 34.357 247.641C34.3982 247.119 34.453 246.653 34.501 246.22C34.9329 245.925 36.6466 244.711 37.1813 243.839C37.6954 242.995 38.1204 241.767 37.7365 240.793C37.3595 239.839 36.2696 239.304 35.3167 239.798C33.9937 240.484 33.651 243.139 33.8703 244.45C33.8909 244.56 34.3913 246.303 34.4119 246.282C34.4119 246.282 34.4324 246.268 34.4393 246.261C34.3845 246.68 34.3228 247.133 34.2679 247.627C34.1788 248.539 34.0828 249.569 34.0554 250.701C34.028 251.826 34.028 253.054 34.1445 254.351C34.2611 255.648 34.4461 257.007 34.8163 258.379C34.8232 258.393 34.83 258.413 34.83 258.427C34.597 258.056 33.9115 257.055 33.8498 256.979C32.9792 255.977 30.7171 254.543 29.3461 255.127C28.3589 255.545 28.071 256.725 28.5646 257.631C29.0719 258.55 30.2783 259.003 31.2586 259.147C32.3622 259.312 34.6929 258.633 34.878 258.578C35.2482 259.882 35.728 261.192 36.2901 262.489C36.6123 263.23 36.9551 263.971 37.3115 264.705C37.099 264.397 36.9071 264.115 36.8728 264.081C36.0022 263.079 33.7332 261.645 32.3691 262.228C31.382 262.647 31.0941 263.827 31.5876 264.726C32.0949 265.645 33.3014 266.098 34.2816 266.242C35.2756 266.386 37.2704 265.851 37.7982 265.7C37.9353 265.982 38.0724 266.263 38.2164 266.544C38.8882 267.889 39.5668 269.227 40.1975 270.558C40.4168 271.025 40.6156 271.498 40.8213 271.972C40.6293 271.697 40.4717 271.464 40.4442 271.43C39.5737 270.428 37.3115 268.994 35.9405 269.577C34.9534 269.996 34.6655 271.176 35.1591 272.075C35.6663 272.994 36.8728 273.447 37.8531 273.591C38.8059 273.728 40.6499 273.248 41.2737 273.076C41.4656 273.564 41.6576 274.051 41.8221 274.531C41.9249 274.86 42.0483 275.176 42.1374 275.512C42.2334 275.848 42.3225 276.178 42.4116 276.5C42.5624 277.138 42.7269 277.79 42.8572 278.415C42.9531 278.847 43.0354 279.266 43.1245 279.677C42.912 279.211 42.4733 278.298 42.4253 278.223C41.7193 277.097 39.697 275.341 38.2575 275.711C37.2224 275.979 36.7563 277.097 37.1059 278.065C37.4692 279.053 38.5934 279.684 39.5394 279.972C40.5813 280.295 42.8915 280 43.1794 279.959C43.3165 280.652 43.4467 281.324 43.5564 281.962C43.7278 282.923 43.8649 283.808 43.9814 284.618H42.631V300.722H49.0266V284.618H48.1835C48.4371 284.041 48.6976 283.424 48.9649 282.765C49.2391 282.106 49.5133 281.393 49.7944 280.658C50.0754 280.72 52.3581 281.18 53.4275 280.94C54.3941 280.72 55.5663 280.171 55.9981 279.218C56.4231 278.284 56.0393 277.125 55.0247 276.782C53.6195 276.308 51.467 277.907 50.6787 278.977C50.6307 279.039 50.2057 279.78 49.9452 280.254C50.0549 279.952 50.1714 279.664 50.2811 279.348C50.5073 278.737 50.713 278.113 50.9392 277.454C51.0351 277.132 51.1311 276.802 51.2339 276.473C51.3368 276.144 51.4053 275.787 51.5013 275.444C51.6932 274.641 51.8509 273.811 51.988 272.98C52.5227 273.172 54.4421 273.845 55.436 273.776C56.4231 273.708 57.6639 273.344 58.2397 272.466C58.8018 271.601 58.603 270.407 57.6502 269.913C56.3272 269.234 53.9622 270.49 53.0231 271.423C52.9614 271.478 52.365 272.232 52.0428 272.644C52.1182 272.143 52.2005 271.642 52.269 271.128C52.4541 269.653 52.5912 268.157 52.7352 266.661C52.7763 266.201 52.8311 265.748 52.8791 265.289C53.0711 265.357 55.3332 266.201 56.4437 266.126C57.4308 266.057 58.6716 265.693 59.2474 264.815C59.8095 263.951 59.6107 262.757 58.6579 262.263C57.3348 261.583 54.9699 262.839 54.0308 263.772C53.9622 263.841 53.0985 264.918 52.8928 265.206C52.9957 264.204 53.1122 263.203 53.2699 262.221C53.4824 260.87 53.7634 259.552 54.1267 258.29C54.2158 258.324 56.5739 259.216 57.7119 259.134C58.699 259.065 59.9397 258.701 60.5155 257.823C61.0776 256.959 60.8789 255.765 59.926 255.271C58.603 254.591 56.2381 255.847 55.2989 256.78C55.2235 256.856 54.2981 258.015 54.1473 258.235C54.1679 258.159 54.1816 258.084 54.209 258.008C54.6203 256.67 55.1824 255.428 55.7651 254.289C56.101 253.631 56.4643 253.013 56.8276 252.423C57.2526 252.636 59.1857 253.576 60.2208 253.617C61.2079 253.658 62.4829 253.432 63.1479 252.622C63.7991 251.826 63.7305 250.612 62.8394 250.022C61.5986 249.198 59.1103 250.186 58.0752 251.016C58.0203 251.065 57.4925 251.586 57.1223 251.97C57.2937 251.71 57.4582 251.435 57.6228 251.181C58.2466 250.241 58.8704 249.425 59.4325 248.704C59.7546 248.299 60.0563 247.936 60.3373 247.599C60.8583 247.593 62.9628 247.524 63.8813 247.092C64.7793 246.673 65.8076 245.884 66.0201 244.855C66.2463 243.887 65.6293 242.838 64.5668 242.721ZM48.204 282.463C47.8613 283.259 47.5254 283.986 47.2101 284.659H44.9822C44.8383 283.808 44.6737 282.868 44.4681 281.846C44.331 281.146 44.1665 280.398 43.9951 279.629C44.1665 279.561 45.1536 279.163 46.0242 278.675C46.7851 279.499 48.7319 280.466 48.9855 280.59C48.7319 281.235 48.4645 281.866 48.204 282.463Z" fill="#263238"/>
<path d="M56.7796 252.183C56.8002 252.197 57.2526 250.447 57.2732 250.337C57.4582 249.02 57.0401 246.371 55.6965 245.726C54.73 245.26 53.6537 245.822 53.3041 246.79C52.9477 247.778 53.4001 248.985 53.9416 249.823C54.5723 250.79 56.7796 252.183 56.7796 252.183Z" fill="#263238"/>
<path d="M138.029 300.938H184.149V298.522H138.029V300.938Z" fill="white" stroke="#263238" stroke-miterlimit="10" stroke-linecap="round" stroke-linejoin="round"/>
<path d="M114.515 300.938H172.227V298.522H114.515V300.938Z" fill="white" stroke="#263238" stroke-miterlimit="10" stroke-linecap="round" stroke-linejoin="round"/>
<path d="M93.2589 300.814H125.203V299.325H93.2589V300.814Z" fill="white" stroke="#263238" stroke-miterlimit="10" stroke-linecap="round" stroke-linejoin="round"/>
<path d="M68.6976 290.968H137.549V246.526H68.6976V290.968Z" fill="white" stroke="#263238" stroke-miterlimit="10" stroke-linecap="round" stroke-linejoin="round"/>
<path d="M68.7034 290.968H133.791V246.526H68.7034V290.968Z" fill="#263238" stroke="#263238" stroke-miterlimit="10" stroke-linecap="round" stroke-linejoin="round"/>
<path d="M92.5247 301.488H107.585V267.173H92.5247V301.488Z" fill="white" stroke="#263238" stroke-miterlimit="10" stroke-linecap="round" stroke-linejoin="round"/>
<path d="M91.1379 301.488H106.198V267.173H91.1379V301.488Z" fill="#263238" stroke="#263238" stroke-miterlimit="10" stroke-linecap="round" stroke-linejoin="round"/>
<path d="M107.198 267.58H90.7802V291.074" stroke="white" stroke-miterlimit="10" stroke-linecap="round" stroke-linejoin="round"/>
<path d="M52.3878 306.364L294.34 306.364V300.916L52.3878 300.916V306.364Z" fill="white" stroke="#263238" stroke-miterlimit="10" stroke-linecap="round" stroke-linejoin="round"/>
<path d="M32.2494 306.364H207.496V300.916H32.2494V306.364Z" fill="#263238" stroke="#263238" stroke-miterlimit="10" stroke-linecap="round" stroke-linejoin="round"/>
</svg>
