<svg width="325" height="311" viewBox="0 0 325 311" fill="none" xmlns="http://www.w3.org/2000/svg">
<path d="M262.485 294.247C239.586 285.954 228.492 262.115 223.217 239.419C222.339 235.632 220.862 231.782 221.761 228.009C222.66 224.235 226.221 220.867 230.005 221.543C233.14 222.108 235.224 225.023 237.503 227.283C240.534 230.296 244.416 232.417 248.555 233.323C251.28 233.923 254.436 233.881 256.443 231.949C259.196 229.292 258.381 224.716 257.349 220.985C255.433 214.038 253.523 207.092 251.614 200.145C250.59 196.42 249.551 192.605 249.76 188.755C249.969 184.898 251.649 180.916 254.931 178.97C258.213 177.017 263.154 177.889 264.882 181.341C265.6 182.778 265.718 184.438 266.234 185.958C266.757 187.479 267.934 188.999 269.523 189.034C271.133 189.069 272.339 187.611 273.161 186.216C275.997 181.411 277.307 175.852 278.45 170.363C279.593 164.874 280.638 159.294 283.028 154.245C285.419 149.195 289.377 144.633 294.638 142.897C299.899 141.16 306.478 142.925 309.237 147.814C312.004 152.71 310.373 158.883 308.178 164.037C304.924 171.688 300.561 178.858 295.286 185.24C294.331 186.391 293.3 187.639 293.223 189.139C293.084 191.845 296.101 193.686 298.777 193.84C301.809 194.021 304.749 192.919 307.746 192.48C310.749 192.04 314.241 192.473 316.08 194.935C318.631 198.338 316.519 203.2 314.087 206.659C309.216 213.599 303.154 219.674 296.255 224.535C293.781 226.279 291.133 227.939 289.432 230.464C287.739 232.988 287.307 236.706 289.349 238.973C291.391 241.246 295.049 241.163 297.781 239.858C300.512 238.554 302.666 236.294 305.126 234.53C309.732 231.217 316.45 229.787 320.923 233.337C323.864 235.674 325.146 239.677 324.986 243.45C324.826 247.217 323.418 250.809 321.808 254.198C316.185 266.055 307.753 276.657 296.965 283.98C286.185 291.311 275.467 295.391 262.485 294.247Z" fill="#EBEBEB"/>
<path d="M266.666 311C265.084 301.87 264.213 290.822 264.499 278.589C264.757 266.348 266.15 252.957 268.095 239.001C268.589 235.513 269.084 232.068 269.572 228.671C270.067 225.281 270.555 221.92 271.231 218.663C272.562 212.141 274.339 205.969 276.206 200.166C278.074 194.356 280.06 188.916 281.948 183.845C283.851 178.774 285.718 174.08 287.593 169.875C291.328 161.442 295.14 155.012 297.934 150.708C299.328 148.546 300.464 146.907 301.244 145.805C301.62 145.282 301.92 144.871 302.143 144.557C302.352 144.278 302.457 144.138 302.471 144.145C302.485 144.152 302.394 144.306 302.206 144.599C301.997 144.919 301.718 145.345 301.363 145.882C300.617 147.012 299.523 148.672 298.164 150.855C295.446 155.2 291.718 161.652 288.053 170.084C286.206 174.29 284.373 178.984 282.499 184.061C280.631 189.139 278.673 194.586 276.826 200.382C274.98 206.178 273.224 212.33 271.907 218.816C271.238 222.059 270.757 225.386 270.262 228.783C269.781 232.179 269.286 235.625 268.792 239.105C266.854 253.055 265.44 266.411 265.147 278.61C264.833 290.808 265.649 301.814 267.161 310.916" fill="#E0E0E0"/>
<path d="M271.419 218.579C271.377 218.6 271.098 218.063 270.624 217.086C270.15 216.11 269.516 214.666 268.75 212.881C267.224 209.303 265.286 204.295 263.168 198.764C261.05 193.226 259.043 188.26 257.468 184.717C256.687 182.945 256.039 181.515 255.572 180.532C255.119 179.549 254.882 178.991 254.931 178.97C254.973 178.949 255.286 179.458 255.823 180.407C256.36 181.355 257.077 182.75 257.921 184.508C259.621 188.009 261.705 192.968 263.823 198.506C265.9 203.967 267.774 208.912 269.21 212.692C269.865 214.394 270.422 215.831 270.868 216.982C271.265 217.986 271.461 218.558 271.419 218.579Z" fill="#E0E0E0"/>
<path d="M316.965 196.706C316.979 196.755 316.317 197.013 315.112 197.453C313.913 197.892 312.171 198.52 310.045 199.364C305.781 201.017 299.969 203.514 293.676 206.548C287.391 209.595 281.816 212.595 277.844 214.875C275.851 216.005 274.262 216.961 273.161 217.616C272.06 218.279 271.44 218.621 271.412 218.579C271.384 218.537 271.955 218.112 273.015 217.379C274.074 216.654 275.628 215.629 277.593 214.436C281.509 212.03 287.063 208.954 293.37 205.899C299.683 202.858 305.544 200.424 309.871 198.889C312.025 198.101 313.802 197.543 315.035 197.188C316.261 196.825 316.951 196.657 316.965 196.706Z" fill="#E0E0E0"/>
<path d="M264.847 277.543C264.826 277.556 264.659 277.389 264.36 277.047C264.011 276.636 263.586 276.134 263.07 275.534C261.962 274.216 260.401 272.256 258.506 269.822C254.715 264.946 249.691 258.041 244.248 250.355C238.806 242.662 233.851 235.723 230.165 230.777C228.367 228.371 226.883 226.397 225.782 224.926C225.308 224.284 224.917 223.761 224.597 223.329C224.332 222.959 224.2 222.757 224.221 222.743C224.242 222.729 224.409 222.896 224.708 223.238C225.057 223.649 225.482 224.145 225.998 224.751C227.106 226.07 228.667 228.029 230.562 230.464C234.353 235.339 239.377 242.244 244.82 249.937C250.262 257.63 255.217 264.563 258.903 269.515C260.701 271.914 262.185 273.895 263.286 275.359C263.76 276.001 264.15 276.524 264.471 276.957C264.743 277.326 264.868 277.529 264.847 277.543Z" fill="#E0E0E0"/>
<path d="M323.063 239.838C323.077 239.858 322.882 240.005 322.498 240.27C322.045 240.57 321.488 240.94 320.812 241.386C319.251 242.404 317.146 243.771 314.582 245.438C309.321 248.863 302.108 253.668 294.15 258.99C286.185 264.319 278.924 269.061 273.593 272.374C270.924 274.034 268.757 275.353 267.238 276.231C266.534 276.636 265.955 276.964 265.481 277.236C265.077 277.459 264.854 277.563 264.847 277.543C264.833 277.522 265.029 277.375 265.412 277.11C265.865 276.81 266.422 276.441 267.098 275.994C268.659 274.976 270.764 273.609 273.328 271.942C278.589 268.524 285.802 263.712 293.76 258.39C301.718 253.068 308.979 248.319 314.317 245.006C316.986 243.346 319.153 242.028 320.673 241.149C321.376 240.744 321.955 240.416 322.429 240.144C322.833 239.921 323.049 239.817 323.063 239.838Z" fill="#E0E0E0"/>
<g opacity="0.34">
<path d="M310.171 149.223C306.728 178.377 293.432 212.274 266.868 227.848C226.729 251.381 230.095 287.579 151.754 303.314C139.539 305.769 127.95 306.801 117.016 306.599C111.142 306.487 105.455 306.013 99.9711 305.211C50.1737 297.93 16.6688 263.293 4.37627 221.48C-11.7978 166.485 20.5015 130.489 41.909 108.798C63.3164 87.1066 79.0026 19.5221 155.894 3.44552C167.615 0.997418 179.608 -0.251046 191.594 0.0488645C218.952 0.718432 248.792 9.70877 269.44 28.4776C270.987 29.8865 272.499 31.3511 273.969 32.8577C302.666 62.3326 314.861 109.474 310.171 149.223Z" fill="#704AB8"/>
</g>
<path d="M45.0587 35.1662C45.0309 35.1662 45.003 34.7478 44.9751 33.9945C44.9542 33.1575 44.9333 32.0834 44.9054 30.7931C44.8636 28.087 44.8427 24.3555 44.8427 20.2265C44.8427 20.0452 44.8427 19.8638 44.8427 19.6895V19.4733H45.0518C49.0587 19.4733 52.6545 19.5012 55.2538 19.536C56.4942 19.5639 57.5255 19.5849 58.3269 19.6058C59.0516 19.6337 59.4488 19.6616 59.4488 19.6895C59.4488 19.7174 59.0516 19.7453 58.3269 19.7732C57.5255 19.7871 56.4942 19.815 55.2538 19.8429C52.6545 19.8778 49.0517 19.9057 45.0518 19.9057L45.2608 19.6965C45.2608 19.8638 45.2608 20.0452 45.2608 20.2335C45.2608 24.3625 45.2399 28.0939 45.1981 30.8001C45.1702 32.0904 45.1493 33.1645 45.1284 34.0015C45.1215 34.7478 45.0936 35.1662 45.0587 35.1662Z" fill="#704AB8"/>
<path d="M74.2292 52.6238C74.1734 52.6238 74.1177 51.8636 74.0759 50.643C74.0341 49.4154 74.0132 47.7276 74.0132 45.8584C74.0132 45.7747 74.0132 45.691 74.0132 45.6143V45.398H74.2222C76.034 45.398 77.6647 45.4259 78.8424 45.4608C80.0201 45.4957 80.7448 45.5515 80.7448 45.6073C80.7448 45.6631 80.0201 45.7189 78.8424 45.7537C77.6647 45.7886 76.034 45.8165 74.2222 45.8165L74.4313 45.6073C74.4313 45.684 74.4313 45.7677 74.4313 45.8514C74.4313 47.7206 74.4104 49.4085 74.3686 50.636C74.3407 51.8636 74.2849 52.6238 74.2292 52.6238Z" fill="#704AB8"/>
<path d="M80.9887 65.513C80.9887 65.5688 80.2291 65.6246 79.0096 65.6664C77.7831 65.7083 76.0968 65.7292 74.2292 65.7292C74.1456 65.7292 74.0619 65.7292 73.9853 65.7292H73.7693V65.5199C73.7693 63.7065 73.7971 62.0745 73.832 60.8957C73.8668 59.717 73.9226 58.9917 73.9783 58.9917C74.0341 58.9917 74.0898 59.717 74.1247 60.8957C74.1595 62.0745 74.1874 63.7065 74.1874 65.5199L73.9783 65.3107C74.055 65.3107 74.1386 65.3107 74.2222 65.3107C76.0898 65.3107 77.7762 65.3316 79.0027 65.3735C80.2291 65.4014 80.9887 65.4572 80.9887 65.513Z" fill="#704AB8"/>
<path d="M100.731 58.7476C100.786 58.7476 100.842 59.5078 100.884 60.7284C100.926 61.9559 100.947 63.6438 100.947 65.513C100.947 65.5967 100.947 65.6804 100.947 65.7571V65.9733H100.738C98.9258 65.9733 97.2951 65.9454 96.1174 65.9105C94.9398 65.8757 94.215 65.8199 94.215 65.7641C94.215 65.7083 94.9398 65.6525 96.1174 65.6176C97.2951 65.5827 98.9258 65.5548 100.738 65.5548L100.529 65.7641C100.529 65.6873 100.529 65.6036 100.529 65.52C100.529 63.6507 100.549 61.9629 100.591 60.7353C100.619 59.5078 100.675 58.7476 100.731 58.7476Z" fill="#704AB8"/>
<path d="M93.9711 45.6143C93.9711 45.5585 94.7307 45.5027 95.9502 45.4608C97.1767 45.419 98.8631 45.398 100.731 45.398C100.814 45.398 100.898 45.398 100.975 45.398H101.191V45.6073C101.191 47.4207 101.163 49.0528 101.128 50.2315C101.093 51.4102 101.037 52.1356 100.982 52.1356C100.926 52.1356 100.87 51.4102 100.835 50.2315C100.8 49.0528 100.772 47.4207 100.772 45.6073L100.982 45.8165C100.905 45.8165 100.821 45.8165 100.738 45.8165C98.87 45.8165 97.1836 45.7956 95.9572 45.7537C94.7307 45.7259 93.9711 45.677 93.9711 45.6143Z" fill="#704AB8"/>
<path d="M59.9924 91.2983C59.9924 91.3262 59.5743 91.3541 58.8217 91.382C57.9854 91.4029 56.9123 91.4238 55.6231 91.4517C52.9193 91.4936 49.1911 91.5145 45.0657 91.5145C44.8845 91.5145 44.7034 91.5145 44.5291 91.5145H44.3131V91.3052C44.3131 87.2948 44.341 83.6959 44.3758 81.0943C44.4037 79.8529 44.4246 78.8206 44.4455 78.0185C44.4734 77.2932 44.5013 76.8956 44.5291 76.8956C44.557 76.8956 44.5849 77.2932 44.6128 78.0185C44.6267 78.8206 44.6546 79.8529 44.6824 81.0943C44.7173 83.6959 44.7452 87.3018 44.7452 91.3052L44.5361 91.096C44.7033 91.096 44.8845 91.096 45.0727 91.096C49.1981 91.096 52.9263 91.1169 55.6301 91.1588C56.9192 91.1867 57.9924 91.2076 58.8286 91.2285C59.5743 91.2425 59.9924 91.2704 59.9924 91.2983Z" fill="#704AB8"/>
<path d="M129.183 75.8215C129.211 75.8215 129.239 76.24 129.267 76.9933C129.288 77.8302 129.309 78.9043 129.337 80.1946C129.378 82.9008 129.399 86.6323 129.399 90.7613C129.399 90.9426 129.399 91.1239 129.399 91.2983V91.5075H129.19C125.183 91.5075 121.588 91.4796 118.988 91.4448C117.748 91.4169 116.717 91.3959 115.915 91.375C115.19 91.3471 114.793 91.3192 114.793 91.2913C114.793 91.2634 115.19 91.2355 115.915 91.2076C116.717 91.1937 117.748 91.1658 118.988 91.1379C121.588 91.103 125.19 91.0751 129.19 91.0751L128.981 91.2844C128.981 91.117 128.981 90.9356 128.981 90.7473C128.981 86.6183 129.002 82.8869 129.044 80.1807C129.072 78.8904 129.093 77.8163 129.114 76.9793C129.128 76.24 129.155 75.8215 129.183 75.8215Z" fill="#704AB8"/>
<path d="M114.257 19.6825C114.257 19.6546 114.675 19.6267 115.427 19.5988C116.264 19.5779 117.337 19.5569 118.626 19.5291C121.33 19.4872 125.058 19.4663 129.183 19.4663C129.364 19.4663 129.546 19.4663 129.72 19.4663H129.929V19.6755C129.929 23.6859 129.901 27.2849 129.866 29.8864C129.838 31.1279 129.817 32.1602 129.797 32.9622C129.769 33.6876 129.748 34.0852 129.713 34.0852C129.685 34.0852 129.657 33.6876 129.629 32.9622C129.608 32.1602 129.587 31.1279 129.56 29.8864C129.525 27.2849 129.497 23.679 129.497 19.6755L129.706 19.8848C129.539 19.8848 129.358 19.8848 129.169 19.8848C125.044 19.8848 121.316 19.8638 118.612 19.822C117.323 19.7941 116.25 19.7732 115.413 19.7522C114.675 19.7453 114.257 19.7174 114.257 19.6825Z" fill="#704AB8"/>
<path d="M124.201 25.4505C124.201 26.2457 123.56 26.8873 122.765 26.8873C121.971 26.8873 121.33 26.2457 121.33 25.4505C121.33 24.6554 121.971 24.0138 122.765 24.0138C123.553 24.0138 124.201 24.6554 124.201 25.4505Z" fill="#704AB8"/>
<path d="M54.8635 26.8943H48.8078C48.6197 26.8943 48.4664 26.7408 48.4664 26.5525V24.3625C48.4664 24.1742 48.6197 24.0207 48.8078 24.0207H54.8635C55.0517 24.0207 55.205 24.1742 55.205 24.3625V26.5525C55.2119 26.7408 55.0586 26.8943 54.8635 26.8943Z" fill="#704AB8"/>
<path d="M56.8217 24.8019H55.637V26.0992H56.8217V24.8019Z" fill="#704AB8"/>
<path d="M312.694 309.228C312.694 309.326 245.029 309.41 161.587 309.41C78.1107 309.41 10.4598 309.326 10.4598 309.228C10.4598 309.131 78.1107 309.047 161.587 309.047C245.029 309.047 312.694 309.131 312.694 309.228Z" fill="#263238"/>
<path d="M95.0164 175.552L93.0861 238.875C93.0861 245.787 96.5495 252.232 102.306 256.047C110.347 261.375 121.009 260.399 127.95 253.703L148.633 233.735L146.403 187.074L118.772 215.503L117.386 175.078L95.0164 175.552Z" fill="#FFBE9D"/>
<path d="M177.601 151.538L150.131 164.1L121.065 207.015L145.309 238.791L163.88 230.638L177.601 151.538Z" fill="#704AB8"/>
<path d="M118.431 215.119C118.528 215.119 118.612 219.855 118.612 225.693C118.612 231.531 118.528 236.267 118.431 236.267C118.333 236.267 118.25 231.538 118.25 225.693C118.25 219.848 118.326 215.119 118.431 215.119Z" fill="#EB996E"/>
<path d="M160.214 160.48L174.5 153.122L182.709 143.797L220.973 141.279L231.531 149.334L257.719 157.16L252.311 228.832L257.593 309.054L150.131 308.81V230.854L160.214 160.48Z" fill="#704AB8"/>
<path d="M149.984 204.902C150.082 204.902 150.201 225.588 150.242 251.102C150.284 276.622 150.235 297.309 150.138 297.309C150.04 297.309 149.922 276.629 149.88 251.102C149.838 225.588 149.887 204.902 149.984 204.902Z" fill="#263238"/>
<path d="M204.743 215.133C204.743 215.147 204.555 215.147 204.2 215.14C203.81 215.126 203.287 215.112 202.646 215.084C201.252 215.022 199.308 214.931 196.925 214.819L196.799 214.812V214.687C196.89 210.174 197.015 204.072 197.148 197.355C197.329 190.422 197.496 184.152 197.615 179.563C197.691 177.317 197.754 175.482 197.796 174.171C197.824 173.564 197.845 173.076 197.866 172.706C197.886 172.372 197.9 172.197 197.914 172.197C197.928 172.197 197.935 172.372 197.942 172.706C197.942 173.076 197.942 173.564 197.942 174.171C197.928 175.482 197.9 177.317 197.872 179.563C197.782 184.152 197.656 190.429 197.51 197.362C197.336 204.078 197.176 210.174 197.057 214.694L196.932 214.561C199.315 214.722 201.259 214.854 202.646 214.945C203.294 214.994 203.81 215.036 204.2 215.071C204.555 215.091 204.743 215.119 204.743 215.133Z" fill="#263238"/>
<path d="M202.604 182.066C202.604 182.053 202.813 182.032 203.155 182.157C203.496 182.283 203.956 182.604 204.304 183.175C204.632 183.733 204.862 184.584 204.5 185.442C204.318 185.854 203.984 186.244 203.545 186.461C203.106 186.691 202.597 186.781 202.088 186.746C201.58 186.698 201.085 186.523 200.695 186.23C200.298 185.937 200.026 185.505 199.921 185.066C199.705 184.166 200.075 183.364 200.486 182.862C200.918 182.352 201.426 182.108 201.782 182.046C202.144 181.976 202.346 182.032 202.339 182.046C202.339 182.08 202.137 182.073 201.817 182.178C201.496 182.283 201.05 182.534 200.681 183.015C200.332 183.489 200.04 184.222 200.242 184.975C200.423 185.735 201.217 186.314 202.116 186.377C203.015 186.454 203.893 186.014 204.193 185.296C204.514 184.591 204.346 183.817 204.075 183.294C203.789 182.764 203.399 182.436 203.092 182.283C202.799 182.122 202.597 182.101 202.604 182.066Z" fill="#263238"/>
<path d="M202.527 195.904C202.527 195.89 202.737 195.869 203.078 195.995C203.419 196.12 203.879 196.441 204.228 197.013C204.555 197.571 204.785 198.422 204.423 199.28C204.242 199.691 203.907 200.082 203.468 200.298C203.029 200.528 202.521 200.619 202.012 200.584C201.503 200.535 201.008 200.361 200.618 200.068C200.221 199.775 199.949 199.343 199.845 198.903C199.629 198.004 199.998 197.201 200.409 196.699C200.841 196.19 201.35 195.946 201.705 195.883C202.068 195.814 202.27 195.869 202.263 195.883C202.263 195.918 202.061 195.911 201.74 196.016C201.419 196.12 200.974 196.371 200.604 196.853C200.256 197.327 199.963 198.059 200.165 198.813C200.346 199.573 201.141 200.152 202.04 200.215C202.939 200.291 203.817 199.852 204.116 199.133C204.437 198.429 204.27 197.655 203.998 197.132C203.712 196.602 203.322 196.274 203.015 196.12C202.716 195.967 202.521 195.939 202.527 195.904Z" fill="#263238"/>
<g opacity="0.3">
<path d="M166.73 218.544C176.43 231.768 184.026 246.547 194.827 258.878C205.635 271.21 220.82 281.197 237.189 280.402C242.409 280.151 251.6 278.387 255.328 274.718L253.955 260.671C227.238 253.689 202.207 240.354 181.489 222.08C177.852 218.872 173.65 215.273 168.841 215.88" fill="black"/>
</g>
<path d="M171.928 104.738C177.89 104.738 182.723 99.561 182.723 93.1744C182.723 86.7878 177.89 81.6104 171.928 81.6104C165.967 81.6104 161.134 86.7878 161.134 93.1744C161.134 99.561 165.967 104.738 171.928 104.738Z" fill="#704AB8"/>
<path d="M172.779 81.6105C172.758 81.6593 173.218 81.8127 173.97 82.2173C174.716 82.6148 175.803 83.2565 176.806 84.3934C177.817 85.5163 178.681 87.1483 179.148 89.1012C179.657 91.0472 179.754 93.3 179.12 95.5319C178.514 97.7568 177.315 99.6888 175.894 101.091C174.479 102.507 172.827 103.35 171.364 103.72C169.894 104.104 168.639 103.985 167.824 103.783C167.002 103.574 166.584 103.33 166.563 103.371C166.556 103.385 166.653 103.455 166.848 103.574C167.043 103.692 167.35 103.839 167.768 103.978C168.591 104.25 169.908 104.432 171.448 104.076C172.981 103.741 174.73 102.89 176.221 101.432C177.719 99.9957 178.981 97.9939 179.615 95.6714C180.277 93.3558 180.151 90.9774 179.601 88.9896C179.092 86.9809 178.158 85.2861 177.071 84.1492C175.991 82.9984 174.841 82.3916 174.054 82.0359C173.657 81.8616 173.336 81.75 173.12 81.6872C172.904 81.6174 172.786 81.5895 172.779 81.6105Z" fill="#263238"/>
<path d="M181.294 99.1726C181.357 99.1796 181.454 98.9564 181.413 98.5868C181.378 98.2241 181.176 97.701 180.73 97.3174C180.277 96.9338 179.74 96.8222 179.371 96.8431C178.995 96.864 178.799 96.9896 178.813 97.0593C178.834 97.1988 179.691 97.1081 180.395 97.708C181.106 98.3148 181.148 99.1726 181.294 99.1726Z" fill="#263238"/>
<path d="M180.841 95.6156C180.89 95.4831 180.563 95.2459 180.089 95.232C179.615 95.218 179.273 95.4342 179.315 95.5668C179.357 95.7063 179.691 95.7272 180.075 95.7411C180.458 95.7551 180.792 95.7481 180.841 95.6156Z" fill="#263238"/>
<path d="M180.841 86.0603C180.904 85.9348 180.263 85.6 179.503 85.8999C178.737 86.1928 178.493 86.8763 178.625 86.9252C178.751 86.9949 179.106 86.5974 179.691 86.3811C180.263 86.144 180.799 86.1998 180.841 86.0603Z" fill="#263238"/>
<path d="M200.165 170.956C189.524 170.105 181.489 160.947 182.019 150.276C182.388 142.792 182.779 136.034 182.779 136.034C182.779 136.034 166.737 133.537 166.542 117.488C166.347 101.439 169.127 64.5853 169.127 64.5853C187.691 56.5993 209.113 59.2985 225.126 71.6297L227.503 73.4641L221.426 152.773C220.583 163.674 211.057 171.828 200.165 170.956Z" fill="#FFBE9D"/>
<path d="M182.751 135.804C182.751 135.804 192.883 136.627 203.656 129.854C203.656 129.854 198.716 141.404 182.716 139.96L182.751 135.804Z" fill="#EB996E"/>
<path d="M194.688 107.619C194.284 107.598 194.284 110.269 191.991 112.173C189.705 114.078 186.855 113.778 186.834 114.154C186.799 114.322 187.468 114.677 188.674 114.705C189.852 114.747 191.58 114.363 192.98 113.206C194.374 112.041 194.98 110.486 195.071 109.391C195.169 108.268 194.869 107.605 194.688 107.619Z" fill="#263238"/>
<path d="M195.74 77.9627C195.984 78.6323 198.444 78.3184 201.336 78.6672C204.235 78.9601 206.569 79.804 206.952 79.2042C207.127 78.9183 206.716 78.2836 205.775 77.6349C204.841 76.9863 203.35 76.3725 201.615 76.1772C199.879 75.9889 198.291 76.2609 197.238 76.6933C196.172 77.1118 195.636 77.6419 195.74 77.9627Z" fill="#263238"/>
<path d="M171.775 83.4867C172.214 84.0935 174.2 83.7029 176.521 83.9051C178.848 84.0377 180.772 84.7003 181.28 84.1632C181.503 83.8982 181.252 83.3123 180.444 82.6985C179.65 82.0917 178.277 81.5198 176.681 81.4012C175.085 81.2896 173.65 81.6593 172.786 82.1475C171.915 82.6427 171.587 83.1937 171.775 83.4867Z" fill="#263238"/>
<path d="M225.517 90.0847C225.788 89.9661 236.534 86.8205 236.186 97.7986C235.837 108.77 224.903 106.154 224.89 105.84C224.883 105.527 225.517 90.0847 225.517 90.0847Z" fill="#FFBE9D"/>
<path d="M228.374 101.788C228.423 101.753 228.562 101.928 228.876 102.088C229.189 102.241 229.726 102.36 230.304 102.165C231.475 101.774 232.513 99.9677 232.625 97.9939C232.687 96.9965 232.506 96.041 232.179 95.2389C231.872 94.4229 231.37 93.851 230.792 93.7254C230.214 93.572 229.788 93.9068 229.649 94.2137C229.496 94.5136 229.552 94.7368 229.496 94.7507C229.461 94.7786 229.266 94.5624 229.37 94.109C229.426 93.8928 229.558 93.6348 229.823 93.4325C230.095 93.2233 230.485 93.1326 230.889 93.1884C231.733 93.2721 232.471 94.0742 232.827 94.953C233.231 95.8318 233.461 96.9128 233.391 98.0358C233.252 100.247 232.053 102.276 230.457 102.688C229.677 102.862 229.043 102.611 228.722 102.339C228.388 102.06 228.339 101.809 228.374 101.788Z" fill="#EB996E"/>
<path d="M162.981 50.7197C165.308 46.1164 169.845 42.6919 174.904 41.7224C179.963 40.7459 185.447 42.2455 189.315 45.6561C191.74 40.8227 196.653 37.3284 202.012 36.6379C202.346 36.596 202.681 36.5611 203.022 36.5402C210.137 36.0799 216.416 41.2411 217.858 48.2298L218.646 52.0379C218.646 52.0379 232.2 56.6551 235.335 59.173C238.785 61.9419 240.506 66.7126 239.621 71.0508C238.736 75.3891 235.28 79.0996 231.022 80.2923C234.457 86.4997 231.238 95.4063 224.625 97.966L223.029 97.3034C216.959 90.6357 215.58 80.1179 219.712 72.104C219.517 72.111 219.329 72.0831 219.134 72.0761C217.022 73.2269 214.59 73.8058 212.193 73.6663C208.36 73.4431 204.674 71.3926 202.451 68.261C198.075 71.4205 191.796 71.6855 187.169 68.9026C186.437 68.4632 185.712 67.9471 184.869 67.8564C183.859 67.7518 182.911 68.2679 181.998 68.7143C179.594 69.893 176.89 70.6672 174.235 70.2836C171.761 69.9209 169.385 68.3865 168.409 66.1058C168.347 66.0988 168.291 66.0988 168.228 66.0849C165.134 65.5269 162.66 62.8835 161.81 59.8635C160.946 56.8365 161.559 53.5235 162.981 50.7197Z" fill="#263238"/>
<path d="M233.635 89.5825C233.635 89.5825 240.381 57.1294 221.656 52.0309H218.66C218.66 52.0309 232.046 62.4511 227.503 88.5991" fill="#704AB8"/>
<path d="M228.367 110.737C234.328 110.737 239.161 105.559 239.161 99.1727C239.161 92.7861 234.328 87.6087 228.367 87.6087C222.405 87.6087 217.573 92.7861 217.573 99.1727C217.573 105.559 222.405 110.737 228.367 110.737Z" fill="#704AB8"/>
<path d="M227.51 87.6087C227.503 87.5947 227.384 87.6156 227.168 87.6854C226.945 87.7482 226.632 87.8528 226.234 88.0341C225.447 88.3829 224.297 88.9896 223.217 90.1474C222.13 91.2843 221.189 92.9792 220.688 94.9879C220.137 96.9687 220.019 99.354 220.674 101.67C221.308 103.992 222.562 105.994 224.067 107.431C225.559 108.888 227.315 109.739 228.841 110.074C230.381 110.43 231.691 110.248 232.52 109.976C232.938 109.837 233.245 109.697 233.44 109.572C233.635 109.453 233.733 109.384 233.726 109.37C233.705 109.321 233.287 109.572 232.464 109.781C231.649 109.99 230.395 110.102 228.924 109.718C227.461 109.349 225.809 108.512 224.395 107.089C222.973 105.694 221.775 103.762 221.168 101.53C220.534 99.2982 220.639 97.0454 221.14 95.0994C221.607 93.1465 222.471 91.5145 223.482 90.3916C224.485 89.2547 225.566 88.613 226.318 88.2155C227.071 87.8109 227.531 87.6575 227.51 87.6087Z" fill="#263238"/>
<path d="M219.001 105.171C219.14 105.178 219.182 104.313 219.893 103.706C220.597 103.099 221.461 103.19 221.475 103.058C221.489 102.995 221.287 102.869 220.917 102.841C220.555 102.82 220.012 102.932 219.559 103.316C219.113 103.699 218.911 104.215 218.876 104.585C218.841 104.955 218.938 105.178 219.001 105.171Z" fill="#263238"/>
<path d="M219.447 101.614C219.496 101.746 219.83 101.753 220.214 101.746C220.597 101.732 220.931 101.711 220.973 101.572C221.015 101.439 220.674 101.223 220.2 101.237C219.726 101.244 219.398 101.481 219.447 101.614Z" fill="#263238"/>
<path d="M219.454 92.0585C219.496 92.198 220.032 92.1422 220.611 92.3793C221.196 92.5955 221.552 93.0001 221.677 92.9233C221.809 92.8745 221.566 92.198 220.799 91.8981C220.026 91.5981 219.384 91.9329 219.454 92.0585Z" fill="#263238"/>
<path d="M206.946 39.9718C206.946 40.0555 208.27 40.0276 210.374 40.1391C211.426 40.2089 212.681 40.3275 214.012 40.6971C215.336 41.0528 216.729 41.7363 217.886 42.8035C219.05 43.8636 219.761 45.2585 219.886 46.6047C220.032 47.9577 219.698 49.1853 219.329 50.1548C218.541 52.1007 217.663 53.126 217.754 53.1818C217.775 53.2027 218.012 52.9655 218.374 52.4843C218.729 52.003 219.224 51.2847 219.663 50.2942C220.088 49.3108 220.485 48.0275 220.36 46.5558C220.255 45.0912 219.475 43.5498 218.242 42.4199C217.008 41.283 215.531 40.5855 214.144 40.2368C212.757 39.8811 211.468 39.7904 210.402 39.7695C209.329 39.7555 208.472 39.8044 207.879 39.8462C207.273 39.8881 206.946 39.9369 206.946 39.9718Z" fill="#263238"/>
<path d="M220.353 39.3789C220.283 39.4277 220.778 40.1043 221.238 41.3388C221.705 42.5594 222.074 44.4007 221.719 46.3675C221.363 48.3344 220.374 49.9316 219.517 50.915C218.653 51.9124 217.949 52.3727 218.005 52.4424C218.032 52.4913 218.813 52.1356 219.789 51.1591C220.757 50.2036 221.851 48.5506 222.235 46.4582C222.611 44.3658 222.158 42.4338 221.586 41.1993C221.001 39.9578 220.388 39.344 220.353 39.3789Z" fill="#263238"/>
<path d="M172.883 52.9586C172.869 52.9655 172.89 53.0911 172.946 53.3352C173.002 53.5793 173.113 53.935 173.301 54.3814C173.671 55.2672 174.374 56.5296 175.664 57.7223C176.939 58.9079 178.869 60.0099 181.245 60.2052C183.587 60.4145 186.312 59.7519 188.458 57.9524L188.082 57.9036C188.535 58.5522 189.085 59.1939 189.712 59.7728C191.97 61.8512 194.904 62.8556 197.538 62.8416C200.207 62.8556 202.479 61.8164 204.067 60.6516C205.677 59.4729 206.646 58.1407 207.182 57.1852C207.454 56.7039 207.635 56.3134 207.733 56.0414C207.837 55.7693 207.879 55.6229 207.865 55.6159C207.817 55.595 207.594 56.1599 207.015 57.0806C206.43 57.9873 205.447 59.2497 203.858 60.3517C202.291 61.4397 200.088 62.4022 197.538 62.3604C195.015 62.3534 192.214 61.37 190.054 59.3892C189.454 58.8382 188.932 58.2314 188.493 57.6107L188.332 57.3805L188.116 57.5618C186.096 59.2706 183.503 59.9262 181.273 59.7519C179.009 59.5984 177.148 58.5801 175.88 57.4712C174.597 56.3552 173.866 55.1556 173.455 54.3116C173.057 53.4607 172.925 52.9446 172.883 52.9586Z" fill="#455A64"/>
<path d="M171.796 64.2366C171.754 64.2715 172.179 64.8713 173.148 65.5339C174.103 66.1965 175.65 66.873 177.462 66.9218C179.273 66.9707 180.855 66.3778 181.838 65.764C182.841 65.1503 183.301 64.5784 183.259 64.5365C183.204 64.4737 182.667 64.941 181.664 65.4432C180.674 65.9524 179.169 66.4476 177.475 66.4057C175.782 66.3569 174.305 65.778 173.343 65.22C172.367 64.669 171.859 64.1808 171.796 64.2366Z" fill="#455A64"/>
<path d="M171.942 90.817C172.228 91.1169 173.963 89.8266 176.43 89.8336C178.897 89.8057 180.709 91.0751 180.974 90.7752C181.106 90.6426 180.813 90.0986 180.026 89.5267C179.252 88.9548 177.928 88.3968 176.388 88.4038C174.848 88.4108 173.559 88.9757 172.813 89.5616C172.054 90.1405 171.796 90.6845 171.942 90.817Z" fill="#263238"/>
<path d="M198.43 90.6705C198.388 91.8841 199.378 92.9164 200.639 92.9861C201.9 93.0559 202.96 92.1282 203.001 90.9146C203.043 89.7011 202.054 88.6618 200.792 88.5991C199.531 88.5293 198.472 89.4569 198.43 90.6705Z" fill="#263238"/>
<path d="M196.207 87.9713C196.493 88.2713 198.235 86.9809 200.702 86.9879C203.169 86.96 204.98 88.2294 205.245 87.9295C205.378 87.797 205.092 87.253 204.297 86.681C203.524 86.1091 202.2 85.5511 200.66 85.5581C199.12 85.5651 197.831 86.13 197.085 86.7159C196.325 87.2948 196.068 87.8388 196.207 87.9713Z" fill="#263238"/>
<path d="M187.245 106.294C187.259 106.154 185.719 105.889 183.238 105.568C182.611 105.506 182.012 105.38 181.907 104.948C181.761 104.494 182.026 103.811 182.326 103.078C182.918 101.551 183.538 99.9538 184.186 98.2729C186.778 91.4308 188.646 85.8092 188.374 85.7046C188.096 85.6 185.775 91.0611 183.19 97.9032C182.569 99.5911 181.97 101.195 181.406 102.737C181.169 103.455 180.758 104.264 181.078 105.213C181.245 105.687 181.712 106.029 182.117 106.133C182.521 106.259 182.876 106.266 183.19 106.28C185.684 106.426 187.238 106.433 187.245 106.294Z" fill="#263238"/>
<path d="M182.333 144.159L197.008 165.209L198.346 170.726L200.723 165.209L223.454 143.169V164.309L206.479 174.527L197.008 175.552L182.709 170.182L178.583 161.596L182.333 144.159Z" fill="#704AB8"/>
<path d="M196.423 165.223C196.423 165.258 196.033 165.237 195.35 165.376C194.667 165.523 193.691 165.878 192.674 166.659C190.618 168.187 188.486 171.27 186.967 175.148L186.827 175.496L186.646 175.176C185.831 173.725 184.953 172.162 184.047 170.551C181.399 165.774 178.995 161.456 177.232 158.269C176.395 156.721 175.705 155.451 175.204 154.531C174.988 154.112 174.806 153.777 174.667 153.505C174.549 153.268 174.493 153.143 174.5 153.136C174.514 153.129 174.59 153.247 174.73 153.47C174.883 153.728 175.085 154.063 175.322 154.461C175.852 155.374 176.57 156.623 177.455 158.143C179.245 161.31 181.677 165.613 184.36 170.37C185.259 171.988 186.137 173.55 186.946 175.001L186.632 175.029C188.2 171.102 190.388 168.013 192.535 166.485C193.594 165.711 194.618 165.376 195.322 165.265C195.677 165.223 195.949 165.195 196.137 165.209C196.325 165.202 196.423 165.209 196.423 165.223Z" fill="#263238"/>
<path d="M230.032 149.362C230.039 149.369 229.956 149.516 229.782 149.781C229.586 150.074 229.329 150.457 229.015 150.939C228.339 151.936 227.336 153.366 226.046 155.102C223.475 158.569 219.754 163.235 215.266 168.061C212.346 171.214 209.468 174.046 206.966 176.375L206.792 176.536L206.709 176.312C205.447 172.923 204.04 170.244 202.98 168.417C202.451 167.503 202.012 166.799 201.705 166.318C201.399 165.836 201.245 165.578 201.259 165.571C201.266 165.564 201.315 165.627 201.406 165.739C201.51 165.878 201.635 166.053 201.789 166.262C202.116 166.729 202.583 167.42 203.141 168.319C204.249 170.126 205.712 172.797 207.008 176.194L206.75 176.131C209.231 173.781 212.088 170.949 215.001 167.796C219.475 162.977 223.224 158.346 225.837 154.928C227.147 153.212 228.179 151.81 228.89 150.841C229.231 150.381 229.503 150.011 229.712 149.725C229.921 149.488 230.025 149.355 230.032 149.362Z" fill="#263238"/>
<g opacity="0.3">
<path d="M197.921 179.123C199.099 177.686 198.939 175.113 200.695 174.478C201.566 174.164 202.534 174.499 203.169 175.182C204.792 176.926 204.325 179.493 205.803 181.327C206.074 181.669 206.423 181.955 206.827 182.129C208.5 182.862 209.907 181.571 210.994 180.386C213.064 178.147 215.106 175.887 217.134 173.606C219.719 170.691 222.283 167.72 224.262 164.365C226.241 161.01 227.628 157.216 227.656 153.317C221.301 161.435 214.492 169.345 206.862 176.271C205.977 173.076 204.04 169.875 202.27 167.099C202.019 166.708 201.148 165.383 200.716 165.216C200.493 165.125 200.932 165.118 200.716 165.216L198.339 170.733C198.339 170.733 197.273 166.248 197.008 165.216C196.088 165.153 195.148 165.299 194.193 165.662C194.193 165.662 193.231 166.088 192.242 166.848C189.545 168.919 187.81 171.472 187.148 174.806C188.618 174.464 189.691 173.25 190.827 172.26C191.963 171.27 193.517 170.412 194.925 170.963C196.367 171.535 196.904 173.299 196.987 174.848C197.071 176.396 196.911 178.049 197.67 179.409" fill="black"/>
</g>
<path d="M227.301 78.8694L227.496 85.7604L235.245 86.7369L235.503 79.539L227.301 78.8694Z" fill="#455A64"/>
<path d="M232.827 45.4329C232.924 45.4329 233.008 54.6395 233.008 65.9942C233.008 77.3559 232.924 86.5555 232.827 86.5555C232.729 86.5555 232.646 77.349 232.646 65.9942C232.646 54.6464 232.729 45.4329 232.827 45.4329Z" fill="#455A64"/>
<path d="M231.064 205.446C231.064 205.446 231.05 205.32 231.036 205.062C231.022 204.797 231.008 204.427 230.987 203.946C230.952 202.949 230.903 201.498 230.834 199.643C230.715 195.89 230.548 190.492 230.346 183.817C230.151 177.135 229.921 169.177 229.663 160.347C229.586 158.143 229.572 155.863 229.44 153.575C229.336 152.466 229.008 151.273 228.088 150.611C227.642 150.276 227.092 150.074 226.548 150.095C226.012 150.116 225.482 150.415 225.252 150.904C224.785 151.887 225.322 153.296 226.346 153.714C227.419 154.14 228.701 153.687 229.524 152.85C230.367 152.006 230.736 150.771 230.841 149.551C230.924 148.323 230.883 147.04 230.562 145.847C230.367 145.15 230.039 144.487 229.545 143.985C229.057 143.483 228.402 143.127 227.719 143.043C227.036 142.953 226.339 143.211 225.935 143.755C225.531 144.278 225.343 145.038 225.642 145.61C225.921 146.203 226.639 146.468 227.287 146.363C227.949 146.273 228.562 145.91 228.931 145.352C229.698 144.222 229.74 142.736 229.698 141.397C229.656 140.721 229.538 140.044 229.266 139.444C228.994 138.851 228.576 138.307 227.991 138.063C227.412 137.812 226.729 137.777 226.151 138.001C225.572 138.21 225.161 138.775 225.21 139.368C225.231 139.654 225.356 139.933 225.552 140.156C225.754 140.379 226.012 140.553 226.283 140.686C226.841 140.937 227.489 141.014 228.06 140.853C228.632 140.7 229.092 140.246 229.419 139.744C229.754 139.242 229.942 138.649 230.067 138.056C230.29 136.857 230.248 135.622 230.116 134.45C229.97 133.307 229.51 132.114 228.513 131.612C228.032 131.354 227.468 131.249 226.959 131.368C226.457 131.479 226.005 131.856 225.893 132.337C225.761 132.825 225.942 133.355 226.234 133.767C226.527 134.185 226.959 134.499 227.426 134.653C227.9 134.813 228.402 134.716 228.827 134.478C229.259 134.248 229.593 133.872 229.83 133.46C230.311 132.616 230.409 131.605 230.193 130.719C229.963 129.819 229.468 129.038 228.89 128.376C228.311 127.713 227.67 127.148 227.029 126.618L226.987 126.583L226.994 126.527C227.301 121.673 227.545 117.837 227.712 115.193C227.802 113.889 227.872 112.885 227.914 112.187C227.942 111.86 227.963 111.602 227.977 111.413C227.991 111.239 228.005 111.155 228.005 111.155C228.005 111.155 228.011 111.246 228.005 111.42C227.998 111.608 227.984 111.86 227.977 112.194C227.942 112.892 227.893 113.896 227.83 115.2C227.684 117.844 227.482 121.687 227.217 126.541L227.175 126.451C227.816 126.974 228.478 127.546 229.078 128.222C229.67 128.899 230.193 129.708 230.444 130.656C230.68 131.605 230.583 132.679 230.067 133.593C229.809 134.046 229.447 134.464 228.959 134.722C228.492 134.981 227.886 135.106 227.342 134.925C226.806 134.75 226.325 134.402 225.998 133.934C225.67 133.474 225.447 132.874 225.6 132.267C225.747 131.661 226.29 131.214 226.883 131.082C227.482 130.942 228.109 131.068 228.646 131.354C229.196 131.633 229.628 132.121 229.9 132.665C230.186 133.209 230.332 133.816 230.416 134.423C230.555 135.636 230.597 136.878 230.374 138.133C230.248 138.754 230.053 139.389 229.684 139.94C229.51 140.219 229.287 140.477 229.036 140.693C228.792 140.923 228.471 141.09 228.144 141.188C227.475 141.376 226.764 141.286 226.13 141.007C225.816 140.853 225.524 140.658 225.287 140.393C225.05 140.121 224.89 139.772 224.862 139.402C224.792 138.649 225.329 137.931 226.011 137.687C226.687 137.429 227.454 137.464 228.116 137.749C228.799 138.042 229.273 138.663 229.565 139.305C229.865 139.96 229.984 140.672 230.032 141.383C230.074 142.095 230.046 142.799 229.949 143.511C229.844 144.222 229.642 144.947 229.203 145.561C228.785 146.196 228.067 146.628 227.308 146.726C226.562 146.844 225.656 146.538 225.294 145.777C224.924 145.031 225.161 144.152 225.628 143.538C225.872 143.225 226.193 142.974 226.569 142.827C226.945 142.688 227.342 142.639 227.74 142.688C228.527 142.778 229.238 143.176 229.781 143.734C230.332 144.292 230.673 145.017 230.889 145.749C231.231 147.019 231.266 148.309 231.182 149.585C231.078 150.848 230.687 152.166 229.761 153.108C228.869 154.014 227.447 154.544 226.193 154.049C225.572 153.791 225.106 153.254 224.883 152.647C224.646 152.048 224.625 151.35 224.91 150.743C225.21 150.136 225.865 149.767 226.513 149.746C227.161 149.718 227.782 149.955 228.283 150.332C228.792 150.701 229.154 151.238 229.377 151.803C229.6 152.368 229.712 152.961 229.768 153.547C229.9 155.884 229.907 158.129 229.984 160.34C230.214 169.17 230.416 177.128 230.583 183.81C230.743 190.478 230.869 195.883 230.959 199.636C230.994 201.491 231.022 202.942 231.043 203.939C231.05 204.42 231.05 204.79 231.057 205.062C231.071 205.32 231.064 205.446 231.064 205.446Z" fill="#455A64"/>
<path d="M226.973 110.646V114.712H228.994L229.287 110.744L226.973 110.646Z" fill="#704AB8"/>
<path d="M126.284 106.88C126.215 106.88 126.326 105.785 126.229 104.041C126.159 103.176 126.027 102.13 125.574 101.084C125.135 100.038 124.312 99.0401 123.156 98.4124C122.006 97.7777 120.744 97.5197 119.609 97.4639C118.466 97.415 117.427 97.5406 116.563 97.6801C114.835 97.98 113.776 98.245 113.762 98.1823C113.755 98.1613 114.013 98.0707 114.487 97.9312C114.96 97.7986 115.65 97.6034 116.514 97.429C117.379 97.2546 118.438 97.0942 119.615 97.1291C120.793 97.1709 122.11 97.429 123.323 98.0986C124.542 98.7542 125.434 99.8492 125.873 100.951C126.333 102.06 126.438 103.141 126.48 104.02C126.507 104.906 126.452 105.624 126.403 106.119C126.361 106.615 126.312 106.88 126.284 106.88Z" fill="#263238"/>
<path d="M153.183 123.117L138.514 123.633L95.0164 136.696L127.016 151.141L132.396 168.159L149.218 161.624L164.563 154.642L164.897 137.798C164.667 133.418 162.402 129.401 158.786 126.939L153.183 123.117Z" fill="#455A64"/>
<path d="M109.678 97.0245L113.427 96.6897C114.257 96.613 114.988 97.2267 115.065 98.0567C115.142 98.8867 114.528 99.6191 113.699 99.6958L110.466 99.9817L109.678 97.0245Z" fill="#455A64"/>
<path d="M82.6821 104.048C82.8563 102.869 82.6612 106.405 82.6682 107.493C82.6891 109.558 84.4103 111.204 86.473 111.127L91.2743 110.946L95.0095 107.563L87.7622 107.591V103.804L82.6821 104.048Z" fill="#455A64"/>
<path d="M114.271 134.702C114.271 134.702 117.985 131.528 119.469 131.361C120.953 131.193 130.5 131.27 130.5 131.27L136.772 135.559L151.95 163.465L157.887 171.06L141.392 190.541L130.507 181.46L117.671 177.261L127.469 177.393C129.448 174.255 132.96 169.47 132.96 169.47L135.378 155.528L135.49 149.99L132.284 141.272L127.365 136.048L114.271 134.702Z" fill="#FFBE9D"/>
<path d="M97.0931 135.539L101.651 129.157L119.183 123.117C119.183 123.117 121.915 126.423 117.818 129.324H116.452C116.452 129.324 118.417 133.683 112.87 132.456C112.354 132.344 107.232 133.251 107.232 133.251L104.501 135.532H97.0931V135.539Z" fill="#FFBE9D"/>
<path d="M79.4138 135.552L74.1107 140.63L74.6682 169.7L79.4208 174.945L127.385 177.854L133.636 169.735L132.396 144.222L130.751 140.044L126.145 136.899L79.4138 135.552Z" fill="#455A64"/>
<path d="M123.664 138.956C123.664 138.956 123.769 139.04 123.964 139.214C124.166 139.403 124.452 139.661 124.828 140.002C125.594 140.714 126.716 141.746 128.173 143.092L128.194 143.113V143.141C128.208 149.153 128.236 159.42 128.277 172.49V172.546L128.243 172.588C127.441 173.536 126.556 174.59 125.65 175.657L125.601 175.713H125.525C112.793 175.148 97.5948 174.471 81.3162 173.746C80.9539 173.732 80.5985 173.711 80.2431 173.697L80.1664 173.69L80.1176 173.634C78.7448 172.037 77.379 170.454 76.034 168.898L75.9922 168.85V168.787C75.8668 159.315 75.7483 150.325 75.6368 142.13V142.06L75.6856 142.011C77.2187 140.477 78.703 138.998 80.1455 137.561L80.1943 137.512H80.257C93.2464 137.931 104.11 138.273 111.741 138.517C115.532 138.649 118.521 138.754 120.57 138.831C121.581 138.872 122.354 138.9 122.891 138.921C123.142 138.935 123.337 138.942 123.483 138.949C123.601 138.949 123.664 138.949 123.664 138.956C123.664 138.963 123.595 138.963 123.455 138.963C123.309 138.963 123.107 138.956 122.856 138.956C122.312 138.942 121.532 138.928 120.514 138.907C118.459 138.858 115.462 138.782 111.664 138.684C104.048 138.475 93.2046 138.175 80.2361 137.819L80.3476 137.77C78.9121 139.214 77.4278 140.7 75.9016 142.234L75.9504 142.116C76.0689 150.311 76.2013 159.301 76.3337 168.773L76.2919 168.654C77.6368 170.217 78.9957 171.793 80.3755 173.39L80.2431 173.327C80.5985 173.341 80.9608 173.362 81.3162 173.376C97.6018 174.122 112.793 174.813 125.525 175.399L125.399 175.455C126.305 174.387 127.197 173.341 128.006 172.393L127.971 172.49C128.006 159.42 128.033 149.153 128.054 143.141L128.075 143.19C126.647 141.83 125.546 140.783 124.793 140.065C124.431 139.709 124.145 139.444 123.95 139.249C123.755 139.061 123.664 138.956 123.664 138.956Z" fill="#263238"/>
<path d="M78.0062 140.811L79.3999 170.161L127.002 172.853L126.263 142.116L78.0062 140.811Z" fill="#263238"/>
<path d="M92.7656 143.88L93.6018 163.012L124.967 164.309V144.529L92.7656 143.88Z" fill="#455A64"/>
<path d="M125.164 154.456C126.108 148.607 122.136 143.1 116.292 142.156C110.449 141.212 104.947 145.187 104.003 151.036C103.06 156.884 107.032 162.391 112.875 163.335C118.719 164.28 124.221 160.304 125.164 154.456Z" fill="#263238"/>
<path d="M124.967 158.262C123.023 160.968 119.845 162.733 116.264 162.733C110.347 162.733 105.546 157.927 105.546 152.006C105.546 148.86 106.905 146.021 109.058 144.062L123.901 144.508C124.354 144.954 124.598 145.233 124.974 145.749L124.967 158.262Z" fill="#FAFAFA"/>
<path d="M79.4068 170.182C79.365 170.091 82.5009 168.417 86.4242 166.436C90.3475 164.455 93.56 162.921 93.6018 163.012C93.6436 163.102 90.5078 164.776 86.5845 166.757C82.6681 168.738 79.4487 170.272 79.4068 170.182Z" fill="#455A64"/>
<path d="M114.591 106.308L150.131 106.489V117.99V125.886L145.093 124.979L138.465 124.184V119.406L138.41 116.282L127.434 116.644L127.525 122.754L131.887 129.45L131.929 130.433L121.072 129.854L116.988 122.754C116.988 122.754 116.898 119.95 116.988 119.685L114.431 120.717C113.086 121.261 111.643 121.54 110.194 121.54H97.1C93.8875 121.54 91.2604 118.911 91.2604 115.696V111.476C91.2604 108.721 94.1872 106.364 96.9398 106.343L114.591 106.308Z" fill="#455A64"/>
<path d="M109.016 121.526H98.1314C94.1314 121.526 90.8841 118.283 90.8841 114.273V113.554C90.8841 109.551 94.1245 106.301 98.1314 106.301H109.016C113.016 106.301 116.264 109.544 116.264 113.554V114.273C116.257 118.276 113.016 121.526 109.016 121.526Z" fill="#263238"/>
<path d="M109.009 115.403H96.6959C95.769 115.403 95.0164 114.649 95.0164 113.722V113.61C95.0164 112.683 95.769 111.929 96.6959 111.929H109.009C109.936 111.929 110.689 112.683 110.689 113.61V113.722C110.689 114.649 109.936 115.403 109.009 115.403Z" fill="#455A64"/>
<path d="M119.03 106.329C119.037 106.308 119.274 106.384 119.671 106.587C120.068 106.789 120.626 107.131 121.197 107.71C121.755 108.289 122.291 109.132 122.584 110.158C122.884 111.19 123.016 112.348 122.919 113.589C122.744 114.845 122.089 115.891 121.392 116.679C120.682 117.474 119.922 118.06 119.26 118.499C118.598 118.939 118.027 119.232 117.622 119.427C117.218 119.615 116.988 119.699 116.981 119.678C116.953 119.622 117.838 119.204 119.114 118.29C119.748 117.83 120.473 117.237 121.142 116.463C121.804 115.689 122.403 114.698 122.563 113.54C122.654 112.39 122.535 111.225 122.271 110.248C122.006 109.258 121.525 108.456 121.016 107.884C119.957 106.74 118.981 106.405 119.03 106.329Z" fill="#263238"/>
<path d="M78.3964 97.973L106.961 95.3436C108.988 95.1553 110.793 96.6339 111.009 98.6635C111.232 100.714 109.748 102.548 107.706 102.772L79.6229 105.833L78.3964 97.973Z" fill="#455A64"/>
<path d="M179.678 89.6313H140.64V115.472H179.678V89.6313Z" fill="#455A64"/>
<path d="M179.678 115.472C179.678 115.472 179.671 115.305 179.664 114.991C179.657 114.663 179.657 114.21 179.65 113.617C179.643 112.404 179.629 110.653 179.615 108.414C179.594 103.922 179.573 97.4778 179.538 89.6313L179.685 89.7778C168.946 89.7848 155.371 89.7987 140.654 89.8127C140.612 89.8545 140.995 89.4709 140.835 89.6313V89.6383V89.6523V89.6802V89.736V89.8406V90.0568V90.4892V91.3471C140.835 91.919 140.835 92.4909 140.835 93.0559C140.835 94.1928 140.835 95.3157 140.835 96.4386C140.835 98.6775 140.835 100.881 140.835 103.044C140.828 107.368 140.828 111.532 140.821 115.479L140.654 115.312C152.117 115.347 161.852 115.375 168.737 115.396C172.172 115.417 174.904 115.431 176.786 115.438C177.712 115.445 178.43 115.452 178.932 115.458C179.169 115.465 179.35 115.465 179.489 115.465C179.608 115.465 179.671 115.472 179.678 115.472C179.678 115.472 179.622 115.479 179.503 115.479C179.371 115.479 179.19 115.486 178.967 115.486C178.472 115.493 177.761 115.5 176.848 115.507C174.974 115.514 172.256 115.535 168.834 115.549C161.922 115.57 152.145 115.598 140.64 115.633H140.472V115.465C140.465 111.518 140.465 107.354 140.458 103.03C140.458 100.868 140.458 98.6635 140.458 96.4247C140.458 95.3087 140.458 94.1788 140.458 93.0419C140.458 92.477 140.458 91.9051 140.458 91.3332V90.4753V90.0428V89.8266V89.722V89.6662V89.6383V89.6244V89.6174C140.298 89.7778 140.681 89.3942 140.64 89.4291C155.357 89.443 168.939 89.457 179.671 89.4639H179.817V89.6104C179.782 97.4987 179.761 103.971 179.74 108.484C179.726 110.709 179.712 112.452 179.705 113.659C179.698 114.238 179.691 114.684 179.691 115.005C179.685 115.326 179.678 115.472 179.678 115.472Z" fill="#263238"/>
<path d="M95.5878 104.111C95.5948 104.16 94.8631 104.313 93.6715 104.48C92.4799 104.655 90.8283 104.836 89.0026 105.024C87.2395 105.192 85.6437 105.338 84.3197 105.457C83.1211 105.561 82.3824 105.624 82.3754 105.568C82.3685 105.52 83.1002 105.366 84.2918 105.199C85.4834 105.024 87.135 104.843 88.9677 104.655C90.7308 104.494 92.3266 104.341 93.6436 104.222C94.8422 104.125 95.5809 104.062 95.5878 104.111Z" fill="#263238"/>
<path d="M87.7621 107.563C87.797 107.542 87.9851 107.738 88.1106 108.149C88.236 108.554 88.2569 109.188 87.9573 109.795C87.6506 110.395 87.121 110.758 86.7238 110.89C86.3196 111.037 86.0479 110.995 86.0479 110.953C86.0409 110.897 86.2848 110.841 86.6193 110.653C86.9538 110.472 87.3789 110.13 87.6367 109.628C87.8945 109.119 87.9154 108.575 87.8667 108.198C87.8179 107.821 87.7134 107.584 87.7621 107.563Z" fill="#263238"/>
<path d="M110.076 101.558C110.034 101.516 110.25 101.272 110.452 100.798C110.647 100.33 110.856 99.626 110.849 98.8518C110.856 98.0707 110.563 97.422 110.271 96.9966C109.978 96.5711 109.755 96.32 109.797 96.2782C109.825 96.2503 110.11 96.4316 110.473 96.8362C110.842 97.2337 111.225 97.98 111.211 98.8379C111.218 99.6958 110.954 100.428 110.682 100.902C110.403 101.398 110.103 101.593 110.076 101.558Z" fill="#263238"/>
<path d="M52.4873 97.9521L73.0585 96.055C76.5428 95.7342 79.6856 98.1474 80.2849 101.593C80.9399 105.38 78.2919 108.937 74.4801 109.398L53.9716 111.881C50.1528 112.341 46.6755 109.635 46.1877 105.813C45.686 101.879 48.5431 98.3148 52.4873 97.9521Z" fill="#263238"/>
<path d="M56.0761 110.73C56.0273 110.681 56.6614 110.186 57.2677 109.091C57.8809 108.017 58.3618 106.28 58.1666 104.39C57.9158 102.521 56.8217 101.035 55.9088 100.226C54.975 99.3889 54.1597 99.2564 54.1876 99.1866C54.1876 99.1657 54.3897 99.1797 54.7381 99.2843C55.0865 99.3889 55.5674 99.626 56.0761 100.031C56.5848 100.428 57.1144 101.007 57.5743 101.739C58.0273 102.465 58.4175 103.35 58.536 104.355C58.7381 106.336 58.2015 108.142 57.4977 109.223C57.1562 109.774 56.8008 110.165 56.536 110.402C56.2572 110.632 56.09 110.744 56.0761 110.73Z" fill="#455A64"/>
<path d="M117.379 122.747C117.379 122.726 117.643 122.705 118.138 122.691C118.689 122.677 119.392 122.663 120.243 122.642C122.11 122.628 124.619 122.601 127.525 122.58H127.615L127.664 122.656C128.41 123.793 129.218 125.028 130.054 126.311C130.737 127.364 131.399 128.39 132.026 129.345L132.208 129.617H131.88C128.786 129.589 126.082 129.568 124.082 129.554C123.162 129.533 122.396 129.519 121.811 129.505C121.281 129.485 120.988 129.464 120.988 129.443C120.988 129.422 121.274 129.401 121.811 129.38C122.403 129.366 123.162 129.352 124.082 129.331C126.089 129.317 128.786 129.289 131.88 129.268L131.734 129.54C131.107 128.585 130.438 127.56 129.755 126.513C128.919 125.23 128.117 123.989 127.378 122.845L127.525 122.921C124.619 122.893 122.11 122.873 120.243 122.859C119.392 122.838 118.689 122.824 118.138 122.81C117.643 122.782 117.379 122.761 117.379 122.747Z" fill="#263238"/>
<path d="M150.082 123.807C150.082 123.905 147.559 123.989 144.458 123.989C141.35 123.989 138.828 123.905 138.828 123.807C138.828 123.71 141.343 123.626 144.458 123.626C147.559 123.626 150.082 123.71 150.082 123.807Z" fill="#263238"/>
<path d="M150.605 160.996C150.591 160.996 150.577 160.836 150.563 160.522C150.549 160.173 150.528 159.72 150.507 159.162C150.458 157.983 150.389 156.274 150.249 154.161C150.11 152.055 149.908 149.544 149.608 146.768C149.462 145.38 149.295 143.922 149.099 142.416C148.883 140.909 148.751 139.333 148.368 137.784C147.985 136.236 147.378 134.778 146.598 133.495C145.824 132.212 144.702 131.263 143.532 130.531C141.169 129.087 138.744 128.313 136.73 127.727C134.695 127.169 133.016 126.848 131.859 126.632C131.309 126.541 130.863 126.465 130.521 126.402C130.215 126.353 130.054 126.318 130.054 126.304C130.054 126.29 130.222 126.297 130.528 126.332C130.842 126.36 131.295 126.409 131.88 126.492C133.051 126.66 134.744 126.946 136.8 127.476C138.835 128.034 141.281 128.78 143.713 130.245C144.911 130.977 146.096 131.968 146.904 133.307C147.713 134.618 148.333 136.103 148.723 137.694C148.925 138.482 149.051 139.284 149.155 140.065C149.26 140.846 149.357 141.613 149.455 142.367C149.643 143.88 149.803 145.338 149.943 146.733C150.221 149.516 150.396 152.034 150.507 154.147C150.612 156.26 150.646 157.976 150.653 159.155C150.66 159.748 150.646 160.208 150.64 160.515C150.626 160.829 150.612 160.996 150.605 160.996Z" fill="#263238"/>
<path d="M155.518 158.757C155.504 158.757 155.49 158.597 155.476 158.297C155.462 157.962 155.448 157.523 155.427 156.986C155.392 155.8 155.343 154.168 155.281 152.166C155.12 148.1 154.918 142.464 154.047 136.327C153.803 134.806 153.308 133.383 152.626 132.1C151.95 130.817 151.169 129.638 150.173 128.759C149.19 127.866 148.096 127.204 147.037 126.681C145.971 126.151 144.932 125.767 143.964 125.467C142.033 124.853 140.41 124.553 139.295 124.344C138.765 124.254 138.333 124.184 138.006 124.128C137.713 124.079 137.553 124.044 137.56 124.03C137.56 124.016 137.72 124.023 138.019 124.051C138.319 124.072 138.758 124.128 139.323 124.205C140.451 124.372 142.089 124.63 144.047 125.216C145.03 125.502 146.089 125.879 147.176 126.409C148.263 126.932 149.385 127.594 150.403 128.508C151.441 129.415 152.256 130.628 152.946 131.926C153.65 133.23 154.166 134.702 154.416 136.257C155.295 142.436 155.455 148.079 155.545 152.152C155.58 154.189 155.587 155.842 155.58 156.979C155.573 157.516 155.566 157.955 155.559 158.29C155.538 158.597 155.531 158.757 155.518 158.757Z" fill="#263238"/>
<path d="M127.365 136.055C127.365 136.062 127.281 136.076 127.142 135.992C127.114 135.964 127.065 135.908 127.093 135.838C127.114 135.783 127.155 135.734 127.204 135.706C127.295 135.636 127.413 135.587 127.546 135.539C128.082 135.364 128.905 135.294 129.894 135.455C130.389 135.532 130.918 135.678 131.462 135.894C131.734 135.999 132.013 136.124 132.291 136.313C132.549 136.501 132.793 136.703 133.044 136.92C134.019 137.791 135.009 138.824 136.033 139.926C136.535 140.47 137.023 141.007 137.483 141.53L137.497 141.551L137.511 141.572C138.549 143.824 139.441 145.805 140.061 147.228C140.347 147.891 140.584 148.449 140.779 148.909C140.939 149.307 141.023 149.523 141.002 149.537C140.981 149.544 140.863 149.341 140.667 148.965C140.445 148.518 140.173 147.974 139.852 147.333C139.169 145.938 138.235 143.978 137.183 141.732L137.211 141.774C136.744 141.258 136.256 140.728 135.762 140.184C134.744 139.089 133.762 138.049 132.821 137.185C132.584 136.968 132.347 136.766 132.11 136.585C131.88 136.417 131.615 136.292 131.357 136.18C130.835 135.957 130.326 135.811 129.852 135.72C128.905 135.532 128.11 135.566 127.587 135.692C127.344 135.748 127.1 135.873 127.197 135.957C127.288 136.02 127.371 136.041 127.365 136.055Z" fill="#EB996E"/>
<path d="M137.344 169.603C137.323 169.707 136.298 169.533 135.072 169.77C133.845 169.993 132.953 170.537 132.898 170.447C132.835 170.377 133.685 169.659 135.002 169.414C136.319 169.156 137.378 169.512 137.344 169.603Z" fill="#EB996E"/>
<path d="M137.051 153.198C137.1 153.219 136.786 154.119 136.319 155.577C135.852 157.041 135.253 159.078 134.737 161.359C134.222 163.646 133.88 165.739 133.678 167.259C133.469 168.78 133.371 169.728 133.316 169.721C133.288 169.721 133.288 169.477 133.302 169.052C133.316 168.619 133.357 167.999 133.427 167.231C133.574 165.697 133.873 163.577 134.389 161.282C134.911 158.98 135.553 156.944 136.082 155.5C136.347 154.775 136.577 154.196 136.751 153.798C136.918 153.408 137.03 153.191 137.051 153.198Z" fill="#EB996E"/>
<path d="M263.732 249.721C268.833 247.21 270.638 241.198 269.934 235.73C269.21 230.087 263.502 225.33 258.367 222.889C253.231 220.448 247.503 219.597 241.851 218.983C238.653 218.642 235.342 218.377 232.304 219.423C229.266 220.476 226.569 223.189 226.562 226.404" fill="#E8505B"/>
<path d="M263.732 249.721C268.833 247.21 270.638 241.198 269.934 235.73C269.21 230.087 263.502 225.33 258.367 222.889C253.231 220.448 247.503 219.597 241.851 218.983C238.653 218.642 235.342 218.377 232.304 219.423C229.266 220.476 226.569 223.189 226.562 226.404" fill="#472D87"/>
<path d="M236.402 189.306L227.573 226.753L152.612 164.309L140.152 189.508L207.803 261.361C216.158 269.891 228.214 273.672 239.935 271.454C254.938 268.608 264.339 255.475 266.499 240.347L270.889 209.7L236.402 189.306Z" fill="#FFBE9D"/>
<path d="M265.948 161.791L257.719 157.16C257.719 157.16 238.471 158.694 236.402 189.306L233.405 197.243L227.573 226.753C228.687 220.999 257.175 200.11 269.934 235.736L274.415 185.017C273.244 174.443 274.234 167.308 265.948 161.791Z" fill="#704AB8"/>
<path d="M233.74 185.944C233.754 185.944 233.781 186.077 233.83 186.342C233.872 186.607 233.956 186.998 234.004 187.507C234.13 188.518 234.227 189.997 234.13 191.824C233.97 195.479 232.903 200.452 231.071 205.704C230.116 208.319 229.057 210.746 228.241 212.999C227.426 215.252 226.827 217.33 226.527 219.116C226.228 220.901 226.2 222.373 226.283 223.377C226.381 224.382 226.492 224.94 226.451 224.947C226.437 224.947 226.402 224.814 226.346 224.549C226.304 224.284 226.186 223.9 226.137 223.391C226.005 222.38 225.991 220.88 226.262 219.074C226.534 217.261 227.113 215.154 227.914 212.881C228.715 210.607 229.761 208.173 230.715 205.571C232.534 200.347 233.635 195.416 233.858 191.796C233.984 189.99 233.928 188.518 233.851 187.507C233.788 186.509 233.705 185.951 233.74 185.944Z" fill="#263238"/>
<path d="M259.551 159.099C259.544 159.127 259.105 159.05 258.318 158.945C257.53 158.841 256.374 158.743 254.952 158.778C252.123 158.834 248.123 159.622 244.457 161.979C240.792 164.344 238.409 167.657 237.189 170.203C236.562 171.486 236.172 172.574 235.942 173.341C235.705 174.108 235.6 174.534 235.565 174.527C235.552 174.527 235.565 174.415 235.607 174.206C235.649 173.997 235.698 173.69 235.802 173.299C235.991 172.518 236.353 171.402 236.952 170.091C238.13 167.482 240.52 164.079 244.255 161.673C247.997 159.273 252.081 158.506 254.938 158.52C256.381 158.513 257.544 158.653 258.332 158.806C258.729 158.869 259.029 158.959 259.238 159.001C259.447 159.05 259.558 159.085 259.551 159.099Z" fill="#263238"/>
<path d="M269.886 239.084C269.872 239.084 269.851 238.875 269.83 238.478C269.816 238.268 269.802 238.024 269.788 237.745C269.781 237.452 269.753 237.124 269.697 236.748C269.551 235.248 269.112 233.093 268.109 230.596C267.119 228.099 265.433 225.316 262.973 222.75C261.718 221.494 260.304 220.274 258.673 219.241C257.036 218.223 255.217 217.365 253.266 216.772C251.314 216.159 249.307 215.949 247.384 215.908C245.454 215.859 243.593 216.103 241.865 216.486C240.123 216.835 238.548 217.463 237.092 218.077C235.677 218.767 234.388 219.492 233.315 220.302C231.154 221.899 229.698 223.559 228.848 224.8C228.611 225.093 228.444 225.379 228.297 225.63C228.151 225.874 228.025 226.077 227.914 226.258C227.705 226.6 227.586 226.774 227.579 226.767C227.565 226.76 227.663 226.572 227.851 226.223C227.949 226.042 228.067 225.825 228.207 225.574C228.346 225.316 228.506 225.023 228.736 224.717C229.559 223.44 230.994 221.738 233.168 220.092C234.241 219.255 235.538 218.516 236.973 217.798C238.436 217.163 240.032 216.521 241.795 216.159C243.544 215.761 245.433 215.51 247.391 215.552C249.342 215.587 251.384 215.803 253.377 216.424C255.37 217.03 257.217 217.902 258.875 218.942C260.527 219.995 261.962 221.243 263.224 222.52C265.704 225.135 267.384 227.967 268.359 230.505C269.342 233.044 269.746 235.227 269.851 236.741C269.9 237.117 269.913 237.452 269.913 237.745C269.913 238.031 269.92 238.275 269.92 238.484C269.907 238.875 269.9 239.084 269.886 239.084Z" fill="#263238"/>
<g opacity="0.3">
<path d="M223.454 223.322C224.799 213.529 227.405 206.248 233.064 198.143C231.085 207.622 228.89 216.068 226.555 225.902" fill="black"/>
</g>
<path d="M239.524 235.339C239.461 235.423 236.792 233.539 233.558 231.14C230.325 228.741 227.754 226.732 227.809 226.648C227.872 226.565 230.541 228.448 233.775 230.847C237.008 233.247 239.579 235.262 239.524 235.339Z" fill="#EB996E"/>
</svg>
