<svg width="296" height="310" viewBox="0 0 296 310" fill="none" xmlns="http://www.w3.org/2000/svg">
<g clip-path="url(#clip0_127_1868)">
<path d="M148 310C66.2671 310 0 272.208 0 225.575C0 178.956 66.2671 141.155 148 141.155C229.742 141.155 295.997 178.956 295.997 225.575C296 272.208 229.742 310 148 310Z" fill="#ADB6DA"/>
<path d="M19.061 184.754V214.54C19.061 255.165 76.791 288.091 148 288.091C219.212 288.091 276.936 255.165 276.936 214.54V184.754H19.061Z" fill="#2F2356"/>
<path d="M148 258.302C76.7941 258.302 19.061 225.376 19.061 184.751C19.061 144.139 76.791 111.204 148 111.204C219.212 111.204 276.936 144.136 276.936 184.751C276.936 225.376 219.212 258.302 148 258.302Z" fill="#6B4C9A"/>
<path d="M148 242.69C91.9082 242.69 46.4305 216.754 46.4305 184.751C46.4305 152.758 91.9052 126.819 148 126.819C204.095 126.819 249.566 152.761 249.566 184.751C249.566 216.754 204.095 242.69 148 242.69Z" fill="white"/>
<path d="M148 228.624C190.477 228.624 224.911 208.983 224.911 184.754C224.911 160.526 190.477 140.884 148 140.884C105.523 140.884 71.0887 160.526 71.0887 184.754C71.0887 208.983 105.523 228.624 148 228.624Z" fill="#6B4C9A"/>
<path d="M148 213.539C120.128 213.539 97.5354 200.652 97.5354 184.751C97.5354 168.854 120.128 155.967 148 155.967C175.872 155.967 198.465 168.857 198.465 184.751C198.465 200.655 175.872 213.539 148 213.539Z" fill="white"/>
<path d="M148 199.307C133.908 199.307 122.485 192.793 122.485 184.754C122.485 176.718 133.908 170.201 148 170.201C162.089 170.201 173.512 176.718 173.512 184.754C173.515 192.793 162.089 199.307 148 199.307Z" fill="#6B4C9A"/>
<path d="M148 189.675C143.236 189.675 139.373 187.473 139.373 184.754C139.373 182.039 143.236 179.834 148 179.834C152.765 179.834 156.627 182.039 156.627 184.754C156.627 187.473 152.765 189.675 148 189.675Z" fill="#392666"/>
<path d="M148 69.6408V13.6148L173.906 0V53.4095L148 69.6408Z" fill="#6B4C9A"/>
<path d="M148 69.6408V13.6148L122.091 0V53.4095L148 69.6408Z" fill="#2F2356"/>
<path d="M151.458 13.8393L148 184.062" stroke="#6B4C9A" stroke-width="5.34" stroke-miterlimit="10"/>
</g>
<defs>
<clipPath id="clip0_127_1868">
<rect width="296" height="310" fill="white"/>
</clipPath>
</defs>
</svg>
