<svg width="358" height="311" viewBox="0 0 358 311" fill="none" xmlns="http://www.w3.org/2000/svg">
<g opacity="0.32">
<path d="M207.721 300.882C207.721 300.882 172.544 308.011 140.536 300.882C120.967 296.523 79.7287 286.187 70.0008 262.759C60.2728 239.331 107.121 219.343 84.1033 195.577C74.172 185.323 26.5185 171.802 29.199 105.298C31.8719 38.7931 101.699 -1.74661 198.746 0.0601744C295.792 1.86696 351.788 90.0907 314.254 133.536C276.72 176.982 260.57 177.11 277.579 212.485C294.595 247.868 270.968 290.749 207.721 300.882Z" fill="#634D95"/>
</g>
<path d="M36.3368 76.6528C34.7331 75.7644 33.1218 74.8761 31.518 73.9802" stroke="#263238" stroke-miterlimit="10" stroke-linecap="round" stroke-linejoin="round"/>
<path d="M69.293 94.9013C59.9114 89.1196 50.1232 84.6026 40.7039 79.0693" stroke="#263238" stroke-miterlimit="10" stroke-linecap="round" stroke-linejoin="round"/>
<path d="M58.1495 96.0606L40.7942 90.8134" stroke="#263238" stroke-miterlimit="10" stroke-linecap="round" stroke-linejoin="round"/>
<path d="M298.977 72.3014C306.363 67.3403 313.75 62.3792 321.136 57.4256C321.738 57.019 322.348 56.6125 322.951 56.206" stroke="#263238" stroke-miterlimit="10" stroke-linecap="round" stroke-linejoin="round"/>
<path d="M288.248 79.506C290.785 77.8046 293.315 76.1032 295.852 74.4018" stroke="#263238" stroke-miterlimit="10" stroke-linecap="round" stroke-linejoin="round"/>
<path d="M313.019 77.1195C315.384 75.9827 317.748 74.846 320.112 73.7017" stroke="#263238" stroke-miterlimit="10" stroke-linecap="round" stroke-linejoin="round"/>
<path d="M295.777 85.4156C300.227 83.2701 304.677 81.1321 309.127 78.9865" stroke="#263238" stroke-miterlimit="10" stroke-linecap="round" stroke-linejoin="round"/>
<path d="M188.867 288.792C189.801 296.071 190.742 303.351 191.676 310.624" stroke="#263238" stroke-miterlimit="10" stroke-linecap="round" stroke-linejoin="round"/>
<path d="M187.384 277.243C187.7 279.675 188.009 282.107 188.325 284.546" stroke="#263238" stroke-miterlimit="10" stroke-linecap="round" stroke-linejoin="round"/>
<path d="M198.919 293.67C199.454 295.846 199.988 298.021 200.53 300.197" stroke="#263238" stroke-miterlimit="10" stroke-linecap="round" stroke-linejoin="round"/>
<path d="M196.442 283.612C196.901 285.464 197.353 287.309 197.812 289.161" stroke="#263238" stroke-miterlimit="10" stroke-linecap="round" stroke-linejoin="round"/>
<path d="M226.123 225.72C221.454 225.923 219.821 229.424 219.256 231.494C217.509 230.237 214.03 228.558 210.273 231.343C206.2 234.377 206.682 240.761 212.419 244.714C216.545 247.552 221.936 248.583 224.632 248.937C224.956 248.982 225.242 249.012 225.483 249.027C225.648 248.862 225.859 248.658 226.085 248.417C227.952 246.445 231.484 242.252 232.892 237.449C234.857 230.764 231.19 225.509 226.123 225.72Z" fill="#634D95"/>
<path d="M228.035 253.04C228.035 253.04 228.088 253.16 228.186 253.379" stroke="#263238" stroke-linecap="round" stroke-linejoin="round"/>
<path d="M228.871 254.734C230.881 258.49 236.445 267.088 244.743 265.559C255.314 263.617 253.1 252.144 247.484 255.961C241.972 259.702 248.425 277.228 267.67 277.499" stroke="#263238" stroke-linecap="round" stroke-linejoin="round" stroke-dasharray="1.01 1.01"/>
<path d="M268.43 277.492C268.558 277.492 268.679 277.492 268.807 277.484" stroke="#263238" stroke-linecap="round" stroke-linejoin="round"/>
<path d="M125.357 84.7306C125.357 84.7306 123.068 73.7393 125.312 64.7204C125.312 64.7204 120.244 73.5963 116.194 74.0705C112.143 74.5448 102.249 58.0805 102.249 58.0805C102.249 58.0805 103.469 70.7882 100.728 73.2274C97.995 75.6665 78.9909 65.1495 78.9909 65.1495C78.9909 65.1495 90.9927 76.2688 90.0064 80.1835C89.02 84.0906 77.3118 82.3215 77.3118 82.3215C77.3118 82.3215 89.3061 88.5323 89.2384 90.7983C89.1781 93.0568 83.5612 95.4056 83.5612 95.4056L95.5103 98.974C95.5103 98.974 92.3555 89.9326 102.324 83.4507C112.308 76.9539 125.357 84.7306 125.357 84.7306Z" fill="white" stroke="#263238" stroke-miterlimit="10" stroke-linecap="round" stroke-linejoin="round"/>
<path d="M243.199 99.0342C243.199 99.0342 250.94 90.9037 259.636 87.6214C259.636 87.6214 249.456 88.5022 246.761 85.4382C244.065 82.3742 251.986 64.8785 251.986 64.8785C251.986 64.8785 242.221 73.1069 238.659 72.2411C235.098 71.3754 232.952 49.7693 232.952 49.7693C232.952 49.7693 230.625 65.9626 226.846 67.3704C223.066 68.7781 217.87 58.1482 217.87 58.1482C217.87 58.1482 219.58 71.541 217.682 72.7757C215.785 74.0103 210.665 70.7204 210.665 70.7204L214.527 82.5775C214.527 82.5775 220.174 74.8459 231.175 79.3629C242.183 83.8723 243.199 99.0342 243.199 99.0342Z" fill="white" stroke="#263238" stroke-miterlimit="10" stroke-linecap="round" stroke-linejoin="round"/>
<path d="M9.45692 271.16C9.45692 271.16 37.2253 237.336 44.7547 229.205C50.221 223.303 58.0742 222.212 60.3255 216.784C60.3255 216.784 76.0243 215.293 84.4723 212.244C92.9202 209.195 105.366 203.527 114.108 202.412C122.85 201.298 126.705 199.627 131.629 199.853C136.553 200.086 155.331 201.426 155.331 201.426C157.071 198.061 158.855 195.306 155.218 192.023C151.582 188.741 138.737 185.097 133.707 186.272C133.707 186.272 107.226 182.508 106.292 181.612C105.359 180.716 102.739 162.61 107.67 151.077L79.8643 149.044C79.8643 149.044 39.4841 193.792 0.926115 207.931C0.926115 207.938 -4.15622 249.848 9.45692 271.16Z" fill="white"/>
<path opacity="0.08" d="M153.667 190.917C145.423 191.73 129.189 193.363 125.447 194.026C120.387 194.922 104.756 195.818 104.756 195.818C104.756 195.818 99.2374 202.661 94.4713 204.452C89.7052 206.237 80.8807 195.818 75.4596 197.451C75.4596 197.451 66.0779 206.44 56.8394 204.964C51.7194 204.151 51.9905 189.065 56.3349 171.908C70.4375 159.509 79.8718 149.052 79.8718 149.052L107.67 151.085C102.746 162.618 105.366 180.723 106.292 181.619C107.226 182.515 133.714 186.279 133.714 186.279C138.172 185.24 148.796 187.988 153.667 190.917Z" fill="#907CCE"/>
<path opacity="0.29" d="M59.9716 217.522C57.3438 222.325 49.965 223.582 44.7547 229.205C39.4239 234.949 23.9962 253.537 15.4051 263.941C19.9529 251.135 36.2691 238.939 38.9721 234.761C42.5411 229.228 38.9721 223.213 45.3269 223.251C51.6817 223.281 59.9415 217.506 59.9415 217.506C59.949 217.514 59.9641 217.514 59.9716 217.522Z" fill="#634D95"/>
<path d="M9.45692 271.16C9.45692 271.16 37.2253 237.336 44.7547 229.205C50.221 223.303 58.0742 222.212 60.3255 216.784C60.3255 216.784 76.0243 215.293 84.4722 212.244C92.9202 209.195 105.366 203.527 114.108 202.412C122.85 201.298 126.705 199.627 131.629 199.853C136.553 200.086 155.331 201.426 155.331 201.426C157.071 198.061 158.855 195.306 155.218 192.023C151.582 188.741 138.737 185.097 133.707 186.272C133.707 186.272 107.226 182.508 106.292 181.612C105.359 180.716 102.739 162.61 107.67 151.077L79.8643 149.044C79.8643 149.044 39.4841 193.792 0.926115 207.931" stroke="#263238" stroke-miterlimit="10" stroke-linecap="round" stroke-linejoin="round"/>
<path d="M88.9296 131.895C88.9296 131.895 114.545 110.763 115.938 110.319C117.331 109.875 123.482 108.181 129.438 106.796C135.394 105.403 140.16 104.417 144.73 106.796C149.3 109.175 159.427 111.561 159.427 111.561C159.427 111.561 160.715 116.274 156.099 117.915C151.484 119.556 137.931 118.216 137.931 118.216C137.931 118.216 128.549 122.681 122.887 123.727C122.887 123.727 110.675 136.676 110.675 142.036" fill="white"/>
<path opacity="0.08" d="M159.54 113.805C159.36 115.25 158.584 117.027 156.099 117.908C151.484 119.549 137.931 118.209 137.931 118.209C137.931 118.209 128.549 122.673 122.887 123.719C122.887 123.719 114.341 132.783 111.548 138.881C104.312 137.278 99.0416 136.103 99.0416 136.103C99.0416 136.103 112.444 121.228 112.738 121.077C113.039 120.926 116.163 119.737 119.763 119.436C123.354 119.142 130.153 115.461 130.153 115.461C130.153 115.461 135.68 113.33 139.106 113.782C142.531 114.226 150.422 115.717 155.188 115.416C157.432 115.28 158.765 114.542 159.54 113.805Z" fill="#907CCE"/>
<path d="M88.9296 131.895C88.9296 131.895 114.545 110.763 115.938 110.319C117.331 109.875 123.482 108.181 129.438 106.796C135.394 105.403 140.16 104.417 144.73 106.796C149.3 109.175 159.427 111.561 159.427 111.561C159.427 111.561 160.715 116.274 156.099 117.915C151.484 119.556 137.931 118.216 137.931 118.216C137.931 118.216 128.549 122.681 122.887 123.727C122.887 123.727 110.675 136.676 110.675 142.036" stroke="#263238" stroke-miterlimit="10" stroke-linecap="round" stroke-linejoin="round"/>
<path d="M137.931 118.209C137.931 118.209 135.793 118.111 134.806 116.424" stroke="#263238" stroke-miterlimit="10" stroke-linecap="round" stroke-linejoin="round"/>
<path d="M122.887 123.719C122.887 123.719 118.618 124.066 116.63 121.785" stroke="#263238" stroke-miterlimit="10" stroke-linecap="round" stroke-linejoin="round"/>
<path d="M344.929 281.15C344.929 281.15 318.343 244.352 311.37 235.74C306.303 229.484 298.548 227.873 296.658 222.31C296.658 222.31 281.095 219.773 272.865 216.166C264.643 212.56 252.596 206.079 243.952 204.377C235.301 202.676 231.574 200.756 226.642 200.658C221.71 200.56 202.887 200.643 202.887 200.643C201.374 197.165 199.785 194.297 203.632 191.271C207.48 188.244 220.543 185.459 225.475 186.964C225.475 186.964 252.152 184.977 253.138 184.149C254.125 183.321 257.949 165.426 253.801 153.592L281.675 153.418C281.675 153.418 320.09 202.33 357.624 219.005C357.624 219.012 359.928 260.786 344.929 281.15Z" fill="white"/>
<path opacity="0.08" d="M297.117 210.106C287.886 211.582 279.491 198.957 279.491 198.957C274.077 197.323 265.245 207.742 260.479 205.958C255.713 204.166 250.202 197.323 250.202 197.323C250.202 197.323 234.571 196.427 229.503 195.531C225.919 194.899 210.823 193.363 202.322 192.528C202.661 192.114 203.09 191.692 203.625 191.27C207.472 188.244 220.536 185.459 225.468 186.964C225.468 186.964 252.144 184.977 253.138 184.149C254.125 183.321 257.949 165.426 253.801 153.592L281.682 153.426C281.682 153.426 288.165 161.669 298.397 172.548C302.99 189.938 302.328 209.278 297.117 210.106Z" fill="#907CCE"/>
<path opacity="0.29" d="M340.389 274.887C332.475 263.993 316.528 242.124 311.363 235.74C306.303 229.484 298.54 227.873 296.658 222.309C296.658 222.309 291.335 221.444 285.266 220.006C289.437 220.096 293.036 219.855 295.009 219.012C295.009 219.012 303.276 224.786 309.631 224.756C315.986 224.718 312.41 230.734 315.986 236.267C319.352 241.469 343.852 259.138 340.389 274.887Z" fill="#634D95"/>
<path d="M344.929 281.15C344.929 281.15 318.343 244.352 311.37 235.74C306.303 229.484 298.548 227.873 296.658 222.31C296.658 222.31 281.095 219.773 272.865 216.166C264.643 212.56 252.596 206.079 243.952 204.377C235.301 202.676 231.574 200.756 226.642 200.658C221.71 200.56 202.887 200.643 202.887 200.643C201.374 197.165 199.785 194.297 203.632 191.271C207.48 188.244 220.543 185.459 225.475 186.964C225.475 186.964 252.152 184.977 253.138 184.149C254.125 183.321 257.949 165.426 253.801 153.592L281.675 153.418C281.675 153.418 320.09 202.33 357.624 219.005" stroke="#263238" stroke-miterlimit="10" stroke-linecap="round" stroke-linejoin="round"/>
<path d="M273.535 135.659C273.535 135.659 247.92 114.527 246.527 114.083C245.134 113.639 238.983 111.945 233.027 110.56C227.071 109.167 222.305 108.181 217.735 110.56C213.165 112.939 203.038 115.325 203.038 115.325C203.038 115.325 201.75 120.038 206.366 121.679C210.981 123.32 224.534 121.98 224.534 121.98C224.534 121.98 233.916 126.445 239.578 127.491C239.578 127.491 251.79 140.44 251.79 145.8" fill="white"/>
<path opacity="0.08" d="M272.052 136.352L251.79 145.792C251.79 140.432 239.578 127.484 239.578 127.484C233.923 126.437 224.534 121.973 224.534 121.973C224.534 121.973 210.981 123.313 206.366 121.672C204.559 121.032 203.655 119.918 203.226 118.796C204.649 119.737 207.216 120.678 211.561 120.181C219.376 119.293 225.302 116.078 227.034 116.417C228.758 116.756 229.21 119.436 229.21 119.436C229.21 119.436 242.311 124.66 245.142 123.689C247.973 122.718 258.845 128.681 258.845 128.681C258.845 128.681 265.968 133.469 272.052 136.352Z" fill="#907CCE"/>
<path d="M273.535 135.659C273.535 135.659 247.92 114.527 246.527 114.083C245.134 113.639 238.983 111.945 233.027 110.56C227.071 109.167 222.305 108.181 217.735 110.56C213.165 112.939 203.038 115.325 203.038 115.325C203.038 115.325 201.75 120.038 206.366 121.679C210.981 123.32 224.534 121.98 224.534 121.98C224.534 121.98 233.916 126.445 239.578 127.491C239.578 127.491 251.79 140.44 251.79 145.8" stroke="#263238" stroke-miterlimit="10" stroke-linecap="round" stroke-linejoin="round"/>
<path d="M224.542 121.973C224.542 121.973 226.68 121.875 227.666 120.189" stroke="#263238" stroke-miterlimit="10" stroke-linecap="round" stroke-linejoin="round"/>
<path d="M239.578 127.484C239.578 127.484 243.847 127.83 245.835 125.549" stroke="#263238" stroke-miterlimit="10" stroke-linecap="round" stroke-linejoin="round"/>
<path d="M230.309 188.899H122.925C121.359 188.899 120.094 187.634 120.094 186.068V124.721C120.094 123.155 121.359 121.89 122.925 121.89H230.309C231.875 121.89 233.14 123.155 233.14 124.721V186.068C233.14 187.634 231.868 188.899 230.309 188.899Z" fill="#634D95"/>
<mask id="mask0_133_3771" style="mask-type:luminance" maskUnits="userSpaceOnUse" x="120" y="121" width="114" height="68">
<path d="M230.309 188.899H122.925C121.359 188.899 120.094 187.634 120.094 186.068V124.721C120.094 123.155 121.359 121.89 122.925 121.89H230.309C231.875 121.89 233.14 123.155 233.14 124.721V186.068C233.14 187.634 231.868 188.899 230.309 188.899Z" fill="white"/>
</mask>
<g mask="url(#mask0_133_3771)">
<path opacity="0.3" d="M230.309 121.898H122.925C121.359 121.898 120.094 123.162 120.094 124.728V186.076C120.094 187.642 121.359 188.907 122.925 188.907H230.309C231.875 188.907 233.14 187.642 233.14 186.076V124.728C233.14 123.162 231.868 121.898 230.309 121.898ZM229.774 184.495C229.774 185.775 228.735 186.821 227.448 186.821H125.778C124.499 186.821 123.452 185.782 123.452 184.495V126.061C123.452 124.781 124.491 123.734 125.778 123.734H227.455C228.735 123.734 229.782 124.773 229.782 126.061V184.495H229.774Z" fill="black" fill-opacity="0.7"/>
</g>
<mask id="mask1_133_3771" style="mask-type:luminance" maskUnits="userSpaceOnUse" x="120" y="121" width="114" height="68">
<path d="M230.309 188.899H122.925C121.359 188.899 120.094 187.634 120.094 186.068V124.721C120.094 123.155 121.359 121.89 122.925 121.89H230.309C231.875 121.89 233.14 123.155 233.14 124.721V186.068C233.14 187.634 231.868 188.899 230.309 188.899Z" fill="white"/>
</mask>
<g mask="url(#mask1_133_3771)">
<path d="M233.133 136.871H120.094V185.06H233.133V136.871Z" fill="#263238"/>
</g>
<mask id="mask2_133_3771" style="mask-type:luminance" maskUnits="userSpaceOnUse" x="120" y="121" width="114" height="68">
<path d="M230.309 188.899H122.925C121.359 188.899 120.094 187.634 120.094 186.068V124.721C120.094 123.155 121.359 121.89 122.925 121.89H230.309C231.875 121.89 233.14 123.155 233.14 124.721V186.068C233.14 187.634 231.868 188.899 230.309 188.899Z" fill="white"/>
</mask>
<g mask="url(#mask2_133_3771)">
<path opacity="0.2" d="M229.782 136.871H123.459V185.06H229.782V136.871Z" fill="white"/>
</g>
<mask id="mask3_133_3771" style="mask-type:luminance" maskUnits="userSpaceOnUse" x="120" y="121" width="114" height="68">
<path d="M230.309 188.899H122.925C121.359 188.899 120.094 187.634 120.094 186.068V124.721C120.094 123.155 121.359 121.89 122.925 121.89H230.309C231.875 121.89 233.14 123.155 233.14 124.721V186.068C233.14 187.634 231.868 188.899 230.309 188.899Z" fill="white"/>
</mask>
<g mask="url(#mask3_133_3771)">
<path opacity="0.3" d="M130.153 186.814L131.84 188.899H122.925C121.366 188.899 120.094 187.634 120.094 186.068V128.191C120.094 128.191 127.819 129.17 129.287 129.96C130.763 130.758 142.05 148.073 143.48 155.278C144.911 162.475 130.153 186.814 130.153 186.814Z" fill="black" fill-opacity="0.7"/>
</g>
<mask id="mask4_133_3771" style="mask-type:luminance" maskUnits="userSpaceOnUse" x="120" y="121" width="114" height="68">
<path d="M230.309 188.899H122.925C121.359 188.899 120.094 187.634 120.094 186.068V124.721C120.094 123.155 121.359 121.89 122.925 121.89H230.309C231.875 121.89 233.14 123.155 233.14 124.721V186.068C233.14 187.634 231.868 188.899 230.309 188.899Z" fill="white"/>
</mask>
<g mask="url(#mask4_133_3771)">
<path opacity="0.3" d="M231.725 137.827L228.231 140.733C228.231 140.733 222.094 147.81 218.955 154.615L218.917 154.209L218.518 154.058C218.51 153.991 218.503 153.923 218.488 153.855L218.834 153.607L218.691 152.696L218.292 152.56C218.277 152.492 218.27 152.425 218.254 152.357L218.586 152.093L218.398 151.182L217.991 151.077C217.976 151.009 217.953 150.942 217.938 150.866L218.254 150.588L218.021 149.699L217.614 149.609C217.592 149.541 217.569 149.474 217.554 149.398L217.848 149.112L217.569 148.231L217.163 148.164C217.133 148.096 217.11 148.028 217.087 147.953L217.374 147.652L217.05 146.786L216.636 146.741C216.606 146.673 216.583 146.605 216.553 146.538L216.824 146.214L216.455 145.371L216.041 145.341C216.011 145.28 215.981 145.213 215.95 145.145L216.199 144.814L215.792 143.985L215.371 143.978C215.341 143.918 215.303 143.85 215.273 143.79L215.506 143.443L215.054 142.638L214.633 142.653C214.603 142.593 214.565 142.532 214.527 142.465L214.746 142.111L214.256 141.328L213.835 141.366C213.797 141.305 213.759 141.245 213.722 141.185L213.918 140.816L213.39 140.056L212.969 140.116C212.931 140.063 212.886 140.003 212.848 139.943L213.022 139.566L212.457 138.836L212.043 138.919C211.998 138.866 211.96 138.806 211.915 138.746L212.073 138.362L211.47 137.662L211.056 137.767C211.011 137.714 210.966 137.662 210.913 137.609L211.056 137.21L210.416 136.54L210.017 136.66C209.965 136.615 209.912 136.563 209.867 136.517L209.987 136.111L209.317 135.479L208.926 135.614C208.865 135.569 208.813 135.524 208.76 135.479L208.858 135.064L208.158 134.462L207.774 134.628C207.713 134.583 207.661 134.537 207.6 134.492L207.683 134.078L206.953 133.514L206.576 133.694C206.516 133.649 206.456 133.611 206.403 133.574L206.456 133.152L205.703 132.625L205.334 132.829C205.274 132.783 205.214 132.746 205.153 132.708L205.191 132.287L204.4 131.805L204.047 132.023C203.986 131.985 203.919 131.948 203.858 131.91L203.873 131.496L203.068 131.044L202.721 131.278C202.661 131.248 202.593 131.218 202.533 131.18L202.526 130.766L201.697 130.359L201.366 130.608C201.298 130.578 201.231 130.547 201.163 130.517L201.14 130.103L200.289 129.734L199.973 130.005C199.905 129.975 199.838 129.953 199.77 129.93L199.725 129.509L198.851 129.192L198.55 129.478C198.482 129.448 198.415 129.426 198.347 129.403L198.279 128.997L197.391 128.718L197.104 129.019C197.037 128.997 196.961 128.974 196.894 128.959L196.803 128.553L195.915 128.319L195.636 128.635C195.568 128.62 195.493 128.598 195.425 128.583L195.312 128.176L194.409 127.995L194.145 128.327C194.078 128.312 194.01 128.297 193.942 128.289L193.807 127.89L192.895 127.747L192.647 128.093C192.579 128.086 192.511 128.071 192.436 128.063L192.286 127.672L191.367 127.574L191.141 127.935C191.073 127.928 190.998 127.928 190.93 127.92L190.757 127.529L189.839 127.483L189.62 127.852C189.522 127.852 189.424 127.852 189.327 127.845L189.131 127.468H188.212L188.016 127.852C187.949 127.852 187.881 127.852 187.813 127.86L187.595 127.483L186.676 127.536L186.503 127.928C186.435 127.935 186.368 127.935 186.292 127.943L186.066 127.581L185.148 127.679L184.997 128.078C184.929 128.086 184.854 128.093 184.786 128.101L184.538 127.762L183.627 127.905L183.499 128.304C183.424 128.319 183.356 128.327 183.288 128.342L183.024 128.01L182.121 128.199L182.008 128.605C181.94 128.62 181.872 128.635 181.805 128.65L181.526 128.342L180.63 128.575L180.54 128.982C180.472 129.004 180.404 129.019 180.336 129.042L180.043 128.741L179.162 129.019L179.094 129.433C179.026 129.456 178.959 129.478 178.891 129.501L178.582 129.223L177.716 129.546L177.671 129.96C177.603 129.983 177.536 130.013 177.468 130.036L177.152 129.772L176.301 130.141L176.278 130.555C176.21 130.585 176.143 130.615 176.082 130.645L175.744 130.397L174.915 130.803V131.225C174.848 131.255 174.787 131.285 174.72 131.323L174.373 131.09L173.568 131.541L173.59 131.955C173.522 131.993 173.462 132.031 173.402 132.068L173.04 131.85L172.257 132.339L172.295 132.761C172.235 132.798 172.175 132.836 172.114 132.874L171.753 132.678L170.992 133.205L171.053 133.627C170.992 133.664 170.932 133.702 170.88 133.747L170.503 133.566L169.773 134.138L169.848 134.553C169.795 134.598 169.735 134.635 169.682 134.681L169.298 134.522L168.598 135.125L168.696 135.531C168.643 135.584 168.591 135.629 168.538 135.674L168.146 135.539L167.476 136.171L167.597 136.578C167.544 136.623 167.499 136.675 167.446 136.728L167.04 136.608L166.407 137.278L166.55 137.669C166.497 137.722 166.452 137.782 166.407 137.835L166.001 137.729L165.398 138.437L165.556 138.821C165.511 138.874 165.473 138.934 165.428 138.987L165.014 138.911L164.442 139.642L164.623 140.018C164.585 140.078 164.547 140.131 164.502 140.191L164.081 140.131L163.553 140.891L163.757 141.26C163.719 141.32 163.681 141.381 163.644 141.441L163.222 141.403L162.733 142.186L162.951 142.548C162.913 142.608 162.883 142.668 162.846 142.728L162.424 142.713L161.972 143.526L162.213 143.873C162.176 143.933 162.145 144.001 162.115 144.061L161.694 144.068L161.287 144.896L161.536 145.228C161.505 145.295 161.483 145.363 161.453 145.423L161.031 145.453L160.67 146.304L160.933 146.62C160.911 146.688 160.881 146.756 160.858 146.824L160.444 146.869L160.12 147.735L160.406 148.043C160.384 148.111 160.361 148.179 160.338 148.246L159.924 148.314L159.646 149.195L159.947 149.489C159.924 149.556 159.909 149.624 159.887 149.692L159.48 149.782L159.247 150.678L159.563 150.957C159.548 151.024 159.533 151.092 159.518 151.167L159.111 151.273L158.923 152.184L159.254 152.44C159.239 152.515 159.232 152.583 159.217 152.65L158.817 152.778L158.674 153.697L159.021 153.945C159.013 154.013 159.006 154.081 158.998 154.149L158.599 154.299L158.509 155.225L158.863 155.451C158.863 155.519 158.855 155.587 158.848 155.662L158.464 155.827L158.411 156.753L158.787 156.964C158.787 157.032 158.78 157.107 158.78 157.175L158.396 157.363V158.289L158.78 158.485C158.78 158.583 158.787 158.681 158.787 158.778L158.418 158.989L158.464 159.915L158.855 160.088C158.863 160.156 158.87 160.224 158.87 160.292L158.516 160.525L158.614 161.443L159.006 161.594C159.013 161.662 159.028 161.73 159.036 161.805L158.689 162.046L158.833 162.964L159.232 163.092C159.247 163.16 159.262 163.235 159.269 163.303L158.938 163.566L159.134 164.47L159.533 164.575C159.555 164.643 159.57 164.718 159.585 164.786L159.269 165.065L159.503 165.96L159.917 166.043C159.932 166.111 159.954 166.186 159.969 166.254L159.676 166.548L159.954 167.428L160.369 167.496C160.391 167.564 160.414 167.632 160.436 167.699L160.15 168.001L160.474 168.874L160.888 168.919C160.918 168.987 160.941 169.047 160.971 169.115L160.7 169.439L161.069 170.289L161.49 170.312C161.521 170.38 161.543 170.44 161.573 170.508L161.325 170.839L161.731 171.667L162.153 171.674C162.183 171.735 162.221 171.802 162.251 171.863L162.017 172.209L162.469 173.022L162.891 172.999C162.929 173.06 162.959 173.127 162.996 173.188L162.778 173.541L163.267 174.324L163.689 174.287C163.727 174.347 163.764 174.407 163.802 174.467L163.606 174.836L164.141 175.597L164.555 175.536C164.6 175.589 164.638 175.649 164.675 175.71L164.502 176.086L165.067 176.816L165.481 176.733C165.526 176.794 165.571 176.846 165.617 176.907L165.451 177.29L166.061 177.991L166.467 177.885C166.512 177.945 166.558 177.998 166.61 178.051L166.467 178.442L167.107 179.112L167.506 178.992C167.559 179.045 167.612 179.09 167.657 179.142L167.536 179.541L168.207 180.181L168.606 180.038C168.658 180.083 168.711 180.129 168.764 180.181L168.666 180.588L169.366 181.19L169.75 181.032C169.81 181.077 169.863 181.115 169.923 181.16L169.84 181.574L170.571 182.139L170.947 181.958C171.008 182.003 171.068 182.041 171.128 182.086L171.068 182.5L171.828 183.027L172.19 182.831C172.25 182.869 172.31 182.907 172.37 182.944L172.333 183.366L173.123 183.855L173.477 183.637C173.537 183.674 173.605 183.705 173.665 183.742L173.65 184.164L174.456 184.608L174.802 184.375C174.863 184.405 174.93 184.442 174.991 184.472L174.998 184.894L175.826 185.301L176.165 185.045C176.225 185.075 176.293 185.105 176.361 185.135L176.384 185.557L177.234 185.918L177.551 185.647C177.618 185.677 177.686 185.7 177.754 185.73L177.799 186.144L178.672 186.467L178.974 186.181C179.041 186.204 179.109 186.227 179.177 186.249L179.245 186.663L180.133 186.934L180.419 186.641C180.487 186.656 180.562 186.678 180.63 186.693L180.72 187.107L181.616 187.333L181.888 187.025C181.963 187.04 182.031 187.055 182.098 187.07L182.211 187.476L183.115 187.657L183.378 187.333C183.446 187.341 183.514 187.356 183.582 187.363L183.717 187.77L184.628 187.905L184.877 187.559C184.944 187.574 185.012 187.582 185.088 187.589L185.238 187.988L186.157 188.078L186.383 187.717C186.458 187.725 186.526 187.732 186.593 187.732L186.767 188.124L187.693 188.169L187.904 187.8C188.001 187.8 188.099 187.807 188.197 187.807L188.393 188.191L189.311 188.184L189.507 187.8H189.711L189.929 188.169L190.847 188.116L191.021 187.725C191.088 187.725 191.156 187.717 191.231 187.71L191.457 188.071L192.376 187.973L192.527 187.574C192.602 187.567 192.67 187.559 192.737 187.551L192.986 187.898L193.897 187.755L194.025 187.348C194.1 187.341 194.168 187.326 194.236 187.311L194.499 187.642L195.403 187.454L195.516 187.047C195.583 187.032 195.651 187.017 195.719 187.002L195.998 187.318L196.894 187.085L196.984 186.671C197.052 186.656 197.119 186.633 197.187 186.61L197.481 186.912L198.362 186.633L198.43 186.219C198.497 186.196 198.565 186.174 198.633 186.151L198.942 186.437L199.807 186.114L199.853 185.692C199.92 185.669 199.988 185.639 200.056 185.617L200.372 185.88L201.223 185.519L201.246 185.097C201.313 185.067 201.381 185.037 201.441 185.007L201.78 185.263L202.608 184.849V184.435C202.676 184.397 202.736 184.367 202.804 184.337L203.151 184.57L203.956 184.119L203.941 183.697C204.001 183.659 204.062 183.629 204.122 183.592L204.483 183.802L205.266 183.313L205.229 182.899C205.289 182.854 205.349 182.824 205.409 182.779L205.778 182.982L206.531 182.447L206.471 182.033C206.531 181.988 206.591 181.95 206.644 181.905L207.028 182.086L207.759 181.521L207.676 181.107C207.728 181.062 207.789 181.017 207.841 180.972L208.225 181.13L208.926 180.528L208.828 180.121C208.88 180.076 208.933 180.023 208.986 179.978L209.385 180.121L209.987 179.534L212.269 180.648L214.814 177.705L213.3 175.499L213.443 175.521L213.97 174.761L213.767 174.392C213.805 174.332 213.842 174.272 213.88 174.211L214.302 174.249L214.791 173.466L214.573 173.112C214.61 173.045 214.648 172.984 214.678 172.924L215.1 172.939L215.551 172.134L215.31 171.787C215.348 171.72 215.378 171.659 215.408 171.592H215.83L216.237 170.756L215.988 170.425C216.018 170.357 216.048 170.297 216.071 170.229L216.493 170.206L216.854 169.356L216.59 169.032C216.613 168.964 216.643 168.896 216.666 168.836L217.08 168.784L217.404 167.918L217.118 167.617C217.14 167.541 217.163 167.474 217.185 167.406L217.599 167.338L217.72 166.954C219.331 175.732 223.743 186.964 223.743 186.964L223.45 188.53L223.811 188.899H230.309C231.868 188.899 233.14 187.634 233.14 186.068V138.008L231.725 137.827ZM217.584 166.171L217.577 166.164C217.577 166.164 217.577 166.156 217.584 166.149V166.171Z" fill="black" fill-opacity="0.7"/>
</g>
<path d="M143.48 119.067V121.898H126.426V119.067C126.426 118.615 126.795 118.246 127.247 118.246H142.659C143.111 118.246 143.48 118.615 143.48 119.067Z" fill="#999999"/>
<mask id="mask5_133_3771" style="mask-type:luminance" maskUnits="userSpaceOnUse" x="126" y="118" width="18" height="4">
<path d="M143.48 119.067V121.898H126.426V119.067C126.426 118.615 126.795 118.246 127.247 118.246H142.659C143.111 118.246 143.48 118.615 143.48 119.067Z" fill="white"/>
</mask>
<g mask="url(#mask5_133_3771)">
<path opacity="0.4" d="M143.48 119.067V119.436H126.426V119.067C126.426 118.615 126.795 118.246 127.247 118.246H142.659C143.111 118.246 143.48 118.615 143.48 119.067Z" fill="white"/>
</g>
<path d="M143.48 119.067V121.898H126.426V119.067C126.426 118.615 126.795 118.246 127.247 118.246H142.659C143.111 118.246 143.48 118.615 143.48 119.067Z" stroke="#263238" stroke-miterlimit="10" stroke-linecap="round" stroke-linejoin="round"/>
<path d="M159.54 120.189V121.898H145.897V120.189L148.434 119.436V118.419C148.434 117.998 148.781 117.652 149.202 117.652H156.235C156.657 117.652 157.003 117.998 157.003 118.419V119.436L159.54 120.189Z" fill="#999999"/>
<mask id="mask6_133_3771" style="mask-type:luminance" maskUnits="userSpaceOnUse" x="145" y="117" width="15" height="5">
<path d="M159.54 120.189V121.898H145.897V120.189L148.434 119.436V118.419C148.434 117.998 148.781 117.652 149.202 117.652H156.235C156.657 117.652 157.003 117.998 157.003 118.419V119.436L159.54 120.189Z" fill="white"/>
</mask>
<g mask="url(#mask6_133_3771)">
<path opacity="0.4" d="M159.54 120.595V120.189L157.003 119.436H148.434L145.897 120.189V120.595H159.54Z" fill="white"/>
</g>
<mask id="mask7_133_3771" style="mask-type:luminance" maskUnits="userSpaceOnUse" x="145" y="117" width="15" height="5">
<path d="M159.54 120.189V121.898H145.897V120.189L148.434 119.436V118.419C148.434 117.998 148.781 117.652 149.202 117.652H156.235C156.657 117.652 157.003 117.998 157.003 118.419V119.436L159.54 120.189Z" fill="white"/>
</mask>
<g mask="url(#mask7_133_3771)">
<path opacity="0.4" d="M157.003 118.419V118.547H148.434V118.419C148.434 117.998 148.781 117.652 149.202 117.652H156.235C156.657 117.652 157.003 117.998 157.003 118.419Z" fill="white"/>
</g>
<path d="M159.54 120.189V121.898H145.897V120.189L148.434 119.436V118.419C148.434 117.998 148.781 117.652 149.202 117.652H156.235C156.657 117.652 157.003 117.998 157.003 118.419V119.436L159.54 120.189Z" stroke="#263238" stroke-miterlimit="10" stroke-linecap="round" stroke-linejoin="round"/>
<path d="M148.434 119.436H157.003" stroke="#263238" stroke-miterlimit="10" stroke-linecap="round" stroke-linejoin="round"/>
<path d="M215.702 155.669V157.047L216.191 156.799V155.918L215.702 155.669Z" fill="#263238"/>
<path d="M158.893 155.669L158.396 155.918V156.799L158.893 157.047V155.669Z" fill="#263238"/>
<path d="M215.627 158.485L216.139 158.259L216.176 157.386L215.702 157.107L215.627 158.485Z" fill="#263238"/>
<path d="M158.968 154.239L158.456 154.465L158.411 155.338L158.893 155.617L158.968 154.239Z" fill="#263238"/>
<path d="M215.484 159.915L216.003 159.72L216.094 158.839L215.627 158.545L215.484 159.915Z" fill="#263238"/>
<path d="M159.111 152.809L158.592 153.004L158.501 153.885L158.968 154.179L159.111 152.809Z" fill="#263238"/>
<path d="M215.273 161.338L215.792 161.165L215.928 160.292L215.476 159.976L215.273 161.338Z" fill="#263238"/>
<path d="M159.322 151.386L158.795 151.559L158.667 152.432L159.119 152.748L159.322 151.386Z" fill="#263238"/>
<path d="M214.979 162.746L215.514 162.595L215.694 161.737L215.258 161.391L214.979 162.746Z" fill="#263238"/>
<path d="M159.608 149.978L159.073 150.129L158.9 150.987L159.337 151.333L159.608 149.978Z" fill="#263238"/>
<path d="M214.625 164.131L215.167 164.018L215.386 163.168L214.972 162.799L214.625 164.131Z" fill="#263238"/>
<path d="M159.969 148.593L159.427 148.706L159.209 149.556L159.623 149.925L159.969 148.593Z" fill="#263238"/>
<path d="M214.196 165.501L214.746 165.418L215.002 164.575L214.61 164.191L214.196 165.501Z" fill="#263238"/>
<path d="M160.399 147.215L159.849 147.305L159.585 148.149L159.985 148.533L160.399 147.215Z" fill="#263238"/>
<path d="M213.699 166.856L214.249 166.789L214.558 165.968L214.174 165.562L213.699 166.856Z" fill="#263238"/>
<path d="M160.896 145.868L160.346 145.935L160.037 146.756L160.414 147.162L160.896 145.868Z" fill="#263238"/>
<path d="M213.135 168.174L213.684 168.136L214.038 167.331L213.677 166.909L213.135 168.174Z" fill="#263238"/>
<path d="M161.46 144.55L160.903 144.58L160.557 145.393L160.918 145.815L161.46 144.55Z" fill="#263238"/>
<path d="M212.502 169.461H213.059L213.443 168.671L213.112 168.227L212.502 169.461Z" fill="#263238"/>
<path d="M162.085 143.255L161.536 143.263L161.144 144.053L161.483 144.497L162.085 143.255Z" fill="#263238"/>
<path d="M211.809 170.726L212.366 170.741L212.788 169.973L212.479 169.514L211.809 170.726Z" fill="#263238"/>
<path d="M162.785 141.998L162.228 141.975L161.807 142.751L162.115 143.203L162.785 141.998Z" fill="#263238"/>
<path d="M211.056 171.945L211.606 171.991L212.065 171.245L211.779 170.771L211.056 171.945Z" fill="#263238"/>
<path d="M163.538 140.778L162.989 140.733L162.522 141.479L162.816 141.953L163.538 140.778Z" fill="#263238"/>
<path d="M210.236 173.127L210.785 173.203L211.282 172.48L211.019 171.991L210.236 173.127Z" fill="#263238"/>
<path d="M164.359 139.597L163.809 139.521L163.305 140.244L163.576 140.733L164.359 139.597Z" fill="#263238"/>
<path d="M209.355 174.264L209.904 174.37L210.439 173.669L210.198 173.173L209.355 174.264Z" fill="#263238"/>
<path d="M165.233 138.46L164.69 138.354L164.156 139.055L164.397 139.551L165.233 138.46Z" fill="#263238"/>
<path d="M208.421 175.356L208.963 175.484L209.535 174.821L209.317 174.309L208.421 175.356Z" fill="#263238"/>
<path d="M166.166 137.368L165.632 137.233L165.059 137.903L165.27 138.415L166.166 137.368Z" fill="#263238"/>
<path d="M207.435 176.395L207.969 176.56L208.572 175.92L208.383 175.401L207.435 176.395Z" fill="#263238"/>
<path d="M167.152 136.322L166.625 136.164L166.023 136.804L166.211 137.323L167.152 136.322Z" fill="#263238"/>
<path d="M206.396 177.388L206.923 177.577L207.555 176.967L207.397 176.44L206.396 177.388Z" fill="#263238"/>
<path d="M168.192 135.336L167.672 135.147L167.04 135.757L167.198 136.284L168.192 135.336Z" fill="#263238"/>
<path d="M205.311 178.329L205.823 178.54L206.486 177.968L206.358 177.426L205.311 178.329Z" fill="#263238"/>
<path d="M169.283 134.395L168.771 134.184L168.101 134.756L168.237 135.29L169.283 134.395Z" fill="#263238"/>
<path d="M204.175 179.21L204.679 179.451L205.372 178.909L205.266 178.367L204.175 179.21Z" fill="#263238"/>
<path d="M170.413 133.514L169.916 133.273L169.223 133.815L169.328 134.357L170.413 133.514Z" fill="#263238"/>
<path d="M203 180.038L203.489 180.294L204.212 179.797L204.129 179.248L203 180.038Z" fill="#263238"/>
<path d="M171.595 132.686L171.105 132.422L170.383 132.927L170.465 133.476L171.595 132.686Z" fill="#263238"/>
<path d="M201.78 180.799L202.255 181.085L203 180.618L202.955 180.068L201.78 180.799Z" fill="#263238"/>
<path d="M172.807 131.925L172.333 131.639L171.587 132.106L171.64 132.655L172.807 131.925Z" fill="#263238"/>
<path d="M200.53 181.499L200.99 181.807L201.758 181.378L201.735 180.829L200.53 181.499Z" fill="#263238"/>
<path d="M174.064 131.225L173.605 130.909L172.837 131.338L172.86 131.895L174.064 131.225Z" fill="#263238"/>
<path d="M199.679 182.47L200.47 182.078L200.478 181.529L199.243 182.139L199.679 182.47Z" fill="#263238"/>
<path d="M174.908 130.254L174.117 130.645V131.195L175.352 130.585L174.908 130.254Z" fill="#263238"/>
<path d="M198.347 183.065L199.152 182.711L199.19 182.161L197.925 182.703L198.347 183.065Z" fill="#263238"/>
<path d="M176.248 129.659L175.435 130.006L175.405 130.563L176.67 130.013L176.248 129.659Z" fill="#263238"/>
<path d="M196.984 183.584L197.805 183.276L197.865 182.726L196.577 183.208L196.984 183.584Z" fill="#263238"/>
<path d="M177.611 129.132L176.783 129.441L176.722 129.99L178.017 129.509L177.611 129.132Z" fill="#263238"/>
<path d="M195.591 184.043L196.434 183.772L196.525 183.23L195.207 183.644L195.591 184.043Z" fill="#263238"/>
<path d="M178.996 128.681L178.16 128.944L178.07 129.494L179.388 129.08L178.996 128.681Z" fill="#263238"/>
<path d="M194.183 184.427L195.034 184.201L195.154 183.659L193.822 184.013L194.183 184.427Z" fill="#263238"/>
<path d="M180.412 128.297L179.561 128.522L179.44 129.065L180.773 128.711L180.412 128.297Z" fill="#263238"/>
<path d="M192.76 184.736L193.618 184.555L193.761 184.021L192.414 184.307L192.76 184.736Z" fill="#263238"/>
<path d="M181.835 127.988L180.976 128.161L180.833 128.696L182.181 128.417L181.835 127.988Z" fill="#263238"/>
<path d="M191.314 184.977L192.188 184.841L192.353 184.314L190.991 184.525L191.314 184.977Z" fill="#263238"/>
<path d="M183.28 127.747L182.407 127.883L182.241 128.41L183.604 128.199L183.28 127.747Z" fill="#263238"/>
<path d="M189.861 185.143L190.735 185.052L190.938 184.533L189.56 184.676L189.861 185.143Z" fill="#263238"/>
<path d="M184.734 127.581L183.853 127.672L183.657 128.191L185.027 128.048L184.734 127.581Z" fill="#263238"/>
<path d="M188.4 185.24L189.281 185.188L189.507 184.683L188.129 184.759L188.4 185.24Z" fill="#263238"/>
<path d="M186.187 127.484L185.313 127.536L185.088 128.041L186.465 127.965L186.187 127.484Z" fill="#263238"/>
<path d="M186.94 185.255H187.821L188.069 184.759H186.691L186.94 185.255Z" fill="#263238"/>
<path d="M187.648 127.469H186.767L186.526 127.965L187.903 127.958L187.648 127.469Z" fill="#263238"/>
<path d="M189.199 127.529L188.318 127.484L188.047 127.965L189.417 128.033L189.199 127.529Z" fill="#263238"/>
<path d="M185.396 185.195L186.277 185.24L186.548 184.759L185.17 184.691L185.396 185.195Z" fill="#263238"/>
<path d="M190.652 127.657L189.778 127.574L189.477 128.041L190.847 128.176L190.652 127.657Z" fill="#263238"/>
<path d="M183.943 185.06L184.816 185.15L185.118 184.683L183.74 184.548L183.943 185.06Z" fill="#263238"/>
<path d="M192.097 127.868L191.231 127.732L190.908 128.184L192.271 128.394L192.097 127.868Z" fill="#263238"/>
<path d="M182.497 184.856L183.363 184.992L183.687 184.54L182.324 184.329L182.497 184.856Z" fill="#263238"/>
<path d="M193.535 128.146L192.67 127.965L192.331 128.402L193.679 128.681L193.535 128.146Z" fill="#263238"/>
<path d="M181.059 184.578L181.925 184.751L182.264 184.322L180.916 184.043L181.059 184.578Z" fill="#263238"/>
<path d="M194.951 128.5L194.1 128.274L193.739 128.696L195.071 129.034L194.951 128.5Z" fill="#263238"/>
<path d="M179.644 184.224L180.495 184.442L180.856 184.028L179.523 183.682L179.644 184.224Z" fill="#263238"/>
<path d="M196.351 128.921L195.508 128.658L195.124 129.057L196.442 129.463L196.351 128.921Z" fill="#263238"/>
<path d="M178.243 183.802L179.079 184.066L179.471 183.667L178.153 183.26L178.243 183.802Z" fill="#263238"/>
<path d="M197.729 129.411L196.901 129.11L196.495 129.486L197.79 129.96L197.729 129.411Z" fill="#263238"/>
<path d="M176.865 183.313L177.694 183.614L178.093 183.238L176.805 182.764L176.865 183.313Z" fill="#263238"/>
<path d="M199.077 129.975L198.264 129.629L197.842 129.983L199.107 130.525L199.077 129.975Z" fill="#263238"/>
<path d="M175.518 182.749L176.323 183.095L176.752 182.741L175.48 182.199L175.518 182.749Z" fill="#263238"/>
<path d="M200.395 130.6L199.604 130.216L199.167 130.548L200.402 131.157L200.395 130.6Z" fill="#263238"/>
<path d="M174.2 182.116L174.991 182.508L175.427 182.169L174.192 181.567L174.2 182.116Z" fill="#263238"/>
<path d="M201.682 131.3L200.914 130.871L200.455 131.187L201.66 131.85L201.682 131.3Z" fill="#263238"/>
<path d="M172.912 181.424L173.68 181.853L174.14 181.536L172.935 180.874L172.912 181.424Z" fill="#263238"/>
<path d="M202.932 132.061L202.179 131.594L201.712 131.88L202.879 132.61L202.932 132.061Z" fill="#263238"/>
<path d="M171.663 180.663L172.408 181.13L172.882 180.844L171.715 180.114L171.663 180.663Z" fill="#263238"/>
<path d="M204.062 133.423L204.137 132.881L203.414 132.377L202.932 132.64L204.062 133.423Z" fill="#263238"/>
<path d="M170.533 179.293L170.45 179.843L171.181 180.347L171.663 180.083L170.533 179.293Z" fill="#263238"/>
<path d="M205.199 134.304L205.304 133.762L204.611 133.22L204.107 133.461L205.199 134.304Z" fill="#263238"/>
<path d="M169.396 178.42L169.291 178.962L169.984 179.504L170.488 179.263L169.396 178.42Z" fill="#263238"/>
<path d="M206.29 135.238L206.426 134.696L205.756 134.123L205.244 134.342L206.29 135.238Z" fill="#263238"/>
<path d="M168.304 177.486L168.169 178.021L168.839 178.593L169.351 178.382L168.304 177.486Z" fill="#263238"/>
<path d="M207.337 136.224L207.495 135.697L206.855 135.087L206.335 135.275L207.337 136.224Z" fill="#263238"/>
<path d="M167.258 176.5L167.1 177.027L167.74 177.637L168.259 177.449L167.258 176.5Z" fill="#263238"/>
<path d="M208.331 137.263L208.511 136.743L207.909 136.103L207.375 136.261L208.331 137.263Z" fill="#263238"/>
<path d="M166.264 175.461L166.076 175.981L166.686 176.621L167.213 176.455L166.264 175.461Z" fill="#263238"/>
<path d="M209.264 138.347L209.483 137.835L208.903 137.172L208.368 137.308L209.264 138.347Z" fill="#263238"/>
<path d="M165.323 174.37L165.112 174.881L165.692 175.552L166.226 175.416L165.323 174.37Z" fill="#263238"/>
<path d="M210.153 139.484L210.386 138.987L209.844 138.287L209.302 138.392L210.153 139.484Z" fill="#263238"/>
<path d="M164.442 173.24L164.209 173.737L164.743 174.437L165.285 174.324L164.442 173.24Z" fill="#263238"/>
<path d="M210.974 140.658L211.237 140.176L210.733 139.453L210.183 139.529L210.974 140.658Z" fill="#263238"/>
<path d="M163.621 172.066L163.358 172.548L163.862 173.27L164.412 173.195L163.621 172.066Z" fill="#263238"/>
<path d="M211.734 141.878L212.028 141.403L211.561 140.658L211.004 140.711L211.734 141.878Z" fill="#263238"/>
<path d="M162.853 170.846L162.567 171.321L163.034 172.066L163.584 172.013L162.853 170.846Z" fill="#263238"/>
<path d="M212.442 143.127L212.75 142.676L212.321 141.908L211.764 141.93L212.442 143.127Z" fill="#263238"/>
<path d="M162.153 169.589L161.844 170.048L162.273 170.816L162.823 170.794L162.153 169.589Z" fill="#263238"/>
<path d="M213.074 144.422L213.406 143.978L213.022 143.188L212.464 143.18L213.074 144.422Z" fill="#263238"/>
<path d="M161.521 168.302L161.182 168.746L161.573 169.536H162.13L161.521 168.302Z" fill="#263238"/>
<path d="M213.646 145.74L214 145.31L213.654 144.505L213.097 144.475L213.646 145.74Z" fill="#263238"/>
<path d="M160.948 166.984L160.594 167.413L160.941 168.219L161.49 168.249L160.948 166.984Z" fill="#263238"/>
<path d="M214.151 147.08L214.527 146.673L214.219 145.853L213.669 145.792L214.151 147.08Z" fill="#263238"/>
<path d="M160.444 165.637L160.067 166.043L160.376 166.871L160.926 166.932L160.444 165.637Z" fill="#263238"/>
<path d="M214.588 148.45L214.979 148.066L214.716 147.223L214.166 147.14L214.588 148.45Z" fill="#263238"/>
<path d="M160.007 164.274L159.616 164.658L159.879 165.494L160.421 165.584L160.007 164.274Z" fill="#263238"/>
<path d="M214.949 149.843L215.363 149.474L215.145 148.623L214.603 148.51L214.949 149.843Z" fill="#263238"/>
<path d="M159.646 162.881L159.232 163.25L159.45 164.101L159.992 164.214L159.646 162.881Z" fill="#263238"/>
<path d="M215.243 151.25L215.679 150.904L215.499 150.038L214.964 149.895L215.243 151.25Z" fill="#263238"/>
<path d="M159.352 161.474L158.915 161.82L159.096 162.678L159.631 162.821L159.352 161.474Z" fill="#263238"/>
<path d="M215.469 152.666L215.92 152.342L215.785 151.476L215.258 151.303L215.469 152.666Z" fill="#263238"/>
<path d="M159.126 160.058L158.674 160.382L158.81 161.248L159.337 161.421L159.126 160.058Z" fill="#263238"/>
<path d="M215.619 154.096L216.086 153.795L215.996 152.922L215.476 152.726L215.619 154.096Z" fill="#263238"/>
<path d="M158.976 158.628L158.509 158.929L158.599 159.802L159.119 159.998L158.976 158.628Z" fill="#263238"/>
<path d="M215.694 155.526L216.176 155.255L216.131 154.375L215.619 154.156L215.694 155.526Z" fill="#263238"/>
<path d="M158.9 157.19L158.418 157.469L158.464 158.349L158.968 158.568L158.9 157.19Z" fill="#263238"/>
<path d="M214.739 163.109C218.473 147.953 209.213 132.641 194.055 128.907C178.897 125.174 163.582 134.433 159.848 149.589C156.114 164.744 165.375 180.057 180.533 183.79C195.691 187.524 211.005 178.264 214.739 163.109Z" fill="#999999" stroke="#263238" stroke-miterlimit="10" stroke-linecap="round" stroke-linejoin="round"/>
<path d="M213.489 162.822C217.057 148.354 208.219 133.734 193.749 130.166C179.279 126.599 164.657 135.435 161.089 149.903C157.521 164.371 166.359 178.991 180.828 182.558C195.298 186.126 209.921 177.289 213.489 162.822Z" fill="#BFBFBF" stroke="#263238" stroke-miterlimit="10" stroke-linecap="round" stroke-linejoin="round"/>
<path opacity="0.3" d="M209.79 160.137C211.874 147.709 203.486 135.945 191.056 133.862C178.626 131.779 166.861 140.165 164.777 152.593C162.694 165.022 171.081 176.785 183.511 178.869C195.941 180.952 207.707 172.565 209.79 160.137Z" fill="black" fill-opacity="0.7"/>
<path d="M208.035 161.684C210.969 150.233 204.064 138.573 192.612 135.639C181.16 132.705 169.497 139.609 166.563 151.059C163.629 162.51 170.534 174.171 181.986 177.105C193.438 180.038 205.101 173.134 208.035 161.684Z" fill="#BFBFBF" stroke="#263238" stroke-miterlimit="10" stroke-linecap="round" stroke-linejoin="round"/>
<path d="M203.334 160.354C205.534 151.493 200.133 142.527 191.27 140.327C182.408 138.128 173.44 143.528 171.24 152.389C169.041 161.25 174.442 170.217 183.304 172.416C192.166 174.616 201.134 169.215 203.334 160.354Z" fill="#757575" stroke="#263238" stroke-miterlimit="10" stroke-linecap="round" stroke-linejoin="round"/>
<path d="M212.088 175.273L209.671 178.081L207.307 176.929L210.597 173.105L212.088 175.273Z" fill="#BFBFBF" stroke="#263238" stroke-miterlimit="10" stroke-linecap="round" stroke-linejoin="round"/>
<g opacity="0.3">
<path d="M177.551 138.482L177.754 138.821L178.055 141.004L178.785 140.575L178.989 140.922L177.867 141.584L177.664 141.245L177.362 139.062L176.67 139.476L176.466 139.13L177.551 138.482Z" fill="black"/>
<path d="M178.198 138.904C178.002 138.49 178.108 138.159 178.499 137.963C178.898 137.775 179.222 137.903 179.418 138.317L180.058 139.649C180.254 140.063 180.148 140.395 179.757 140.59C179.358 140.778 179.034 140.65 178.838 140.236L178.198 138.904ZM179.26 140.071C179.35 140.251 179.463 140.282 179.591 140.221C179.719 140.161 179.764 140.048 179.681 139.868L179.019 138.482C178.928 138.302 178.816 138.272 178.688 138.332C178.56 138.392 178.514 138.505 178.597 138.686L179.26 140.071Z" fill="black"/>
<path d="M179.787 138.166C179.629 137.737 179.764 137.413 180.171 137.263C180.585 137.112 180.894 137.27 181.059 137.692L181.579 139.077C181.737 139.506 181.601 139.83 181.195 139.988C180.781 140.139 180.472 139.98 180.306 139.559L179.787 138.166ZM180.728 139.423C180.796 139.612 180.909 139.657 181.044 139.604C181.18 139.551 181.232 139.454 181.165 139.258L180.63 137.82C180.562 137.632 180.449 137.587 180.314 137.639C180.178 137.692 180.126 137.79 180.193 137.985L180.728 139.423Z" fill="black"/>
<path d="M182.693 138.61H182.701L182.482 136.585L183.085 136.427L183.8 139.175L183.393 139.28L182.881 137.308H182.874L183.092 139.356L182.686 139.461L181.865 137.594H181.857L182.362 139.536L181.985 139.634L181.27 136.886L181.872 136.728L182.693 138.61Z" fill="black"/>
<path d="M184.304 136.216L184.749 136.164L185.042 138.588L185.773 138.497L185.825 138.904L184.651 139.047L184.304 136.216Z" fill="black"/>
<path d="M186.33 137.233L186.94 137.21L186.955 137.617L186.345 137.639L186.375 138.467L187.143 138.437L187.158 138.844L185.938 138.896L185.825 136.058L187.038 136.006L187.053 136.412L186.285 136.442L186.33 137.233Z" fill="black"/>
<path d="M187.888 136.804L187.783 138.859L187.384 138.844L187.512 136.013L188.069 136.036L188.438 137.752H188.446L188.521 136.058L188.92 136.073L188.792 138.911L188.333 138.889L187.888 136.804Z" fill="black"/>
<path d="M190.049 136.171C190.479 136.231 190.667 136.517 190.607 136.969L190.592 137.06L190.17 136.999L190.185 136.886C190.215 136.683 190.14 136.6 190.004 136.578C189.861 136.563 189.771 136.623 189.748 136.826C189.718 137.029 189.786 137.195 190.042 137.489C190.366 137.865 190.456 138.113 190.411 138.437C190.351 138.889 190.087 139.115 189.658 139.055C189.221 138.994 189.033 138.708 189.093 138.257L189.116 138.083L189.537 138.144L189.507 138.347C189.477 138.55 189.56 138.633 189.696 138.648C189.839 138.663 189.936 138.603 189.959 138.407C189.989 138.204 189.921 138.038 189.665 137.745C189.342 137.368 189.251 137.12 189.296 136.796C189.364 136.337 189.62 136.111 190.049 136.171Z" fill="black"/>
<path d="M192.293 139.612C191.864 139.484 191.698 139.167 191.826 138.731L191.887 138.52C191.962 138.257 192.105 138.083 192.323 138.038V138.031C192.173 137.88 192.143 137.677 192.218 137.406L192.24 137.323C192.368 136.886 192.685 136.706 193.114 136.834C193.543 136.962 193.709 137.285 193.581 137.714L193.558 137.797C193.475 138.068 193.34 138.219 193.129 138.264V138.272C193.287 138.43 193.302 138.656 193.227 138.911L193.167 139.13C193.031 139.566 192.722 139.747 192.293 139.612ZM192.406 139.228C192.542 139.265 192.662 139.235 192.737 138.994L192.813 138.738C192.873 138.528 192.813 138.407 192.662 138.362C192.512 138.317 192.391 138.385 192.331 138.595L192.255 138.851C192.188 139.092 192.271 139.183 192.406 139.228ZM192.624 137.609C192.557 137.827 192.64 137.925 192.783 137.97C192.918 138.008 193.046 137.97 193.106 137.752L193.151 137.602C193.227 137.353 193.136 137.255 193.001 137.218C192.865 137.18 192.737 137.21 192.67 137.459L192.624 137.609Z" fill="black"/>
<path d="M193.724 139.612L193.573 140.018L193.167 139.868L193.317 139.461L193.724 139.612Z" fill="black"/>
<path d="M194.409 140.395C193.995 140.214 193.874 139.875 194.063 139.461L194.153 139.258C194.266 139.009 194.424 138.851 194.642 138.829V138.821C194.514 138.656 194.507 138.445 194.62 138.189L194.657 138.106C194.846 137.692 195.177 137.556 195.584 137.737C195.998 137.918 196.118 138.257 195.93 138.671L195.892 138.753C195.779 139.009 195.621 139.145 195.41 139.16V139.167C195.546 139.348 195.538 139.566 195.425 139.815L195.335 140.018C195.154 140.44 194.823 140.583 194.409 140.395ZM194.575 140.026C194.703 140.086 194.831 140.063 194.936 139.837L195.041 139.597C195.132 139.393 195.087 139.265 194.944 139.198C194.8 139.13 194.672 139.183 194.582 139.386L194.477 139.627C194.371 139.86 194.447 139.965 194.575 140.026ZM194.996 138.452C194.906 138.663 194.974 138.768 195.102 138.829C195.23 138.889 195.365 138.866 195.455 138.656L195.523 138.512C195.629 138.279 195.553 138.174 195.425 138.114C195.297 138.053 195.169 138.076 195.064 138.309L194.996 138.452Z" fill="black"/>
<path d="M196.562 139.612L197.263 140.018L197.059 140.372L196.359 139.965L196.562 139.612Z" fill="black"/>
<path d="M199.13 140.666C199.28 140.462 199.25 140.349 199.137 140.267C199.024 140.184 198.904 140.191 198.783 140.357L198.678 140.507L198.339 140.259L198.43 140.139C198.701 139.77 199.039 139.702 199.386 139.958C199.74 140.221 199.77 140.56 199.499 140.929L199.454 140.989C199.273 141.238 199.085 141.328 198.859 141.275L198.851 141.283C198.972 141.494 198.919 141.712 198.753 141.945L198.618 142.126C198.347 142.495 198.008 142.563 197.662 142.307C197.308 142.051 197.278 141.704 197.549 141.336L197.692 141.147L198.031 141.396L197.872 141.607C197.752 141.772 197.775 141.885 197.895 141.968C198.008 142.051 198.121 142.051 198.271 141.847L198.407 141.667C198.565 141.456 198.55 141.321 198.384 141.2L198.264 141.11L198.505 140.786L198.648 140.891C198.783 140.989 198.904 140.989 199.039 140.809L199.13 140.666Z" fill="black"/>
<path d="M199.792 141.185C200.109 140.824 200.447 140.778 200.794 141.087C201.125 141.381 201.118 141.727 200.816 142.066L200.771 142.119L200.455 141.84L200.523 141.765C200.658 141.614 200.643 141.494 200.538 141.403C200.417 141.298 200.304 141.298 200.124 141.501L199.785 141.885L199.792 141.893C199.958 141.825 200.109 141.847 200.259 141.975C200.508 142.194 200.478 142.48 200.199 142.789L199.853 143.18C199.551 143.519 199.198 143.556 198.874 143.263C198.543 142.969 198.535 142.623 198.836 142.277L199.792 141.185ZM199.484 142.209L199.145 142.593C199.009 142.743 199.032 142.856 199.137 142.954C199.243 143.052 199.356 143.052 199.491 142.901L199.83 142.518C199.966 142.367 199.951 142.246 199.845 142.156C199.74 142.058 199.619 142.058 199.484 142.209Z" fill="black"/>
<path d="M200.169 143.865L199.86 144.166L199.559 143.858L199.868 143.556L200.169 143.865Z" fill="black"/>
<path d="M200.455 144.859C200.161 144.52 200.191 144.166 200.538 143.865L200.703 143.722C200.907 143.541 201.118 143.466 201.328 143.541L201.336 143.534C201.291 143.323 201.374 143.135 201.584 142.954L201.652 142.894C201.991 142.593 202.352 142.608 202.646 142.954C202.94 143.293 202.91 143.647 202.571 143.948L202.503 144.008C202.292 144.196 202.089 144.241 201.893 144.174L201.886 144.181C201.931 144.4 201.825 144.595 201.622 144.776L201.456 144.919C201.11 145.213 200.756 145.198 200.455 144.859ZM200.764 144.595C200.854 144.701 200.975 144.738 201.17 144.573L201.366 144.4C201.532 144.257 201.547 144.121 201.441 144.001C201.336 143.88 201.2 143.873 201.035 144.023L200.839 144.196C200.651 144.362 200.673 144.49 200.764 144.595ZM201.81 143.346C201.637 143.496 201.652 143.624 201.75 143.73C201.84 143.835 201.968 143.873 202.142 143.722L202.262 143.617C202.458 143.451 202.435 143.323 202.345 143.21C202.247 143.105 202.127 143.067 201.938 143.233L201.81 143.346Z" fill="black"/>
<path d="M202.277 145.792L204.092 144.851L204.461 145.356L202.164 147.027L201.916 146.688L203.565 145.491L203.557 145.484L201.735 146.44L201.487 146.101L202.917 144.656L202.91 144.648L201.283 145.83L201.057 145.514L203.354 143.842L203.723 144.347L202.277 145.792Z" fill="black"/>
<path d="M203.452 147.697L205.372 147.012L205.665 147.561L203.158 148.909L202.955 148.54L204.747 147.576V147.569L202.812 148.269L202.608 147.9L204.227 146.658V146.651L202.458 147.599L202.277 147.253L204.784 145.905L205.078 146.455L203.452 147.697Z" fill="black"/>
<path d="M205.921 149.06C206.042 149.383 206.223 149.398 206.426 149.398L206.531 149.684L203.866 150.671L203.708 150.249L205.741 149.496L205.62 149.172L205.921 149.06Z" fill="black"/>
<path d="M204.551 151.423L204.137 151.544L204.016 151.13L204.431 151.009L204.551 151.423ZM206.027 150.979L205.613 151.1L205.492 150.686L205.906 150.565L206.027 150.979Z" fill="black"/>
<path d="M206.712 151.544C206.787 151.883 206.968 151.92 207.171 151.943L207.239 152.236L204.468 152.869L204.37 152.432L206.486 151.95L206.411 151.612L206.712 151.544Z" fill="black"/>
<path d="M205.04 153.689L204.619 153.757L204.551 153.336L204.973 153.268L205.04 153.689Z" fill="black"/>
<path d="M204.694 154.683C204.649 154.231 204.89 153.96 205.342 153.923L205.56 153.9C205.831 153.878 206.042 153.938 206.17 154.119H206.177C206.26 153.923 206.441 153.817 206.719 153.787L206.81 153.78C207.262 153.735 207.548 153.96 207.585 154.405C207.631 154.849 207.39 155.127 206.938 155.165L206.847 155.173C206.569 155.203 206.373 155.127 206.253 154.954H206.245C206.155 155.157 205.959 155.263 205.688 155.285L205.462 155.308C205.018 155.353 204.739 155.127 204.694 154.683ZM205.101 154.646C205.116 154.789 205.191 154.886 205.447 154.864L205.711 154.841C205.929 154.819 206.019 154.721 206.004 154.563C205.989 154.405 205.884 154.322 205.658 154.344L205.394 154.367C205.146 154.39 205.086 154.502 205.101 154.646ZM206.682 154.239C206.456 154.262 206.396 154.375 206.403 154.518C206.418 154.661 206.501 154.758 206.727 154.736L206.885 154.721C207.141 154.698 207.201 154.578 207.186 154.442C207.171 154.299 207.096 154.201 206.84 154.224L206.682 154.239Z" fill="black"/>
<path d="M206.433 156.189L206.418 157.002L206.012 156.994L206.027 156.181L206.433 156.189Z" fill="black"/>
<path d="M207.134 158.771C207.149 158.628 207.081 158.53 206.885 158.508L206.584 158.47L206.637 158.048L206.908 158.078C207.359 158.131 207.593 158.387 207.54 158.824C207.487 159.26 207.201 159.456 206.75 159.403C206.373 159.358 206.087 159.185 205.695 158.718C205.447 158.425 205.319 158.334 205.168 158.319C205.146 158.319 205.131 158.312 205.108 158.319L205.01 159.155L204.604 159.11L204.754 157.83L205.101 157.875C205.417 157.913 205.643 158.056 205.944 158.425C206.26 158.809 206.471 158.929 206.772 158.967C207.036 158.989 207.111 158.906 207.134 158.771Z" fill="black"/>
<path d="M204.89 159.87L204.468 159.787L204.543 159.366L204.965 159.449L204.89 159.87Z" fill="black"/>
<path d="M204.227 160.698C204.34 160.262 204.649 160.088 205.093 160.201L205.311 160.254C205.575 160.322 205.756 160.45 205.816 160.668H205.823C205.967 160.51 206.17 160.472 206.441 160.54L206.524 160.563C206.968 160.676 207.156 160.977 207.043 161.413C206.93 161.85 206.622 162.023 206.177 161.91L206.087 161.888C205.816 161.82 205.658 161.684 205.605 161.481H205.598C205.439 161.639 205.221 161.669 204.958 161.602L204.739 161.549C204.303 161.436 204.114 161.135 204.227 160.698ZM204.619 160.796C204.581 160.932 204.626 161.052 204.867 161.12L205.123 161.188C205.342 161.24 205.455 161.173 205.5 161.022C205.537 160.871 205.47 160.751 205.251 160.698L204.995 160.63C204.747 160.57 204.656 160.661 204.619 160.796ZM206.245 160.954C206.027 160.902 205.929 160.984 205.891 161.127C205.854 161.263 205.899 161.391 206.117 161.444L206.268 161.481C206.516 161.541 206.607 161.451 206.644 161.316C206.682 161.18 206.637 161.052 206.396 160.992L206.245 160.954Z" fill="black"/>
<path d="M191.277 175.1L190.674 175.22L190.592 174.821L191.194 174.701L191.028 173.888L190.275 174.046L190.192 173.647L191.382 173.406L191.954 176.191L190.765 176.432L190.682 176.033L191.435 175.875L191.277 175.1Z" fill="black"/>
<path d="M189.824 175.762L189.598 173.722L189.997 173.677L190.32 176.5L189.763 176.56L189.123 174.927H189.116L189.312 176.613L188.92 176.658L188.596 173.835L189.056 173.782L189.824 175.762Z" fill="black"/>
<path d="M187.806 176.733C187.369 176.741 187.143 176.493 187.128 176.033V175.943L187.55 175.935V176.056C187.557 176.259 187.64 176.334 187.783 176.327C187.926 176.327 188.001 176.244 188.001 176.041C187.994 175.83 187.904 175.68 187.602 175.431C187.218 175.115 187.098 174.882 187.09 174.558C187.075 174.106 187.301 173.835 187.738 173.828C188.175 173.82 188.408 174.068 188.423 174.528L188.431 174.701L188.009 174.708L188.001 174.505C187.994 174.302 187.904 174.234 187.76 174.234C187.617 174.234 187.535 174.309 187.535 174.513C187.542 174.716 187.632 174.874 187.934 175.122C188.318 175.439 188.438 175.672 188.446 175.996C188.453 176.462 188.242 176.726 187.806 176.733Z" fill="black"/>
<path d="M185.042 173.685C185.487 173.745 185.697 174.031 185.637 174.483L185.607 174.701C185.569 174.972 185.464 175.168 185.253 175.25V175.258C185.426 175.386 185.487 175.582 185.449 175.86L185.434 175.951C185.374 176.402 185.095 176.628 184.651 176.568C184.207 176.508 183.996 176.222 184.056 175.77L184.064 175.68C184.101 175.401 184.214 175.228 184.41 175.153V175.145C184.229 175.009 184.176 174.799 184.214 174.528L184.244 174.309C184.32 173.858 184.598 173.632 185.042 173.685ZM185.027 175.717C185.057 175.491 184.96 175.408 184.816 175.386C184.673 175.363 184.56 175.424 184.53 175.649L184.508 175.807C184.478 176.063 184.576 176.146 184.719 176.161C184.862 176.176 184.975 176.124 185.012 175.875L185.027 175.717ZM184.99 174.091C184.847 174.076 184.734 174.129 184.696 174.377L184.658 174.641C184.628 174.859 184.711 174.972 184.869 174.994C185.027 175.017 185.133 174.934 185.163 174.708L185.2 174.445C185.231 174.189 185.133 174.106 184.99 174.091Z" fill="black"/>
<path d="M183.627 173.918L183.71 173.496L184.131 173.579L184.048 174.001L183.627 173.918Z" fill="black"/>
<path d="M182.829 173.255C183.265 173.368 183.439 173.684 183.326 174.121L183.265 174.339C183.198 174.603 183.062 174.784 182.851 174.836V174.844C183.009 174.987 183.047 175.19 182.972 175.461L182.949 175.544C182.836 175.981 182.528 176.169 182.091 176.056C181.654 175.943 181.481 175.627 181.594 175.19L181.616 175.107C181.684 174.836 181.827 174.678 182.031 174.626V174.618C181.872 174.46 181.842 174.242 181.91 173.978L181.97 173.76C182.091 173.331 182.392 173.142 182.829 173.255ZM182.558 175.273C182.618 175.055 182.535 174.957 182.392 174.919C182.256 174.881 182.128 174.927 182.076 175.145L182.038 175.296C181.97 175.544 182.061 175.642 182.196 175.672C182.332 175.71 182.46 175.672 182.52 175.424L182.558 175.273ZM182.723 173.647C182.588 173.609 182.467 173.654 182.4 173.895L182.332 174.151C182.272 174.37 182.339 174.482 182.497 174.528C182.648 174.565 182.768 174.498 182.821 174.279L182.889 174.023C182.949 173.782 182.866 173.684 182.723 173.647Z" fill="black"/>
<path d="M180.796 174.355L180.035 174.061L180.178 173.685L180.939 173.978L180.796 174.355Z" fill="black"/>
<path d="M178.085 173.722C177.965 173.948 178.017 174.053 178.145 174.114C178.273 174.181 178.386 174.151 178.477 173.971L178.56 173.812L178.936 174.008L178.868 174.144C178.657 174.55 178.341 174.678 177.95 174.475C177.558 174.272 177.475 173.94 177.686 173.534L177.716 173.466C177.859 173.195 178.025 173.075 178.258 173.09L178.266 173.082C178.115 172.894 178.13 172.668 178.258 172.412L178.364 172.216C178.575 171.81 178.891 171.682 179.282 171.885C179.674 172.088 179.757 172.42 179.546 172.826L179.44 173.037L179.064 172.841L179.184 172.608C179.275 172.427 179.23 172.314 179.109 172.254C178.981 172.186 178.868 172.209 178.755 172.435L178.65 172.631C178.529 172.864 178.567 172.992 178.748 173.09L178.883 173.157L178.695 173.519L178.537 173.444C178.386 173.368 178.266 173.383 178.16 173.587L178.085 173.722Z" fill="black"/>
<path d="M177.377 173.331C177.121 173.737 176.798 173.835 176.406 173.594C176.037 173.361 175.984 173.014 176.225 172.631L176.263 172.57L176.617 172.796L176.564 172.879C176.459 173.052 176.489 173.165 176.609 173.24C176.745 173.323 176.858 173.308 177.008 173.075L177.287 172.638L177.28 172.631C177.129 172.728 176.971 172.728 176.805 172.623C176.527 172.45 176.512 172.164 176.73 171.81L177.008 171.373C177.249 170.989 177.596 170.899 177.965 171.132C178.334 171.366 178.401 171.712 178.16 172.096L177.377 173.331ZM177.513 172.269L177.784 171.84C177.889 171.667 177.852 171.561 177.739 171.486C177.618 171.411 177.505 171.426 177.392 171.599L177.121 172.028C177.016 172.201 177.046 172.314 177.167 172.39C177.287 172.457 177.408 172.442 177.513 172.269Z" fill="black"/>
<path d="M176.572 170.741L176.828 170.395L177.174 170.651L176.918 170.997L176.572 170.741Z" fill="black"/>
<path d="M176.12 169.8C176.466 170.086 176.489 170.447 176.195 170.794L176.052 170.967C175.879 171.178 175.683 171.283 175.465 171.245L175.457 171.253C175.533 171.449 175.488 171.652 175.307 171.87L175.247 171.938C174.953 172.284 174.599 172.329 174.253 172.043C173.906 171.757 173.884 171.396 174.177 171.05L174.238 170.982C174.418 170.764 174.607 170.681 174.81 170.726L174.817 170.718C174.735 170.508 174.81 170.297 174.983 170.086L175.126 169.913C175.42 169.551 175.774 169.514 176.12 169.8ZM175.028 171.509C175.171 171.336 175.141 171.208 175.028 171.117C174.915 171.027 174.787 171.012 174.644 171.185L174.546 171.306C174.381 171.501 174.426 171.622 174.531 171.712C174.637 171.802 174.765 171.817 174.93 171.622L175.028 171.509ZM175.864 170.116C175.759 170.026 175.631 170.011 175.465 170.199L175.299 170.402C175.156 170.575 175.164 170.711 175.284 170.809C175.405 170.907 175.54 170.899 175.683 170.726L175.849 170.523C176.015 170.327 175.969 170.206 175.864 170.116Z" fill="black"/>
<path d="M174.17 169.16L172.506 170.349L172.069 169.905L174.11 167.925L174.403 168.226L172.943 169.649L172.95 169.657L174.622 168.452L174.915 168.753L173.703 170.387L173.711 170.395L175.149 168.994L175.42 169.273L173.379 171.253L172.943 170.809L174.17 169.16Z" fill="black"/>
<path d="M172.732 167.489L170.94 168.467L170.563 167.971L172.822 166.247L173.078 166.585L171.459 167.82L171.467 167.828L173.266 166.826L173.522 167.165L172.122 168.641L172.129 168.648L173.726 167.429L173.959 167.737L171.7 169.461L171.324 168.964L172.732 167.489Z" fill="black"/>
<path d="M170.074 166.525C169.901 166.224 169.72 166.239 169.524 166.277L169.374 166.013L171.843 164.613L172.062 165.004L170.172 166.073L170.345 166.375L170.074 166.525Z" fill="black"/>
<path d="M169.652 164.651L170.044 164.462L170.232 164.846L169.841 165.035L169.652 164.651ZM171.045 163.973L171.437 163.785L171.625 164.169L171.233 164.357L171.045 163.973Z" fill="black"/>
<path d="M168.899 164.206C168.771 163.89 168.583 163.875 168.38 163.89L168.267 163.612L170.895 162.543L171.06 162.957L169.057 163.77L169.185 164.086L168.899 164.206Z" fill="black"/>
<path d="M170.194 161.797L170.601 161.662L170.736 162.068L170.33 162.204L170.194 161.797Z" fill="black"/>
<path d="M170.383 160.781C170.496 161.218 170.307 161.526 169.863 161.639L169.645 161.692C169.381 161.76 169.163 161.737 169.005 161.572H168.997C168.945 161.775 168.786 161.91 168.515 161.978L168.425 162.001C167.988 162.114 167.672 161.94 167.559 161.504C167.446 161.067 167.634 160.766 168.079 160.646L168.161 160.623C168.433 160.555 168.636 160.593 168.779 160.751H168.786C168.847 160.533 169.027 160.405 169.283 160.337L169.502 160.284C169.953 160.164 170.27 160.344 170.383 160.781ZM168.493 161.526C168.711 161.466 168.756 161.346 168.719 161.21C168.681 161.075 168.583 160.984 168.365 161.045L168.214 161.082C167.966 161.142 167.928 161.27 167.966 161.406C168.003 161.541 168.094 161.632 168.342 161.572L168.493 161.526ZM169.991 160.879C169.953 160.743 169.863 160.661 169.615 160.713L169.359 160.781C169.14 160.841 169.073 160.954 169.11 161.105C169.148 161.255 169.268 161.323 169.487 161.27L169.743 161.203C169.984 161.142 170.029 161.014 169.991 160.879Z" fill="black"/>
<path d="M168.425 159.577L168.305 158.771L168.704 158.711L168.824 159.516L168.425 159.577Z" fill="black"/>
<path d="M167.326 157.122C167.333 157.265 167.409 157.348 167.612 157.341L167.913 157.326L167.928 157.747L167.649 157.755C167.198 157.77 166.927 157.551 166.912 157.115C166.897 156.678 167.145 156.437 167.597 156.422C167.973 156.407 168.282 156.535 168.741 156.934C169.035 157.19 169.17 157.258 169.321 157.25C169.344 157.25 169.359 157.25 169.381 157.243L169.351 156.4L169.758 156.385L169.81 157.672L169.464 157.687C169.148 157.702 168.907 157.597 168.538 157.273C168.161 156.949 167.936 156.859 167.634 156.866C167.386 156.889 167.326 156.979 167.326 157.122Z" fill="black"/>
<path d="M169.366 155.684L169.795 155.692L169.788 156.121L169.359 156.114L169.366 155.684Z" fill="black"/>
<path d="M169.893 154.781C169.848 155.233 169.569 155.451 169.118 155.413L168.892 155.391C168.621 155.368 168.425 155.263 168.335 155.06H168.327C168.207 155.233 168.018 155.308 167.732 155.285L167.642 155.278C167.19 155.233 166.957 154.962 166.994 154.518C167.04 154.073 167.318 153.848 167.77 153.893L167.86 153.9C168.139 153.923 168.32 154.036 168.402 154.231H168.41C168.538 154.051 168.749 153.983 169.02 154.013L169.246 154.036C169.697 154.066 169.931 154.337 169.893 154.781ZM167.86 154.849C168.086 154.871 168.169 154.774 168.184 154.623C168.199 154.48 168.131 154.367 167.905 154.344L167.747 154.329C167.491 154.307 167.416 154.405 167.401 154.548C167.386 154.691 167.446 154.804 167.702 154.826L167.86 154.849ZM169.487 154.743C169.502 154.6 169.441 154.487 169.193 154.465L168.929 154.442C168.704 154.42 168.598 154.502 168.583 154.661C168.568 154.819 168.658 154.917 168.877 154.939L169.14 154.962C169.396 154.992 169.472 154.886 169.487 154.743Z" fill="black"/>
</g>
<path d="M201.298 150.723V162.001C201.298 164.967 198.896 167.368 195.93 167.376H178.657C175.698 167.368 173.296 164.967 173.296 162.001V150.723C173.296 147.757 175.691 145.363 178.65 145.348H195.945C198.904 145.363 201.298 147.757 201.298 150.723Z" fill="#757575" stroke="#263238" stroke-miterlimit="10" stroke-linecap="round" stroke-linejoin="round"/>
<path opacity="0.3" d="M201.298 150.723V162.001C201.298 164.967 198.896 167.368 195.93 167.376H178.657C175.698 167.368 173.296 164.967 173.296 162.001V150.723C173.296 147.757 175.691 145.363 178.65 145.348H195.945C198.904 145.363 201.298 147.757 201.298 150.723Z" fill="black" fill-opacity="0.7"/>
<path opacity="0.3" d="M193.227 145.348H189.891C194.883 146.515 198.61 151.002 198.61 156.354C198.61 161.715 194.883 166.209 189.891 167.376H193.212C197.135 165.268 199.8 161.127 199.8 156.362C199.8 151.597 197.142 147.464 193.227 145.348ZM184.696 145.348H181.368C177.445 147.464 174.787 151.597 174.787 156.362C174.787 161.127 177.453 165.268 181.383 167.376H184.696C179.712 166.209 175.984 161.715 175.984 156.354C175.984 151.002 179.712 146.515 184.696 145.348Z" fill="black" fill-opacity="0.7"/>
<path opacity="0.3" d="M187.294 146.44C181.812 146.44 177.37 150.881 177.37 156.362C177.37 161.843 181.812 166.284 187.294 166.284C192.775 166.284 197.217 161.843 197.217 156.362C197.217 150.881 192.775 146.44 187.294 146.44ZM187.294 164.395C182.851 164.395 179.252 160.796 179.252 156.354C179.252 151.913 182.851 148.314 187.294 148.314C191.736 148.314 195.327 151.913 195.327 156.354C195.335 160.796 191.736 164.395 187.294 164.395Z" fill="black" fill-opacity="0.7"/>
<path d="M187.294 161.933C190.371 161.933 192.865 159.439 192.865 156.362C192.865 153.285 190.371 150.791 187.294 150.791C184.216 150.791 181.722 153.285 181.722 156.362C181.722 159.439 184.216 161.933 187.294 161.933Z" fill="#263238"/>
<path d="M187.294 164.786C191.947 164.786 195.719 161.014 195.719 156.362C195.719 151.709 191.947 147.938 187.294 147.938C182.64 147.938 178.868 151.709 178.868 156.362C178.868 161.014 182.64 164.786 187.294 164.786Z" stroke="#263238" stroke-miterlimit="10" stroke-linecap="round" stroke-linejoin="round"/>
<path d="M198.61 156.354C198.61 161.715 194.883 166.201 189.899 167.368H184.704C179.712 166.201 175.992 161.715 175.992 156.354C175.992 151.002 179.719 146.515 184.704 145.348H189.899C194.883 146.515 198.61 151.002 198.61 156.354Z" stroke="#263238" stroke-miterlimit="10" stroke-linecap="round" stroke-linejoin="round"/>
<path d="M201.298 156.354C201.298 160.826 199.198 164.816 195.93 167.368H178.657C175.39 164.816 173.289 160.826 173.289 156.354C173.289 151.89 175.382 147.908 178.642 145.348H195.937C199.205 147.915 201.298 151.89 201.298 156.354Z" stroke="#263238" stroke-miterlimit="10" stroke-linecap="round" stroke-linejoin="round"/>
<path d="M226.04 131.594H215.612C215.062 131.594 214.618 131.15 214.618 130.6V127.95C214.618 127.401 215.062 126.957 215.612 126.957H226.04C226.59 126.957 227.034 127.401 227.034 127.95V130.6C227.034 131.15 226.59 131.594 226.04 131.594Z" fill="#BFBFBF" stroke="#263238" stroke-miterlimit="10" stroke-linecap="round" stroke-linejoin="round"/>
<path d="M221.236 129.629H215.935C215.619 129.629 215.363 129.373 215.363 129.057V128.447C215.363 128.131 215.619 127.875 215.935 127.875H221.236C221.552 127.875 221.808 128.131 221.808 128.447V129.057C221.808 129.373 221.552 129.629 221.236 129.629Z" fill="white"/>
<path d="M223.766 129.629H222.983C222.667 129.629 222.411 129.373 222.411 129.057V128.447C222.411 128.131 222.667 127.875 222.983 127.875H223.766C224.082 127.875 224.338 128.131 224.338 128.447V129.057C224.346 129.373 224.082 129.629 223.766 129.629Z" fill="white"/>
<path d="M163.328 133.122H158.456C157.884 133.122 157.417 132.655 157.417 132.083V129.75C157.417 129.177 157.884 128.711 158.456 128.711H163.328C163.9 128.711 164.367 129.177 164.367 129.75V132.083C164.374 132.655 163.907 133.122 163.328 133.122Z" fill="#263238"/>
<path opacity="0.2" d="M163.215 132.693H159.691C159.322 132.693 159.028 132.399 159.028 132.031V130.359C159.028 129.99 159.322 129.697 159.691 129.697H163.215C163.584 129.697 163.877 129.99 163.877 130.359V132.031C163.877 132.399 163.584 132.693 163.215 132.693Z" fill="white"/>
<path d="M348.197 211.89C345.215 208.616 338.665 205.958 336.428 200.749C335.239 197.978 333.424 196.269 332.031 195.291C330.789 194.417 329.78 193.258 329.117 191.888C327.092 187.74 323.335 184.013 318.41 177.072C312.605 168.881 310.068 161.88 307.982 159.351C305.897 156.821 300.385 152.357 300.385 152.357C298.149 146.854 295.378 144.904 295.378 144.904C295.378 144.904 291.899 138.354 289.068 135.968C286.237 133.589 282.518 133.438 278.64 133.589C274.77 133.74 266.375 131.805 266.375 131.805C266.375 131.805 253.763 128.974 249.449 128.974C245.127 128.974 240.361 128.974 240.361 128.974C240.361 128.974 237.831 129.569 236.634 131.353C235.444 133.137 227.546 145.943 225.611 151.453C223.676 156.964 223.231 160.088 223.969 163.07C224.715 166.051 226.499 172.6 226.499 172.6C226.499 172.6 230.67 184.962 230.821 186.595C230.972 188.229 240.203 189.72 240.504 181.981C240.504 181.981 241.693 186.746 243.485 189.727C245.27 192.708 250.488 191.368 251.376 190.028C251.376 190.028 254.953 199.115 255.246 201.343C255.548 203.579 258.973 203.722 260.908 201.787C262.844 199.853 264.485 193.002 263.288 189.577C263.288 189.577 271.043 180.942 272.526 175.725C272.526 175.725 281.388 173.895 282.465 174.738C282.465 174.738 282.796 177.298 284.882 178.894C284.882 178.894 290.243 191.654 290.092 209.376C290.092 209.376 294.55 228.287 315.256 228.882C335.954 229.476 341.616 242.282 341.616 242.282L357.202 219.005C357.224 219.012 351.178 215.165 348.197 211.89ZM262.557 161.579C260.916 163.664 257.942 167.534 255.856 171.554C254.975 173.255 253.831 175.378 252.799 177.396C252.799 177.396 252.137 172.894 251.391 171.923C251.391 171.923 256.903 156.957 257.347 156.061C257.347 156.061 262.859 156.061 265.388 156.061C267.918 156.061 271.796 155.466 273.136 156.806C271.051 157.408 264.199 159.494 262.557 161.579Z" fill="white"/>
<path opacity="0.08" d="M291.847 191.956C290.875 193.838 290.01 195.403 289.317 196.811C287.856 185.933 284.897 178.894 284.897 178.894C282.819 177.298 282.488 174.738 282.488 174.738C281.411 173.903 272.549 175.725 272.549 175.725C271.058 180.942 263.303 189.577 263.303 189.577C264.5 193.002 262.859 199.853 260.924 201.787C258.988 203.722 255.563 203.572 255.261 201.343C254.968 199.107 251.391 190.021 251.391 190.021C250.495 191.361 245.285 192.701 243.501 189.727C241.709 186.746 240.519 181.981 240.519 181.981C240.218 189.727 230.987 188.237 230.836 186.595C230.685 184.962 226.522 172.6 226.522 172.6C226.522 172.6 224.73 166.051 223.984 163.07C223.932 162.874 223.894 162.678 223.849 162.475C225.822 163.303 228.397 164.071 230.399 163.551C234.172 162.573 240.918 141.14 242.71 137.76C244.494 134.379 249.946 132.618 251.391 132.904C252.837 133.19 266.345 135.712 266.345 135.712C266.345 135.712 253.484 134.417 251.971 135.29C250.458 136.164 247.363 138.166 246.723 138.851C246.083 139.544 235.662 165.501 235.662 165.501C235.662 165.501 234.661 170.635 239.578 172.066C244.494 173.496 248.071 171.93 248.071 171.93C248.071 171.93 254.644 156.257 254.222 154.924C253.801 153.592 257.543 149.978 257.543 149.978C257.543 149.978 265.351 152.771 268.92 152.809C272.496 152.846 279.416 151.047 280.026 154.924C280.026 154.924 270.93 157.371 266.586 159.087C269.07 158.018 271.916 157.16 273.136 156.814C271.796 155.474 267.918 156.068 265.388 156.068C262.859 156.068 257.347 156.068 257.347 156.068C256.903 156.964 251.391 171.93 251.391 171.93C252.137 172.902 252.799 177.403 252.799 177.403C253.831 175.378 254.975 173.255 255.856 171.561C257.942 167.534 260.924 163.664 262.557 161.579C262.964 161.067 263.694 160.54 264.583 160.058C262.557 161.579 251.775 179.278 251.15 180.829C250.525 182.38 253.515 188.184 257.543 187.988C261.579 187.792 271.645 172.668 271.645 172.668C271.645 172.668 282.345 172.563 285.266 170.741C288.187 168.927 289.377 170.741 289.377 170.741C289.377 170.741 287.163 172.969 288.187 173.993C289.129 174.934 293.594 173.007 294.264 172.706C293.481 173.135 287.404 176.41 287.585 177.403C287.788 178.457 293.014 182.003 295.732 181.679C295.732 181.679 290.966 184.232 289.573 184.021C288.187 183.817 294.52 186.799 291.847 191.956Z" fill="#907CCE"/>
<path opacity="0.08" d="M295.378 144.904C294.527 143.376 290.747 139.16 284.897 138.851C280.086 138.603 283.685 135.08 288.812 135.765H288.82L288.827 135.772C288.918 135.84 288.986 135.9 289.068 135.968C291.899 138.354 295.378 144.904 295.378 144.904Z" fill="#907CCE"/>
<path opacity="0.08" d="M300.393 152.357C297.72 151.453 294.738 151.235 293.345 151.25C292.442 151.258 295.393 148.947 298.058 147.923C298.811 149.029 299.632 150.49 300.393 152.357Z" fill="#907CCE"/>
<path opacity="0.29" d="M353.588 216.498C347.918 214.525 338.401 211.898 336.835 206.846C335.05 201.095 331.873 201.69 330.081 199.408C328.409 197.27 328.477 190.668 325.556 186.445C327.047 188.38 328.244 190.088 329.117 191.888C329.787 193.25 330.789 194.41 332.031 195.283C333.432 196.262 335.246 197.978 336.428 200.741C338.665 205.958 345.215 208.616 348.197 211.89C349.627 213.464 351.758 215.158 353.588 216.498Z" fill="#634D95"/>
<path d="M271.645 135.524C268.965 136.118 256.007 135.223 254.516 134.929C253.025 134.628 248.711 136.269 247.371 137.76C246.03 139.25 235.158 165.456 235.158 167.391C235.158 169.326 236.942 173.195 237.718 174.746C238.493 176.289 240.519 181.988 240.519 181.988" stroke="#263238" stroke-miterlimit="10" stroke-linecap="round" stroke-linejoin="round"/>
<path d="M357.224 219.012C357.224 219.012 351.178 215.165 348.197 211.89C345.215 208.616 338.665 205.958 336.428 200.749C335.239 197.978 333.424 196.269 332.031 195.291C330.789 194.417 329.78 193.258 329.117 191.888C327.092 187.74 323.335 184.013 318.41 177.072C312.605 168.881 310.068 161.88 307.982 159.351C305.897 156.821 300.385 152.357 300.385 152.357C298.149 146.854 295.378 144.904 295.378 144.904C295.378 144.904 291.899 138.354 289.068 135.968C286.237 133.589 282.518 133.438 278.64 133.589C274.77 133.74 266.375 131.805 266.375 131.805C266.375 131.805 253.763 128.974 249.449 128.974C245.127 128.974 240.361 128.974 240.361 128.974C240.361 128.974 237.831 129.569 236.634 131.353C235.444 133.137 227.546 145.943 225.611 151.453C223.676 156.964 223.231 160.088 223.969 163.07C224.715 166.051 226.499 172.6 226.499 172.6C226.499 172.6 230.67 184.962 230.821 186.595C230.972 188.229 240.203 189.72 240.504 181.981C240.504 181.981 241.693 186.746 243.485 189.727C245.27 192.708 250.488 191.368 251.376 190.028C251.376 190.028 254.953 199.115 255.246 201.343C255.548 203.579 258.966 203.722 260.908 201.787C262.844 199.853 264.485 193.002 263.288 189.577C263.288 189.577 271.043 180.942 272.526 175.725C272.526 175.725 281.388 173.895 282.465 174.738C282.465 174.738 282.796 177.298 284.882 178.894C284.882 178.894 287.118 184.209 288.662 192.746C289.513 197.436 287.856 205.506 292.261 211.612" stroke="#263238" stroke-miterlimit="10" stroke-linecap="round" stroke-linejoin="round"/>
<path d="M251.391 190.021C251.391 190.021 250.202 185.557 250.202 183.765C250.202 181.981 253.778 175.574 255.864 171.554C257.949 167.534 260.931 163.664 262.565 161.579C264.206 159.494 271.051 157.408 273.136 156.814C275.222 156.219 280.816 155.029 282.488 153.832" stroke="#263238" stroke-miterlimit="10" stroke-linecap="round" stroke-linejoin="round"/>
<path d="M252.799 177.403C252.799 177.403 252.137 172.901 251.391 171.93C251.391 171.93 256.903 156.964 257.347 156.068C257.791 155.172 257.347 152.357 257.347 152.357" stroke="#263238" stroke-miterlimit="10" stroke-linecap="round" stroke-linejoin="round"/>
<path d="M257.347 156.068C257.347 156.068 262.859 156.068 265.388 156.068C267.918 156.068 271.796 155.474 273.136 156.814" stroke="#263238" stroke-miterlimit="10" stroke-linecap="round" stroke-linejoin="round"/>
<path d="M282.488 174.738C282.488 174.738 287.585 173.94 290.416 169.326" stroke="#263238" stroke-miterlimit="10" stroke-linecap="round" stroke-linejoin="round"/>
<path d="M283.308 174.55C286.448 176.922 295.928 173.797 300.393 168.58" stroke="#263238" stroke-miterlimit="10" stroke-linecap="round" stroke-linejoin="round"/>
<path d="M284.905 178.894C284.905 178.894 293.842 183.381 299.647 180.972" stroke="#263238" stroke-miterlimit="10" stroke-linecap="round" stroke-linejoin="round"/>
<path d="M0.527057 207.938L13.312 232.947C13.312 232.947 19.8174 220.548 40.5081 221.331C61.1989 222.114 66.9137 203.549 66.9137 203.549C67.9452 185.858 74.1495 173.481 74.1495 173.481C76.333 172.028 76.8374 169.491 76.8374 169.491C77.9669 168.723 86.6859 171.14 86.6859 171.14C87.8228 176.44 94.9833 185.572 94.9833 185.572C93.5678 188.907 94.7423 195.855 96.5494 197.91C98.3489 199.973 101.782 200.048 102.227 197.843C102.671 195.637 106.842 186.806 106.842 186.806C107.648 188.206 112.753 189.885 114.74 187.032C116.721 184.179 118.227 179.504 118.227 179.504C118.008 187.25 127.322 186.377 127.578 184.759C127.834 183.132 132.818 171.08 132.818 171.08C132.818 171.08 135.04 164.658 135.981 161.737C136.922 158.816 136.689 155.662 135.122 150.038C133.556 144.415 126.539 131.105 125.47 129.245C124.401 127.386 121.916 126.618 121.916 126.618C121.916 126.618 117.157 126.302 112.851 126.008C108.544 125.722 95.7739 127.702 95.7739 127.702C95.7739 127.702 87.2732 129.072 83.4181 128.665C79.5631 128.259 75.836 128.161 72.8544 130.344C69.8728 132.535 65.9575 138.836 65.9575 138.836C65.9575 138.836 63.0587 140.598 60.461 145.943C60.461 145.943 54.6634 150.023 52.4121 152.41C50.1608 154.796 47.1716 161.609 40.8244 169.393C35.4484 175.996 31.4503 179.459 29.1538 183.464C28.3933 184.781 27.3166 185.873 26.014 186.663C24.5609 187.544 22.6334 189.132 21.263 191.813C18.6879 196.864 11.9717 199.077 8.77927 202.149C5.60187 205.243 0.527057 207.938 0.527057 207.938ZM87.3635 152.229C88.7866 150.979 92.6115 151.837 95.1414 152.003C97.6713 152.169 103.168 152.538 103.168 152.538C103.552 153.456 108.054 168.761 108.054 168.761C107.249 169.679 106.285 174.129 106.285 174.129C105.389 172.043 104.387 169.845 103.627 168.091C101.812 163.943 99.1019 159.878 97.6035 157.687C96.1052 155.504 89.404 152.967 87.3635 152.229Z" fill="white"/>
<path opacity="0.4" d="M89.0576 152.869C89.7127 153.125 90.4656 153.426 91.2412 153.765C90.5409 153.471 89.8031 153.17 89.0576 152.869Z" fill="#92E3A9"/>
<path opacity="0.08" d="M135.988 161.745C135.047 164.673 132.826 171.095 132.826 171.095C132.826 171.095 127.834 183.147 127.578 184.774C127.322 186.392 118.008 187.265 118.227 179.519C118.227 179.519 116.721 184.194 114.74 187.047C112.76 189.9 107.648 188.214 106.842 186.814C106.842 186.814 102.671 195.644 102.227 197.85C101.775 200.056 98.3489 199.981 96.5494 197.918C94.7423 195.855 93.5678 188.914 94.9833 185.572C94.9833 185.572 87.8228 176.44 86.6859 171.14C86.6859 171.14 77.9669 168.731 76.8374 169.491C76.8374 169.491 76.3405 172.028 74.1495 173.481C74.1495 173.481 70.701 180.37 68.5175 191.21C67.9151 189.659 67.1245 187.928 66.2285 185.812C63.9622 180.46 70.5052 177.976 69.1048 178.073C67.7043 178.171 63.149 175.265 63.149 175.265C65.837 175.792 71.3184 172.661 71.597 171.622C71.853 170.658 66.1081 166.947 65.3099 166.435C65.9876 166.796 70.2568 169.04 71.2657 168.174C72.3575 167.233 70.3245 164.846 70.3245 164.846C70.3245 164.846 71.6572 163.13 74.4205 165.162C77.1913 167.203 87.8529 168.129 87.8529 168.129C87.8529 168.129 96.7301 183.983 100.736 184.488C104.734 184.999 108.167 179.436 107.663 177.84C107.173 176.297 98.3113 158.839 96.0524 156.287C96.7376 156.761 97.2797 157.235 97.596 157.694C99.0943 159.885 101.805 163.943 103.619 168.091C104.387 169.845 105.389 172.043 106.277 174.129C106.277 174.129 107.241 169.679 108.054 168.761C108.054 168.761 103.552 153.464 103.168 152.545C103.168 152.545 97.6713 152.176 95.1414 152.003C92.6341 151.837 88.8318 150.994 87.3861 152.214C83.9753 150.896 80.8657 149.797 80.8657 149.797C81.7767 145.98 88.5306 148.299 92.0995 148.54C95.6684 148.773 103.657 146.598 103.657 146.598C103.657 146.598 107.113 150.482 106.594 151.785C106.067 153.08 111.42 169.213 111.42 169.213C111.42 169.213 114.861 171.042 119.875 169.996C124.89 168.949 124.28 163.755 124.28 163.755C124.28 163.755 115.892 137.067 115.305 136.337C114.725 135.599 111.796 133.371 110.351 132.384C108.905 131.391 95.9922 131.692 95.9922 131.692C95.9922 131.692 109.651 130.216 111.111 130.043C112.579 129.862 117.873 132.046 119.394 135.554C120.922 139.062 125.997 160.947 129.686 162.211C131.546 162.851 134.008 162.377 135.988 161.745Z" fill="#907CCE"/>
<path opacity="0.08" d="M77.244 133.393C71.3862 133.25 67.2977 137.165 66.3264 138.618C66.3264 138.618 66.2888 138.558 66.2285 138.452C67.1396 137.029 70.3321 132.219 72.8544 130.367C73.02 130.246 73.1782 130.126 73.3513 130.028C73.3589 130.028 73.3589 130.021 73.3664 130.021C78.6445 129.614 82.1306 133.521 77.244 133.393Z" fill="#907CCE"/>
<path opacity="0.08" d="M67.8699 145.1C66.4845 144.987 63.4954 144.972 60.7622 145.664C60.7622 145.664 60.7245 145.634 60.6643 145.566C61.5678 143.775 62.5015 142.405 63.3297 141.388C65.9424 142.585 68.781 145.182 67.8699 145.1Z" fill="#907CCE"/>
<path opacity="0.29" d="M31.518 180.136C29.598 183.968 29.0333 188.658 27.535 190.292C25.5773 192.43 22.4526 191.594 20.2315 197.195C18.56 201.396 11.2339 203.383 5.51904 204.829C6.65598 204.023 7.81551 203.112 8.79433 202.171C11.9868 199.1 18.703 196.887 21.2781 191.843C22.6484 189.155 24.5759 187.567 26.0291 186.686C27.3317 185.895 28.4084 184.804 29.1689 183.486C29.8164 182.357 30.5994 181.265 31.518 180.136Z" fill="#634D95"/>
<path d="M118.227 179.519C118.227 179.519 120.636 173.971 121.509 172.48C122.383 170.989 124.423 167.248 124.551 165.313C124.679 163.378 115.584 136.51 114.341 134.929C113.107 133.356 108.905 131.428 107.399 131.632C105.893 131.827 92.9052 131.857 90.2699 131.082" stroke="#263238" stroke-miterlimit="10" stroke-linecap="round" stroke-linejoin="round"/>
<path d="M0.527057 207.938C0.527057 207.938 5.60187 205.243 8.79433 202.171C11.9868 199.1 18.703 196.886 21.2781 191.835C22.6484 189.147 24.5759 187.566 26.0291 186.686C27.3317 185.895 28.4084 184.804 29.1689 183.486C31.4653 179.481 35.4634 176.018 40.8394 169.416C47.1792 161.632 50.1759 154.819 52.4272 152.432C54.6784 150.046 60.4761 145.965 60.4761 145.965C63.0737 140.628 65.9725 138.859 65.9725 138.859C65.9725 138.859 69.8803 132.55 72.8695 130.367C75.8586 128.184 79.5781 128.281 83.4332 128.688C87.2882 129.094 95.7889 127.724 95.7889 127.724C95.7889 127.724 108.559 125.744 112.866 126.03C117.172 126.317 121.931 126.64 121.931 126.64C121.931 126.64 124.416 127.401 125.485 129.268C126.554 131.127 133.579 144.437 135.138 150.061C136.704 155.684 136.937 158.839 135.996 161.76C135.055 164.681 132.834 171.102 132.834 171.102C132.834 171.102 127.849 183.155 127.593 184.781C127.337 186.407 118.023 187.273 118.242 179.526C118.242 179.526 116.736 184.201 114.755 187.055C112.775 189.908 107.663 188.221 106.857 186.829C106.857 186.829 102.686 195.652 102.242 197.865C101.797 200.071 98.364 199.996 96.5645 197.933C94.7649 195.87 93.5828 188.929 94.9983 185.594C94.9983 185.594 87.8379 176.462 86.701 171.162C86.701 171.162 77.9819 168.746 76.8525 169.514C76.8525 169.514 76.348 172.051 74.1645 173.504C74.1645 173.504 71.5819 178.661 69.4737 187.07C68.3142 191.692 69.4285 199.86 64.6248 205.657" stroke="#263238" stroke-miterlimit="10" stroke-linecap="round" stroke-linejoin="round"/>
<path d="M106.842 186.814C106.842 186.814 108.325 182.432 108.446 180.656C108.566 178.871 105.427 172.247 103.612 168.091C101.797 163.943 99.0868 159.878 97.5885 157.687C96.0901 155.496 89.3965 152.959 87.356 152.229C85.3155 151.499 79.8116 149.933 78.2229 148.63" stroke="#263238" stroke-miterlimit="10" stroke-linecap="round" stroke-linejoin="round"/>
<path d="M106.277 174.129C106.277 174.129 107.241 169.679 108.047 168.761C108.047 168.761 103.544 153.464 103.16 152.538C102.776 151.619 103.409 148.834 103.409 148.834" stroke="#263238" stroke-miterlimit="10" stroke-linecap="round" stroke-linejoin="round"/>
<path d="M103.168 152.545C103.168 152.545 97.6713 152.176 95.1414 152.011C92.6115 151.845 88.7941 150.987 87.3635 152.236" stroke="#263238" stroke-miterlimit="10" stroke-linecap="round" stroke-linejoin="round"/>
<path d="M76.8374 169.491C76.8374 169.491 71.8078 168.354 69.293 163.559" stroke="#263238" stroke-miterlimit="10" stroke-linecap="round" stroke-linejoin="round"/>
<path d="M76.0318 169.243C72.7415 171.396 63.4954 167.647 59.3843 162.151" stroke="#263238" stroke-miterlimit="10" stroke-linecap="round" stroke-linejoin="round"/>
<path d="M74.1495 173.481C74.1495 173.481 64.9335 177.366 59.3015 174.565" stroke="#263238" stroke-miterlimit="10" stroke-linecap="round" stroke-linejoin="round"/>
</svg>
