<svg width="305" height="307" viewBox="0 0 305 307" fill="none" xmlns="http://www.w3.org/2000/svg">
<path d="M74.9125 70.5159C61.8855 70.5159 51.3234 59.9605 51.3234 46.9418C51.3234 33.923 61.8855 23.3677 74.9125 23.3677C87.9396 23.3677 98.5017 33.923 98.5017 46.9418C98.5017 59.9674 87.9396 70.5159 74.9125 70.5159Z" fill="#704AB8" stroke="white" stroke-miterlimit="10"/>
<path d="M69.1013 41.6916H64.2196V57.4559H69.1013V41.6916Z" fill="white"/>
<path d="M66.6364 39.6273C68.2338 39.6273 69.5213 38.3268 69.5213 36.7167C69.5213 35.1134 68.2269 33.8061 66.6364 33.8061C65.039 33.8061 63.7514 35.1066 63.7514 36.7167C63.7514 38.3268 65.039 39.6273 66.6364 39.6273Z" fill="white"/>
<path d="M76.9024 49.1781C76.9024 46.9624 77.9214 45.6413 79.8768 45.6413C81.6739 45.6413 82.5346 46.9074 82.5346 49.1781C82.5346 51.4488 82.5346 57.449 82.5346 57.449H87.3956C87.3956 57.449 87.3956 51.6896 87.3956 47.4716C87.3956 43.2467 84.9995 41.21 81.6602 41.21C78.3139 41.21 76.9093 43.811 76.9093 43.811V41.6847H72.2272V57.449H76.9093C76.9024 57.449 76.9024 51.6071 76.9024 49.1781Z" fill="white"/>
<path d="M106.53 0L109.759 5.90385L115.667 9.13101L109.759 12.3582L106.53 18.262L103.301 12.3582L97.3932 9.13101L103.301 5.90385L106.53 0Z" fill="#F5F5F5"/>
<path d="M241.242 159.906L243.665 164.331L248.093 166.753L243.665 169.175L241.242 173.599L238.818 169.175L234.391 166.753L238.818 164.331L241.242 159.906Z" fill="#EBEBEB"/>
<path d="M248.093 138.045L249.187 140.041L251.184 141.135L249.187 142.229L248.093 144.225L246.998 142.229L245.001 141.135L246.998 140.041L248.093 138.045Z" fill="#E0E0E0"/>
<path d="M83.4572 2.22253L84.552 4.21801L86.5488 5.31208L84.552 6.39926L83.4572 8.40162L82.3625 6.39926L80.3657 5.31208L82.3625 4.21801L83.4572 2.22253Z" fill="#E0E0E0"/>
<path d="M28.6637 187.76C31.1286 186.687 32.8568 184.113 32.8362 181.106C32.8017 177.164 29.7722 173.991 26.0748 174.026C22.3773 174.053 19.4098 177.281 19.4442 181.216C19.4717 184.251 21.2826 186.818 23.7957 187.822C13.509 189.508 14.1218 200.696 14.1218 200.696L38.489 200.497C38.489 200.497 38.9022 189.171 28.6637 187.76Z" fill="#E0E0E0"/>
<path d="M262.421 261.51C262.077 259.755 260.349 258.386 258.558 258.455C256.789 258.517 255.178 259.983 254.937 261.737C254.682 259.989 253.057 258.538 251.287 258.489C249.504 258.441 247.783 259.824 247.452 261.579C247.211 262.859 247.652 264.187 248.368 265.274C249.091 266.354 250.069 267.235 251.04 268.102C252.403 269.313 253.663 270.455 255.019 271.666C256.369 270.442 257.519 269.292 258.868 268.068C259.832 267.194 260.81 266.306 261.519 265.219C262.249 264.125 262.676 262.79 262.421 261.51Z" fill="#704AB8" stroke="white" stroke-miterlimit="10"/>
<path d="M305 306.505C305 306.601 236.718 306.684 152.51 306.684C68.2682 306.684 0 306.601 0 306.505C0 306.408 68.2682 306.326 152.503 306.326C236.718 306.326 305 306.401 305 306.505Z" fill="#263238"/>
<path d="M251.955 109.586C238.061 116.336 221.322 110.556 214.561 96.6703C207.806 82.7846 213.59 66.057 227.485 59.2999C241.379 52.5497 258.118 58.3297 264.879 72.2155C271.634 86.1012 265.85 102.836 251.955 109.586Z" fill="#704AB8" stroke="white" stroke-miterlimit="10"/>
<path d="M232.807 90.6977C233.275 90.6701 233.558 90.3399 233.461 89.8513C233.392 89.5141 233.213 88.6609 233.138 88.3031C233.041 87.8146 232.924 87.6907 232.429 87.4705C231.341 86.9888 230.384 86.1494 229.661 84.6562C227.554 80.3212 228.91 74.8646 234.115 72.3324C238.722 70.0893 242.626 71.6787 244.457 75.4357C246.867 80.3831 246.702 85.6195 243.452 87.2022C241.655 88.076 239.589 87.2434 239.135 85.2136C238.598 82.7915 238.453 79.9565 237.689 78.3877C237.007 76.984 235.678 76.1789 234.122 76.9358C232.284 77.8303 231.733 80.4451 232.972 82.9841C233.757 84.6012 234.838 85.4337 234.838 85.4337C234.838 85.4337 236.828 94.3033 237.179 95.8515C237.875 98.941 240.085 102.072 240.298 102.395C240.429 102.588 240.712 102.505 240.753 102.299C240.815 101.996 241.689 98.2323 241.118 95.1772C240.959 94.3102 240.03 89.8788 240.03 89.8788C241.18 90.7252 243.411 90.8766 245.263 89.9752C250.778 87.2916 252.079 80.4451 248.802 73.7224C246.323 68.6374 239.706 65.9951 233.158 69.181C225.006 73.1444 223.739 80.9887 226.108 85.8604C227.54 88.8054 229.936 90.8835 232.807 90.6977Z" fill="white"/>
<path d="M29.0079 99.3264C20.8832 99.3264 14.2939 92.7413 14.2939 84.6218C14.2939 76.5023 20.8832 69.9172 29.0079 69.9172C37.1326 69.9172 43.7219 76.5023 43.7219 84.6218C43.7219 92.7482 37.1326 99.3264 29.0079 99.3264Z" fill="#704AB8" stroke="white" stroke-miterlimit="10"/>
<path d="M21.1655 89.5486C22.5908 90.4637 24.2777 90.9936 26.0954 90.9936C32.065 90.9936 35.4388 85.9498 35.2392 81.4291C35.8657 80.9749 36.4097 80.4107 36.8435 79.7639C36.2651 80.0185 35.6454 80.1905 34.9982 80.2731C35.6592 79.874 36.1756 79.2478 36.4097 78.4978C35.79 78.8693 35.1015 79.1308 34.3647 79.2753C33.7795 78.6492 32.9395 78.2638 32.0168 78.2638C29.9443 78.2638 28.4158 80.1974 28.884 82.2135C26.2125 82.0827 23.837 80.8029 22.2534 78.8556C21.4134 80.3006 21.8196 82.1928 23.2518 83.1493C22.7216 83.1355 22.2259 82.9842 21.7921 82.7502C21.7577 84.2365 22.8249 85.6333 24.3741 85.943C23.9197 86.0668 23.4239 86.0943 22.9213 85.998C23.3275 87.2779 24.5187 88.2068 25.9233 88.2274C24.5807 89.2733 22.8731 89.7481 21.1655 89.5486Z" fill="white"/>
<path d="M55.4477 264.042C41.8354 267.283 28.168 258.882 24.925 245.278C21.682 231.674 30.089 218.016 43.7013 214.775C57.3136 211.534 70.981 219.935 74.224 233.539C77.467 247.143 69.06 260.801 55.4477 264.042Z" fill="#704AB8" stroke="white" stroke-miterlimit="10"/>
<path d="M46.9374 228.33C50.5453 227.47 50.9791 227.381 52.4182 227.112C53.747 226.858 54.5182 226.906 55.0415 226.982C55.73 227.078 56.2533 227.264 56.8385 227.621C57.4238 227.979 57.8231 228.365 58.2225 228.936C58.5186 229.369 58.911 230.03 59.2828 231.33C59.6891 232.741 59.8061 233.161 60.6599 236.766C61.5206 240.372 61.6101 240.805 61.8855 242.243C62.1403 243.571 62.0921 244.342 62.0163 244.865C61.9199 245.553 61.734 246.076 61.376 246.661C61.0179 247.246 60.6324 247.645 60.0609 248.044C59.6271 248.34 58.9661 248.732 57.6648 249.104C56.2533 249.51 55.8333 249.62 52.2254 250.48C48.6174 251.34 48.1837 251.43 46.7446 251.705C45.4158 251.959 44.6446 251.911 44.1213 251.835C43.4328 251.739 42.9095 251.553 42.3242 251.196C41.739 250.838 41.3396 250.452 40.9403 249.881C40.6442 249.448 40.2518 248.787 39.8799 247.487C39.4737 246.076 39.3567 245.656 38.5029 242.051C37.6422 238.445 37.5527 238.012 37.2773 236.574C37.0225 235.239 37.0707 234.475 37.1465 233.952C37.2429 233.264 37.4288 232.741 37.7868 232.156C38.1448 231.571 38.5304 231.172 39.1019 230.773C39.5357 230.477 40.1967 230.085 41.498 229.713C42.9026 229.307 43.3226 229.19 46.9374 228.33ZM46.3522 225.901C42.6823 226.775 42.2279 226.899 40.7957 227.312C39.3704 227.718 38.4478 228.186 37.6629 228.722C36.8573 229.28 36.2101 229.92 35.6386 230.849C35.0671 231.778 34.7848 232.645 34.6471 233.615C34.5163 234.551 34.5232 235.59 34.7986 237.041C35.074 238.5 35.1704 238.961 36.0448 242.629C36.9193 246.296 37.0432 246.75 37.4563 248.182C37.8625 249.606 38.3239 250.528 38.8678 251.313C39.4255 252.118 40.0659 252.764 40.9954 253.336C41.9249 253.907 42.7924 254.189 43.7633 254.326C44.6997 254.457 45.7394 254.45 47.1922 254.175C48.6519 253.9 49.1132 253.803 52.7831 252.93C56.453 252.056 56.9074 251.932 58.3396 251.519C59.7648 251.113 60.6875 250.645 61.4724 250.108C62.278 249.551 62.9252 248.911 63.4967 247.982C64.0682 247.053 64.3505 246.186 64.4882 245.216C64.619 244.28 64.6121 243.241 64.3367 241.789C64.0613 240.331 63.9649 239.87 63.0904 236.202C62.216 232.534 62.0921 232.08 61.6789 230.649C61.2727 229.225 60.8045 228.303 60.2674 227.518C59.7097 226.713 59.0694 226.066 58.1399 225.495C57.2104 224.924 56.3428 224.642 55.372 224.504C54.4356 224.374 53.3959 224.381 51.9431 224.656C50.4903 224.931 50.0221 225.027 46.3522 225.901Z" fill="white"/>
<path d="M47.9221 232.473C44.0869 233.388 41.7184 237.227 42.6341 241.06C43.5499 244.893 47.3988 247.253 51.227 246.345C55.0622 245.429 57.4238 241.59 56.515 237.757C55.5992 233.924 51.7572 231.557 47.9221 232.473ZM50.6487 243.909C48.163 244.5 45.6637 242.966 45.0715 240.482C44.4794 237.998 46.0148 235.5 48.5004 234.908C50.986 234.317 53.4854 235.851 54.0776 238.335C54.6697 240.819 53.1343 243.317 50.6487 243.909Z" fill="white"/>
<path d="M56.6939 230.092C56.9074 230.986 56.3566 231.888 55.4615 232.101C54.5664 232.314 53.6644 231.764 53.451 230.869C53.2375 229.975 53.7883 229.073 54.6834 228.86C55.5785 228.647 56.4805 229.197 56.6939 230.092Z" fill="white"/>
<path d="M247.39 241.755C240.863 241.755 235.575 236.47 235.575 229.947C235.575 223.424 240.863 218.14 247.39 218.14C253.918 218.14 259.206 223.424 259.206 229.947C259.212 236.463 253.918 241.755 247.39 241.755Z" fill="#704AB8" stroke="white" stroke-miterlimit="10"/>
<path d="M245.593 237.083H248.471V229.885H250.475L250.688 227.477H248.464C248.464 227.477 248.464 226.576 248.464 226.101C248.464 225.53 248.582 225.309 249.125 225.309C249.566 225.309 250.682 225.309 250.682 225.309V222.805C250.682 222.805 249.043 222.805 248.692 222.805C246.55 222.805 245.586 223.748 245.586 225.55C245.586 227.119 245.586 227.47 245.586 227.47H244.092V229.913H245.586V237.083H245.593Z" fill="white"/>
<path d="M207.09 307L112.148 306.945C100.733 306.938 91.4786 297.683 91.4786 286.275L91.5268 48.4074C91.5268 36.9919 100.795 27.7371 112.217 27.744L207.159 27.799C218.575 27.8059 227.829 37.0608 227.829 48.4694L227.781 286.337C227.781 297.752 218.513 307.007 207.09 307Z" fill="#263238"/>
<path d="M207.056 36.2144L188.651 36.2006C186.187 36.2006 184.183 38.2924 184.183 40.8659V44.2032C184.183 46.7835 182.179 48.8684 179.714 48.8684L143.828 48.8547C141.363 48.8547 139.359 46.7629 139.359 44.1825V40.8453C139.359 38.2649 137.356 36.1731 134.891 36.1731L128.419 36.1662L112.307 36.1593C104.306 36.1525 97.8132 42.6343 97.8132 50.63L97.7719 282.8C97.7719 290.795 104.251 297.27 112.245 297.277L206.994 297.332C214.995 297.339 221.481 290.857 221.488 282.862L221.536 50.685C221.536 42.6962 215.057 36.2213 207.056 36.2144Z" fill="white"/>
<path d="M208.447 55.0745C208.447 55.136 206.051 55.2043 203.104 55.2316C200.15 55.259 197.754 55.2248 197.754 55.1633C197.754 55.1018 200.143 55.0335 203.097 55.0062C206.051 54.9857 208.447 55.013 208.447 55.0745Z" fill="#263238"/>
<path d="M208.467 57.8062C208.467 57.8677 206.071 57.936 203.124 57.9633C200.171 57.9907 197.775 57.9565 197.775 57.895C197.775 57.8336 200.164 57.7653 203.118 57.7379C206.071 57.7174 208.467 57.7448 208.467 57.8062Z" fill="#263238"/>
<path d="M208.488 60.5448C208.488 60.6063 206.092 60.6746 203.145 60.702C200.191 60.7293 197.795 60.6951 197.795 60.6336C197.795 60.5722 200.191 60.5039 203.138 60.4765C206.092 60.4492 208.488 60.4834 208.488 60.5448Z" fill="#263238"/>
<path d="M107.769 63.2083C107.776 63.2014 107.873 63.1946 108.052 63.1877C108.272 63.1808 108.527 63.1739 108.83 63.1601C109.566 63.1395 110.523 63.1189 111.708 63.0913L111.625 63.1739C111.618 62.534 111.604 61.839 111.591 61.089C111.598 60.7037 111.556 60.339 111.598 59.8917C111.673 59.4444 112.073 59.0522 112.562 59.0041C113.023 58.9972 113.436 58.9765 113.939 58.9972C114.455 59.0591 114.896 59.5614 114.882 60.105C114.896 61.0752 114.903 62.0936 114.916 63.1464L114.786 63.0156C115.949 63.0019 117.168 62.9881 118.414 62.9812L118.276 63.1189C118.263 61.6601 118.249 60.1463 118.235 58.5981C118.235 58.2128 118.228 57.8274 118.228 57.449C118.228 57.0912 118.008 56.8572 117.719 56.5889C117.182 56.059 116.651 55.5361 116.135 55.0269C115.619 54.5177 115.102 54.0085 114.606 53.52C114.359 53.2722 114.111 53.0314 113.863 52.7906C113.608 52.5429 113.408 52.2883 113.112 52.2332C112.823 52.1575 112.513 52.2195 112.279 52.3915C112.059 52.5773 111.825 52.8387 111.604 53.052C111.157 53.4993 110.723 53.9397 110.303 54.3663C109.484 55.2195 108.63 55.9971 108.01 56.7265C107.749 57.1324 107.845 57.6279 107.824 58.082C107.824 58.5293 107.824 58.9559 107.824 59.3619C107.818 60.1463 107.818 60.8344 107.811 61.4193C107.804 61.9422 107.797 62.3826 107.797 62.7335C107.776 63.0432 107.776 63.2014 107.769 63.2083C107.762 63.2152 107.756 63.0638 107.742 62.7748C107.735 62.4239 107.721 61.9973 107.707 61.4812C107.694 60.8894 107.68 60.1945 107.659 59.4032C107.652 58.9903 107.645 58.5568 107.632 58.1027C107.625 57.8687 107.625 57.6348 107.618 57.387C107.618 57.1324 107.68 56.8641 107.818 56.6301C108.492 55.8113 109.291 55.0819 110.117 54.2012C110.537 53.7745 110.964 53.3342 111.412 52.88C111.646 52.653 111.839 52.4259 112.114 52.185C112.403 51.9649 112.803 51.8823 113.167 51.9786C113.553 52.0612 113.808 52.3777 114.042 52.6048C114.29 52.8456 114.538 53.0865 114.786 53.3342C115.288 53.8227 115.798 54.325 116.321 54.8411C116.844 55.3503 117.374 55.8732 117.911 56.4031C118.042 56.5407 118.194 56.6508 118.318 56.8434C118.435 57.0224 118.504 57.2357 118.51 57.4559C118.517 57.8412 118.517 58.2265 118.524 58.6118C118.538 60.1601 118.545 61.6739 118.559 63.1326V63.2702H118.421C117.168 63.2771 115.956 63.284 114.792 63.2909H114.662V63.1601C114.655 62.1074 114.648 61.089 114.648 60.1188C114.662 59.6784 114.324 59.2931 113.911 59.238C113.491 59.2174 113.002 59.2311 112.596 59.2311C112.203 59.2655 111.88 59.5752 111.811 59.933C111.777 60.2977 111.804 60.7243 111.797 61.089C111.797 61.839 111.797 62.534 111.797 63.1739V63.2565H111.715C110.517 63.2496 109.539 63.2427 108.788 63.2358C108.492 63.229 108.244 63.229 108.024 63.2221C107.845 63.2221 107.762 63.2152 107.769 63.2083Z" fill="#263238"/>
<path d="M170.398 244.631C170.398 244.659 170.047 244.679 169.407 244.7C168.698 244.714 167.789 244.734 166.694 244.755C164.401 244.789 161.241 244.81 157.743 244.81C154.245 244.81 151.085 244.789 148.792 244.755C147.697 244.734 146.788 244.714 146.079 244.7C145.439 244.679 145.088 244.652 145.088 244.631C145.088 244.604 145.439 244.583 146.079 244.562C146.788 244.549 147.697 244.528 148.792 244.507C151.085 244.473 154.245 244.452 157.743 244.452C161.241 244.452 164.401 244.473 166.694 244.507C167.789 244.528 168.698 244.549 169.407 244.562C170.04 244.583 170.398 244.604 170.398 244.631Z" fill="#455A64"/>
<path d="M210.189 250.858C210.189 250.955 195.613 251.037 177.635 251.037C159.65 251.037 145.081 250.955 145.081 250.858C145.081 250.762 159.657 250.68 177.635 250.68C195.613 250.68 210.189 250.755 210.189 250.858Z" fill="#455A64"/>
<path d="M189.843 256.714C189.843 256.81 179.824 256.893 167.465 256.893C155.099 256.893 145.081 256.81 145.081 256.714C145.081 256.618 155.099 256.535 167.465 256.535C179.818 256.535 189.843 256.611 189.843 256.714Z" fill="#455A64"/>
<path d="M211.476 268.109L209.452 266.079L207.524 267.999L207.531 262.198L211.483 262.205L211.476 268.109ZM209.452 265.831L209.514 265.893L211.297 267.682L211.304 262.384L207.71 262.377L207.703 267.572L209.452 265.831Z" fill="#263238"/>
<path d="M157.612 267.352L156.896 267.035C156.552 267.221 156.249 267.318 155.974 267.318C154.879 267.324 153.984 266.444 153.977 265.35C153.97 264.256 154.851 263.361 155.946 263.354C157.041 263.347 157.936 264.228 157.943 265.322C157.95 265.811 157.771 266.279 157.447 266.643L157.612 267.352ZM155.939 263.492C154.92 263.499 154.101 264.331 154.108 265.35C154.115 266.368 154.948 267.187 155.967 267.18C156.228 267.18 156.518 267.084 156.855 266.898L156.883 266.884L157.406 267.118L157.289 266.602L157.309 266.574C157.626 266.23 157.798 265.783 157.791 265.322C157.791 264.304 156.958 263.485 155.939 263.492Z" fill="#263238"/>
<path d="M162.198 267.049L161.379 265.054L159.843 263.657L163.561 263.629L162.198 267.049ZM160.194 263.788L161.503 264.985L162.198 266.685L163.369 263.76L160.194 263.788Z" fill="#263238"/>
<path d="M163.494 263.644L161.462 264.965L161.537 265.081L163.569 263.76L163.494 263.644Z" fill="#263238"/>
<path d="M151.753 264.07C151.65 263.54 151.119 263.127 150.576 263.148C150.038 263.168 149.55 263.616 149.481 264.146C149.398 263.616 148.909 263.175 148.372 263.162C147.828 263.148 147.312 263.574 147.215 264.104C147.147 264.49 147.277 264.896 147.498 265.226C147.718 265.556 148.014 265.818 148.31 266.079C148.723 266.444 149.109 266.788 149.522 267.152C149.928 266.781 150.279 266.43 150.686 266.058C150.975 265.79 151.271 265.522 151.484 265.191C151.705 264.861 151.829 264.462 151.753 264.07Z" fill="#E8505B"/>
<path d="M215.621 273.242C215.621 273.242 215.614 273.022 215.608 272.595C215.608 272.162 215.601 271.536 215.594 270.71C215.587 269.052 215.58 266.609 215.566 263.444C215.553 257.12 215.532 247.92 215.504 236.381L215.621 236.498C189.127 236.512 149.584 236.532 105.511 236.56H105.504L105.683 236.381C105.683 249.193 105.676 261.62 105.676 273.242L105.504 273.07C137.204 273.105 164.704 273.132 184.293 273.153C194.098 273.173 201.913 273.187 207.297 273.201C209.982 273.208 212.055 273.221 213.466 273.221C214.169 273.228 214.699 273.228 215.064 273.235C215.429 273.235 215.621 273.242 215.621 273.242C215.621 273.242 215.449 273.249 215.091 273.256C214.726 273.256 214.203 273.263 213.514 273.27C212.11 273.277 210.051 273.283 207.38 273.29C202.009 273.304 194.201 273.318 184.417 273.338C164.801 273.359 137.252 273.387 105.504 273.421H105.332V273.249C105.332 261.627 105.325 249.2 105.325 236.388V236.209H105.504H105.511C149.584 236.236 189.127 236.257 215.621 236.271H215.738V236.388C215.711 247.962 215.69 257.182 215.676 263.526C215.663 266.678 215.656 269.114 215.649 270.765C215.642 271.577 215.642 272.203 215.635 272.63C215.628 273.036 215.621 273.242 215.621 273.242Z" fill="#263238"/>
<path d="M110.091 242.539L109.952 266.911L140.454 267.085L140.593 242.712L110.091 242.539Z" fill="#EBEBEB"/>
<path d="M140.585 242.711C140.585 242.711 140.53 242.718 140.433 242.718C140.323 242.718 140.179 242.725 140 242.725C139.6 242.725 139.049 242.732 138.333 242.732C136.867 242.732 134.753 242.739 132.082 242.739C126.718 242.725 119.116 242.711 110.083 242.698L110.241 242.539C110.207 249.792 110.165 258.111 110.124 266.905C110.159 266.946 109.787 266.568 109.952 266.726H109.959H109.973H110.007H110.076H110.207H110.468H110.999L112.052 266.733C112.754 266.74 113.45 266.74 114.138 266.747C115.522 266.753 116.892 266.76 118.249 266.774C120.955 266.795 123.599 266.808 126.16 266.822C131.283 266.857 136.089 266.891 140.447 266.925L140.296 267.077C140.371 259.762 140.433 253.686 140.475 249.427C140.502 247.308 140.523 245.636 140.544 244.48C140.557 243.922 140.564 243.482 140.571 243.172C140.571 242.877 140.585 242.711 140.585 242.711C140.585 242.711 140.592 242.849 140.599 243.138C140.599 243.448 140.606 243.874 140.606 244.418C140.606 245.567 140.612 247.225 140.619 249.331C140.612 253.618 140.606 259.721 140.599 267.077V267.228H140.447C136.089 267.208 131.283 267.194 126.16 267.166C123.599 267.152 120.955 267.139 118.249 267.125C116.892 267.118 115.522 267.111 114.138 267.104C113.443 267.097 112.747 267.097 112.052 267.091L110.999 267.084H110.468H110.207H110.076H110.007H109.973H109.959H109.952C110.11 267.242 109.725 266.863 109.766 266.898C109.821 258.097 109.876 249.785 109.924 242.532V242.374H110.083C119.158 242.457 126.794 242.532 132.185 242.581C134.843 242.615 136.943 242.643 138.402 242.656C139.105 242.67 139.649 242.677 140.034 242.684C140.206 242.691 140.344 242.691 140.447 242.698C140.544 242.711 140.592 242.711 140.585 242.711Z" fill="#263238"/>
<path d="M111.13 244.08L111.008 265.384L139.369 265.545L139.49 244.241L111.13 244.08Z" fill="#E0E0E0"/>
<path d="M111.005 265.384L120.989 252.2L127.076 260.519L131.262 256.115L139.366 265.542L111.005 265.384Z" fill="#F5F5F5"/>
<path d="M129.734 250.624C129.727 251.856 128.722 252.847 127.489 252.84C126.257 252.833 125.265 251.829 125.272 250.597C125.279 249.365 126.284 248.374 127.517 248.381C128.749 248.388 129.741 249.393 129.734 250.624Z" fill="#F5F5F5"/>
<path d="M161.516 84.6287C161.516 84.6424 161.406 84.6562 161.193 84.6631C160.938 84.67 160.628 84.6837 160.256 84.6975C159.389 84.7112 158.225 84.7319 156.821 84.7525C153.922 84.7869 149.915 84.8076 145.487 84.8076C141.06 84.8076 137.053 84.7869 134.154 84.7525C132.749 84.7319 131.586 84.7112 130.718 84.6975C130.346 84.6837 130.037 84.67 129.782 84.6631C129.568 84.6493 129.458 84.6424 129.458 84.6287C129.458 84.6149 129.568 84.6011 129.782 84.5943C130.037 84.5874 130.346 84.5736 130.718 84.5599C131.586 84.5461 132.749 84.5255 134.154 84.5048C137.053 84.4704 141.06 84.4498 145.487 84.4498C149.915 84.4498 153.922 84.4704 156.821 84.5048C158.225 84.5255 159.389 84.5461 160.256 84.5599C160.628 84.5736 160.938 84.5874 161.193 84.5943C161.406 84.6011 161.516 84.6149 161.516 84.6287Z" fill="#263238"/>
<path d="M206.581 219.344L203.572 216.33L200.708 219.185L200.721 210.557L206.588 210.564L206.581 219.344ZM203.572 215.951L203.668 216.048L206.312 218.704L206.326 210.832L200.99 210.825L200.976 218.546L203.572 215.951Z" fill="#263238"/>
<path d="M130.25 218.435L128.845 217.809C128.164 218.174 127.572 218.36 127.028 218.36C124.873 218.374 123.11 216.64 123.096 214.493C123.075 212.339 124.817 210.577 126.966 210.564C129.121 210.543 130.883 212.284 130.897 214.431C130.904 215.387 130.56 216.309 129.926 217.032L130.25 218.435ZM126.966 210.825C124.962 210.839 123.344 212.483 123.358 214.486C123.372 216.488 125.017 218.105 127.021 218.091C127.537 218.085 128.109 217.906 128.77 217.541L128.825 217.507L129.858 217.968L129.623 216.949L129.672 216.901C130.291 216.22 130.629 215.346 130.622 214.431C130.615 212.428 128.969 210.811 126.966 210.825Z" fill="#263238"/>
<path d="M139.284 217.83L137.672 213.901L134.65 211.149L141.976 211.087L139.284 217.83ZM135.338 211.417L137.913 213.777L139.284 217.121L141.583 211.369L135.338 211.417Z" fill="#263238"/>
<path d="M141.824 211.098L137.831 213.694L137.977 213.919L141.971 211.323L141.824 211.098Z" fill="#263238"/>
<path d="M118.724 211.974C118.517 210.928 117.478 210.116 116.41 210.158C115.357 210.199 114.393 211.08 114.255 212.126C114.097 211.08 113.126 210.22 112.066 210.192C110.999 210.165 109.98 210.997 109.787 212.05C109.649 212.814 109.911 213.605 110.344 214.252C110.778 214.899 111.363 215.422 111.949 215.931C112.768 216.653 113.519 217.328 114.338 218.05C115.144 217.314 115.825 216.626 116.631 215.896C117.202 215.373 117.788 214.844 118.208 214.19C118.628 213.536 118.875 212.738 118.724 211.974Z" fill="#704AB8"/>
<path d="M118.056 89.5967C120.802 89.5967 123.027 87.3725 123.027 84.6287C123.027 81.8849 120.802 79.6606 118.056 79.6606C115.311 79.6606 113.085 81.8849 113.085 84.6287C113.085 87.3725 115.311 89.5967 118.056 89.5967Z" fill="#EBEBEB"/>
<path d="M204.701 190.857C204.701 190.953 183.866 191.036 158.17 191.036C132.467 191.036 111.632 190.953 111.632 190.857C111.632 190.76 132.46 190.678 158.17 190.678C183.866 190.678 204.701 190.753 204.701 190.857Z" fill="#455A64"/>
<path d="M204.701 183.109C204.701 183.205 183.866 183.288 158.17 183.288C132.467 183.288 111.632 183.205 111.632 183.109C111.632 183.012 132.46 182.93 158.17 182.93C183.866 182.93 204.701 183.012 204.701 183.109Z" fill="#455A64"/>
<path d="M162.294 198.701C162.294 198.797 150.954 198.88 136.97 198.88C122.979 198.88 111.639 198.797 111.639 198.701C111.639 198.605 122.979 198.522 136.97 198.522C150.954 198.522 162.294 198.605 162.294 198.701Z" fill="#455A64"/>
<path d="M156.043 283.082C156.036 284.19 155.147 285.084 154.06 285.077C152.965 285.07 152.083 284.169 152.09 283.061C152.097 281.953 152.985 281.059 154.073 281.066C155.168 281.073 156.049 281.974 156.043 283.082Z" fill="#263238"/>
<path d="M162.17 283.109C162.164 284.217 161.275 285.112 160.187 285.105C159.093 285.098 158.211 284.196 158.218 283.089C158.225 281.981 159.113 281.086 160.201 281.093C161.296 281.1 162.177 282.001 162.17 283.109Z" fill="#263238"/>
<path d="M168.298 283.143C168.292 284.251 167.403 285.146 166.315 285.139C165.221 285.132 164.339 284.231 164.346 283.123C164.353 282.015 165.241 281.12 166.329 281.127C167.417 281.134 168.305 282.036 168.298 283.143Z" fill="#263238"/>
<path d="M216.282 94.4547H106.165V161.75H216.282V94.4547Z" fill="#E0E0E0"/>
<path d="M116.328 161.764L147.883 119.556L167.445 145.952L180.706 131.832L206.705 161.736L116.328 161.764Z" fill="#F5F5F5"/>
<path d="M175.735 114.382C175.735 118.311 172.554 121.497 168.622 121.497C164.69 121.497 161.503 118.318 161.503 114.389C161.503 110.46 164.684 107.274 168.615 107.274C172.547 107.267 175.735 110.453 175.735 114.382Z" fill="#F5F5F5"/>
<path d="M215.986 224.298C215.986 222.86 215.917 162.06 215.821 72.0641L215.986 72.2292C182.778 72.2361 145.35 72.243 105.883 72.243H105.869L106.048 72.0641C106.034 128.997 106.02 181.684 106.014 224.298L105.869 224.154C172.643 224.236 214.781 224.291 215.986 224.298C214.788 224.298 172.65 224.353 105.869 224.442H105.724V224.298C105.718 181.684 105.704 128.997 105.69 72.0641V71.8852H105.869H105.883C145.35 71.8921 182.778 71.899 215.986 71.899H216.152V72.0641C216.117 117.107 216.09 155.186 216.069 182.001C216.048 195.391 216.034 205.974 216.028 213.206C216.021 216.812 216.014 219.591 216.007 221.463C216 222.392 216 223.101 216 223.582C215.993 224.057 215.986 224.298 215.986 224.298Z" fill="#263238"/>
<path d="M164.243 243.179L166.68 234.998C167.107 233.223 167.672 231.131 168.429 228.743C169.111 226.596 170.867 224.339 172.464 222.715C174.95 220.19 176.134 220.169 177.807 218.828C177.959 218.731 178.131 218.594 178.275 218.511C178.62 218.325 178.874 218.078 179.088 217.809C180.527 216.254 179.143 213.846 176.217 214.073C174.013 214.245 170.426 214.878 164.58 220.899C164.505 220.988 164.429 221.064 164.36 221.16C161.296 225.144 158.418 213.777 157.895 209.545C157.557 206.8 154.59 205.114 151.898 206.105L137.672 212.752C136.495 212.339 135.104 212.408 133.521 212.889C131.427 213.66 130.264 215.814 130.808 217.906L136.578 240.922L119.633 297.27H156.16L164.243 243.179Z" fill="#FFBE9D"/>
<path d="M192.301 191.428L181.009 213.536L175.363 211.967L146.981 235.039C144.565 237 141.026 236.691 138.994 234.33L128.191 221.786C128.191 221.786 149.977 212.408 154.004 204.646C158.032 196.884 153.378 195.123 153.378 195.123L163.63 183.48L192.301 191.428Z" fill="#704AB8"/>
<path d="M177.656 146.261C177.656 146.261 161.131 142.607 137.872 120.258C114.613 97.9089 103.686 68.2245 100.836 68.369C97.9922 68.5135 85.5573 62.7473 61.9199 114.141C38.2756 165.535 47.5915 177.473 52.2942 177.377C56.9969 177.281 88.9449 168.383 108.892 170.647C128.845 172.911 154.493 183.308 154.493 183.308L177.656 146.261Z" fill="#704AB8"/>
<path d="M212.771 174.274L207.132 184.987L204.605 189.783C201.142 196.368 193.127 199.086 186.366 195.976L150.94 183.639L171.569 136.573L206.96 155.42C213.755 159.039 216.351 167.461 212.771 174.274Z" fill="#E8505B"/>
<path d="M212.771 174.274L207.132 184.987L204.605 189.783C201.142 196.368 193.127 199.086 186.366 195.976L150.94 183.639L171.569 136.573L206.96 155.42C213.755 159.039 216.351 167.461 212.771 174.274Z" fill="#42297F"/>
<path d="M63.834 115.077C51.2545 142.917 46.0148 167.73 52.1358 170.489C58.2569 173.255 73.4184 152.922 85.9979 125.082C98.5775 97.2414 103.817 72.4357 97.6961 69.6695C91.5751 66.9034 76.4135 87.2366 63.834 115.077Z" fill="#E8505B"/>
<path d="M63.834 115.077C51.2545 142.917 46.0148 167.73 52.1358 170.489C58.2569 173.255 73.4184 152.922 85.9979 125.082C98.5775 97.2414 103.817 72.4357 97.6961 69.6695C91.5751 66.9034 76.4135 87.2366 63.834 115.077Z" fill="#42297F"/>
<path d="M215.807 189.756L206.209 186.742L212.151 175.45L219.353 179.923L215.807 189.756Z" fill="#704AB8"/>
<g opacity="0.6">
<path d="M212.151 175.45L206.209 186.742L208.178 187.361L213.012 175.987L212.151 175.45Z" fill="black"/>
</g>
<path d="M205.534 178.051C205.397 178.361 200.604 176.503 194.835 173.895C189.058 171.287 184.5 168.927 184.637 168.611C184.775 168.301 189.567 170.159 195.337 172.767C201.107 175.381 205.672 177.742 205.534 178.051Z" fill="#704AB8"/>
<path d="M208.488 171.329C208.337 171.638 203.999 169.808 198.801 167.248C193.602 164.688 189.505 162.37 189.657 162.06C189.808 161.757 194.139 163.581 199.344 166.14C204.543 168.707 208.633 171.026 208.488 171.329Z" fill="#704AB8"/>
<path d="M201.809 185.104C201.761 185.269 200.618 185.008 198.8 184.444C197.892 184.161 196.817 183.811 195.619 183.398C194.435 182.971 193.21 182.345 191.888 181.753C186.634 179.317 182.627 176.93 182.758 176.647C182.916 176.31 187.199 178.223 192.404 180.632C193.712 181.223 194.917 181.877 196.06 182.352C197.203 182.813 198.236 183.246 199.09 183.625C200.811 184.389 201.858 184.946 201.809 185.104Z" fill="#704AB8"/>
<path d="M89.4819 108.884C89.4819 108.884 75.1191 99.9801 67.256 119.377C59.3998 138.775 74.5132 141.961 74.5132 141.961C80.6962 132.376 85.7225 121.394 89.4819 108.884Z" fill="#2B1960"/>
<g opacity="0.5">
<path d="M104.761 85.7709C104.843 85.7847 104.643 87.0989 104.196 89.4729C103.741 91.8399 103.101 95.2804 102.178 99.5053C101.573 101.583 100.905 103.854 100.196 106.29C99.8375 107.508 99.4657 108.774 99.0801 110.068C98.8873 110.714 98.6945 111.375 98.4948 112.042C98.2814 112.703 97.9991 113.357 97.7512 114.024C96.7184 116.694 95.6305 119.494 94.5082 122.391C94.2259 123.114 93.9436 123.85 93.6545 124.586C93.3722 125.329 92.9797 126.024 92.6423 126.754C91.94 128.199 91.2308 129.671 90.5078 131.151C89.7849 132.637 89.0688 134.103 88.3665 135.548C88.0016 136.263 87.6917 137.006 87.2855 137.681C86.8793 138.362 86.4868 139.036 86.0875 139.711C84.5038 142.387 82.9684 144.975 81.5087 147.438C81.1369 148.05 80.7995 148.67 80.4071 149.248C80.0008 149.819 79.6084 150.383 79.2159 150.933C78.431 152.041 77.6667 153.115 76.93 154.154C75.4496 156.218 74.0725 158.152 72.8125 159.913C70.0653 163.237 67.7656 165.865 66.1819 167.682C64.5914 169.498 63.6757 170.468 63.6137 170.42C63.5448 170.365 64.3367 169.285 65.8101 167.379C67.3456 165.438 69.4938 162.707 72.1378 159.363C73.3496 157.58 74.6784 155.64 76.1037 153.555C76.8198 152.516 77.5565 151.436 78.3208 150.328C78.6995 149.777 79.092 149.213 79.4844 148.642C79.8631 148.064 80.1936 147.438 80.5516 146.832C81.9838 144.376 83.4848 141.796 85.034 139.126C85.4265 138.458 85.8189 137.784 86.2114 137.103C86.6176 136.428 86.9137 135.692 87.2786 134.977C87.974 133.538 88.6832 132.08 89.3993 130.607C90.1154 129.135 90.8246 127.676 91.5269 126.245C91.8643 125.522 92.2567 124.827 92.539 124.098C92.8282 123.368 93.1174 122.639 93.3997 121.923C94.5427 119.054 95.6374 116.281 96.6909 113.639C96.9456 112.978 97.2348 112.331 97.4552 111.678C97.6617 111.017 97.8614 110.363 98.0611 109.723C98.4604 108.437 98.8529 107.191 99.2316 105.987C99.989 103.579 100.698 101.336 101.345 99.2782C102.344 95.1428 103.156 91.7711 103.735 89.3697C104.313 87.0439 104.678 85.7572 104.761 85.7709Z" fill="black"/>
</g>
<g opacity="0.4">
<path d="M131.641 220.238C132.949 222.612 134.292 225.027 136.227 226.927C138.168 228.826 140.826 230.174 143.532 229.899C146.231 229.624 148.792 227.388 148.82 224.67C150.114 225.647 152.104 225.117 153.178 223.899C154.252 222.681 154.603 220.995 154.727 219.378C156.49 220.417 158.941 219.591 160.112 217.919C161.289 216.247 161.358 213.997 160.793 212.029C160.222 210.068 159.086 208.327 157.964 206.614C159.32 206.724 160.759 206.82 161.971 206.201C163.183 205.589 164.002 203.985 163.293 202.823C162.88 202.141 162.081 201.804 161.317 201.563C159.189 200.896 157.702 200.366 155.485 200.621C154.968 200.628 156.373 206.456 142.485 214.424C134.299 219.151 131.641 220.238 131.641 220.238Z" fill="black"/>
</g>
<path d="M162.914 228.661C162.907 228.722 161.978 228.55 160.484 228.585C158.996 228.619 156.91 228.943 154.851 229.933C152.793 230.917 151.237 232.335 150.273 233.477C149.302 234.619 148.861 235.452 148.806 235.418C148.785 235.404 148.875 235.191 149.075 234.812C149.274 234.441 149.605 233.918 150.073 233.312C150.996 232.108 152.572 230.622 154.693 229.603C156.807 228.592 158.955 228.296 160.477 228.323C161.241 228.337 161.854 228.406 162.274 228.482C162.694 228.571 162.921 228.64 162.914 228.661Z" fill="#EB996E"/>
<path d="M132.543 216.543C134.781 218.69 136.309 221.064 138.657 223.225C139.724 224.209 141.377 226.066 142.809 226.314C144.241 226.562 145.157 226.369 145.721 225.034C146.183 223.954 145.356 222.475 144.792 221.587C143.298 219.24 141.866 217.41 140.75 215.587C140.227 214.733 140.902 214.555 141.15 214.954C142.224 216.068 143.835 217.039 144.799 218.25C146.121 219.915 146.362 222.117 149.811 221.415C150.266 221.325 150.727 221.167 151.092 220.885C152.393 219.887 152.448 218.16 151.898 216.777C151.471 215.69 150.713 214.768 149.977 213.866C151.45 215.525 153.054 217.273 155.388 217.465C156.745 217.575 158.115 216.942 158.666 215.697C159.354 214.128 158.363 212.607 157.371 211.382C155.609 209.208 153.64 207.199 151.498 205.389C150.699 204.715 149.687 204.336 148.641 204.33C147.429 204.323 145.914 204.55 145.171 205.602C143.814 207.508 144.234 209.201 144.234 209.201C144.234 209.201 141.198 207.667 138.76 209.27C136.323 210.88 135.717 213.639 135.717 213.639L132.543 216.543Z" fill="#FFBE9D"/>
<path d="M148.689 203.662C147.753 202.719 147.532 200.992 148.262 199.561C148.778 198.55 149.426 197.566 150.087 197.345C152.972 196.375 165.579 198.55 165.469 201.35C165.352 204.219 164.436 205.486 157.592 204.495C156.387 204.323 154.5 204.082 154.5 204.082L152.848 206.559L148.689 203.662Z" fill="#FFBE9D"/>
<path d="M150.947 215.373C150.844 215.435 149.887 213.481 147.932 211.727C145.99 209.951 143.952 209.187 144 209.084C144.014 209.043 144.544 209.181 145.336 209.552C146.128 209.924 147.174 210.564 148.173 211.465C149.164 212.366 149.908 213.344 150.348 214.1C150.796 214.844 150.982 215.353 150.947 215.373Z" fill="#EB996E"/>
<path d="M153.068 206.779C153.006 206.841 152.173 206.16 151.037 205.465C150.472 205.121 149.949 204.825 149.557 204.653C149.164 204.467 148.909 204.419 148.909 204.364C148.909 204.316 149.205 204.281 149.646 204.412C150.087 204.536 150.644 204.804 151.23 205.162C152.393 205.871 153.151 206.703 153.068 206.779Z" fill="#EB996E"/>
<path d="M155.182 204.178C155.175 204.254 154.073 204.288 152.751 203.903C152.097 203.703 151.539 203.387 151.195 203.091C150.851 202.795 150.706 202.547 150.741 202.52C150.81 202.458 151.588 203.201 152.855 203.559C154.115 203.93 155.202 204.061 155.182 204.178Z" fill="#EB996E"/>
<path d="M142.933 218.835C142.892 218.862 142.444 218.298 141.783 217.341C141.108 216.412 140.248 215.022 138.843 213.997C137.438 212.972 135.786 212.731 134.677 212.896C133.548 213.055 132.956 213.522 132.922 213.454C132.908 213.44 133.039 213.309 133.321 213.137C133.603 212.958 134.051 212.766 134.636 212.649C135.793 212.408 137.562 212.628 139.056 213.708C140.544 214.795 141.377 216.24 142.003 217.204C142.602 218.195 142.974 218.807 142.933 218.835Z" fill="#EB996E"/>
<path d="M152.579 246.702C152.593 246.799 150.28 247.129 147.429 247.445C144.572 247.755 142.244 247.927 142.237 247.831C142.224 247.734 144.53 247.404 147.388 247.088C150.238 246.778 152.565 246.606 152.579 246.702Z" fill="#EB996E"/>
</svg>
