<svg width="474" height="306" viewBox="0 0 474 306" fill="none" xmlns="http://www.w3.org/2000/svg">
<g opacity="0.17">
<path d="M376.49 293.542C374.608 297.767 372.592 301.917 370.45 305.975H48.4581C44.535 302.084 40.8377 297.942 37.408 293.542C34.9989 290.461 32.7237 287.263 30.5906 283.923C9.46911 250.857 30.3899 212.856 49.395 184.392C64.0504 162.448 73.8458 137.206 85.7407 113.751C104.662 76.4603 127.532 35.4705 164.84 13.7022C210.83 -13.1428 272.095 3.39841 314.656 29.5337C402.103 83.2238 416.24 204.849 376.49 293.542Z" fill="#634D95"/>
</g>
<g opacity="0.29">
<path d="M292.43 153.931H187.04V72.611H273.333C280.786 80.0508 284.969 84.2258 292.43 91.6739V153.931Z" fill="#634D95"/>
<path d="M184.732 73.588H166.262" stroke="#634D95" stroke-width="5" stroke-miterlimit="10"/>
<path d="M187.617 70.1311V51.6861" stroke="#634D95" stroke-width="5" stroke-miterlimit="10"/>
<path d="M271.602 74.1641V93.1769H290.699" fill="#322166"/>
</g>
<path d="M72.5827 186.913L162.774 182.939L190.252 303.036L49.5874 303.796L35.2499 235.109C30.3982 210.878 48.1235 187.99 72.5827 186.913Z" fill="#122832"/>
<path d="M76.2632 169.044L80.5545 185.786" stroke="#122832" stroke-width="5.9175" stroke-miterlimit="10"/>
<path d="M114.123 169.044L118.414 185.786" stroke="#122832" stroke-width="5.9175" stroke-miterlimit="10"/>
<path d="M64.5105 171.783H138.816L122.906 125.775H55.468C49.7965 125.775 45.8232 131.353 47.6718 136.697L58.2702 167.341C59.1904 170.005 61.6915 171.783 64.5105 171.783Z" fill="#122832"/>
<path d="M220.09 246.557C232.169 238.558 253.717 224.83 253.717 224.83C253.717 224.83 291.803 200.165 291.092 198.052C290.381 195.94 277.532 201.467 277.532 201.467C278.536 199.513 290.281 192.541 289.812 191.272C289.344 190.011 274.437 198.152 273.776 197.534C273.116 196.916 288.658 188.533 287.746 186.863C286.843 185.185 271.3 193.568 270.431 193.167C269.561 192.767 285.078 183.54 283.112 182.104C281.146 180.676 259.656 196.916 257.724 196.549C255.792 196.182 262.534 186.588 262.183 182.337C261.831 178.087 244.231 204.106 244.231 204.106C240.191 207.621 208.371 221.257 208.371 221.257L220.09 246.557Z" fill="#FFBE9D"/>
<path d="M259.824 195.781L254.177 206.193C254.177 206.193 256.804 195.606 256.135 194.779L259.824 195.781Z" fill="#B6613B"/>
<path d="M189.709 222.801C189.709 222.801 149.749 137.974 124.822 170.272C98.0205 204.999 146.169 236.595 170.72 262.497C177.245 269.386 188.011 270.02 195.33 263.975L253.215 225.264L243.412 205.258L189.709 222.801Z" fill="#FFBE9D"/>
<path d="M146.671 239.426C157.353 227.36 172.017 211.354 183.636 200.231C170.177 177.336 142.003 148.011 124.822 170.272C105.532 195.272 125.064 218.635 146.671 239.426Z" fill="#634D95"/>
<path d="M63.7075 195.606C62.3356 174.205 99.0828 156.92 99.0828 156.92L112.76 148.236L113.579 150.516L136.391 171.8L140.171 161.955L139.954 158.273L143.693 162.189C146.445 162.64 157.679 177.937 160.624 185.06C165.107 195.898 166.471 210.109 166.897 218.635C177.061 301.691 177.839 304.28 177.839 304.28H76.1043C76.1043 304.272 72.2397 328.495 63.7075 195.606Z" fill="#634D95"/>
<path d="M84.67 164.961C85.7156 164.268 151.79 304.28 151.79 304.28H69.8975C69.8975 304.28 62.9713 242.95 63.9835 193.501C63.9835 193.501 65.1797 177.845 84.67 164.961Z" fill="#342663"/>
<path d="M158.976 103.255C160.908 99.3308 160.256 93.085 160.256 93.085C160.256 93.085 176.484 87.5657 172.602 78.3057C168.729 69.0456 149.666 74.2142 149.666 74.2142C149.666 74.2142 156.885 63.1672 142.698 72.1518C137.06 75.7255 136.114 76.6023 131.74 74.6567C127.365 72.7112 120.413 75.2078 118.389 78.8735C117.134 81.1446 117.904 83.157 116.198 82.9816C109.849 82.322 106.879 88.9351 111.237 102.955C111.237 102.955 109.037 110.102 113.312 121.249C114.859 125.274 120.121 126.627 120.121 126.627" fill="#0E162E"/>
<path d="M159.026 94.229C159.026 94.229 163.836 126.719 153.923 139.243C148.838 144.162 142.831 142.007 138.984 141.857C138.833 140.471 139.586 153.138 140.263 164.502C140.263 164.527 140.255 164.56 140.255 164.586C140.054 166.539 137.428 167.166 134.333 166.982C129.59 166.715 125.165 164.477 121.927 161.003L112.517 150.917L117.77 127.303C117.77 127.303 118.816 121.976 118.607 120.264C114.784 119.788 112.132 113.96 113.721 110.169C115.244 106.553 121.166 106.32 122.086 109.726C123.023 113.183 125.926 113.091 126.286 110.219C126.495 108.566 125.24 94.9972 135.044 93.394C140.924 93.8031 142.288 97.8779 145.282 98.0365C148.277 98.1952 151.046 91.8993 152.518 93.5944C157.169 98.9717 159.026 94.229 159.026 94.229Z" fill="#FDAE72"/>
<path d="M115.453 113.609C117.502 106.72 122.028 112.382 122.028 112.382L115.453 113.609Z" fill="#B6613B"/>
<path d="M140.171 141.899L134.257 141.381L138.967 153.438L140.171 141.899Z" fill="#B6613B"/>
<path d="M153.857 117.091C153.857 117.091 156.6 124.022 156.199 123.988C155.145 123.905 152.987 124.022 152.987 124.022L153.857 117.091Z" fill="#B6613B"/>
<path d="M158.116 116.392C158.142 115.36 157.758 114.513 157.259 114.5C156.76 114.488 156.335 115.315 156.31 116.348C156.284 117.38 156.668 118.228 157.167 118.24C157.665 118.252 158.09 117.425 158.116 116.392Z" fill="#0E162E"/>
<path d="M149.498 115.939C149.473 116.966 149.858 117.818 150.352 117.826C150.854 117.834 151.272 117.016 151.297 115.981C151.322 114.954 150.937 114.102 150.444 114.093C149.95 114.085 149.523 114.912 149.498 115.939Z" fill="#0E162E"/>
<path d="M144.822 109.359C143.626 109.476 143.543 105.268 149.582 105.819C151.289 105.977 152.736 107.647 151.933 108.925C151.406 109.76 149.139 108.925 144.822 109.359Z" fill="#0E162E"/>
<path d="M160.005 110.06C161.142 110.453 162.882 107.28 159.511 106.111C157.161 105.301 155.914 107.581 156.742 109.092C157.177 109.868 158.223 109.443 160.005 110.06Z" fill="#0E162E"/>
<path d="M156.642 126.568L148.545 125.925C148.545 125.925 149.398 129.808 152.945 130.092C155.806 130.326 156.642 126.568 156.642 126.568Z" fill="white"/>
<path d="M104.896 293.926C119.301 292.289 145.157 289.292 145.157 289.292C145.157 289.292 196.953 290.377 197.287 288.173C197.622 285.977 165.852 269.177 165.852 269.177C160.649 270.471 106.001 266.071 106.001 266.071L104.896 293.926Z" fill="#FFBE9D"/>
<path d="M99.8106 191.973C100.162 184.909 109.966 159.893 95.9543 158.523C81.7758 157.129 38.6628 199.012 48.5251 272.35C50.7669 288.991 60.4033 302.727 89.3042 297.45L143.927 289.409L142.271 268.492L89.3293 256.385C89.3377 256.385 98.7817 212.948 99.8106 191.973Z" fill="#FFBE9D"/>
<path d="M104.779 238.766C106.988 217.85 108.636 203.73 109.188 192.524C109.539 185.46 109.924 161.012 96.1467 158.131C85.5818 155.918 56.8064 183.181 47.4209 223.903C63.0299 229.59 88.9445 233.715 104.779 238.766Z" fill="#634D95"/>
<path opacity="0.33" d="M149.39 120.114H144.881C142.924 120.114 141.343 118.527 141.343 116.582V112.365C141.343 110.411 142.932 108.833 144.881 108.833H149.39C151.347 108.833 152.928 110.42 152.928 112.365V116.582C152.928 118.536 151.339 120.114 149.39 120.114Z" fill="white"/>
<path opacity="0.33" d="M143.467 119.897C144.078 118.936 144.663 117.968 145.224 116.974C146.73 114.294 148.11 111.497 149.607 108.833H144.454C142.74 108.833 141.343 110.637 141.343 112.858V116.089C141.334 117.868 142.229 119.362 143.467 119.897Z" fill="white"/>
<path d="M149.39 120.114H144.881C142.924 120.114 141.343 118.527 141.343 116.582V112.365C141.343 110.411 142.932 108.833 144.881 108.833H149.39C151.347 108.833 152.928 110.42 152.928 112.365V116.582C152.928 118.536 151.339 120.114 149.39 120.114Z" stroke="#0E162E" stroke-width="2.1559" stroke-miterlimit="10"/>
<path opacity="0.33" d="M160.582 119.955H158.24C156.734 119.955 155.521 118.736 155.521 117.242V111.781C155.521 110.278 156.743 109.067 158.24 109.067H160.582C162.088 109.067 163.301 110.286 163.301 111.781V117.242C163.301 118.736 162.088 119.955 160.582 119.955Z" fill="white"/>
<path opacity="0.33" d="M156.458 119.312C158.223 115.964 159.988 112.616 161.745 109.267C161.485 109.142 161.201 109.058 160.908 109.058H157.905C156.584 109.058 155.513 110.445 155.513 112.156V116.866C155.513 117.859 155.889 118.744 156.458 119.312Z" fill="white"/>
<path d="M160.582 119.955H158.24C156.734 119.955 155.521 118.736 155.521 117.242V111.781C155.521 110.278 156.743 109.067 158.24 109.067H160.582C162.088 109.067 163.301 110.286 163.301 111.781V117.242C163.301 118.736 162.088 119.955 160.582 119.955Z" stroke="#0E162E" stroke-width="1.6574" stroke-miterlimit="10"/>
<path d="M152.928 115.488H155.295" stroke="#0E162E" stroke-width="2.1559" stroke-miterlimit="10"/>
<path d="M124.111 111.538L141.225 111.772" stroke="#0E162E" stroke-width="2.1559" stroke-miterlimit="10"/>
<path d="M224.658 286.336H150.996V294.961H224.658V286.336Z" fill="#634D95"/>
<path d="M203.519 286.336C199.814 289.133 196.175 292.014 192.586 294.961H224.658V286.336H203.519Z" fill="#3A2B6B"/>
<path d="M316.731 294.961H200.642L228.664 215.036H344.753L316.731 294.961Z" fill="#634D95"/>
<path d="M202.725 285.743H319.399" stroke="white" stroke-width="1.3108" stroke-miterlimit="10"/>
<path d="M279.523 257.245C279.523 253.228 276.261 249.972 272.237 249.972C268.214 249.972 264.951 253.228 264.951 257.245C264.951 261.261 268.214 264.518 272.237 264.518C276.261 264.518 279.523 261.261 279.523 257.245Z" fill="white"/>
<path d="M474 293.542V305.975H0V293.542H56.6725C56.6725 293.542 56.6809 293.542 56.6893 293.542H474Z" fill="#000664"/>
<path d="M52.8667 293.993C43.8074 293.993 36.463 286.662 36.463 277.619V254.69H69.2787V277.619C69.2704 286.662 61.9259 293.993 52.8667 293.993Z" fill="#634D95"/>
<path d="M49.1274 284.758C42.6445 280.057 38.4704 273.193 36.4545 265.645V277.619C36.4545 286.662 43.7989 293.993 52.8581 293.993C57.1577 293.993 61.0641 292.331 63.9835 289.626C59.0147 289.734 53.8619 288.181 49.1274 284.758Z" fill="#3C2E68"/>
<path d="M73.1816 283.484C79.8495 281.933 83.995 275.279 82.4409 268.624C80.8867 261.968 74.2214 257.83 67.5535 259.381C60.8856 260.932 56.7401 267.586 58.2943 274.242C59.8484 280.898 66.5137 285.036 73.1816 283.484Z" stroke="#634D95" stroke-width="5" stroke-miterlimit="10"/>
<g opacity="0.61">
<path d="M51.3859 250.356C49.1023 247.409 47.1198 244.227 45.4635 240.887C44.3677 238.666 43.3974 236.311 43.3221 233.832C43.2468 231.36 44.2172 228.73 46.2833 227.369C49.3616 225.348 53.8536 226.96 55.8277 230.057C57.8102 233.155 57.7182 237.18 56.706 240.712C55.6939 244.244 53.8536 247.475 52.4566 250.874L51.3859 250.356Z" fill="white"/>
<path d="M57.4505 251.066C58.0611 249.855 58.7387 248.569 59.9182 247.893C61.0976 247.216 62.9295 247.484 63.398 248.761C63.8079 249.863 62.9714 251.116 61.8923 251.592C60.8132 252.068 59.5836 251.976 58.4125 251.884L57.4505 251.066Z" fill="white"/>
</g>
<path d="M310.766 171.992L290.515 137.573C290.381 137.381 290.08 137.482 290.08 137.715V167.065C290.08 167.149 290.13 167.224 290.205 167.266C290.992 167.683 291.376 168.752 290.64 169.746C290.624 169.771 290.598 169.788 290.582 169.804C289.302 170.739 287.913 169.854 287.913 168.635C287.913 168.042 288.248 167.525 288.733 167.266C288.817 167.224 288.867 167.141 288.867 167.049V137.707C288.867 137.473 288.566 137.373 288.432 137.565L268.105 171.274C268.047 171.357 268.047 171.466 268.097 171.549L278.143 192.783H300.804L310.775 172.259C310.833 172.184 310.825 172.075 310.766 171.992Z" fill="#634D95"/>
<path d="M299.683 203.546H279.264C278.545 203.546 277.959 202.962 277.959 202.244V193.919C277.959 193.777 278.076 193.66 278.218 193.66H300.728C300.871 193.66 300.988 193.777 300.988 193.919V202.244C300.988 202.962 300.402 203.546 299.683 203.546Z" fill="#634D95"/>
<path d="M258.343 99.3058C258.343 116.515 272.321 130.468 289.561 130.468" stroke="#634D95" stroke-width="5" stroke-miterlimit="10"/>
<path d="M320.788 162.056C320.788 144.846 306.81 130.894 289.57 130.894" stroke="#634D95" stroke-width="5" stroke-miterlimit="10"/>
<path d="M260.627 97.4354H256.051V102.003H260.627V97.4354Z" fill="#122832"/>
<path d="M322.653 158.941H318.077V163.508H322.653V158.941Z" fill="#122832"/>
<path d="M248.749 130.676H331.168" stroke="#634D95" stroke-width="5" stroke-miterlimit="10"/>
<path d="M291.619 128.814H287.043V133.382H291.619V128.814Z" fill="#122832"/>
<path d="M250.932 128.814H246.356V133.382H250.932V128.814Z" fill="#122832"/>
<path d="M332.524 128.814H327.948V133.382H332.524V128.814Z" fill="#122832"/>
<path opacity="0.22" d="M54.414 94.1705L91.2449 94.5546C92.5498 94.5713 93.7376 95.3312 94.2897 96.5169L97.6524 103.74C97.8365 104.132 98.422 104.015 98.4387 103.581L98.8068 94.6298L99.1749 58.842C99.2083 55.3433 96.3977 52.471 92.8928 52.4376L54.849 52.0451C51.3441 52.0117 48.4665 54.8173 48.4331 58.3159L48.1319 87.7661C48.0901 91.2648 50.9007 94.1371 54.414 94.1705Z" fill="#A0A0A0"/>
<path d="M72.8336 85.9041L66.0078 85.8373C65.7485 85.8373 65.5477 85.6285 65.5477 85.3697L65.6732 73.4376C65.6732 73.1788 65.8823 72.9784 66.1416 72.9784L72.9674 73.0452C73.2268 73.0452 73.4275 73.2539 73.4275 73.5128L73.302 85.4448C73.302 85.7037 73.0929 85.9124 72.8336 85.9041Z" fill="#9483C6"/>
<path d="M64.2428 85.8206L57.2079 85.7454C57.0071 85.7454 56.8482 85.5784 56.8482 85.378L56.9235 78.3557C56.9235 78.1553 57.0908 77.9967 57.2915 77.9967L64.3265 78.0719C64.5272 78.0719 64.6862 78.2389 64.6862 78.4392L64.6109 85.4615C64.6025 85.6619 64.4352 85.8206 64.2428 85.8206Z" fill="#B1A6DD"/>
<path d="M81.4495 85.9959L74.6237 85.9291C74.3644 85.9291 74.1636 85.7204 74.1636 85.4615L74.356 66.599C74.356 66.3402 74.5651 66.1398 74.8245 66.1398L81.6503 66.2066C81.9096 66.2066 82.1103 66.4153 82.1103 66.6742L81.9179 85.5367C81.9179 85.7955 81.7088 85.9959 81.4495 85.9959Z" fill="#6D58AF"/>
<path d="M89.0449 86.0711L83.524 86.0126C83.1141 86.0043 82.7879 85.6703 82.7879 85.2611L83.0388 61.2133C83.0472 60.8042 83.3818 60.4785 83.7917 60.4785L89.3126 60.537C89.7224 60.5453 90.0487 60.8793 90.0487 61.2885L89.7977 85.3363C89.7894 85.7538 89.4548 86.0794 89.0449 86.0711Z" fill="#634D95"/>
<path d="M391.697 218.05C401.879 218.05 410.134 209.811 410.134 199.647C410.134 189.483 401.879 181.244 391.697 181.244C381.515 181.244 373.261 189.483 373.261 199.647C373.261 209.811 381.515 218.05 391.697 218.05Z" fill="#452986"/>
<path d="M382.703 207.039C386.381 197.561 381.665 186.901 372.171 183.23C362.676 179.559 351.997 184.266 348.319 193.744C344.642 203.222 349.357 213.881 358.852 217.552C368.347 221.224 379.026 216.516 382.703 207.039Z" fill="#886FC2"/>
<path d="M382.056 240.949C392.105 239.31 398.92 229.849 397.277 219.819C395.635 209.788 386.157 202.985 376.109 204.625C366.06 206.264 359.245 215.725 360.888 225.755C362.53 235.786 372.008 242.589 382.056 240.949Z" fill="#634D95"/>
<path d="M435.145 247.066V249.245H432.953" stroke="#A0A0A0" stroke-width="0.7707" stroke-miterlimit="10"/>
<path d="M428.57 249.245H325.464" stroke="#A0A0A0" stroke-width="0.7707" stroke-miterlimit="10" stroke-dasharray="5.24 5.24"/>
<path d="M323.272 249.245H321.089V247.066" stroke="#A0A0A0" stroke-width="0.7707" stroke-miterlimit="10"/>
<path d="M321.089 242.891V178.188" stroke="#A0A0A0" stroke-width="0.7707" stroke-miterlimit="10" stroke-dasharray="5 5"/>
<path d="M321.089 176.1V173.921H323.272" stroke="#A0A0A0" stroke-width="0.7707" stroke-miterlimit="10"/>
<path d="M327.663 173.921H430.762" stroke="#A0A0A0" stroke-width="0.7707" stroke-miterlimit="10" stroke-dasharray="5.24 5.24"/>
<path d="M432.953 173.921H435.145V176.1" stroke="#A0A0A0" stroke-width="0.7707" stroke-miterlimit="10"/>
<path d="M435.145 180.275V244.979" stroke="#A0A0A0" stroke-width="0.7707" stroke-miterlimit="10" stroke-dasharray="5 5"/>
<path d="M324.995 172.117H319.658V177.444H324.995V172.117Z" fill="white" stroke="#222221" stroke-width="1.7438" stroke-miterlimit="10"/>
<path d="M437.537 172.117H432.2V177.444H437.537V172.117Z" fill="white" stroke="#222221" stroke-width="1.7438" stroke-miterlimit="10"/>
<path d="M324.995 244.995H319.658V250.323H324.995V244.995Z" fill="white" stroke="#222221" stroke-width="1.7438" stroke-miterlimit="10"/>
<path d="M437.537 244.995H432.2V250.323H437.537V244.995Z" fill="white" stroke="#222221" stroke-width="1.7438" stroke-miterlimit="10"/>
<path d="M406.319 254.239L402.764 264.534C402.421 265.528 401.007 265.503 400.698 264.501L393.638 241.797C393.379 240.954 394.182 240.169 395.018 240.445L417.788 248.085C418.783 248.419 418.775 249.83 417.771 250.147L407.013 253.546C406.696 253.663 406.436 253.913 406.319 254.239Z" fill="#634D95"/>
<path d="M377.042 113.417C377.05 109.668 374.005 106.62 370.241 106.612C366.485 106.612 363.432 109.643 363.424 113.4C363.415 117.15 366.46 120.197 370.224 120.206C373.989 120.206 377.042 117.166 377.042 113.417Z" fill="#634D95"/>
<path d="M398.942 97.4263L370.259 97.3943L370.24 113.894L398.924 113.926L398.942 97.4263Z" stroke="#A0A0A0" stroke-width="0.7707" stroke-miterlimit="10" stroke-dasharray="5.23 5.23"/>
<path d="M40.7875 186.805C40.7875 183.991 38.5038 181.703 35.6848 181.703C32.8658 181.703 30.5739 183.982 30.5739 186.796C30.5739 189.61 32.8575 191.898 35.6765 191.898C38.4955 191.898 40.7791 189.619 40.7875 186.805Z" fill="#FFB701"/>
<path d="M37.187 148.222L17.4959 148.2L17.4528 186.777L37.1439 186.799L37.187 148.222Z" stroke="#A0A0A0" stroke-width="0.7707" stroke-miterlimit="10" stroke-dasharray="5.23 5.23"/>
</svg>
