<svg width="337" height="311" viewBox="0 0 337 311" fill="none" xmlns="http://www.w3.org/2000/svg">
<g opacity="0.22">
<path d="M309.831 243.338C309.579 243.671 309.328 244.004 309.069 244.338C307.071 246.981 304.985 249.536 302.817 252.017C301.663 253.357 300.479 254.668 299.273 255.964C296.676 258.763 293.982 261.451 291.208 264.036C285.807 269.086 280.095 273.759 274.138 278.091C272.851 279.039 271.549 279.964 270.232 280.875C266.155 283.704 261.975 286.392 257.705 288.947C257.372 289.147 257.047 289.34 256.714 289.539C255.885 290.036 255.049 290.524 254.206 291.006C248.782 294.138 243.233 297.071 237.602 299.825C237.462 299.899 237.321 299.966 237.181 300.033C235.435 300.892 233.674 301.729 231.913 302.551C231.905 302.551 231.89 302.558 231.876 302.565C230.751 303.091 229.619 303.61 228.487 304.113C228.302 304.209 228.117 304.291 227.925 304.372C227.569 304.535 227.214 304.698 226.852 304.854C226.497 305.017 226.141 305.179 225.779 305.328C225.557 305.439 225.328 305.535 225.106 305.631C225.098 305.639 225.098 305.639 225.098 305.639C224.388 305.95 223.67 306.261 222.96 306.572C221.258 307.312 219.549 308.038 217.84 308.749C216.441 309.334 215.028 309.911 213.622 310.482C213.504 310.533 213.378 310.578 213.26 310.63H42.7141C42.174 310.052 41.6413 309.467 41.1233 308.867C38.186 305.52 35.4853 301.921 33.0585 298.078C31.1644 295.093 29.433 291.968 27.8792 288.695C27.2281 287.333 26.6066 285.948 26.0147 284.533C20.3693 271.011 19.7848 259.348 21.9897 248.07C22.2264 246.818 22.5076 245.574 22.8109 244.338C23.0921 243.205 23.4029 242.072 23.7284 240.939C24.8382 237.147 26.2145 233.356 27.7682 229.52C27.8126 229.394 27.8644 229.268 27.9162 229.142C28.9743 226.528 30.1137 223.899 31.3049 221.218C31.8155 220.078 32.3334 218.93 32.8587 217.775C32.9253 217.627 32.9919 217.479 33.0585 217.33C33.2805 216.842 33.495 216.36 33.717 215.872C35.1154 212.813 36.5434 209.688 37.9788 206.474C38.3561 205.623 38.7409 204.764 39.1182 203.897C39.7027 202.557 40.2873 201.202 40.8718 199.824C41.4563 198.44 42.0408 197.04 42.6179 195.618C43.4318 193.589 44.2383 191.523 45.0152 189.405C45.2076 188.887 45.3999 188.361 45.5923 187.835C46.6356 184.94 47.6344 181.963 48.5593 178.875C50.7864 171.566 52.6361 163.687 53.8643 155.074C55.1148 146.314 56.0322 138.472 56.8165 131.325C57.6452 123.698 58.3333 116.855 59.1028 110.531V110.524C60.7306 97.187 62.7431 86.1383 67.397 74.8156C71.1705 65.6257 76.6753 56.2506 85.1249 45.313C88.0623 41.5066 91.3622 37.5078 95.0691 33.2646C134.557 -11.9892 215.598 -10.9154 270.395 35.5528C285.947 48.7416 297.837 62.2415 306.894 74.8156C307.715 75.9561 308.514 77.0817 309.284 78.1999C330.097 108.369 334.581 132.399 334.581 132.399C334.581 132.399 348.439 191.686 309.831 243.338Z" fill="#634D95"/>
</g>
<path d="M17.3209 244.338H315.536" stroke="#263238" stroke-miterlimit="10"/>
<path d="M17.3209 187.835H315.536" stroke="#263238" stroke-miterlimit="10"/>
<path d="M17.3209 131.325H315.536" stroke="#263238" stroke-miterlimit="10"/>
<path d="M17.3209 74.8157H315.536" stroke="#263238" stroke-miterlimit="10"/>
<path d="M85.1249 42.7211V244.478" stroke="#263238" stroke-miterlimit="10"/>
<path d="M264.372 42.7211V244.478" stroke="#263238" stroke-miterlimit="10"/>
<path d="M91.7766 117.515L89.5643 119.855" stroke="#263238" stroke-miterlimit="10"/>
<path d="M129.578 77.6074L94.455 114.693" stroke="#263238" stroke-miterlimit="10"/>
<path d="M131.768 83.6427L112.035 103.941" stroke="#263238" stroke-miterlimit="10"/>
<path d="M272.037 117.515L269.825 119.855" stroke="#263238" stroke-miterlimit="10"/>
<path d="M309.838 77.6074L274.716 114.693" stroke="#263238" stroke-miterlimit="10"/>
<path d="M312.029 83.6427L292.296 103.941" stroke="#263238" stroke-miterlimit="10"/>
<path d="M12.8445 231.63L10.6323 233.97" stroke="#263238" stroke-miterlimit="10"/>
<path d="M50.6458 191.723L15.5229 228.801" stroke="#263238" stroke-miterlimit="10"/>
<path d="M52.8359 197.758L33.1029 218.056" stroke="#263238" stroke-miterlimit="10"/>
<path d="M41.9002 69.2321L39.6805 71.5721" stroke="#263238" stroke-miterlimit="10"/>
<path d="M79.694 29.3323L44.5712 66.4106" stroke="#263238" stroke-miterlimit="10"/>
<path d="M81.8916 35.3677L62.1586 55.6656" stroke="#263238" stroke-miterlimit="10"/>
<path d="M206.157 69.2321L203.937 71.5721" stroke="#263238" stroke-miterlimit="10"/>
<path d="M243.951 29.3323L208.828 66.4106" stroke="#263238" stroke-miterlimit="10"/>
<path d="M246.148 35.3677L226.415 55.6656" stroke="#263238" stroke-miterlimit="10"/>
<path d="M155.363 176.216L153.151 178.556" stroke="#263238" stroke-miterlimit="10"/>
<path d="M193.164 136.317L158.042 173.395" stroke="#263238" stroke-miterlimit="10"/>
<path d="M195.354 142.344L175.621 162.65" stroke="#263238" stroke-miterlimit="10"/>
<path d="M190.012 233.415H121.254V113.804C121.254 106.244 127.38 100.105 134.942 100.105H176.332C183.886 100.105 190.02 106.236 190.02 113.804V233.415H190.012Z" fill="#263238" stroke="#263238" stroke-miterlimit="10" stroke-linecap="round" stroke-linejoin="round"/>
<path d="M198.129 303.402L161.815 292.709V280.801H159.766V236.873H153.306V280.801H151.257V292.383L114.943 303.395V305.135H115.424C115.157 305.631 115.002 306.209 115.002 306.816C115.002 308.771 116.585 310.356 118.539 310.356C120.492 310.356 122.075 308.771 122.075 306.816C122.075 305.565 121.432 304.469 120.455 303.839L120.521 303.772L153.795 299.766V304.565C153.291 305.179 152.988 305.964 152.988 306.816C152.988 308.771 154.571 310.356 156.525 310.356C158.478 310.356 160.061 308.771 160.061 306.816C160.061 305.964 159.758 305.179 159.255 304.565V299.766L192.476 303.765C191.433 304.38 190.73 305.513 190.73 306.816C190.73 308.771 192.314 310.356 194.267 310.356C196.22 310.356 197.804 308.771 197.804 306.816C197.804 306.209 197.648 305.639 197.382 305.135H198.114V303.402H198.129Z" fill="#263238" stroke="#263238" stroke-miterlimit="10" stroke-linecap="round" stroke-linejoin="round"/>
<path d="M187.882 249.551H124.658C121.683 249.551 119.271 247.137 119.271 244.16V238.739C119.271 235.762 121.683 233.348 124.658 233.348H187.882C190.856 233.348 193.268 235.762 193.268 238.739V244.16C193.268 247.137 190.856 249.551 187.882 249.551Z" fill="white" stroke="#263238" stroke-miterlimit="10" stroke-linecap="round" stroke-linejoin="round"/>
<path d="M182.591 207.052H131.191V235.659H182.591V207.052Z" fill="white" stroke="#263238" stroke-miterlimit="10" stroke-linecap="round" stroke-linejoin="round"/>
<path d="M152.182 124.72L144.309 127.808C144.309 127.808 147.165 145.514 150.931 154.652C154.697 163.79 168.622 178.297 168.622 178.297C168.622 178.297 175.814 167.789 178.322 159.451C180.83 151.112 178.211 127.689 178.211 127.689C178.211 127.689 175.925 126.201 172.388 125.631C168.851 125.061 152.182 124.72 152.182 124.72Z" fill="white" stroke="#263238" stroke-miterlimit="10" stroke-linecap="round" stroke-linejoin="round"/>
<path d="M159.832 137.168L163.472 144.174L157.435 157.503L167.135 172.129L173.069 158.762L165.877 143.914L169.651 137.398L164.279 132.029L159.832 137.168Z" fill="#263238" stroke="#263238" stroke-miterlimit="10" stroke-linecap="round" stroke-linejoin="round"/>
<path d="M153.328 123.92L150.82 124.609L148.423 128.837L154.357 145.632L164.057 135.576L174.674 146.432C174.674 146.432 175.932 129.526 175.932 127.586C175.932 125.646 174.223 124.957 172.965 124.616C171.7 124.261 153.328 123.92 153.328 123.92Z" fill="white" stroke="#263238" stroke-miterlimit="10" stroke-linecap="round" stroke-linejoin="round"/>
<path d="M150.813 124.601C150.813 124.601 151.9 139.797 158.234 153.164C161.497 160.051 167.594 169.729 167.594 169.389C167.594 169.048 173.646 151.112 173.868 145.055C174.097 138.997 175.237 126.09 175.237 126.09C175.237 126.09 186.942 130.755 189.731 132.37C194.067 134.88 199.55 135.458 199.431 138.427C199.387 139.501 200.127 146.588 201.066 155.185C201.214 156.548 208.562 168.307 208.717 169.729C210.293 184.073 204.944 190.109 204.685 190.175C204.226 190.286 194.755 190.175 194.755 190.175C194.755 190.175 199.89 213.591 200.689 214.85C201.488 216.109 201.488 216.109 201.488 216.109H160.676L158.974 210.969L157.457 216.109H115.542L121.136 190.634H114.972C114.972 190.634 113.374 187.435 115.542 175.439C117.71 163.442 125.013 133.399 125.013 132.37C125.02 131.348 148.416 127.119 150.813 124.601Z" fill="#634D95" stroke="#263238" stroke-miterlimit="10"/>
<path d="M159.529 183.962L158.974 210.969" stroke="#263238" stroke-miterlimit="10" stroke-linecap="round" stroke-linejoin="round"/>
<path d="M175.237 173.728C181.97 167.448 184.937 154.882 184.937 154.882L178.884 152.253L184.707 149.394L179.676 127.941C176.828 125.483 175.155 125.549 175.229 126.09C175.229 126.09 174.09 138.997 173.861 145.055C173.631 151.112 167.586 169.048 167.586 169.389C167.586 169.729 160.875 160.31 158.227 153.164C152.056 136.524 150.872 126.475 150.694 124.587C150.68 124.446 150.532 124.379 150.413 124.453C149.562 124.957 147.483 125.372 145.959 126.675C145.545 129.637 145.012 133.932 144.642 138.657C143.954 147.454 143.954 151.335 143.954 151.335L151.826 153.275L146.233 156.474C146.233 156.474 152.396 162.753 157.531 167.441C162.666 172.121 166.092 173.839 166.092 173.839L159.514 183.962C159.529 183.962 168.504 180.008 175.237 173.728Z" fill="#634D95" stroke="#263238" stroke-miterlimit="10"/>
<path d="M152.182 116.382V126.208C152.182 126.208 154.69 134.436 163.598 135.006C172.958 135.606 174.556 126.549 174.556 126.549V117.87C174.556 117.863 157.205 122.091 152.182 116.382Z" fill="white" stroke="#263238" stroke-miterlimit="10" stroke-linecap="round" stroke-linejoin="round"/>
<path d="M176.724 103.126C176.724 103.126 177.064 98.6681 179.809 98.6681C182.547 98.6681 182.547 103.807 181.866 105.866C181.178 107.925 177.641 109.406 176.502 107.806" fill="white"/>
<path d="M176.724 103.126C176.724 103.126 177.064 98.6681 179.809 98.6681C182.547 98.6681 182.547 103.807 181.866 105.866C181.178 107.925 177.641 109.406 176.502 107.806" stroke="#263238" stroke-miterlimit="10" stroke-linecap="round" stroke-linejoin="round"/>
<path d="M165.359 80.888C165.359 80.888 155.274 80.5177 151.789 83.0873C148.305 85.657 149.037 92.6328 149.037 94.8321C149.037 97.0315 150.687 115.937 151.789 118.685C152.892 121.439 160.957 125.66 167.927 124.009C174.896 122.358 177.094 117.403 177.464 114.834C177.834 112.264 177.834 92.6328 177.464 87.4935C177.094 82.3542 170.309 81.436 165.359 80.888Z" fill="white" stroke="#263238" stroke-miterlimit="10" stroke-linecap="round" stroke-linejoin="round"/>
<path d="M177.56 89.53C177.53 88.7228 177.493 88.0267 177.456 87.4935C177.086 82.3542 170.309 81.436 165.359 80.888C165.359 80.888 155.274 80.5177 151.789 83.0873C148.305 85.657 149.037 92.6328 149.037 94.8321C149.037 95.7134 149.303 99.2679 149.688 103.393C150.332 103.652 151.183 103.704 151.604 102.541C152.337 100.519 151.235 98.6903 152.152 96.1207C153.069 93.551 153.432 91.8996 155.637 90.6185C157.834 89.3374 160.039 88.782 160.039 88.782C160.039 88.782 155.452 94.1064 165.537 93.9213C172.092 93.7954 175.784 92.4328 177.56 89.53Z" fill="#263238" stroke="#263238" stroke-miterlimit="10" stroke-linecap="round" stroke-linejoin="round"/>
<path d="M167.364 98.8976C167.364 98.8976 169.073 107.006 167.475 107.806C165.877 108.606 164.849 108.836 163.48 106.096" stroke="#263238" stroke-miterlimit="10" stroke-linecap="round" stroke-linejoin="round"/>
<path d="M158.463 107.695C158.463 107.695 158.123 111.464 165.766 110.894" stroke="#263238" stroke-miterlimit="10" stroke-linecap="round" stroke-linejoin="round"/>
<path d="M160.861 99.0753C160.861 99.8677 160.528 100.505 160.121 100.505C159.714 100.505 159.381 99.8677 159.381 99.0753C159.381 98.2904 159.714 97.6461 160.121 97.6461C160.528 97.6461 160.861 98.283 160.861 99.0753Z" fill="#263238"/>
<path d="M172.329 99.0753C172.329 99.8677 171.996 100.505 171.589 100.505C171.182 100.505 170.849 99.8677 170.849 99.0753C170.849 98.2904 171.182 97.6461 171.589 97.6461C171.996 97.6461 172.329 98.283 172.329 99.0753Z" fill="#263238"/>
<path d="M162.607 102.445H156.406C155.741 102.445 155.178 101.971 155.052 101.319L154.239 96.9575H164.508L163.976 101.23C163.887 101.926 163.302 102.445 162.607 102.445Z" stroke="#263238" stroke-width="2" stroke-miterlimit="10" stroke-linecap="round" stroke-linejoin="round"/>
<path d="M175.851 102.445H169.651C168.985 102.445 168.422 101.971 168.297 101.319L167.483 96.9575H177.752L177.22 101.23C177.131 101.926 176.546 102.445 175.851 102.445Z" stroke="#263238" stroke-width="2" stroke-miterlimit="10" stroke-linecap="round" stroke-linejoin="round"/>
<path d="M164.508 96.9575H167.475" stroke="#263238" stroke-width="2" stroke-miterlimit="10" stroke-linecap="round" stroke-linejoin="round"/>
<path d="M154.239 96.9575L149.333 99.1272" stroke="#263238" stroke-width="2" stroke-miterlimit="10" stroke-linecap="round" stroke-linejoin="round"/>
<path d="M150.472 103.126C150.472 103.126 150.132 98.6681 147.387 98.6681C144.649 98.6681 144.649 103.807 145.33 105.866C146.018 107.925 149.555 109.406 150.694 107.806" fill="white"/>
<path d="M150.472 103.126C150.472 103.126 150.132 98.6681 147.387 98.6681C144.649 98.6681 144.649 103.807 145.33 105.866C146.018 107.925 149.555 109.406 150.694 107.806" stroke="#263238" stroke-miterlimit="10" stroke-linecap="round" stroke-linejoin="round"/>
<path d="M180.031 160.132C180.031 160.132 177.604 157.733 174.549 157.074C172.758 156.689 173.394 156.911 172.484 156.911C171.574 156.911 167.017 155.267 165.877 154.926C164.738 154.585 164.05 155.726 164.39 156.985C164.73 158.244 167.172 159.31 168.082 159.54C168.992 159.769 168.607 159.791 168.607 159.791C168.607 159.791 170.094 163.45 169.406 164.82C168.718 166.19 166.321 169.278 167.12 171.447C167.919 173.617 169.177 174.757 171.685 174.757C174.193 174.757 175.681 174.869 176.25 174.757C176.82 174.646 186.979 179.667 185.839 179.786C184.7 179.897 185.381 169.618 185.381 169.618L180.031 160.132Z" fill="white" stroke="#263238" stroke-miterlimit="10" stroke-linecap="round" stroke-linejoin="round"/>
<path d="M156.976 166.19C156.976 166.19 162.34 163.561 164.967 160.932C167.594 158.303 168.504 157.622 169.421 157.392C170.331 157.163 173.986 156.133 174.896 155.333C175.806 154.534 176.495 156.022 175.126 157.163C173.757 158.303 172.499 158.992 171.929 159.332C171.36 159.673 170.79 161.272 170.79 161.272C170.79 161.272 176.384 158.873 178.322 159.443C180.261 160.014 182.184 161.746 182.066 162.776C181.955 163.805 181.585 163.301 180.335 163.19C179.077 163.079 177.294 162.531 175.925 163.102C174.556 163.672 172.958 165.042 172.958 165.612C172.958 166.182 174.556 166.523 175.814 166.412C177.072 166.301 177.982 165.953 179.24 166.182C180.497 166.412 181.526 167.093 181.637 167.782C181.748 168.47 181.178 168.47 179.809 168.581C178.44 168.693 176.043 168.811 175.244 169.381C174.445 169.951 170.339 171.892 171.019 172.58C171.7 173.269 172.114 173.269 173.483 173.269C174.852 173.269 176.317 172.217 177.116 172.277C178.189 172.358 178.766 172.44 178.766 172.44C178.766 172.44 180.668 172.521 180.497 173.269C180.231 174.469 179.587 174.506 176.835 174.639C174.667 174.743 174.097 174.528 172.159 174.98C170.22 175.439 170.331 175.668 167.024 175.89C163.717 176.12 157.775 174.521 157.775 174.521L156.976 166.19Z" fill="white" stroke="#263238" stroke-miterlimit="10" stroke-linecap="round" stroke-linejoin="round"/>
<path d="M178.514 158.725C178.514 158.725 176.199 156.578 174.882 156.496C173.557 156.415 169.517 159.969 168.933 161.287C168.356 162.613 169.673 162.117 170.753 161.783C171.826 161.45 174.719 160.132 175.71 159.717C176.702 159.303 177.131 159.258 178.322 159.443" fill="white"/>
<path d="M178.514 158.725C178.514 158.725 176.199 156.578 174.882 156.496C173.557 156.415 169.517 159.969 168.933 161.287C168.356 162.613 169.673 162.117 170.753 161.783C171.826 161.45 174.719 160.132 175.71 159.717C176.702 159.303 177.131 159.258 178.322 159.443" stroke="#263238" stroke-miterlimit="10" stroke-linecap="round" stroke-linejoin="round"/>
<path d="M181.489 163.442C181.489 163.442 178.189 161.791 176.125 162.702C174.06 163.613 171.5 165.427 171.5 166.256C171.5 167.086 171.915 166.915 173.727 166.834C175.548 166.752 178.796 166.212 179.232 166.197C179.669 166.175 181.156 166.589 181.156 166.589" fill="white"/>
<path d="M181.489 163.442C181.489 163.442 178.189 161.791 176.125 162.702C174.06 163.613 171.5 165.427 171.5 166.256C171.5 167.086 171.915 166.915 173.727 166.834C175.548 166.752 178.796 166.212 179.232 166.197C179.669 166.175 181.156 166.589 181.156 166.589" stroke="#263238" stroke-miterlimit="10" stroke-linecap="round" stroke-linejoin="round"/>
<path d="M135.179 153.504L132.323 168.811C132.323 168.811 157.095 163.901 158.005 164.583C158.915 165.271 159.743 183.436 159.743 183.436C159.743 183.436 127.758 189.035 123.992 190.286C120.226 191.545 116.341 191.775 114.972 190.627C113.603 189.487 113.485 186.628 114.514 181.03C115.542 175.431 125.36 134.532 125.36 134.532" fill="#634D95"/>
<path d="M135.179 153.504L132.323 168.811C132.323 168.811 157.095 163.901 158.005 164.583C158.915 165.271 159.743 183.436 159.743 183.436C159.743 183.436 127.758 189.035 123.992 190.286C120.226 191.545 116.341 191.775 114.972 190.627C113.603 189.487 113.485 186.628 114.514 181.03C115.542 175.431 125.36 134.532 125.36 134.532" stroke="#263238" stroke-miterlimit="10"/>
<path d="M192.587 152.482L193.616 169.959L185.396 169.618L184.574 184.103C184.574 184.103 207.237 189.376 208.488 190.064C209.745 190.753 209.516 189.376 210.996 187.206C212.483 185.036 213.733 180.348 213.622 178.297C213.512 176.246 208.828 169.389 208.717 169.729" fill="#634D95"/>
<path d="M192.587 152.482L193.616 169.959L185.396 169.618L184.574 184.103C184.574 184.103 207.237 189.376 208.488 190.064C209.745 190.753 209.516 189.376 210.996 187.206C212.483 185.036 213.733 180.348 213.622 178.297C213.512 176.246 208.828 169.389 208.717 169.729" stroke="#263238" stroke-miterlimit="10"/>
<path d="M193.616 169.959H201.266" stroke="#263238" stroke-miterlimit="10" stroke-linecap="round" stroke-linejoin="round"/>
<path d="M132.323 168.818L122.164 172.358" stroke="#263238" stroke-miterlimit="10" stroke-linecap="round" stroke-linejoin="round"/>
<path d="M134.75 292.672C134.75 292.672 133.092 299.796 130.776 302.284C128.461 304.772 126.307 306.424 126.47 308.416C126.633 310.4 126.633 310.4 126.633 310.4H150.472C150.472 310.4 150.472 307.912 150.472 304.439C150.472 300.966 148.985 294.827 148.985 292.346C148.985 289.865 134.084 292.509 134.084 292.509" fill="#263238"/>
<path d="M134.75 292.672C134.75 292.672 133.092 299.796 130.776 302.284C128.461 304.772 126.307 306.424 126.47 308.416C126.633 310.4 126.633 310.4 126.633 310.4H150.472C150.472 310.4 150.472 307.912 150.472 304.439C150.472 300.966 148.985 294.827 148.985 292.346C148.985 289.865 134.084 292.509 134.084 292.509" stroke="#263238" stroke-miterlimit="10" stroke-linecap="round" stroke-linejoin="round"/>
<path d="M127.04 306.424C126.633 307.075 126.411 307.727 126.47 308.408C126.633 310.393 126.633 310.393 126.633 310.393H150.472C150.472 310.393 150.472 308.815 150.472 306.416H127.04V306.424Z" fill="#586166" stroke="#263238" stroke-miterlimit="10" stroke-linecap="round" stroke-linejoin="round"/>
<path d="M155.445 229.379C155.445 229.379 157.76 214.635 153.787 207.837C149.814 201.046 135.911 200.876 128.128 205.519C120.344 210.155 117.325 217.76 120.144 227.535C122.956 237.31 129.452 237.495 129.452 237.495C129.452 237.495 127.795 250.913 127.795 256.216C127.795 261.518 133.425 294.494 133.425 294.494H149.814C149.814 294.494 155.112 236.34 155.445 229.379Z" fill="#586166" stroke="#263238" stroke-miterlimit="10" stroke-linecap="round" stroke-linejoin="round"/>
<path d="M129.452 237.495L131.102 223.914" stroke="#263238" stroke-miterlimit="10" stroke-linecap="round" stroke-linejoin="round"/>
<path d="M182.939 292.672C182.939 292.672 184.596 299.796 186.912 302.284C189.228 304.772 191.381 306.424 191.218 308.416C191.056 310.4 191.056 310.4 191.056 310.4H167.216C167.216 310.4 167.216 307.912 167.216 304.439C167.216 300.966 168.703 294.827 168.703 292.346C168.703 289.865 183.605 292.509 183.605 292.509" fill="#263238"/>
<path d="M182.939 292.672C182.939 292.672 184.596 299.796 186.912 302.284C189.228 304.772 191.381 306.424 191.218 308.416C191.056 310.4 191.056 310.4 191.056 310.4H167.216C167.216 310.4 167.216 307.912 167.216 304.439C167.216 300.966 168.703 294.827 168.703 292.346C168.703 289.865 183.605 292.509 183.605 292.509" stroke="#263238" stroke-miterlimit="10" stroke-linecap="round" stroke-linejoin="round"/>
<path d="M190.641 306.424C191.048 307.075 191.27 307.727 191.211 308.408C191.048 310.393 191.048 310.393 191.048 310.393H167.216C167.216 310.393 167.216 308.815 167.216 306.416H190.641V306.424Z" fill="#586166" stroke="#263238" stroke-miterlimit="10" stroke-linecap="round" stroke-linejoin="round"/>
<path d="M162.244 229.379C162.244 229.379 159.928 214.635 163.902 207.837C167.875 201.046 181.777 200.876 189.561 205.519C197.345 210.155 200.423 217.76 197.611 227.535C194.8 237.31 188.237 237.495 188.237 237.495C188.237 237.495 189.894 250.913 189.894 256.216C189.894 261.518 184.263 294.494 184.263 294.494H167.875C167.875 294.494 162.577 236.34 162.244 229.379Z" fill="#586166" stroke="#263238" stroke-miterlimit="10" stroke-linecap="round" stroke-linejoin="round"/>
<path d="M188.237 237.495L186.579 223.914" stroke="#263238" stroke-miterlimit="10" stroke-linecap="round" stroke-linejoin="round"/>
<path d="M196.161 53.8217H228.909C230.84 53.8217 232.401 55.3842 232.401 57.317V72.5274C232.401 74.4602 230.84 76.0227 228.909 76.0227H219.068L221.636 82.9837L213.548 76.0227H196.161C194.23 76.0227 192.669 74.4602 192.669 72.5274V57.317C192.669 55.3842 194.237 53.8217 196.161 53.8217Z" fill="#263238" stroke="#263238" stroke-miterlimit="10" stroke-linecap="round" stroke-linejoin="round"/>
<path d="M220.733 66.4106C221.783 66.4106 222.634 65.5586 222.634 64.5075C222.634 63.4564 221.783 62.6043 220.733 62.6043C219.683 62.6043 218.831 63.4564 218.831 64.5075C218.831 65.5586 219.683 66.4106 220.733 66.4106Z" fill="#634D95" stroke="#263238" stroke-miterlimit="10"/>
<path d="M211.625 66.4106C212.675 66.4106 213.526 65.5586 213.526 64.5075C213.526 63.4564 212.675 62.6043 211.625 62.6043C210.575 62.6043 209.723 63.4564 209.723 64.5075C209.723 65.5586 210.575 66.4106 211.625 66.4106Z" fill="#634D95" stroke="#263238" stroke-miterlimit="10"/>
<path d="M202.524 66.4106C203.574 66.4106 204.426 65.5586 204.426 64.5075C204.426 63.4564 203.574 62.6043 202.524 62.6043C201.474 62.6043 200.622 63.4564 200.622 64.5075C200.622 65.5586 201.474 66.4106 202.524 66.4106Z" fill="#634D95" stroke="#263238" stroke-miterlimit="10"/>
<path d="M68.936 177.579L63.187 189.731H79.4795L85.2359 178.171L68.936 177.579Z" fill="#263238" stroke="#263238" stroke-miterlimit="10" stroke-linecap="round" stroke-linejoin="round"/>
<path d="M104.725 177.579H68.936L74.6924 189.731H110.474L104.725 177.579Z" fill="white" stroke="#263238" stroke-miterlimit="10" stroke-linecap="round" stroke-linejoin="round"/>
<path d="M41.1234 206.474H33.0585V310.363H41.1234V206.474Z" fill="#A3A3A3" stroke="#263238" stroke-miterlimit="10" stroke-linecap="round" stroke-linejoin="round"/>
<path d="M299.273 206.741H291.208V310.63H299.273V206.741Z" fill="#A3A3A3" stroke="#263238" stroke-miterlimit="10" stroke-linecap="round" stroke-linejoin="round"/>
<path d="M302.817 189.405H31.305V289.532H302.817V189.405Z" fill="#A3A3A3" stroke="#263238" stroke-miterlimit="10" stroke-linecap="round" stroke-linejoin="round"/>
<path d="M302.817 189.405H31.305V199.824H302.817V189.405Z" fill="#263238" stroke="#263238" stroke-miterlimit="10" stroke-linecap="round" stroke-linejoin="round"/>
<path d="M309.735 189.405H24.3943V195.618H309.735V189.405Z" fill="white" stroke="#263238" stroke-miterlimit="10" stroke-linecap="round" stroke-linejoin="round"/>
<path d="M35.6555 281.134C35.6555 281.134 17.3283 242.064 21.3164 240.931C25.3044 239.798 33.643 246.026 33.643 246.026C33.643 246.026 9.1451 180.348 15.486 175.246C21.8269 170.151 33.6652 196.196 33.6652 196.196C33.6652 196.196 21.0204 155.992 22.5076 140.708C23.9948 125.423 40.0579 140.145 40.0579 140.145C40.0579 140.145 27.1911 85.2201 39.1404 82.3913C51.0897 79.5624 50.6902 145.24 50.6902 145.24C50.6902 145.24 54.6116 98.246 59.3988 111.264C64.1859 124.29 54.1233 167.885 54.1233 167.885C54.1233 167.885 60.6862 153.164 64.3339 166.752C67.9815 180.341 57.0829 235.266 57.0829 235.266C57.0829 235.266 66.3464 226.209 67.2121 237.532C68.0777 248.855 48.0266 283.963 48.0266 283.963L36.6988 285.104L35.6555 281.134Z" fill="#8E7ACC" stroke="#263238" stroke-miterlimit="10"/>
<path d="M39.5696 282.838C39.5696 282.838 24.2982 255.66 27.1246 250.565C29.951 245.471 38.4376 257.364 38.4376 257.364C38.4376 257.364 19.2003 209.237 22.0341 204.704C24.8605 200.172 33.9168 219.989 33.9168 219.989C33.9168 219.989 30.5207 153.741 36.1809 156.007C41.8411 158.273 42.4034 189.983 42.4034 189.983C42.4034 189.983 39.0073 114.678 44.0977 116.944C49.1882 119.21 48.6259 203.009 48.6259 203.009C48.6259 203.009 58.8069 170.736 60.5086 185.458C62.203 200.18 47.4939 239.813 47.4939 239.813C47.4939 239.813 61.6407 208.674 63.335 225.091C65.0294 241.509 52.022 272.085 52.022 272.085C52.022 272.085 57.1125 259.63 57.1125 266.42C57.1125 273.218 53.1541 281.705 53.1541 281.705" stroke="#263238" stroke-miterlimit="10" stroke-linecap="round" stroke-linejoin="round"/>
<path d="M60.22 282.623H27.8792V310.63H60.22V282.623Z" fill="#263238" stroke="#263238" stroke-miterlimit="10"/>
<path d="M237.721 93.0771C237.721 93.0771 234.414 98.5422 233.91 101.03C233.415 103.519 234.243 104.511 233.577 106.333C232.912 108.154 230.1 108.154 230.1 109.976C230.1 111.798 232.083 113.456 232.749 113.953C233.407 114.449 232.253 116.604 233.407 119.751C234.569 122.898 235.065 126.875 237.048 126.875C239.03 126.875 243.174 126.208 243.174 126.208L244.165 132.259L257.824 131.014C257.824 131.014 257.661 125.053 261.301 122.565C264.942 120.077 272.148 105.829 267.842 96.5502C263.543 87.2788 245.497 85.4571 237.721 93.0771Z" fill="white" stroke="#263238" stroke-miterlimit="10" stroke-linecap="round" stroke-linejoin="round"/>
<path d="M233.185 86.205C232.749 87.5824 232.564 89.1005 232.653 90.7074C232.808 93.6029 233.807 96.4909 235.301 98.9569C236.988 101.749 241.036 103.526 242.027 106.503C242.36 107.495 243.189 110.146 245.505 110.813C247.82 111.479 247.325 111.479 246.666 115.952C246.008 120.425 247.991 124.898 251.964 126.06C255.937 127.223 259.748 126.223 262.892 123.742C266.037 121.254 272 110.983 272.163 101.704C272.459 85.2867 256.285 77.252 241.702 79.2662C237.321 79.8587 234.347 82.5246 233.185 86.205Z" fill="#263238" stroke="#263238" stroke-miterlimit="10" stroke-linecap="round" stroke-linejoin="round"/>
<path d="M250.721 128.015C250.721 128.015 247.199 128.015 244.343 129.526C242.493 130.503 236.064 136.65 234.414 137.642C232.756 138.634 229.612 138.138 231.432 138.968C233.252 139.797 234.576 139.96 237.721 138.805C240.865 137.642 247.487 135.324 249.478 135.324C251.468 135.324 258.749 136.317 259.407 136.487C260.073 136.65 264.372 138.642 264.372 138.642C264.372 138.642 262.219 134.006 259.733 131.681C257.254 129.363 254.198 127.852 250.721 128.015Z" fill="white" stroke="#263238" stroke-miterlimit="10" stroke-linecap="round" stroke-linejoin="round"/>
<path d="M245.342 107.399C244.617 107.658 244.202 108.436 244.284 109.198C244.439 110.679 244.661 113.716 244.18 115.774C243.522 118.588 247.029 118.588 247.798 113.975C248.301 110.931 247.147 106.755 245.342 107.399Z" fill="white" stroke="#263238" stroke-miterlimit="10" stroke-linecap="round" stroke-linejoin="round"/>
<path d="M217.685 145.603C217.685 145.603 215.702 146.595 215.531 151.401C215.369 156.207 207.089 190.005 206.593 195.307C206.098 200.609 208.909 204.09 213.711 205.912C218.513 207.733 227.614 210.718 229.271 209.888C230.929 209.059 234.073 191.997 235.227 184.54C236.389 177.083 222.479 151.238 221.821 150.239C221.162 149.239 218.846 145.766 217.685 145.603Z" fill="white" stroke="#263238" stroke-miterlimit="10" stroke-linecap="round" stroke-linejoin="round"/>
<path d="M228.45 185.206L219.342 198.788" stroke="#263238" stroke-miterlimit="10" stroke-linecap="round" stroke-linejoin="round"/>
<path d="M246 245.53L257.498 309.23C257.654 310.082 258.519 310.6 259.333 310.334C259.984 310.126 260.399 309.475 260.31 308.793L251.823 244.175L246 245.53Z" fill="white" stroke="#263238" stroke-miterlimit="10" stroke-linecap="round" stroke-linejoin="round"/>
<path d="M233.252 231.608C233.252 231.608 228.946 289.769 228.946 291.42C228.946 293.079 224.477 310.474 224.477 310.474H236.396C236.396 310.474 237.558 308.156 237.558 303.35C237.558 298.544 238.054 288.273 238.054 287.281C238.054 286.288 251.298 234.925 251.298 234.925C251.298 234.925 250.639 229.786 244.18 226.809C237.721 223.825 234.243 230.282 233.252 231.608Z" fill="white" stroke="#263238" stroke-miterlimit="10" stroke-linecap="round" stroke-linejoin="round"/>
<path d="M237.551 303.358C237.551 298.966 237.965 290.021 238.039 287.747C232.527 284.652 229.108 288.777 229.108 288.777L229.101 288.791C228.998 290.295 228.946 291.243 228.946 291.428C228.946 293.087 224.477 310.482 224.477 310.482H236.396C236.396 310.482 237.551 308.164 237.551 303.358Z" fill="#263238" stroke="#263238" stroke-miterlimit="10" stroke-linecap="round" stroke-linejoin="round"/>
<path d="M236.396 310.482C236.396 310.482 237.558 308.164 237.558 303.358C237.558 301.573 237.625 299.026 237.713 296.493C236.567 295.145 234.088 293.094 231.432 296.234C230.278 297.604 227.214 306.253 225.764 310.482H236.396Z" fill="#4F4F4F" stroke="#263238" stroke-miterlimit="10" stroke-linecap="round" stroke-linejoin="round"/>
<path d="M231.432 296.234L232.423 310.482H235.405L237.891 295.901C237.884 295.901 234.576 291.924 231.432 296.234Z" fill="#263238" stroke="#263238" stroke-miterlimit="10" stroke-linecap="round" stroke-linejoin="round"/>
<path d="M209.08 223.988C209.08 223.988 203.945 229.623 203.449 234.429C202.953 239.235 220.666 290.102 220.666 290.102C220.666 290.102 220.333 292.753 217.855 295.901C215.369 299.048 211.899 303.521 211.395 306.505C210.9 309.489 211.395 310.482 211.395 310.482H223.152C223.152 310.482 227.288 299.877 228.946 297.226C230.603 294.575 229.612 289.436 229.108 287.118C228.613 284.8 224.144 231.282 224.144 231.282C224.144 231.282 220.666 220.011 209.08 223.988Z" fill="white" stroke="#263238" stroke-miterlimit="10" stroke-linecap="round" stroke-linejoin="round"/>
<path d="M228.946 297.226C230.381 294.923 229.826 290.754 229.33 288.177C228.361 287.429 226.807 286.644 224.81 287.118C221.332 287.947 220.674 290.102 220.674 290.102C220.674 290.102 220.341 292.753 217.862 295.901C215.376 299.048 211.906 303.521 211.403 306.505C210.907 309.489 211.403 310.482 211.403 310.482H223.16C223.152 310.482 227.288 299.877 228.946 297.226Z" fill="#263238" stroke="#263238" stroke-miterlimit="10" stroke-linecap="round" stroke-linejoin="round"/>
<path d="M217.107 310.482H223.152C223.152 310.482 226.837 301.047 228.642 297.752C227.754 296.937 225.069 294.856 222.494 296.893C219.349 299.381 219.016 305.505 218.188 307.831C217.796 308.919 217.403 309.823 217.107 310.482Z" fill="#4F4F4F" stroke="#263238" stroke-miterlimit="10" stroke-linecap="round" stroke-linejoin="round"/>
<path d="M222.486 296.893L223.152 310.482H225.305L228.946 297.226C228.946 297.226 225.631 293.909 222.486 296.893Z" fill="#263238" stroke="#263238" stroke-miterlimit="10" stroke-linecap="round" stroke-linejoin="round"/>
<path d="M222.442 168.063C225.194 177.364 227.658 194.804 227.658 196.433C227.658 199.417 219.009 216.516 219.009 216.516C219.009 216.516 209.405 221.485 207.089 224.965C204.773 228.446 204.773 232.252 206.431 235.57C208.088 238.887 210.567 240.376 216.035 241.368C221.502 242.36 272.318 241.368 272.318 241.368C272.318 241.368 277.616 234.903 275.13 224.632C273.976 219.848 272.718 215.694 271.319 209.888C271.319 209.888 276.78 210.051 280.753 206.741C284.726 203.423 284.889 198.291 284.889 194.478C284.889 190.664 282.403 158.851 282.403 155.704C282.403 152.556 282.24 148.58 279.259 146.262C276.277 143.944 269.329 140.301 263.033 136.983C258.075 134.369 254.428 134.828 250.454 134.828C246.481 134.828 241.679 137.812 241.679 137.812C241.679 137.812 219.66 143.611 218.003 144.603C216.456 145.529 216.93 146.603 217.544 150.261" fill="white"/>
<path d="M222.442 168.063C225.194 177.364 227.658 194.804 227.658 196.433C227.658 199.417 219.009 216.516 219.009 216.516C219.009 216.516 209.405 221.485 207.089 224.965C204.773 228.446 204.773 232.252 206.431 235.57C208.088 238.887 210.567 240.376 216.035 241.368C221.502 242.36 272.318 241.368 272.318 241.368C272.318 241.368 277.616 234.903 275.13 224.632C273.976 219.848 272.718 215.694 271.319 209.888C271.319 209.888 276.78 210.051 280.753 206.741C284.726 203.423 284.889 198.291 284.889 194.478C284.889 190.664 282.403 158.851 282.403 155.704C282.403 152.556 282.24 148.58 279.259 146.262C276.277 143.944 269.329 140.301 263.033 136.983C258.075 134.369 254.428 134.828 250.454 134.828C246.481 134.828 241.679 137.812 241.679 137.812C241.679 137.812 219.66 143.611 218.003 144.603C216.456 145.529 216.93 146.603 217.544 150.261" stroke="#263238" stroke-miterlimit="10" stroke-linecap="round" stroke-linejoin="round"/>
<path d="M273.976 154.882C273.976 154.882 267.198 194.293 267.198 196.448C267.198 198.602 271.327 209.896 271.327 209.896" stroke="#263238" stroke-miterlimit="10" stroke-linecap="round" stroke-linejoin="round"/>
<path d="M227.311 198.099C225.683 203.335 219.016 216.523 219.016 216.523C219.016 216.523 209.412 221.492 207.097 224.973C204.781 228.453 204.781 232.26 206.431 235.577C208.088 238.895 210.567 240.383 216.035 241.376C221.495 242.368 272.318 241.376 272.318 241.376C272.318 241.376 277.616 234.911 275.13 224.64C273.976 219.856 272.718 215.701 271.319 209.896L267.191 198.099H227.311Z" fill="#263238" stroke="#263238" stroke-miterlimit="10"/>
<path d="M213.053 244.856L204.492 309.023C204.381 309.874 205.04 310.637 205.905 310.637C206.594 310.637 207.185 310.148 207.304 309.467L219.009 245.352L213.053 244.856Z" fill="white" stroke="#263238" stroke-miterlimit="10" stroke-linecap="round" stroke-linejoin="round"/>
<path d="M269.707 244.856L278.267 309.023C278.378 309.874 277.72 310.637 276.854 310.637C276.166 310.637 275.574 310.148 275.456 309.467L263.75 245.352L269.707 244.856Z" fill="white" stroke="#263238" stroke-miterlimit="10" stroke-linecap="round" stroke-linejoin="round"/>
<path d="M236.396 244.856L227.836 309.023C227.725 309.874 228.383 310.637 229.249 310.637C229.937 310.637 230.529 310.148 230.647 309.467L242.353 245.352L236.396 244.856Z" fill="white" stroke="#263238" stroke-miterlimit="10" stroke-linecap="round" stroke-linejoin="round"/>
<path d="M278.94 171.447H225.468C225.468 171.447 223.981 184.036 224.81 194.811C225.638 205.578 227.459 219.33 227.126 228.113C226.793 236.895 221.828 241.701 221.828 241.701H209.908C208.717 241.701 207.755 242.664 207.755 243.856C207.755 245.048 208.717 246.011 209.908 246.011H274.309C274.309 246.011 280.265 237.562 279.769 224.965C279.273 212.376 274.309 198.121 275.959 188.013C277.616 177.912 278.94 171.447 278.94 171.447Z" fill="#634D95"/>
<path d="M264.786 94.4841C264.786 94.4841 261.479 95.8096 261.309 98.9569C261.146 102.104 260.147 112.871 256.174 119.003C252.201 125.135 256.174 134.91 265.94 136.398C275.707 137.887 283.654 123.143 280.013 107.902C276.373 92.6624 268.101 93.1585 264.786 94.4841Z" fill="#263238" stroke="#263238" stroke-miterlimit="10" stroke-linecap="round" stroke-linejoin="round"/>
<path d="M323.948 310.63H299.273H291.208H276.854H229.249H213.26H205.905H60.22H42.7141H27.8792H0.369934" stroke="#263238" stroke-miterlimit="10" stroke-linecap="round" stroke-linejoin="round"/>
</svg>
