<svg width="119" height="167" viewBox="0 0 119 167" fill="none" xmlns="http://www.w3.org/2000/svg">
<g clip-path="url(#clip0_111_53)">
<path d="M9.57841 51.2141H57.6351V30.2351H9.57841L0 40.6478L9.57841 51.2141Z" fill="#704ABA"/>
<path d="M62.2024 166.465H58.8307L60.4306 0.178467L62.2024 1.88477V166.465Z" fill="#263238" stroke="#263238" stroke-miterlimit="10" stroke-linecap="round" stroke-linejoin="round"/>
<path d="M60.4306 0.178467H57.0589V166.465H60.4306V0.178467Z" fill="white" stroke="#263238" stroke-miterlimit="10" stroke-linecap="round" stroke-linejoin="round"/>
<path d="M109.422 28.5503H61.3684V7.57129H109.422L119 17.984L109.422 28.5503Z" fill="#704ABA"/>
<path d="M73.4703 23.5849V13.7397H71.5876V11.8049H78.1128V13.7397H76.2479V23.5884H73.4703V23.5849Z" fill="#263238"/>
<path d="M79.2081 23.5849V11.8049H82.6478C83.489 11.8049 84.2192 11.8906 84.8384 12.0655C85.4541 12.2404 85.9373 12.5546 86.2809 13.0043C86.6245 13.4541 86.7963 14.0931 86.7963 14.9177C86.7963 15.4032 86.7534 15.8351 86.6746 16.2135C86.5923 16.5919 86.442 16.9203 86.2201 17.1951C85.9981 17.47 85.6831 17.702 85.2715 17.8877L86.9789 23.5849H84.1261L82.7552 18.3053H81.9678V23.5849H79.2081ZM81.9678 16.806H82.7373C83.1275 16.806 83.4317 16.7418 83.6465 16.6097C83.8612 16.4776 84.0152 16.2884 84.1011 16.0421C84.187 15.7958 84.2335 15.496 84.2335 15.1461C84.2335 14.6428 84.1369 14.2502 83.94 13.9682C83.7431 13.6861 83.3852 13.5469 82.859 13.5469H81.9678V16.806Z" fill="#263238"/>
<path d="M91.9936 23.7598C91.0379 23.7598 90.2898 23.6134 89.7493 23.3171C89.2088 23.0208 88.833 22.5889 88.6147 22.0213C88.3999 21.4538 88.2889 20.7577 88.2889 19.9331V11.8049H91.02V20.3293C91.02 20.572 91.0415 20.8148 91.0809 21.0575C91.1202 21.3003 91.2133 21.5002 91.3493 21.6537C91.4889 21.8107 91.7001 21.8857 91.99 21.8857C92.2871 21.8857 92.5054 21.8072 92.6379 21.6537C92.7703 21.5002 92.8562 21.3003 92.892 21.0575C92.9278 20.8148 92.9457 20.572 92.9457 20.3293V11.8049H95.6911V19.9366C95.6911 20.7612 95.5801 21.4573 95.3582 22.0249C95.1363 22.5925 94.7605 23.0244 94.2235 23.3207C93.6938 23.6134 92.9493 23.7598 91.9936 23.7598Z" fill="#263238"/>
<path d="M97.4521 23.5849V11.8049H103.065V13.5791H100.212V16.5026H102.388V18.3053H100.212V21.825H103.097V23.5849H97.4521Z" fill="#263238"/>
<path d="M16.5367 46.188V34.4081H21.9344V36.1679H19.2964V39.1343H21.5944V40.9513H19.2964V46.188H16.5367Z" fill="#263238"/>
<path d="M22.1814 46.188L24.5402 34.4045H27.6865L30.0167 46.188H27.4717L27.0565 43.7H25.2203L24.7872 46.188H22.1814ZM25.4637 42.1472H26.7916L26.1295 37.5494L25.4637 42.1472Z" fill="#263238"/>
<path d="M31.1549 46.188V34.4081H33.9146V44.4317H36.7817V46.1916H31.1549V46.188Z" fill="#263238"/>
<path d="M41.1807 46.3629C40.4004 46.3629 39.7454 46.2309 39.2228 45.9703C38.7002 45.7097 38.3029 45.3027 38.0345 44.7566C37.766 44.2104 37.6193 43.5001 37.5871 42.6255L39.9459 42.2899C39.9566 42.7933 40.0067 43.2002 40.0926 43.5108C40.1785 43.8213 40.3038 44.0426 40.4613 44.1783C40.6224 44.3139 40.8121 44.3818 41.0412 44.3818C41.3275 44.3818 41.5172 44.289 41.6031 44.1069C41.689 43.9213 41.7355 43.7285 41.7355 43.525C41.7355 43.0396 41.6139 42.6291 41.3669 42.2971C41.1199 41.9615 40.787 41.626 40.3646 41.2869L39.2837 40.398C38.8112 40.0196 38.4139 39.5913 38.0882 39.1094C37.7624 38.631 37.6014 38.0349 37.6014 37.3281C37.6014 36.3286 37.9164 35.5647 38.5427 35.0364C39.1691 34.5081 40.0246 34.2439 41.102 34.2439C41.7713 34.2439 42.3083 34.351 42.7127 34.5652C43.1172 34.7793 43.4286 35.0578 43.6362 35.4005C43.8474 35.7432 43.9906 36.1073 44.0693 36.4928C44.1481 36.8747 44.191 37.2424 44.2017 37.5922L41.8286 37.8671C41.8179 37.5173 41.7964 37.2139 41.7606 36.9568C41.7248 36.6998 41.6496 36.4999 41.5351 36.3607C41.4206 36.2215 41.2488 36.1501 41.0125 36.1501C40.7548 36.1501 40.5687 36.2501 40.4506 36.4571C40.3324 36.6606 40.2716 36.864 40.2716 37.0675C40.2716 37.503 40.3825 37.86 40.6045 38.1348C40.8264 38.4097 41.1163 38.6988 41.4743 38.9987L42.5087 39.8554C43.0528 40.2909 43.5145 40.7871 43.8903 41.3404C44.2662 41.8937 44.4523 42.5755 44.4523 43.393C44.4523 43.9463 44.3199 44.446 44.0514 44.8994C43.783 45.3491 43.4071 45.7061 42.9167 45.9667C42.4264 46.2344 41.8465 46.3629 41.1807 46.3629Z" fill="#263238"/>
<path d="M45.544 46.188V34.4081H51.1565V36.1822H48.3037V39.1058H50.48V40.9085H48.3037V44.4282H51.1887V46.188H45.544Z" fill="#263238"/>
<path d="M37.0824 97.9875C37.0824 97.9875 30.0417 99.0906 29.7267 99.4868C29.4118 99.8795 27.7509 101.143 27.7509 101.143C27.7509 101.143 17.0736 105.009 16.9126 105.562C16.7551 106.116 20.3917 137.75 20.3917 137.75L18.5734 166.465H70.9397L69.9912 153.842L77.268 105.641L60.0226 98.3053L37.0824 97.9875Z" fill="#704ABA" stroke="#263238" stroke-width="3" stroke-miterlimit="10"/>
<path d="M37.7589 91.1231C37.7589 91.1231 38.736 96.4383 38.736 98.83C38.736 101.222 44.6885 106.448 45.4867 106.362C46.2849 106.276 56.59 96.3491 56.59 96.3491C56.59 96.3491 55.2584 90.9446 55.2584 86.4254C55.2584 81.9062 55.2584 77.5654 55.2584 77.5654C55.2584 77.5654 52.5918 78.8934 52.3269 80.2248C52.062 81.5528 52.062 82.5273 51.3498 83.5018C50.641 84.4799 37.7589 91.1231 37.7589 91.1231Z" fill="white" stroke="#263238" stroke-miterlimit="10" stroke-linecap="round" stroke-linejoin="round"/>
<path d="M51.9976 84.6476L41.4921 94.3464L39.0868 89.2953L51.9976 84.6476Z" fill="#263238" stroke="#263238" stroke-miterlimit="10" stroke-linecap="round" stroke-linejoin="round"/>
<path d="M26.9241 70.1904C26.9241 70.1904 25.5639 70.733 25.7679 71.2078C25.972 71.6825 29.3724 73.7173 29.3724 73.7173L27.0601 71.5469L26.9241 70.1904Z" fill="#263238" stroke="#263238" stroke-miterlimit="10" stroke-linecap="round" stroke-linejoin="round"/>
<path d="M28.9965 64.5397C28.9965 64.5397 27.8476 65.4571 26.7737 62.1694C25.6999 58.8817 25.7787 57.0469 26.2368 57.6573C26.6986 58.2677 26.9277 58.8817 26.9277 58.8817C26.9277 58.8817 26.5447 58.5747 28.0015 55.5191C29.4583 52.4599 31.3768 50.7786 31.069 51.9244C30.7612 53.0703 30.4569 53.9877 30.4569 53.9877C30.4569 53.9877 30.9187 51.6174 33.4457 50.5465C35.9763 49.4756 37.4331 49.3221 37.1253 49.8576C36.8175 50.393 35.9763 51.0035 35.9763 51.0035C35.9763 51.0035 42.4944 49.9326 45.4832 50.543C48.4719 51.1534 45.5583 52.1493 45.5583 52.1493C45.5583 52.1493 49.6997 52.7597 52.9175 54.748C56.139 56.7364 53.9913 56.8899 53.9913 56.8899L54.2992 58.5712C54.2992 58.5712 55.8311 61.6304 56.368 64.7645C56.905 67.8987 56.139 70.1155 56.139 70.3475C56.139 70.576 54.2992 72.0288 52.7672 72.1074C51.2352 72.1823 51.3104 70.808 51.0813 70.194C50.8522 69.5836 50.3153 65.4535 49.5493 64.6111C48.7833 63.7686 46.3279 62.7762 46.3279 62.1658C46.3279 61.5554 46.4818 60.2525 45.791 59.9491C45.1002 59.6421 36.7423 57.3503 34.5195 59.2601C32.2967 61.1699 31.6059 62.3943 31.6059 62.3943L28.9965 64.5397Z" fill="#263238" stroke="#263238" stroke-miterlimit="10" stroke-linecap="round" stroke-linejoin="round"/>
<path d="M30.5285 59.7992C30.5285 59.7992 28.5348 62.8584 28.6887 65.3036C28.8426 67.7488 29.4547 77.6154 30.6037 81.742C31.7527 85.8721 35.7401 91.605 38.1168 91.6835C40.4935 91.7585 50.8451 86.0256 51.994 84.6477C53.143 83.2698 53.143 81.053 53.143 81.053L53.2969 79.9821C53.2969 79.9821 55.2906 79.0647 56.5184 77.9188C57.7461 76.773 58.666 73.7887 58.283 71.879C57.9 69.9656 56.751 69.5087 56.751 69.5087C56.751 69.5087 56.2893 69.1267 55.3694 69.4337C54.4495 69.7407 53.5296 70.4261 53.5296 70.4261C53.5296 70.4261 53.7587 70.6546 53.3757 70.9615C52.9927 71.2685 52.3019 71.3435 52.2267 71.115C52.1515 70.8866 52.1515 69.4337 51.8437 68.7448C51.5359 68.0558 51.0777 67.5989 51.2316 67.2919C51.3855 66.9849 51.8437 66.221 51.6146 65.4571C51.3855 64.6932 47.8563 62.7049 48.1641 61.709C48.4719 60.7166 50.6947 60.4846 49.5457 59.3387C48.3968 58.1928 36.8962 56.5079 34.9777 56.8149C33.0591 57.1219 30.9115 58.9567 30.5285 59.7992Z" fill="white" stroke="#263238" stroke-miterlimit="10" stroke-linecap="round" stroke-linejoin="round"/>
<path d="M34.9777 68.5162C34.9777 68.5162 33.213 74.9381 33.6748 75.32C34.1365 75.702 35.8976 76.5444 35.8976 76.5444" stroke="#263238" stroke-miterlimit="10" stroke-linecap="round" stroke-linejoin="round"/>
<path d="M43.2103 67.042C43.2103 67.606 42.8559 68.0594 42.4228 68.0594C41.9861 68.0594 41.6353 67.6025 41.6353 67.042C41.6353 66.478 41.9897 66.0247 42.4228 66.0247C42.8559 66.0211 43.2103 66.478 43.2103 67.042Z" fill="#263238"/>
<path d="M30.7827 70.8509C30.7827 70.8509 31.7741 69.398 33.1737 69.5123" stroke="#263238" stroke-miterlimit="10" stroke-linecap="round" stroke-linejoin="round"/>
<path d="M34.1079 66.7778C34.1079 66.7778 32.5902 66.3138 31.3661 66.835C30.1419 67.3597 29.4976 67.9987 29.7912 68.3485C30.0811 68.6983 31.6596 67.5346 32.3576 67.5346C33.0591 67.5346 34.924 67.5346 34.6913 67.1848C34.4587 66.835 34.1079 66.7778 34.1079 66.7778Z" fill="#263238" stroke="#263238" stroke-miterlimit="10" stroke-linecap="round" stroke-linejoin="round"/>
<path d="M38.4819 64.6254C38.4819 64.6254 40.6975 62.7049 42.1006 62.3551C43.5002 62.0052 45.4832 63.2261 45.4259 63.6366C45.3686 64.0435 42.8595 63.2868 42.3906 63.5188C41.9253 63.7508 39.7669 65.2644 38.7718 65.3215C37.7839 65.3822 38.3065 64.8574 38.4819 64.6254Z" fill="#263238" stroke="#263238" stroke-miterlimit="10" stroke-linecap="round" stroke-linejoin="round"/>
<path d="M34.5159 81.8489C34.5159 81.8489 36.7924 80.3354 37.7839 80.1605C38.7754 79.9856 40.9338 80.1034 40.9338 80.1034" stroke="#263238" stroke-miterlimit="10" stroke-linecap="round" stroke-linejoin="round"/>
<path d="M37.0251 75.2129C37.0251 75.2129 38.6 75.7948 38.9508 75.677C39.3016 75.5592 39.3016 74.8631 38.8935 74.4562" stroke="#263238" stroke-miterlimit="10" stroke-linecap="round" stroke-linejoin="round"/>
<path d="M34.269 70.4617C33.8609 73.1069 32.4972 74.8703 30.5643 74.8703C28.6314 74.8703 27.0637 73.0926 27.0637 70.9044C27.0637 68.7126 28.6314 66.9385 30.5643 66.9385C31.7741 66.9385 33.571 66.967 34.201 68.0237C34.5768 68.6555 34.3942 69.6514 34.269 70.4617Z" stroke="#263238" stroke-miterlimit="10" stroke-linecap="round" stroke-linejoin="round"/>
<path d="M38.6895 70.6652C40.6116 72.5321 42.6161 72.1395 44.1588 70.9793C45.7051 69.8192 46.4675 66.7207 45.1467 64.968C43.8259 63.2188 40.9195 63.4794 39.3732 64.6396C38.4067 65.3642 36.9893 66.4672 37.1217 67.6881C37.2041 68.4234 38.0989 70.094 38.6895 70.6652Z" stroke="#263238" stroke-miterlimit="10" stroke-linecap="round" stroke-linejoin="round"/>
<path d="M37.1253 66.9349C34.473 66.2567 34.201 68.0201 34.201 68.0201" stroke="#263238" stroke-miterlimit="10" stroke-linecap="round" stroke-linejoin="round"/>
<path d="M44.8747 64.429C44.8747 64.429 46.4389 64.0899 46.7109 64.2255C46.9829 64.3612 55.3694 69.4337 55.3694 69.4337L54.3922 69.6514L46.8469 65.0394L45.5547 65.4463L44.8747 64.429Z" fill="#263238" stroke="#263238" stroke-miterlimit="10" stroke-linecap="round" stroke-linejoin="round"/>
<path d="M34.0077 98.9549L37.5011 107.533L40.4291 100.115L37.1361 95.3745L34.0077 98.9549Z" fill="#704ABA" stroke="#263238" stroke-width="3" stroke-miterlimit="10"/>
<path d="M68.8994 154.924C68.2659 154.713 68.0583 153.478 68.0583 153.478L25.9863 159.368L31.2587 142.648C31.2587 142.648 37.6049 142.783 43.5217 143.608C49.4348 144.432 68.4878 142.03 70.0699 141.755C71.652 141.48 75.2958 141.891 75.779 142.098C76.2622 142.305 77.1535 142.648 77.7047 144.086C77.8765 144.54 79.2868 148.27 79.6984 149.023C80.1101 149.776 80.1781 151.286 79.7664 151.904C79.3548 152.521 78.392 153.414 78.392 153.414C78.392 153.414 75.847 156.705 75.3674 157.119C74.8842 157.53 70.5531 158.147 70.5531 158.147C70.5531 158.147 68.2838 156.912 68.0082 156.709C67.7326 156.502 68.5594 155.199 68.5594 155.199L68.8994 154.924Z" fill="white" stroke="#263238" stroke-miterlimit="10" stroke-linecap="round" stroke-linejoin="round"/>
<path d="M32.2538 148.88L30.4032 158.729L27.4395 159.1L32.2538 148.88Z" fill="#263238" stroke="#263238" stroke-miterlimit="10" stroke-linecap="round" stroke-linejoin="round"/>
<path d="M74.1969 152.043C74.1969 152.043 75.779 155.748 75.779 156.294" stroke="#263238" stroke-miterlimit="10" stroke-linecap="round" stroke-linejoin="round"/>
<path d="M75.1598 147.377C75.1598 147.377 78.6676 153.071 78.392 153.414" stroke="#263238" stroke-miterlimit="10" stroke-linecap="round" stroke-linejoin="round"/>
<path d="M76.4662 144.018L79.0792 147.859" stroke="#263238" stroke-miterlimit="10" stroke-linecap="round" stroke-linejoin="round"/>
<path d="M73.7423 107.436C73.7423 107.436 70.6605 109.203 68.9675 112.659C67.2744 116.114 60.1872 131.482 60.1872 131.482C60.1872 131.482 54.3314 150.533 55.6414 152.839C56.9515 155.145 63.806 159.6 65.27 159.6C66.7339 159.6 68.6596 156.68 70.1988 154.378C71.7379 152.072 78.5172 134.327 80.9834 126.798C83.4496 119.27 82.834 111.588 81.5239 109.128C80.2139 106.669 78.213 105.209 76.2873 105.826" fill="#704ABA"/>
<path d="M73.7423 107.436C73.7423 107.436 70.6605 109.203 68.9675 112.659C67.2744 116.114 60.1872 131.482 60.1872 131.482C60.1872 131.482 54.3314 150.533 55.6414 152.839C56.9515 155.145 63.806 159.6 65.27 159.6C66.7339 159.6 68.6596 156.68 70.1988 154.378C71.7379 152.072 78.5172 134.327 80.9834 126.798C83.4496 119.27 82.834 111.588 81.5239 109.128C80.2139 106.669 78.213 105.209 76.2873 105.826" stroke="#263238" stroke-width="3" stroke-miterlimit="10"/>
<path d="M49.4777 147.463C49.4777 147.463 47.1655 151.229 48.0138 152.843C48.8621 154.456 52.6348 158.376 54.6392 159.911C56.6437 161.446 60.649 160.832 63.0364 159.45C65.4239 158.069 67.0418 154.381 68.5845 150.615C70.1236 146.849 71.9741 141.088 70.818 138.707C69.6619 136.326 65.6565 133.174 64.5791 133.099C63.4946 133.017 49.4777 147.463 49.4777 147.463Z" fill="#704ABA" stroke="#263238" stroke-width="3" stroke-miterlimit="10"/>
<path d="M48.769 103.406C48.769 103.406 48.0245 91.6549 47.8992 90.9124C47.774 90.1699 43.3105 88.9348 42.319 88.8706C41.3275 88.8099 34.3191 92.7044 33.7607 92.9543C33.2023 93.2006 32.7048 93.5718 32.8909 94.5606C33.077 95.5494 33.8824 98.3945 34.0077 98.9513C34.133 99.5082 36.6743 100.558 36.6743 100.558C36.6743 100.558 38.0381 104.888 38.8434 106.001C39.6488 107.115 41.9432 108.786 41.9432 108.786C41.9432 108.786 44.9248 128.594 45.5691 135.733C46.2134 142.873 47.144 145.086 48.361 147.442C49.578 149.798 53.8016 155.581 55.305 156.009C56.8083 156.437 59.0275 152.868 62.6069 147.37C66.1863 141.873 67.1169 136.947 65.8284 134.877C64.5398 132.806 59.0275 125.738 58.8844 125.524C58.7412 125.31 50.6518 108.247 49.8643 106.676C49.0804 105.109 48.769 103.406 48.769 103.406Z" fill="white" stroke="#263238" stroke-miterlimit="10" stroke-linecap="round" stroke-linejoin="round"/>
<path d="M36.6743 100.561L35.5504 95.8279" stroke="#263238" stroke-miterlimit="10" stroke-linecap="round" stroke-linejoin="round"/>
<path d="M35.9191 97.4485C35.9191 97.4485 35.4788 98.0411 34.6913 98.1125L35.9191 97.4485Z" fill="white"/>
<path d="M35.9191 97.4485C35.9191 97.4485 35.4788 98.0411 34.6913 98.1125" stroke="#263238" stroke-miterlimit="10" stroke-linecap="round" stroke-linejoin="round"/>
<path d="M35.6685 96.4133C35.6685 96.4133 35.0457 96.5383 34.4229 95.7494L35.6685 96.4133Z" fill="white"/>
<path d="M35.6685 96.4133C35.6685 96.4133 35.0457 96.5383 34.4229 95.7494" stroke="#263238" stroke-miterlimit="10" stroke-linecap="round" stroke-linejoin="round"/>
<path d="M49.263 101.065L51.6361 106.905L61.2074 98.3052L58.2007 92.8615L49.263 101.065Z" fill="#704ABA" stroke="#263238" stroke-width="3" stroke-miterlimit="10"/>
<path d="M16.909 105.562C16.909 105.562 14.6182 107.733 14.0634 110.16C13.5086 112.591 7.97486 142.626 7.8639 148.702C7.75294 154.774 11.5184 156.541 13.1793 157.647C14.8401 158.754 18.8275 158.422 18.8275 158.422L24.4758 140.974C24.4758 140.974 25.1416 133.024 24.4758 126.506C23.81 119.991 20.4884 110.381 20.4884 110.381" fill="#704ABA"/>
<path d="M16.909 105.562C16.909 105.562 14.6182 107.733 14.0634 110.16C13.5086 112.591 7.97486 142.626 7.8639 148.702C7.75294 154.774 11.5184 156.541 13.1793 157.647C14.8401 158.754 18.8275 158.422 18.8275 158.422L24.4758 140.974C24.4758 140.974 25.1416 133.024 24.4758 126.506C23.81 119.991 20.4884 110.381 20.4884 110.381" stroke="#263238" stroke-width="3" stroke-miterlimit="10"/>
<path d="M23.1443 140.088C23.1443 140.088 17.2741 147.488 16.7229 152.236C16.1681 156.983 17.1667 159.082 18.1618 159.525C19.1568 159.968 25.8037 161.403 26.5769 161.071C27.3536 160.739 33.886 145.942 34.3298 144.507C34.7737 143.072 34.8846 141.748 33.775 141.416C32.6654 141.084 23.5881 138.764 23.1443 140.088Z" fill="#704ABA" stroke="#263238" stroke-width="3" stroke-miterlimit="10"/>
<path d="M14.8258 140.534C14.8258 140.534 16.3112 138.578 19.6902 138.578C23.0691 138.578 24.2181 139.321 24.2181 139.321" stroke="#263238" stroke-miterlimit="10" stroke-linecap="round" stroke-linejoin="round"/>
<path d="M15.8423 136.961C15.8423 136.961 20.1018 136.219 22.9402 138.243" stroke="#263238" stroke-miterlimit="10" stroke-linecap="round" stroke-linejoin="round"/>
</g>
<defs>
<clipPath id="clip0_111_53">
<rect width="119" height="167" fill="white"/>
</clipPath>
</defs>
</svg>
