<svg width="84" height="168" viewBox="0 0 84 168" fill="none" xmlns="http://www.w3.org/2000/svg">
<path d="M71.7787 36.356C71.7787 16.2799 55.7088 0 35.8871 0C16.0699 0 0 16.2799 0 36.356C0 54.7893 13.5458 70.0065 31.0954 72.3826V139.294C31.0954 142.524 34.1738 145.141 37.976 145.141C41.7782 145.141 44.8565 142.524 44.8565 139.294V71.5704C60.3401 67.533 71.7787 53.2996 71.7787 36.356ZM34.3525 72.675C34.8609 72.6982 35.374 72.7121 35.8871 72.7121C35.374 72.7167 34.8609 72.6982 34.3525 72.675ZM37.8889 72.6564C38.4203 72.6286 38.9471 72.5868 39.4739 72.5357C38.9517 72.5868 38.4203 72.6286 37.8889 72.6564ZM35.8871 69.0041C18.1222 69.0041 3.66475 54.3577 3.66475 36.356C3.66475 18.3544 18.1222 3.71264 35.8871 3.71264C53.6565 3.71264 68.114 18.359 68.114 36.356C68.114 54.3531 53.6565 69.0041 35.8871 69.0041Z" fill="#7C49BE"/>
<path d="M60.7845 15.0409C60.1523 14.2844 59.4881 13.5558 58.7918 12.8597C52.9098 6.97982 44.8336 3.34143 35.9375 3.34143C27.0459 3.34143 18.9697 6.97982 13.0877 12.8597C12.3914 13.5558 11.7226 14.2844 11.095 15.0409C6.28505 20.7955 3.38074 28.2208 3.38074 36.3329C3.38074 44.394 6.25299 51.7821 11.0126 57.5182C11.6402 58.2792 12.3044 59.0171 13.0053 59.7179C18.8918 65.6488 27.0001 69.3197 35.942 69.3197C44.884 69.3197 52.9923 65.6488 58.8834 59.7179C59.5797 59.0171 60.2393 58.2839 60.8761 57.5228C65.6357 51.7868 68.5079 44.394 68.5079 36.3375C68.4988 28.2208 65.5899 20.7955 60.7845 15.0409ZM58.92 17.3381C62.8138 22.1692 65.2555 28.2393 65.5716 34.871H63.4277H57.3763C57.2892 34.2817 57.1472 33.7062 56.9319 33.1493C56.5746 32.2211 56.0615 31.3997 55.4019 30.6943C54.7422 29.9889 53.9497 29.4274 53.0335 29.0143C52.9053 28.9587 52.7724 28.9122 52.6441 28.8658C52.5525 27.6964 51.8929 24.109 51.5997 22.8838C54.4216 21.3895 56.909 19.5146 58.92 17.3381ZM52.5617 41.7858C52.0028 42.106 51.3844 42.2638 50.711 42.2638C50.0376 42.2638 49.4192 42.1014 48.8603 41.7719C48.3014 41.4424 47.8158 41.0062 47.4081 40.4539C47.0004 39.9017 46.6798 39.252 46.4507 38.5001C46.2217 37.753 46.1072 36.9548 46.1072 36.1101V36.0684C46.1072 35.2237 46.2171 34.4302 46.4416 33.6923C46.666 32.9497 46.9775 32.3047 47.3898 31.7524C47.7975 31.2002 48.2831 30.7639 48.842 30.4437C49.4008 30.1235 50.0193 29.9657 50.6927 29.9657C51.3523 29.9657 51.9662 30.1281 52.5342 30.4576C53.1022 30.7871 53.5924 31.2234 54.0093 31.7756C54.4261 32.3279 54.7468 32.9776 54.9804 33.7294C55.2095 34.4766 55.324 35.2748 55.324 36.1194V36.1612C55.324 37.0058 55.2095 37.7994 54.9804 38.5373C54.7514 39.2798 54.4307 39.9249 54.023 40.4771C53.6061 41.0294 53.1206 41.4656 52.5617 41.7858ZM56.9915 15.1708C55.3011 17.0457 53.2076 18.6839 50.8164 20.0112C49.1122 14.5211 46.5561 10.0845 43.441 7.24899C48.6496 8.63194 53.3084 11.4071 56.9915 15.1708ZM37.385 7.04479C41.9018 8.30709 45.8415 13.7786 48.1228 21.3153C44.8932 22.675 41.2559 23.5243 37.385 23.6913V7.04479ZM48.8786 24.1508C49.0573 24.9165 49.4146 27.3344 49.5703 28.411C48.6129 28.4575 47.7196 28.6524 46.9134 29.0143C45.988 29.4274 45.1955 29.9936 44.5359 30.7036C43.8762 31.4183 43.3632 32.2397 42.9967 33.1679C42.6302 34.1007 42.447 35.0799 42.447 36.1148V36.1565C42.447 37.1914 42.6256 38.1707 42.9875 39.1035C43.3448 40.0363 43.8579 40.8484 44.5176 41.5445C45.1772 42.2406 45.9651 42.7975 46.8859 43.2152C47.7242 43.5911 48.6496 43.7907 49.6528 43.8231L49.4741 45.0344C49.2863 46.1389 49.071 47.2202 48.8236 48.2644C45.3513 46.8536 41.485 45.9811 37.385 45.8141V45.0298V43.8278H41.004V42.301H31.9154V37.094H39.9687V35.544H31.9154V30.4623H40.894V28.9355H37.3942L37.385 26.6197C41.5033 26.4573 45.3925 25.5802 48.8786 24.1508ZM34.4945 6.81739V23.6913C30.225 23.5057 26.2396 22.494 22.7673 20.8744C25.2685 12.9572 29.6066 7.4207 34.4945 6.81739ZM26.8031 7.73627C24.027 10.4743 21.7228 14.5258 20.1241 19.4543C18.1222 18.2338 16.354 16.7905 14.8881 15.1662C18.1817 11.8063 22.2542 9.23525 26.8031 7.73627ZM12.9595 17.3381C14.7323 19.2547 16.8762 20.944 19.2949 22.3362C18.901 23.8955 18.5803 25.5245 18.3238 27.2091L18.1543 28.7173C17.6778 28.7637 17.2289 28.8426 16.8029 28.9679C16.1432 29.1629 15.5706 29.4413 15.0896 29.7986C14.6086 30.156 14.2376 30.5829 13.9719 31.0841C13.7062 31.5854 13.5733 32.1515 13.5733 32.7734V32.8152C13.5733 33.6273 13.7932 34.3095 14.2284 34.8664H8.68546H6.30796C6.61946 28.2347 9.0611 22.1645 12.9595 17.3381ZM12.8679 55.207C9.02445 50.3945 6.61946 44.3708 6.30338 37.7947C7.8609 37.7947 9.41841 37.7947 10.9759 37.7947C13.9215 37.7947 18.223 37.4235 20.8387 39.1267C22.1305 39.9666 22.3275 41.4981 20.486 42.0364C20.1607 42.1293 19.7851 42.1989 19.3545 42.2453C18.7498 42.287 18.1955 42.2638 17.687 42.1664C17.1785 42.0736 16.7158 41.9343 16.299 41.7533C15.8821 41.5724 15.5111 41.3635 15.1904 41.1315C14.8651 40.8994 14.5995 40.6813 14.3842 40.4771L13.3489 41.4378C13.5779 41.6698 13.9032 41.9158 14.32 42.1664C14.7369 42.4216 15.195 42.6629 15.6989 42.8857C16.2028 43.1131 16.7158 43.3034 17.2472 43.4658C17.5129 43.5447 17.7649 43.6097 18.0031 43.6561L18.3238 45.039C18.5895 46.784 18.933 48.4686 19.3453 50.0743C16.867 51.4944 14.6773 53.2254 12.8679 55.207ZM14.7827 57.3789C16.2852 55.6943 18.113 54.2 20.1882 52.9377C21.9381 58.2328 24.508 62.4884 27.5956 65.1708C22.6802 63.7136 18.2871 60.9941 14.7827 57.3789ZM34.4945 65.3565C29.6524 64.7578 25.3509 59.3234 22.8451 51.5269C26.2946 49.9258 30.2571 48.9327 34.4945 48.747V65.3565ZM34.4945 45.8187C29.9914 45.9997 25.7632 47.0253 22.0389 48.7006C21.7457 47.5219 21.4938 46.2967 21.283 45.039L21.0036 43.7628C21.141 43.7535 21.2739 43.7443 21.4159 43.7303C21.9519 43.6746 22.5062 43.5679 23.0742 43.4148C23.6422 43.2616 24.1599 43.0388 24.6225 42.7372C25.0898 42.4402 25.47 42.0504 25.7632 41.5677C26.0564 41.0897 26.203 40.5003 26.203 39.7996C26.203 39.2334 26.0839 38.7322 25.8457 38.296C25.6074 37.8597 25.3051 37.4838 24.9432 37.1636C24.5767 36.8434 24.1599 36.5742 23.6926 36.3561C23.2254 36.138 22.7673 35.957 22.3138 35.8085C21.8602 35.6646 21.4342 35.5532 21.0311 35.479C20.628 35.4047 20.3073 35.349 20.0599 35.3026L19.3041 35.1077C18.5711 34.9499 18.0123 34.7318 17.6229 34.4627C17.2335 34.1935 16.9403 33.929 16.7388 33.6691C16.5097 33.3767 16.3631 33.0658 16.3081 32.7316C16.2669 32.2675 16.331 31.8452 16.5005 31.4647C16.6563 31.1445 16.922 30.8428 17.2976 30.5597C17.6687 30.2766 18.2596 30.1049 19.0613 30.0492C19.8492 29.9889 20.5776 30.0539 21.2372 30.2349C21.8969 30.4159 22.4695 30.6293 22.9597 30.8799C23.5323 31.1723 24.0453 31.5111 24.4897 31.9056L25.415 30.9913C24.4668 30.207 23.4682 29.6223 22.4237 29.2464C21.9839 29.0886 21.5167 28.9679 21.0357 28.8751L21.2556 27.2137C21.4571 26.0164 21.6907 24.8469 21.9656 23.7192C25.7036 25.4084 29.9548 26.4387 34.4807 26.6243V28.9401H28.1453V43.8371H34.4899V45.039H34.4945V45.8187ZM37.385 65.1291V48.747C41.2285 48.9095 44.8428 49.7495 48.0541 51.0953C45.759 58.5113 41.8515 63.876 37.385 65.1291ZM42.6348 65.6117C46.0659 62.8783 48.8924 58.2421 50.7431 52.3947C53.2122 53.7545 55.3698 55.4437 57.0968 57.3836C53.2076 61.3932 48.219 64.2984 42.6348 65.6117ZM59.0117 55.207C56.9686 52.9748 54.4307 51.0489 51.5447 49.5313C51.8975 48.088 52.1952 46.5844 52.4334 45.0344L52.7266 43.3173C52.8182 43.2802 52.9144 43.2523 53.006 43.2106C53.9314 42.7975 54.7239 42.2314 55.3835 41.5213C56.0432 40.8066 56.5563 39.9852 56.9227 39.057C57.0877 38.644 57.2068 38.2171 57.2984 37.7808L65.5761 37.7901C65.2646 44.3661 62.8505 50.3945 59.0117 55.207Z" fill="#7C49BE"/>
<path d="M31.0954 89.4376L23.3857 97.1553C24.7416 100.873 26.1068 104.604 28.0674 108.047C32.0253 114.985 34.5036 107.806 33.8073 102.919C33.4042 100.116 32.1444 97.7957 31.3153 95.7073L31.0954 89.4376Z" fill="#EEA35A"/>
<path d="M23.3857 97.1506L21.4205 109.672C22.584 111.505 23.7751 113.328 25.0073 115.115C26.6794 117.538 28.3789 120.485 30.6282 122.392C33.8394 125.121 33.1981 117.863 32.9644 116.674C32.6438 115.041 32.2773 113.347 31.6405 111.82C31.0817 110.484 29.8173 109.783 29.1439 108.511C27.5956 105.606 26.1572 102.636 24.6729 99.6938C24.2469 98.8445 23.8163 97.9999 23.3857 97.1506Z" fill="#EEA35A"/>
<path d="M21.4205 109.672L20.7058 122.025C20.7058 122.025 29.7624 133.697 31.3199 131.92C32.7308 130.305 33.1156 127.984 32.4651 125.938C31.2099 121.984 28.6904 118.925 26.1159 115.691C24.5401 113.714 22.9322 111.653 21.4205 109.672Z" fill="#EEA35A"/>
<path d="M20.7058 122.025L23.1887 132.402C23.1887 132.402 31.1183 139.34 32.0345 137.178C32.914 135.112 31.8879 132.746 30.2754 131.46C28.782 130.267 27.6002 128.982 26.2167 127.608C24.366 125.766 22.5336 123.9 20.7058 122.025Z" fill="#EEA35A"/>
<path d="M69.2638 138.031C67.523 130.272 62.5298 105.532 61.0181 101.295C58.9933 95.6238 53.6336 95.1829 49.9826 91.2197C46.6339 87.586 45.2276 79.7523 45.6949 74.9212C46.5011 66.5678 36.3635 66.5678 33.3034 74.9212C30.2433 83.2747 35.5572 92.0922 40.0603 96.422C40.0603 96.422 37.3255 115.138 40.8665 121.482C44.4076 127.826 44.4076 127.826 44.4076 127.826L43.6014 142.524C43.6014 142.524 41.8331 144.227 38.6127 145.155C35.3923 146.083 37.9668 145.155 37.9668 145.155L45.6903 156.098L71.1145 141.285L69.2638 138.031Z" fill="#F9B786"/>
<path d="M23.6193 97.559C23.6193 97.559 28.695 109.054 29.2951 109.249C29.8952 109.444 35.0946 104.627 31.6497 98.4733C28.2048 92.3196 28.2048 92.3196 28.2048 92.3196L23.6193 97.559Z" fill="#F9B786"/>
<path d="M23.2437 102.915C23.2116 103.379 21.3105 109.681 21.425 109.672C21.5396 109.662 29.1256 121.798 30.0326 120.229C30.9397 118.661 31.1824 113.18 27.481 108.358C23.7751 103.532 23.2437 102.915 23.2437 102.915Z" fill="#F9B786"/>
<path d="M21.6449 114.809C21.677 115.273 20.6509 121.784 20.7654 121.756C20.8799 121.728 30.0464 132.685 30.7289 131.01C31.4115 129.33 30.9076 123.868 26.5832 119.607C22.2588 115.343 21.6449 114.809 21.6449 114.809Z" fill="#F9B786"/>
<path d="M22.7398 127.566C22.836 127.873 23.1108 132.439 23.1887 132.402C23.262 132.365 31.3245 138.254 31.5443 137.006C31.7642 135.757 30.5778 132.156 26.913 129.989C23.2483 127.826 22.7398 127.566 22.7398 127.566Z" fill="#F9B786"/>
<path d="M41.1368 71.1482C40.7108 70.9347 40.1702 70.893 39.4694 71.1064C36.8903 71.9047 36.5192 76.8889 38.2004 78.6245C40.7474 81.2466 43.583 79.0979 42.9738 76.1696C42.6714 74.6984 42.6027 71.8907 41.1368 71.1482Z" fill="#FCE2CA"/>
<path d="M29.8082 101.726C30.0143 101.754 30.1288 101.996 30.4037 102.585C31.0771 104.033 31.2512 106.265 29.8998 107.374C28.6125 108.428 28.6996 106.511 28.4156 105.55C28.1499 104.673 27.8888 103.796 27.6231 102.919C27.6047 102.854 28.8599 102.093 28.9653 102.042C29.405 101.833 29.6387 101.703 29.8082 101.726Z" fill="#FCE2CA"/>
<path d="M27.1512 115.695L29.2355 113.324C29.2355 113.324 30.7793 118.113 29.1439 118.897L27.1512 115.695Z" fill="#FCE2CA"/>
<path d="M26.7985 126.852C26.8122 126.675 28.301 124.819 28.301 124.819C28.301 124.819 30.4129 126.689 30.2388 130.04L29.9593 130.332L26.7985 126.852Z" fill="#FCE2CA"/>
<path d="M28.2232 134.802L28.8828 133.233C28.8828 133.233 30.619 133.697 30.9855 136.542L28.2232 134.802Z" fill="#FCE2CA"/>
<path d="M42.3416 154.348L49 166L83.5 147L68.682 137.177L42.3416 154.348Z" fill="#7C49BE"/>
<path d="M42.3416 154.348L47.5822 167.5L54 162.5L47.5822 150.933L42.3416 154.348Z" fill="#573193"/>
</svg>
